G04 #@! TF.GenerationSoftware,KiCad,Pcbnew,5.1.5+dfsg1-2build2*
G04 #@! TF.CreationDate,2022-05-26T11:06:16-04:00*
G04 #@! TF.ProjectId,feather_valve_driver,66656174-6865-4725-9f76-616c76655f64,rev?*
G04 #@! TF.SameCoordinates,Original*
G04 #@! TF.FileFunction,Soldermask,Bot*
G04 #@! TF.FilePolarity,Negative*
%FSLAX46Y46*%
G04 Gerber Fmt 4.6, Leading zero omitted, Abs format (unit mm)*
G04 Created by KiCad (PCBNEW 5.1.5+dfsg1-2build2) date 2022-05-26 11:06:16*
%MOMM*%
%LPD*%
G04 APERTURE LIST*
%ADD10C,0.100000*%
G04 APERTURE END LIST*
D10*
G36*
X156839256Y-114215298D02*
G01*
X156945579Y-114236447D01*
X157246042Y-114360903D01*
X157516451Y-114541585D01*
X157746415Y-114771549D01*
X157746416Y-114771551D01*
X157927098Y-115041960D01*
X158051553Y-115342422D01*
X158109184Y-115632148D01*
X158115000Y-115661391D01*
X158115000Y-115986609D01*
X158051553Y-116305579D01*
X157927097Y-116606042D01*
X157746415Y-116876451D01*
X157516451Y-117106415D01*
X157246042Y-117287097D01*
X156945579Y-117411553D01*
X156839256Y-117432702D01*
X156626611Y-117475000D01*
X156301389Y-117475000D01*
X156088744Y-117432702D01*
X155982421Y-117411553D01*
X155681958Y-117287097D01*
X155411549Y-117106415D01*
X155181585Y-116876451D01*
X155000903Y-116606042D01*
X154876447Y-116305579D01*
X154813000Y-115986609D01*
X154813000Y-115661391D01*
X154818817Y-115632148D01*
X154876447Y-115342422D01*
X155000902Y-115041960D01*
X155181584Y-114771551D01*
X155181585Y-114771549D01*
X155411549Y-114541585D01*
X155681958Y-114360903D01*
X155982421Y-114236447D01*
X156088744Y-114215298D01*
X156301389Y-114173000D01*
X156626611Y-114173000D01*
X156839256Y-114215298D01*
G37*
G36*
X36951256Y-114215298D02*
G01*
X37057579Y-114236447D01*
X37358042Y-114360903D01*
X37628451Y-114541585D01*
X37858415Y-114771549D01*
X37858416Y-114771551D01*
X38039098Y-115041960D01*
X38163553Y-115342422D01*
X38221184Y-115632148D01*
X38227000Y-115661391D01*
X38227000Y-115986609D01*
X38163553Y-116305579D01*
X38039097Y-116606042D01*
X37858415Y-116876451D01*
X37628451Y-117106415D01*
X37358042Y-117287097D01*
X37057579Y-117411553D01*
X36951256Y-117432702D01*
X36738611Y-117475000D01*
X36413389Y-117475000D01*
X36200744Y-117432702D01*
X36094421Y-117411553D01*
X35793958Y-117287097D01*
X35523549Y-117106415D01*
X35293585Y-116876451D01*
X35112903Y-116606042D01*
X34988447Y-116305579D01*
X34925000Y-115986609D01*
X34925000Y-115661391D01*
X34930817Y-115632148D01*
X34988447Y-115342422D01*
X35112902Y-115041960D01*
X35293584Y-114771551D01*
X35293585Y-114771549D01*
X35523549Y-114541585D01*
X35793958Y-114360903D01*
X36094421Y-114236447D01*
X36200744Y-114215298D01*
X36413389Y-114173000D01*
X36738611Y-114173000D01*
X36951256Y-114215298D01*
G37*
G36*
X49389512Y-115435927D02*
G01*
X49538812Y-115465624D01*
X49702784Y-115533544D01*
X49850354Y-115632147D01*
X49975853Y-115757646D01*
X50074456Y-115905216D01*
X50142376Y-116069188D01*
X50177000Y-116243259D01*
X50177000Y-116420741D01*
X50142376Y-116594812D01*
X50074456Y-116758784D01*
X49975853Y-116906354D01*
X49850354Y-117031853D01*
X49702784Y-117130456D01*
X49538812Y-117198376D01*
X49389512Y-117228073D01*
X49364742Y-117233000D01*
X49187258Y-117233000D01*
X49162488Y-117228073D01*
X49013188Y-117198376D01*
X48849216Y-117130456D01*
X48701646Y-117031853D01*
X48576147Y-116906354D01*
X48477544Y-116758784D01*
X48409624Y-116594812D01*
X48375000Y-116420741D01*
X48375000Y-116243259D01*
X48409624Y-116069188D01*
X48477544Y-115905216D01*
X48576147Y-115757646D01*
X48701646Y-115632147D01*
X48849216Y-115533544D01*
X49013188Y-115465624D01*
X49162488Y-115435927D01*
X49187258Y-115431000D01*
X49364742Y-115431000D01*
X49389512Y-115435927D01*
G37*
G36*
X51929512Y-115435927D02*
G01*
X52078812Y-115465624D01*
X52242784Y-115533544D01*
X52390354Y-115632147D01*
X52515853Y-115757646D01*
X52614456Y-115905216D01*
X52682376Y-116069188D01*
X52717000Y-116243259D01*
X52717000Y-116420741D01*
X52682376Y-116594812D01*
X52614456Y-116758784D01*
X52515853Y-116906354D01*
X52390354Y-117031853D01*
X52242784Y-117130456D01*
X52078812Y-117198376D01*
X51929512Y-117228073D01*
X51904742Y-117233000D01*
X51727258Y-117233000D01*
X51702488Y-117228073D01*
X51553188Y-117198376D01*
X51389216Y-117130456D01*
X51241646Y-117031853D01*
X51116147Y-116906354D01*
X51017544Y-116758784D01*
X50949624Y-116594812D01*
X50915000Y-116420741D01*
X50915000Y-116243259D01*
X50949624Y-116069188D01*
X51017544Y-115905216D01*
X51116147Y-115757646D01*
X51241646Y-115632147D01*
X51389216Y-115533544D01*
X51553188Y-115465624D01*
X51702488Y-115435927D01*
X51727258Y-115431000D01*
X51904742Y-115431000D01*
X51929512Y-115435927D01*
G37*
G36*
X55257000Y-117233000D02*
G01*
X53455000Y-117233000D01*
X53455000Y-115431000D01*
X55257000Y-115431000D01*
X55257000Y-117233000D01*
G37*
G36*
X46849512Y-115435927D02*
G01*
X46998812Y-115465624D01*
X47162784Y-115533544D01*
X47310354Y-115632147D01*
X47435853Y-115757646D01*
X47534456Y-115905216D01*
X47602376Y-116069188D01*
X47637000Y-116243259D01*
X47637000Y-116420741D01*
X47602376Y-116594812D01*
X47534456Y-116758784D01*
X47435853Y-116906354D01*
X47310354Y-117031853D01*
X47162784Y-117130456D01*
X46998812Y-117198376D01*
X46849512Y-117228073D01*
X46824742Y-117233000D01*
X46647258Y-117233000D01*
X46622488Y-117228073D01*
X46473188Y-117198376D01*
X46309216Y-117130456D01*
X46161646Y-117031853D01*
X46036147Y-116906354D01*
X45937544Y-116758784D01*
X45869624Y-116594812D01*
X45835000Y-116420741D01*
X45835000Y-116243259D01*
X45869624Y-116069188D01*
X45937544Y-115905216D01*
X46036147Y-115757646D01*
X46161646Y-115632147D01*
X46309216Y-115533544D01*
X46473188Y-115465624D01*
X46622488Y-115435927D01*
X46647258Y-115431000D01*
X46824742Y-115431000D01*
X46849512Y-115435927D01*
G37*
G36*
X84214072Y-111476918D02*
G01*
X84459939Y-111578759D01*
X84681212Y-111726610D01*
X84869390Y-111914788D01*
X85017241Y-112136061D01*
X85119082Y-112381928D01*
X85171000Y-112642938D01*
X85171000Y-112909062D01*
X85119082Y-113170072D01*
X85017241Y-113415939D01*
X84869390Y-113637212D01*
X84681212Y-113825390D01*
X84459939Y-113973241D01*
X84459938Y-113973242D01*
X84459937Y-113973242D01*
X84214072Y-114075082D01*
X83953063Y-114127000D01*
X83686937Y-114127000D01*
X83425928Y-114075082D01*
X83180063Y-113973242D01*
X83180062Y-113973242D01*
X83180061Y-113973241D01*
X82958788Y-113825390D01*
X82770610Y-113637212D01*
X82622759Y-113415939D01*
X82520918Y-113170072D01*
X82469000Y-112909062D01*
X82469000Y-112642938D01*
X82520918Y-112381928D01*
X82622759Y-112136061D01*
X82770610Y-111914788D01*
X82958788Y-111726610D01*
X83180061Y-111578759D01*
X83425928Y-111476918D01*
X83686937Y-111425000D01*
X83953063Y-111425000D01*
X84214072Y-111476918D01*
G37*
G36*
X79134072Y-111476918D02*
G01*
X79379939Y-111578759D01*
X79601212Y-111726610D01*
X79789390Y-111914788D01*
X79937241Y-112136061D01*
X80039082Y-112381928D01*
X80091000Y-112642938D01*
X80091000Y-112909062D01*
X80039082Y-113170072D01*
X79937241Y-113415939D01*
X79789390Y-113637212D01*
X79601212Y-113825390D01*
X79379939Y-113973241D01*
X79379938Y-113973242D01*
X79379937Y-113973242D01*
X79134072Y-114075082D01*
X78873063Y-114127000D01*
X78606937Y-114127000D01*
X78345928Y-114075082D01*
X78100063Y-113973242D01*
X78100062Y-113973242D01*
X78100061Y-113973241D01*
X77878788Y-113825390D01*
X77690610Y-113637212D01*
X77542759Y-113415939D01*
X77440918Y-113170072D01*
X77389000Y-112909062D01*
X77389000Y-112642938D01*
X77440918Y-112381928D01*
X77542759Y-112136061D01*
X77690610Y-111914788D01*
X77878788Y-111726610D01*
X78100061Y-111578759D01*
X78345928Y-111476918D01*
X78606937Y-111425000D01*
X78873063Y-111425000D01*
X79134072Y-111476918D01*
G37*
G36*
X74054072Y-111476918D02*
G01*
X74299939Y-111578759D01*
X74521212Y-111726610D01*
X74709390Y-111914788D01*
X74857241Y-112136061D01*
X74959082Y-112381928D01*
X75011000Y-112642938D01*
X75011000Y-112909062D01*
X74959082Y-113170072D01*
X74857241Y-113415939D01*
X74709390Y-113637212D01*
X74521212Y-113825390D01*
X74299939Y-113973241D01*
X74299938Y-113973242D01*
X74299937Y-113973242D01*
X74054072Y-114075082D01*
X73793063Y-114127000D01*
X73526937Y-114127000D01*
X73265928Y-114075082D01*
X73020063Y-113973242D01*
X73020062Y-113973242D01*
X73020061Y-113973241D01*
X72798788Y-113825390D01*
X72610610Y-113637212D01*
X72462759Y-113415939D01*
X72360918Y-113170072D01*
X72309000Y-112909062D01*
X72309000Y-112642938D01*
X72360918Y-112381928D01*
X72462759Y-112136061D01*
X72610610Y-111914788D01*
X72798788Y-111726610D01*
X73020061Y-111578759D01*
X73265928Y-111476918D01*
X73526937Y-111425000D01*
X73793063Y-111425000D01*
X74054072Y-111476918D01*
G37*
G36*
X89294072Y-111476918D02*
G01*
X89539939Y-111578759D01*
X89761212Y-111726610D01*
X89949390Y-111914788D01*
X90097241Y-112136061D01*
X90199082Y-112381928D01*
X90251000Y-112642938D01*
X90251000Y-112909062D01*
X90199082Y-113170072D01*
X90097241Y-113415939D01*
X89949390Y-113637212D01*
X89761212Y-113825390D01*
X89539939Y-113973241D01*
X89539938Y-113973242D01*
X89539937Y-113973242D01*
X89294072Y-114075082D01*
X89033063Y-114127000D01*
X88766937Y-114127000D01*
X88505928Y-114075082D01*
X88260063Y-113973242D01*
X88260062Y-113973242D01*
X88260061Y-113973241D01*
X88038788Y-113825390D01*
X87850610Y-113637212D01*
X87702759Y-113415939D01*
X87600918Y-113170072D01*
X87549000Y-112909062D01*
X87549000Y-112642938D01*
X87600918Y-112381928D01*
X87702759Y-112136061D01*
X87850610Y-111914788D01*
X88038788Y-111726610D01*
X88260061Y-111578759D01*
X88505928Y-111476918D01*
X88766937Y-111425000D01*
X89033063Y-111425000D01*
X89294072Y-111476918D01*
G37*
G36*
X94374072Y-111476918D02*
G01*
X94619939Y-111578759D01*
X94841212Y-111726610D01*
X95029390Y-111914788D01*
X95177241Y-112136061D01*
X95279082Y-112381928D01*
X95331000Y-112642938D01*
X95331000Y-112909062D01*
X95279082Y-113170072D01*
X95177241Y-113415939D01*
X95029390Y-113637212D01*
X94841212Y-113825390D01*
X94619939Y-113973241D01*
X94619938Y-113973242D01*
X94619937Y-113973242D01*
X94374072Y-114075082D01*
X94113063Y-114127000D01*
X93846937Y-114127000D01*
X93585928Y-114075082D01*
X93340063Y-113973242D01*
X93340062Y-113973242D01*
X93340061Y-113973241D01*
X93118788Y-113825390D01*
X92930610Y-113637212D01*
X92782759Y-113415939D01*
X92680918Y-113170072D01*
X92629000Y-112909062D01*
X92629000Y-112642938D01*
X92680918Y-112381928D01*
X92782759Y-112136061D01*
X92930610Y-111914788D01*
X93118788Y-111726610D01*
X93340061Y-111578759D01*
X93585928Y-111476918D01*
X93846937Y-111425000D01*
X94113063Y-111425000D01*
X94374072Y-111476918D01*
G37*
G36*
X99454072Y-111476918D02*
G01*
X99699939Y-111578759D01*
X99921212Y-111726610D01*
X100109390Y-111914788D01*
X100257241Y-112136061D01*
X100359082Y-112381928D01*
X100411000Y-112642938D01*
X100411000Y-112909062D01*
X100359082Y-113170072D01*
X100257241Y-113415939D01*
X100109390Y-113637212D01*
X99921212Y-113825390D01*
X99699939Y-113973241D01*
X99699938Y-113973242D01*
X99699937Y-113973242D01*
X99454072Y-114075082D01*
X99193063Y-114127000D01*
X98926937Y-114127000D01*
X98665928Y-114075082D01*
X98420063Y-113973242D01*
X98420062Y-113973242D01*
X98420061Y-113973241D01*
X98198788Y-113825390D01*
X98010610Y-113637212D01*
X97862759Y-113415939D01*
X97760918Y-113170072D01*
X97709000Y-112909062D01*
X97709000Y-112642938D01*
X97760918Y-112381928D01*
X97862759Y-112136061D01*
X98010610Y-111914788D01*
X98198788Y-111726610D01*
X98420061Y-111578759D01*
X98665928Y-111476918D01*
X98926937Y-111425000D01*
X99193063Y-111425000D01*
X99454072Y-111476918D01*
G37*
G36*
X104534072Y-111476918D02*
G01*
X104779939Y-111578759D01*
X105001212Y-111726610D01*
X105189390Y-111914788D01*
X105337241Y-112136061D01*
X105439082Y-112381928D01*
X105491000Y-112642938D01*
X105491000Y-112909062D01*
X105439082Y-113170072D01*
X105337241Y-113415939D01*
X105189390Y-113637212D01*
X105001212Y-113825390D01*
X104779939Y-113973241D01*
X104779938Y-113973242D01*
X104779937Y-113973242D01*
X104534072Y-114075082D01*
X104273063Y-114127000D01*
X104006937Y-114127000D01*
X103745928Y-114075082D01*
X103500063Y-113973242D01*
X103500062Y-113973242D01*
X103500061Y-113973241D01*
X103278788Y-113825390D01*
X103090610Y-113637212D01*
X102942759Y-113415939D01*
X102840918Y-113170072D01*
X102789000Y-112909062D01*
X102789000Y-112642938D01*
X102840918Y-112381928D01*
X102942759Y-112136061D01*
X103090610Y-111914788D01*
X103278788Y-111726610D01*
X103500061Y-111578759D01*
X103745928Y-111476918D01*
X104006937Y-111425000D01*
X104273063Y-111425000D01*
X104534072Y-111476918D01*
G37*
G36*
X109614072Y-111476918D02*
G01*
X109859939Y-111578759D01*
X110081212Y-111726610D01*
X110269390Y-111914788D01*
X110417241Y-112136061D01*
X110519082Y-112381928D01*
X110571000Y-112642938D01*
X110571000Y-112909062D01*
X110519082Y-113170072D01*
X110417241Y-113415939D01*
X110269390Y-113637212D01*
X110081212Y-113825390D01*
X109859939Y-113973241D01*
X109859938Y-113973242D01*
X109859937Y-113973242D01*
X109614072Y-114075082D01*
X109353063Y-114127000D01*
X109086937Y-114127000D01*
X108825928Y-114075082D01*
X108580063Y-113973242D01*
X108580062Y-113973242D01*
X108580061Y-113973241D01*
X108358788Y-113825390D01*
X108170610Y-113637212D01*
X108022759Y-113415939D01*
X107920918Y-113170072D01*
X107869000Y-112909062D01*
X107869000Y-112642938D01*
X107920918Y-112381928D01*
X108022759Y-112136061D01*
X108170610Y-111914788D01*
X108358788Y-111726610D01*
X108580061Y-111578759D01*
X108825928Y-111476918D01*
X109086937Y-111425000D01*
X109353063Y-111425000D01*
X109614072Y-111476918D01*
G37*
G36*
X135014072Y-111476918D02*
G01*
X135259939Y-111578759D01*
X135481212Y-111726610D01*
X135669390Y-111914788D01*
X135817241Y-112136061D01*
X135919082Y-112381928D01*
X135971000Y-112642938D01*
X135971000Y-112909062D01*
X135919082Y-113170072D01*
X135817241Y-113415939D01*
X135669390Y-113637212D01*
X135481212Y-113825390D01*
X135259939Y-113973241D01*
X135259938Y-113973242D01*
X135259937Y-113973242D01*
X135014072Y-114075082D01*
X134753063Y-114127000D01*
X134486937Y-114127000D01*
X134225928Y-114075082D01*
X133980063Y-113973242D01*
X133980062Y-113973242D01*
X133980061Y-113973241D01*
X133758788Y-113825390D01*
X133570610Y-113637212D01*
X133422759Y-113415939D01*
X133320918Y-113170072D01*
X133269000Y-112909062D01*
X133269000Y-112642938D01*
X133320918Y-112381928D01*
X133422759Y-112136061D01*
X133570610Y-111914788D01*
X133758788Y-111726610D01*
X133980061Y-111578759D01*
X134225928Y-111476918D01*
X134486937Y-111425000D01*
X134753063Y-111425000D01*
X135014072Y-111476918D01*
G37*
G36*
X140094072Y-111476918D02*
G01*
X140339939Y-111578759D01*
X140561212Y-111726610D01*
X140749390Y-111914788D01*
X140897241Y-112136061D01*
X140999082Y-112381928D01*
X141051000Y-112642938D01*
X141051000Y-112909062D01*
X140999082Y-113170072D01*
X140897241Y-113415939D01*
X140749390Y-113637212D01*
X140561212Y-113825390D01*
X140339939Y-113973241D01*
X140339938Y-113973242D01*
X140339937Y-113973242D01*
X140094072Y-114075082D01*
X139833063Y-114127000D01*
X139566937Y-114127000D01*
X139305928Y-114075082D01*
X139060063Y-113973242D01*
X139060062Y-113973242D01*
X139060061Y-113973241D01*
X138838788Y-113825390D01*
X138650610Y-113637212D01*
X138502759Y-113415939D01*
X138400918Y-113170072D01*
X138349000Y-112909062D01*
X138349000Y-112642938D01*
X138400918Y-112381928D01*
X138502759Y-112136061D01*
X138650610Y-111914788D01*
X138838788Y-111726610D01*
X139060061Y-111578759D01*
X139305928Y-111476918D01*
X139566937Y-111425000D01*
X139833063Y-111425000D01*
X140094072Y-111476918D01*
G37*
G36*
X145174072Y-111476918D02*
G01*
X145419939Y-111578759D01*
X145641212Y-111726610D01*
X145829390Y-111914788D01*
X145977241Y-112136061D01*
X146079082Y-112381928D01*
X146131000Y-112642938D01*
X146131000Y-112909062D01*
X146079082Y-113170072D01*
X145977241Y-113415939D01*
X145829390Y-113637212D01*
X145641212Y-113825390D01*
X145419939Y-113973241D01*
X145419938Y-113973242D01*
X145419937Y-113973242D01*
X145174072Y-114075082D01*
X144913063Y-114127000D01*
X144646937Y-114127000D01*
X144385928Y-114075082D01*
X144140063Y-113973242D01*
X144140062Y-113973242D01*
X144140061Y-113973241D01*
X143918788Y-113825390D01*
X143730610Y-113637212D01*
X143582759Y-113415939D01*
X143480918Y-113170072D01*
X143429000Y-112909062D01*
X143429000Y-112642938D01*
X143480918Y-112381928D01*
X143582759Y-112136061D01*
X143730610Y-111914788D01*
X143918788Y-111726610D01*
X144140061Y-111578759D01*
X144385928Y-111476918D01*
X144646937Y-111425000D01*
X144913063Y-111425000D01*
X145174072Y-111476918D01*
G37*
G36*
X151211000Y-114127000D02*
G01*
X148509000Y-114127000D01*
X148509000Y-111425000D01*
X151211000Y-111425000D01*
X151211000Y-114127000D01*
G37*
G36*
X114694072Y-111476918D02*
G01*
X114939939Y-111578759D01*
X115161212Y-111726610D01*
X115349390Y-111914788D01*
X115497241Y-112136061D01*
X115599082Y-112381928D01*
X115651000Y-112642938D01*
X115651000Y-112909062D01*
X115599082Y-113170072D01*
X115497241Y-113415939D01*
X115349390Y-113637212D01*
X115161212Y-113825390D01*
X114939939Y-113973241D01*
X114939938Y-113973242D01*
X114939937Y-113973242D01*
X114694072Y-114075082D01*
X114433063Y-114127000D01*
X114166937Y-114127000D01*
X113905928Y-114075082D01*
X113660063Y-113973242D01*
X113660062Y-113973242D01*
X113660061Y-113973241D01*
X113438788Y-113825390D01*
X113250610Y-113637212D01*
X113102759Y-113415939D01*
X113000918Y-113170072D01*
X112949000Y-112909062D01*
X112949000Y-112642938D01*
X113000918Y-112381928D01*
X113102759Y-112136061D01*
X113250610Y-111914788D01*
X113438788Y-111726610D01*
X113660061Y-111578759D01*
X113905928Y-111476918D01*
X114166937Y-111425000D01*
X114433063Y-111425000D01*
X114694072Y-111476918D01*
G37*
G36*
X119774072Y-111476918D02*
G01*
X120019939Y-111578759D01*
X120241212Y-111726610D01*
X120429390Y-111914788D01*
X120577241Y-112136061D01*
X120679082Y-112381928D01*
X120731000Y-112642938D01*
X120731000Y-112909062D01*
X120679082Y-113170072D01*
X120577241Y-113415939D01*
X120429390Y-113637212D01*
X120241212Y-113825390D01*
X120019939Y-113973241D01*
X120019938Y-113973242D01*
X120019937Y-113973242D01*
X119774072Y-114075082D01*
X119513063Y-114127000D01*
X119246937Y-114127000D01*
X118985928Y-114075082D01*
X118740063Y-113973242D01*
X118740062Y-113973242D01*
X118740061Y-113973241D01*
X118518788Y-113825390D01*
X118330610Y-113637212D01*
X118182759Y-113415939D01*
X118080918Y-113170072D01*
X118029000Y-112909062D01*
X118029000Y-112642938D01*
X118080918Y-112381928D01*
X118182759Y-112136061D01*
X118330610Y-111914788D01*
X118518788Y-111726610D01*
X118740061Y-111578759D01*
X118985928Y-111476918D01*
X119246937Y-111425000D01*
X119513063Y-111425000D01*
X119774072Y-111476918D01*
G37*
G36*
X124854072Y-111476918D02*
G01*
X125099939Y-111578759D01*
X125321212Y-111726610D01*
X125509390Y-111914788D01*
X125657241Y-112136061D01*
X125759082Y-112381928D01*
X125811000Y-112642938D01*
X125811000Y-112909062D01*
X125759082Y-113170072D01*
X125657241Y-113415939D01*
X125509390Y-113637212D01*
X125321212Y-113825390D01*
X125099939Y-113973241D01*
X125099938Y-113973242D01*
X125099937Y-113973242D01*
X124854072Y-114075082D01*
X124593063Y-114127000D01*
X124326937Y-114127000D01*
X124065928Y-114075082D01*
X123820063Y-113973242D01*
X123820062Y-113973242D01*
X123820061Y-113973241D01*
X123598788Y-113825390D01*
X123410610Y-113637212D01*
X123262759Y-113415939D01*
X123160918Y-113170072D01*
X123109000Y-112909062D01*
X123109000Y-112642938D01*
X123160918Y-112381928D01*
X123262759Y-112136061D01*
X123410610Y-111914788D01*
X123598788Y-111726610D01*
X123820061Y-111578759D01*
X124065928Y-111476918D01*
X124326937Y-111425000D01*
X124593063Y-111425000D01*
X124854072Y-111476918D01*
G37*
G36*
X129934072Y-111476918D02*
G01*
X130179939Y-111578759D01*
X130401212Y-111726610D01*
X130589390Y-111914788D01*
X130737241Y-112136061D01*
X130839082Y-112381928D01*
X130891000Y-112642938D01*
X130891000Y-112909062D01*
X130839082Y-113170072D01*
X130737241Y-113415939D01*
X130589390Y-113637212D01*
X130401212Y-113825390D01*
X130179939Y-113973241D01*
X130179938Y-113973242D01*
X130179937Y-113973242D01*
X129934072Y-114075082D01*
X129673063Y-114127000D01*
X129406937Y-114127000D01*
X129145928Y-114075082D01*
X128900063Y-113973242D01*
X128900062Y-113973242D01*
X128900061Y-113973241D01*
X128678788Y-113825390D01*
X128490610Y-113637212D01*
X128342759Y-113415939D01*
X128240918Y-113170072D01*
X128189000Y-112909062D01*
X128189000Y-112642938D01*
X128240918Y-112381928D01*
X128342759Y-112136061D01*
X128490610Y-111914788D01*
X128678788Y-111726610D01*
X128900061Y-111578759D01*
X129145928Y-111476918D01*
X129406937Y-111425000D01*
X129673063Y-111425000D01*
X129934072Y-111476918D01*
G37*
G36*
X157791000Y-98895000D02*
G01*
X156089000Y-98895000D01*
X156089000Y-97193000D01*
X157791000Y-97193000D01*
X157791000Y-98895000D01*
G37*
G36*
X155188228Y-97225703D02*
G01*
X155343100Y-97289853D01*
X155482481Y-97382985D01*
X155601015Y-97501519D01*
X155694147Y-97640900D01*
X155758297Y-97795772D01*
X155791000Y-97960184D01*
X155791000Y-98127816D01*
X155758297Y-98292228D01*
X155694147Y-98447100D01*
X155601015Y-98586481D01*
X155482481Y-98705015D01*
X155343100Y-98798147D01*
X155188228Y-98862297D01*
X155023816Y-98895000D01*
X154856184Y-98895000D01*
X154691772Y-98862297D01*
X154536900Y-98798147D01*
X154397519Y-98705015D01*
X154278985Y-98586481D01*
X154185853Y-98447100D01*
X154121703Y-98292228D01*
X154089000Y-98127816D01*
X154089000Y-97960184D01*
X154121703Y-97795772D01*
X154185853Y-97640900D01*
X154278985Y-97501519D01*
X154397519Y-97382985D01*
X154536900Y-97289853D01*
X154691772Y-97225703D01*
X154856184Y-97193000D01*
X155023816Y-97193000D01*
X155188228Y-97225703D01*
G37*
G36*
X43293512Y-95115927D02*
G01*
X43442812Y-95145624D01*
X43606784Y-95213544D01*
X43754354Y-95312147D01*
X43879853Y-95437646D01*
X43978456Y-95585216D01*
X44046376Y-95749188D01*
X44081000Y-95923259D01*
X44081000Y-96100741D01*
X44046376Y-96274812D01*
X43978456Y-96438784D01*
X43879853Y-96586354D01*
X43754354Y-96711853D01*
X43606784Y-96810456D01*
X43442812Y-96878376D01*
X43293512Y-96908073D01*
X43268742Y-96913000D01*
X43091258Y-96913000D01*
X43066488Y-96908073D01*
X42917188Y-96878376D01*
X42753216Y-96810456D01*
X42605646Y-96711853D01*
X42480147Y-96586354D01*
X42381544Y-96438784D01*
X42313624Y-96274812D01*
X42279000Y-96100741D01*
X42279000Y-95923259D01*
X42313624Y-95749188D01*
X42381544Y-95585216D01*
X42480147Y-95437646D01*
X42605646Y-95312147D01*
X42753216Y-95213544D01*
X42917188Y-95145624D01*
X43066488Y-95115927D01*
X43091258Y-95111000D01*
X43268742Y-95111000D01*
X43293512Y-95115927D01*
G37*
G36*
X63613512Y-95115927D02*
G01*
X63762812Y-95145624D01*
X63926784Y-95213544D01*
X64074354Y-95312147D01*
X64199853Y-95437646D01*
X64298456Y-95585216D01*
X64366376Y-95749188D01*
X64401000Y-95923259D01*
X64401000Y-96100741D01*
X64366376Y-96274812D01*
X64298456Y-96438784D01*
X64199853Y-96586354D01*
X64074354Y-96711853D01*
X63926784Y-96810456D01*
X63762812Y-96878376D01*
X63613512Y-96908073D01*
X63588742Y-96913000D01*
X63411258Y-96913000D01*
X63386488Y-96908073D01*
X63237188Y-96878376D01*
X63073216Y-96810456D01*
X62925646Y-96711853D01*
X62800147Y-96586354D01*
X62701544Y-96438784D01*
X62633624Y-96274812D01*
X62599000Y-96100741D01*
X62599000Y-95923259D01*
X62633624Y-95749188D01*
X62701544Y-95585216D01*
X62800147Y-95437646D01*
X62925646Y-95312147D01*
X63073216Y-95213544D01*
X63237188Y-95145624D01*
X63386488Y-95115927D01*
X63411258Y-95111000D01*
X63588742Y-95111000D01*
X63613512Y-95115927D01*
G37*
G36*
X43293512Y-92575927D02*
G01*
X43442812Y-92605624D01*
X43606784Y-92673544D01*
X43754354Y-92772147D01*
X43879853Y-92897646D01*
X43978456Y-93045216D01*
X44046376Y-93209188D01*
X44081000Y-93383259D01*
X44081000Y-93560741D01*
X44046376Y-93734812D01*
X43978456Y-93898784D01*
X43879853Y-94046354D01*
X43754354Y-94171853D01*
X43606784Y-94270456D01*
X43442812Y-94338376D01*
X43293512Y-94368073D01*
X43268742Y-94373000D01*
X43091258Y-94373000D01*
X43066488Y-94368073D01*
X42917188Y-94338376D01*
X42753216Y-94270456D01*
X42605646Y-94171853D01*
X42480147Y-94046354D01*
X42381544Y-93898784D01*
X42313624Y-93734812D01*
X42279000Y-93560741D01*
X42279000Y-93383259D01*
X42313624Y-93209188D01*
X42381544Y-93045216D01*
X42480147Y-92897646D01*
X42605646Y-92772147D01*
X42753216Y-92673544D01*
X42917188Y-92605624D01*
X43066488Y-92575927D01*
X43091258Y-92571000D01*
X43268742Y-92571000D01*
X43293512Y-92575927D01*
G37*
G36*
X63613512Y-92575927D02*
G01*
X63762812Y-92605624D01*
X63926784Y-92673544D01*
X64074354Y-92772147D01*
X64199853Y-92897646D01*
X64298456Y-93045216D01*
X64366376Y-93209188D01*
X64401000Y-93383259D01*
X64401000Y-93560741D01*
X64366376Y-93734812D01*
X64298456Y-93898784D01*
X64199853Y-94046354D01*
X64074354Y-94171853D01*
X63926784Y-94270456D01*
X63762812Y-94338376D01*
X63613512Y-94368073D01*
X63588742Y-94373000D01*
X63411258Y-94373000D01*
X63386488Y-94368073D01*
X63237188Y-94338376D01*
X63073216Y-94270456D01*
X62925646Y-94171853D01*
X62800147Y-94046354D01*
X62701544Y-93898784D01*
X62633624Y-93734812D01*
X62599000Y-93560741D01*
X62599000Y-93383259D01*
X62633624Y-93209188D01*
X62701544Y-93045216D01*
X62800147Y-92897646D01*
X62925646Y-92772147D01*
X63073216Y-92673544D01*
X63237188Y-92605624D01*
X63386488Y-92575927D01*
X63411258Y-92571000D01*
X63588742Y-92571000D01*
X63613512Y-92575927D01*
G37*
G36*
X43293512Y-90035927D02*
G01*
X43442812Y-90065624D01*
X43606784Y-90133544D01*
X43754354Y-90232147D01*
X43879853Y-90357646D01*
X43978456Y-90505216D01*
X44046376Y-90669188D01*
X44081000Y-90843259D01*
X44081000Y-91020741D01*
X44046376Y-91194812D01*
X43978456Y-91358784D01*
X43879853Y-91506354D01*
X43754354Y-91631853D01*
X43606784Y-91730456D01*
X43442812Y-91798376D01*
X43293512Y-91828073D01*
X43268742Y-91833000D01*
X43091258Y-91833000D01*
X43066488Y-91828073D01*
X42917188Y-91798376D01*
X42753216Y-91730456D01*
X42605646Y-91631853D01*
X42480147Y-91506354D01*
X42381544Y-91358784D01*
X42313624Y-91194812D01*
X42279000Y-91020741D01*
X42279000Y-90843259D01*
X42313624Y-90669188D01*
X42381544Y-90505216D01*
X42480147Y-90357646D01*
X42605646Y-90232147D01*
X42753216Y-90133544D01*
X42917188Y-90065624D01*
X43066488Y-90035927D01*
X43091258Y-90031000D01*
X43268742Y-90031000D01*
X43293512Y-90035927D01*
G37*
G36*
X63613512Y-90035927D02*
G01*
X63762812Y-90065624D01*
X63926784Y-90133544D01*
X64074354Y-90232147D01*
X64199853Y-90357646D01*
X64298456Y-90505216D01*
X64366376Y-90669188D01*
X64401000Y-90843259D01*
X64401000Y-91020741D01*
X64366376Y-91194812D01*
X64298456Y-91358784D01*
X64199853Y-91506354D01*
X64074354Y-91631853D01*
X63926784Y-91730456D01*
X63762812Y-91798376D01*
X63613512Y-91828073D01*
X63588742Y-91833000D01*
X63411258Y-91833000D01*
X63386488Y-91828073D01*
X63237188Y-91798376D01*
X63073216Y-91730456D01*
X62925646Y-91631853D01*
X62800147Y-91506354D01*
X62701544Y-91358784D01*
X62633624Y-91194812D01*
X62599000Y-91020741D01*
X62599000Y-90843259D01*
X62633624Y-90669188D01*
X62701544Y-90505216D01*
X62800147Y-90357646D01*
X62925646Y-90232147D01*
X63073216Y-90133544D01*
X63237188Y-90065624D01*
X63386488Y-90035927D01*
X63411258Y-90031000D01*
X63588742Y-90031000D01*
X63613512Y-90035927D01*
G37*
G36*
X156170795Y-87820156D02*
G01*
X156277150Y-87841311D01*
X156477520Y-87924307D01*
X156657844Y-88044795D01*
X156811205Y-88198156D01*
X156931693Y-88378480D01*
X156931693Y-88378481D01*
X157014689Y-88578850D01*
X157057000Y-88791561D01*
X157057000Y-89008439D01*
X157014689Y-89221150D01*
X156931693Y-89421520D01*
X156811205Y-89601844D01*
X156657844Y-89755205D01*
X156477520Y-89875693D01*
X156277150Y-89958689D01*
X156170795Y-89979844D01*
X156064440Y-90001000D01*
X155847560Y-90001000D01*
X155741206Y-89979845D01*
X155634850Y-89958689D01*
X155534666Y-89917191D01*
X155434480Y-89875693D01*
X155254156Y-89755205D01*
X155100795Y-89601844D01*
X154980307Y-89421520D01*
X154897311Y-89221150D01*
X154855000Y-89008439D01*
X154855000Y-88791561D01*
X154897311Y-88578850D01*
X154980307Y-88378481D01*
X154980307Y-88378480D01*
X155100795Y-88198156D01*
X155254156Y-88044795D01*
X155434480Y-87924307D01*
X155534666Y-87882809D01*
X155634850Y-87841311D01*
X155741206Y-87820155D01*
X155847560Y-87799000D01*
X156064440Y-87799000D01*
X156170795Y-87820156D01*
G37*
G36*
X43293512Y-87495927D02*
G01*
X43442812Y-87525624D01*
X43606784Y-87593544D01*
X43754354Y-87692147D01*
X43879853Y-87817646D01*
X43978456Y-87965216D01*
X44046376Y-88129188D01*
X44081000Y-88303259D01*
X44081000Y-88480741D01*
X44046376Y-88654812D01*
X43978456Y-88818784D01*
X43879853Y-88966354D01*
X43754354Y-89091853D01*
X43606784Y-89190456D01*
X43442812Y-89258376D01*
X43293512Y-89288073D01*
X43268742Y-89293000D01*
X43091258Y-89293000D01*
X43066488Y-89288073D01*
X42917188Y-89258376D01*
X42753216Y-89190456D01*
X42605646Y-89091853D01*
X42480147Y-88966354D01*
X42381544Y-88818784D01*
X42313624Y-88654812D01*
X42279000Y-88480741D01*
X42279000Y-88303259D01*
X42313624Y-88129188D01*
X42381544Y-87965216D01*
X42480147Y-87817646D01*
X42605646Y-87692147D01*
X42753216Y-87593544D01*
X42917188Y-87525624D01*
X43066488Y-87495927D01*
X43091258Y-87491000D01*
X43268742Y-87491000D01*
X43293512Y-87495927D01*
G37*
G36*
X63613512Y-87495927D02*
G01*
X63762812Y-87525624D01*
X63926784Y-87593544D01*
X64074354Y-87692147D01*
X64199853Y-87817646D01*
X64298456Y-87965216D01*
X64366376Y-88129188D01*
X64401000Y-88303259D01*
X64401000Y-88480741D01*
X64366376Y-88654812D01*
X64298456Y-88818784D01*
X64199853Y-88966354D01*
X64074354Y-89091853D01*
X63926784Y-89190456D01*
X63762812Y-89258376D01*
X63613512Y-89288073D01*
X63588742Y-89293000D01*
X63411258Y-89293000D01*
X63386488Y-89288073D01*
X63237188Y-89258376D01*
X63073216Y-89190456D01*
X62925646Y-89091853D01*
X62800147Y-88966354D01*
X62701544Y-88818784D01*
X62633624Y-88654812D01*
X62599000Y-88480741D01*
X62599000Y-88303259D01*
X62633624Y-88129188D01*
X62701544Y-87965216D01*
X62800147Y-87817646D01*
X62925646Y-87692147D01*
X63073216Y-87593544D01*
X63237188Y-87525624D01*
X63386488Y-87495927D01*
X63411258Y-87491000D01*
X63588742Y-87491000D01*
X63613512Y-87495927D01*
G37*
G36*
X157057000Y-87461000D02*
G01*
X154855000Y-87461000D01*
X154855000Y-85259000D01*
X157057000Y-85259000D01*
X157057000Y-87461000D01*
G37*
G36*
X43293512Y-84955927D02*
G01*
X43442812Y-84985624D01*
X43606784Y-85053544D01*
X43754354Y-85152147D01*
X43879853Y-85277646D01*
X43978456Y-85425216D01*
X44046376Y-85589188D01*
X44081000Y-85763259D01*
X44081000Y-85940741D01*
X44046376Y-86114812D01*
X43978456Y-86278784D01*
X43879853Y-86426354D01*
X43754354Y-86551853D01*
X43606784Y-86650456D01*
X43442812Y-86718376D01*
X43293512Y-86748073D01*
X43268742Y-86753000D01*
X43091258Y-86753000D01*
X43066488Y-86748073D01*
X42917188Y-86718376D01*
X42753216Y-86650456D01*
X42605646Y-86551853D01*
X42480147Y-86426354D01*
X42381544Y-86278784D01*
X42313624Y-86114812D01*
X42279000Y-85940741D01*
X42279000Y-85763259D01*
X42313624Y-85589188D01*
X42381544Y-85425216D01*
X42480147Y-85277646D01*
X42605646Y-85152147D01*
X42753216Y-85053544D01*
X42917188Y-84985624D01*
X43066488Y-84955927D01*
X43091258Y-84951000D01*
X43268742Y-84951000D01*
X43293512Y-84955927D01*
G37*
G36*
X63613512Y-84955927D02*
G01*
X63762812Y-84985624D01*
X63926784Y-85053544D01*
X64074354Y-85152147D01*
X64199853Y-85277646D01*
X64298456Y-85425216D01*
X64366376Y-85589188D01*
X64401000Y-85763259D01*
X64401000Y-85940741D01*
X64366376Y-86114812D01*
X64298456Y-86278784D01*
X64199853Y-86426354D01*
X64074354Y-86551853D01*
X63926784Y-86650456D01*
X63762812Y-86718376D01*
X63613512Y-86748073D01*
X63588742Y-86753000D01*
X63411258Y-86753000D01*
X63386488Y-86748073D01*
X63237188Y-86718376D01*
X63073216Y-86650456D01*
X62925646Y-86551853D01*
X62800147Y-86426354D01*
X62701544Y-86278784D01*
X62633624Y-86114812D01*
X62599000Y-85940741D01*
X62599000Y-85763259D01*
X62633624Y-85589188D01*
X62701544Y-85425216D01*
X62800147Y-85277646D01*
X62925646Y-85152147D01*
X63073216Y-85053544D01*
X63237188Y-84985624D01*
X63386488Y-84955927D01*
X63411258Y-84951000D01*
X63588742Y-84951000D01*
X63613512Y-84955927D01*
G37*
G36*
X43293512Y-82415927D02*
G01*
X43442812Y-82445624D01*
X43606784Y-82513544D01*
X43754354Y-82612147D01*
X43879853Y-82737646D01*
X43978456Y-82885216D01*
X44046376Y-83049188D01*
X44081000Y-83223259D01*
X44081000Y-83400741D01*
X44046376Y-83574812D01*
X43978456Y-83738784D01*
X43879853Y-83886354D01*
X43754354Y-84011853D01*
X43606784Y-84110456D01*
X43442812Y-84178376D01*
X43293512Y-84208073D01*
X43268742Y-84213000D01*
X43091258Y-84213000D01*
X43066488Y-84208073D01*
X42917188Y-84178376D01*
X42753216Y-84110456D01*
X42605646Y-84011853D01*
X42480147Y-83886354D01*
X42381544Y-83738784D01*
X42313624Y-83574812D01*
X42279000Y-83400741D01*
X42279000Y-83223259D01*
X42313624Y-83049188D01*
X42381544Y-82885216D01*
X42480147Y-82737646D01*
X42605646Y-82612147D01*
X42753216Y-82513544D01*
X42917188Y-82445624D01*
X43066488Y-82415927D01*
X43091258Y-82411000D01*
X43268742Y-82411000D01*
X43293512Y-82415927D01*
G37*
G36*
X63613512Y-82415927D02*
G01*
X63762812Y-82445624D01*
X63926784Y-82513544D01*
X64074354Y-82612147D01*
X64199853Y-82737646D01*
X64298456Y-82885216D01*
X64366376Y-83049188D01*
X64401000Y-83223259D01*
X64401000Y-83400741D01*
X64366376Y-83574812D01*
X64298456Y-83738784D01*
X64199853Y-83886354D01*
X64074354Y-84011853D01*
X63926784Y-84110456D01*
X63762812Y-84178376D01*
X63613512Y-84208073D01*
X63588742Y-84213000D01*
X63411258Y-84213000D01*
X63386488Y-84208073D01*
X63237188Y-84178376D01*
X63073216Y-84110456D01*
X62925646Y-84011853D01*
X62800147Y-83886354D01*
X62701544Y-83738784D01*
X62633624Y-83574812D01*
X62599000Y-83400741D01*
X62599000Y-83223259D01*
X62633624Y-83049188D01*
X62701544Y-82885216D01*
X62800147Y-82737646D01*
X62925646Y-82612147D01*
X63073216Y-82513544D01*
X63237188Y-82445624D01*
X63386488Y-82415927D01*
X63411258Y-82411000D01*
X63588742Y-82411000D01*
X63613512Y-82415927D01*
G37*
G36*
X43293512Y-79875927D02*
G01*
X43442812Y-79905624D01*
X43606784Y-79973544D01*
X43754354Y-80072147D01*
X43879853Y-80197646D01*
X43978456Y-80345216D01*
X44046376Y-80509188D01*
X44081000Y-80683259D01*
X44081000Y-80860741D01*
X44046376Y-81034812D01*
X43978456Y-81198784D01*
X43879853Y-81346354D01*
X43754354Y-81471853D01*
X43606784Y-81570456D01*
X43442812Y-81638376D01*
X43293512Y-81668073D01*
X43268742Y-81673000D01*
X43091258Y-81673000D01*
X43066488Y-81668073D01*
X42917188Y-81638376D01*
X42753216Y-81570456D01*
X42605646Y-81471853D01*
X42480147Y-81346354D01*
X42381544Y-81198784D01*
X42313624Y-81034812D01*
X42279000Y-80860741D01*
X42279000Y-80683259D01*
X42313624Y-80509188D01*
X42381544Y-80345216D01*
X42480147Y-80197646D01*
X42605646Y-80072147D01*
X42753216Y-79973544D01*
X42917188Y-79905624D01*
X43066488Y-79875927D01*
X43091258Y-79871000D01*
X43268742Y-79871000D01*
X43293512Y-79875927D01*
G37*
G36*
X63613512Y-79875927D02*
G01*
X63762812Y-79905624D01*
X63926784Y-79973544D01*
X64074354Y-80072147D01*
X64199853Y-80197646D01*
X64298456Y-80345216D01*
X64366376Y-80509188D01*
X64401000Y-80683259D01*
X64401000Y-80860741D01*
X64366376Y-81034812D01*
X64298456Y-81198784D01*
X64199853Y-81346354D01*
X64074354Y-81471853D01*
X63926784Y-81570456D01*
X63762812Y-81638376D01*
X63613512Y-81668073D01*
X63588742Y-81673000D01*
X63411258Y-81673000D01*
X63386488Y-81668073D01*
X63237188Y-81638376D01*
X63073216Y-81570456D01*
X62925646Y-81471853D01*
X62800147Y-81346354D01*
X62701544Y-81198784D01*
X62633624Y-81034812D01*
X62599000Y-80860741D01*
X62599000Y-80683259D01*
X62633624Y-80509188D01*
X62701544Y-80345216D01*
X62800147Y-80197646D01*
X62925646Y-80072147D01*
X63073216Y-79973544D01*
X63237188Y-79905624D01*
X63386488Y-79875927D01*
X63411258Y-79871000D01*
X63588742Y-79871000D01*
X63613512Y-79875927D01*
G37*
G36*
X63613512Y-77335927D02*
G01*
X63762812Y-77365624D01*
X63926784Y-77433544D01*
X64074354Y-77532147D01*
X64199853Y-77657646D01*
X64298456Y-77805216D01*
X64366376Y-77969188D01*
X64401000Y-78143259D01*
X64401000Y-78320741D01*
X64366376Y-78494812D01*
X64298456Y-78658784D01*
X64199853Y-78806354D01*
X64074354Y-78931853D01*
X63926784Y-79030456D01*
X63762812Y-79098376D01*
X63613512Y-79128073D01*
X63588742Y-79133000D01*
X63411258Y-79133000D01*
X63386488Y-79128073D01*
X63237188Y-79098376D01*
X63073216Y-79030456D01*
X62925646Y-78931853D01*
X62800147Y-78806354D01*
X62701544Y-78658784D01*
X62633624Y-78494812D01*
X62599000Y-78320741D01*
X62599000Y-78143259D01*
X62633624Y-77969188D01*
X62701544Y-77805216D01*
X62800147Y-77657646D01*
X62925646Y-77532147D01*
X63073216Y-77433544D01*
X63237188Y-77365624D01*
X63386488Y-77335927D01*
X63411258Y-77331000D01*
X63588742Y-77331000D01*
X63613512Y-77335927D01*
G37*
G36*
X43293512Y-77335927D02*
G01*
X43442812Y-77365624D01*
X43606784Y-77433544D01*
X43754354Y-77532147D01*
X43879853Y-77657646D01*
X43978456Y-77805216D01*
X44046376Y-77969188D01*
X44081000Y-78143259D01*
X44081000Y-78320741D01*
X44046376Y-78494812D01*
X43978456Y-78658784D01*
X43879853Y-78806354D01*
X43754354Y-78931853D01*
X43606784Y-79030456D01*
X43442812Y-79098376D01*
X43293512Y-79128073D01*
X43268742Y-79133000D01*
X43091258Y-79133000D01*
X43066488Y-79128073D01*
X42917188Y-79098376D01*
X42753216Y-79030456D01*
X42605646Y-78931853D01*
X42480147Y-78806354D01*
X42381544Y-78658784D01*
X42313624Y-78494812D01*
X42279000Y-78320741D01*
X42279000Y-78143259D01*
X42313624Y-77969188D01*
X42381544Y-77805216D01*
X42480147Y-77657646D01*
X42605646Y-77532147D01*
X42753216Y-77433544D01*
X42917188Y-77365624D01*
X43066488Y-77335927D01*
X43091258Y-77331000D01*
X43268742Y-77331000D01*
X43293512Y-77335927D01*
G37*
G36*
X157823000Y-78067000D02*
G01*
X156121000Y-78067000D01*
X156121000Y-76365000D01*
X157823000Y-76365000D01*
X157823000Y-78067000D01*
G37*
G36*
X155220228Y-76397703D02*
G01*
X155375100Y-76461853D01*
X155514481Y-76554985D01*
X155633015Y-76673519D01*
X155726147Y-76812900D01*
X155790297Y-76967772D01*
X155823000Y-77132184D01*
X155823000Y-77299816D01*
X155790297Y-77464228D01*
X155726147Y-77619100D01*
X155633015Y-77758481D01*
X155514481Y-77877015D01*
X155375100Y-77970147D01*
X155220228Y-78034297D01*
X155055816Y-78067000D01*
X154888184Y-78067000D01*
X154723772Y-78034297D01*
X154568900Y-77970147D01*
X154429519Y-77877015D01*
X154310985Y-77758481D01*
X154217853Y-77619100D01*
X154153703Y-77464228D01*
X154121000Y-77299816D01*
X154121000Y-77132184D01*
X154153703Y-76967772D01*
X154217853Y-76812900D01*
X154310985Y-76673519D01*
X154429519Y-76554985D01*
X154568900Y-76461853D01*
X154723772Y-76397703D01*
X154888184Y-76365000D01*
X155055816Y-76365000D01*
X155220228Y-76397703D01*
G37*
G36*
X43293512Y-74795927D02*
G01*
X43442812Y-74825624D01*
X43606784Y-74893544D01*
X43754354Y-74992147D01*
X43879853Y-75117646D01*
X43978456Y-75265216D01*
X44046376Y-75429188D01*
X44081000Y-75603259D01*
X44081000Y-75780741D01*
X44046376Y-75954812D01*
X43978456Y-76118784D01*
X43879853Y-76266354D01*
X43754354Y-76391853D01*
X43606784Y-76490456D01*
X43442812Y-76558376D01*
X43293512Y-76588073D01*
X43268742Y-76593000D01*
X43091258Y-76593000D01*
X43066488Y-76588073D01*
X42917188Y-76558376D01*
X42753216Y-76490456D01*
X42605646Y-76391853D01*
X42480147Y-76266354D01*
X42381544Y-76118784D01*
X42313624Y-75954812D01*
X42279000Y-75780741D01*
X42279000Y-75603259D01*
X42313624Y-75429188D01*
X42381544Y-75265216D01*
X42480147Y-75117646D01*
X42605646Y-74992147D01*
X42753216Y-74893544D01*
X42917188Y-74825624D01*
X43066488Y-74795927D01*
X43091258Y-74791000D01*
X43268742Y-74791000D01*
X43293512Y-74795927D01*
G37*
G36*
X63613512Y-74795927D02*
G01*
X63762812Y-74825624D01*
X63926784Y-74893544D01*
X64074354Y-74992147D01*
X64199853Y-75117646D01*
X64298456Y-75265216D01*
X64366376Y-75429188D01*
X64401000Y-75603259D01*
X64401000Y-75780741D01*
X64366376Y-75954812D01*
X64298456Y-76118784D01*
X64199853Y-76266354D01*
X64074354Y-76391853D01*
X63926784Y-76490456D01*
X63762812Y-76558376D01*
X63613512Y-76588073D01*
X63588742Y-76593000D01*
X63411258Y-76593000D01*
X63386488Y-76588073D01*
X63237188Y-76558376D01*
X63073216Y-76490456D01*
X62925646Y-76391853D01*
X62800147Y-76266354D01*
X62701544Y-76118784D01*
X62633624Y-75954812D01*
X62599000Y-75780741D01*
X62599000Y-75603259D01*
X62633624Y-75429188D01*
X62701544Y-75265216D01*
X62800147Y-75117646D01*
X62925646Y-74992147D01*
X63073216Y-74893544D01*
X63237188Y-74825624D01*
X63386488Y-74795927D01*
X63411258Y-74791000D01*
X63588742Y-74791000D01*
X63613512Y-74795927D01*
G37*
G36*
X63613512Y-72255927D02*
G01*
X63762812Y-72285624D01*
X63926784Y-72353544D01*
X64074354Y-72452147D01*
X64199853Y-72577646D01*
X64298456Y-72725216D01*
X64366376Y-72889188D01*
X64401000Y-73063259D01*
X64401000Y-73240741D01*
X64366376Y-73414812D01*
X64298456Y-73578784D01*
X64199853Y-73726354D01*
X64074354Y-73851853D01*
X63926784Y-73950456D01*
X63762812Y-74018376D01*
X63613512Y-74048073D01*
X63588742Y-74053000D01*
X63411258Y-74053000D01*
X63386488Y-74048073D01*
X63237188Y-74018376D01*
X63073216Y-73950456D01*
X62925646Y-73851853D01*
X62800147Y-73726354D01*
X62701544Y-73578784D01*
X62633624Y-73414812D01*
X62599000Y-73240741D01*
X62599000Y-73063259D01*
X62633624Y-72889188D01*
X62701544Y-72725216D01*
X62800147Y-72577646D01*
X62925646Y-72452147D01*
X63073216Y-72353544D01*
X63237188Y-72285624D01*
X63386488Y-72255927D01*
X63411258Y-72251000D01*
X63588742Y-72251000D01*
X63613512Y-72255927D01*
G37*
G36*
X43293512Y-72255927D02*
G01*
X43442812Y-72285624D01*
X43606784Y-72353544D01*
X43754354Y-72452147D01*
X43879853Y-72577646D01*
X43978456Y-72725216D01*
X44046376Y-72889188D01*
X44081000Y-73063259D01*
X44081000Y-73240741D01*
X44046376Y-73414812D01*
X43978456Y-73578784D01*
X43879853Y-73726354D01*
X43754354Y-73851853D01*
X43606784Y-73950456D01*
X43442812Y-74018376D01*
X43293512Y-74048073D01*
X43268742Y-74053000D01*
X43091258Y-74053000D01*
X43066488Y-74048073D01*
X42917188Y-74018376D01*
X42753216Y-73950456D01*
X42605646Y-73851853D01*
X42480147Y-73726354D01*
X42381544Y-73578784D01*
X42313624Y-73414812D01*
X42279000Y-73240741D01*
X42279000Y-73063259D01*
X42313624Y-72889188D01*
X42381544Y-72725216D01*
X42480147Y-72577646D01*
X42605646Y-72452147D01*
X42753216Y-72353544D01*
X42917188Y-72285624D01*
X43066488Y-72255927D01*
X43091258Y-72251000D01*
X43268742Y-72251000D01*
X43293512Y-72255927D01*
G37*
G36*
X63613512Y-69715927D02*
G01*
X63762812Y-69745624D01*
X63926784Y-69813544D01*
X64074354Y-69912147D01*
X64199853Y-70037646D01*
X64298456Y-70185216D01*
X64366376Y-70349188D01*
X64401000Y-70523259D01*
X64401000Y-70700741D01*
X64366376Y-70874812D01*
X64298456Y-71038784D01*
X64199853Y-71186354D01*
X64074354Y-71311853D01*
X63926784Y-71410456D01*
X63762812Y-71478376D01*
X63613512Y-71508073D01*
X63588742Y-71513000D01*
X63411258Y-71513000D01*
X63386488Y-71508073D01*
X63237188Y-71478376D01*
X63073216Y-71410456D01*
X62925646Y-71311853D01*
X62800147Y-71186354D01*
X62701544Y-71038784D01*
X62633624Y-70874812D01*
X62599000Y-70700741D01*
X62599000Y-70523259D01*
X62633624Y-70349188D01*
X62701544Y-70185216D01*
X62800147Y-70037646D01*
X62925646Y-69912147D01*
X63073216Y-69813544D01*
X63237188Y-69745624D01*
X63386488Y-69715927D01*
X63411258Y-69711000D01*
X63588742Y-69711000D01*
X63613512Y-69715927D01*
G37*
G36*
X43293512Y-69715927D02*
G01*
X43442812Y-69745624D01*
X43606784Y-69813544D01*
X43754354Y-69912147D01*
X43879853Y-70037646D01*
X43978456Y-70185216D01*
X44046376Y-70349188D01*
X44081000Y-70523259D01*
X44081000Y-70700741D01*
X44046376Y-70874812D01*
X43978456Y-71038784D01*
X43879853Y-71186354D01*
X43754354Y-71311853D01*
X43606784Y-71410456D01*
X43442812Y-71478376D01*
X43293512Y-71508073D01*
X43268742Y-71513000D01*
X43091258Y-71513000D01*
X43066488Y-71508073D01*
X42917188Y-71478376D01*
X42753216Y-71410456D01*
X42605646Y-71311853D01*
X42480147Y-71186354D01*
X42381544Y-71038784D01*
X42313624Y-70874812D01*
X42279000Y-70700741D01*
X42279000Y-70523259D01*
X42313624Y-70349188D01*
X42381544Y-70185216D01*
X42480147Y-70037646D01*
X42605646Y-69912147D01*
X42753216Y-69813544D01*
X42917188Y-69745624D01*
X43066488Y-69715927D01*
X43091258Y-69711000D01*
X43268742Y-69711000D01*
X43293512Y-69715927D01*
G37*
G36*
X43293512Y-67175927D02*
G01*
X43442812Y-67205624D01*
X43606784Y-67273544D01*
X43754354Y-67372147D01*
X43879853Y-67497646D01*
X43978456Y-67645216D01*
X44046376Y-67809188D01*
X44081000Y-67983259D01*
X44081000Y-68160741D01*
X44046376Y-68334812D01*
X43978456Y-68498784D01*
X43879853Y-68646354D01*
X43754354Y-68771853D01*
X43606784Y-68870456D01*
X43442812Y-68938376D01*
X43293512Y-68968073D01*
X43268742Y-68973000D01*
X43091258Y-68973000D01*
X43066488Y-68968073D01*
X42917188Y-68938376D01*
X42753216Y-68870456D01*
X42605646Y-68771853D01*
X42480147Y-68646354D01*
X42381544Y-68498784D01*
X42313624Y-68334812D01*
X42279000Y-68160741D01*
X42279000Y-67983259D01*
X42313624Y-67809188D01*
X42381544Y-67645216D01*
X42480147Y-67497646D01*
X42605646Y-67372147D01*
X42753216Y-67273544D01*
X42917188Y-67205624D01*
X43066488Y-67175927D01*
X43091258Y-67171000D01*
X43268742Y-67171000D01*
X43293512Y-67175927D01*
G37*
G36*
X64401000Y-68973000D02*
G01*
X62599000Y-68973000D01*
X62599000Y-67171000D01*
X64401000Y-67171000D01*
X64401000Y-68973000D01*
G37*
G36*
X43293512Y-64635927D02*
G01*
X43442812Y-64665624D01*
X43606784Y-64733544D01*
X43754354Y-64832147D01*
X43879853Y-64957646D01*
X43978456Y-65105216D01*
X44046376Y-65269188D01*
X44081000Y-65443259D01*
X44081000Y-65620741D01*
X44046376Y-65794812D01*
X43978456Y-65958784D01*
X43879853Y-66106354D01*
X43754354Y-66231853D01*
X43606784Y-66330456D01*
X43442812Y-66398376D01*
X43293512Y-66428073D01*
X43268742Y-66433000D01*
X43091258Y-66433000D01*
X43066488Y-66428073D01*
X42917188Y-66398376D01*
X42753216Y-66330456D01*
X42605646Y-66231853D01*
X42480147Y-66106354D01*
X42381544Y-65958784D01*
X42313624Y-65794812D01*
X42279000Y-65620741D01*
X42279000Y-65443259D01*
X42313624Y-65269188D01*
X42381544Y-65105216D01*
X42480147Y-64957646D01*
X42605646Y-64832147D01*
X42753216Y-64733544D01*
X42917188Y-64665624D01*
X43066488Y-64635927D01*
X43091258Y-64631000D01*
X43268742Y-64631000D01*
X43293512Y-64635927D01*
G37*
G36*
X43293512Y-62095927D02*
G01*
X43442812Y-62125624D01*
X43606784Y-62193544D01*
X43754354Y-62292147D01*
X43879853Y-62417646D01*
X43978456Y-62565216D01*
X44046376Y-62729188D01*
X44081000Y-62903259D01*
X44081000Y-63080741D01*
X44046376Y-63254812D01*
X43978456Y-63418784D01*
X43879853Y-63566354D01*
X43754354Y-63691853D01*
X43606784Y-63790456D01*
X43442812Y-63858376D01*
X43293512Y-63888073D01*
X43268742Y-63893000D01*
X43091258Y-63893000D01*
X43066488Y-63888073D01*
X42917188Y-63858376D01*
X42753216Y-63790456D01*
X42605646Y-63691853D01*
X42480147Y-63566354D01*
X42381544Y-63418784D01*
X42313624Y-63254812D01*
X42279000Y-63080741D01*
X42279000Y-62903259D01*
X42313624Y-62729188D01*
X42381544Y-62565216D01*
X42480147Y-62417646D01*
X42605646Y-62292147D01*
X42753216Y-62193544D01*
X42917188Y-62125624D01*
X43066488Y-62095927D01*
X43091258Y-62091000D01*
X43268742Y-62091000D01*
X43293512Y-62095927D01*
G37*
G36*
X114694072Y-61184918D02*
G01*
X114852296Y-61250456D01*
X114939939Y-61286759D01*
X114987255Y-61318375D01*
X115161211Y-61434609D01*
X115349391Y-61622789D01*
X115497242Y-61844063D01*
X115599082Y-62089928D01*
X115651000Y-62350937D01*
X115651000Y-62617063D01*
X115599082Y-62878072D01*
X115497242Y-63123937D01*
X115349391Y-63345211D01*
X115161211Y-63533391D01*
X115051328Y-63606813D01*
X114939939Y-63681241D01*
X114939938Y-63681242D01*
X114939937Y-63681242D01*
X114694072Y-63783082D01*
X114433063Y-63835000D01*
X114166937Y-63835000D01*
X113905928Y-63783082D01*
X113660063Y-63681242D01*
X113660062Y-63681242D01*
X113660061Y-63681241D01*
X113548672Y-63606813D01*
X113438789Y-63533391D01*
X113250609Y-63345211D01*
X113102758Y-63123937D01*
X113000918Y-62878072D01*
X112949000Y-62617063D01*
X112949000Y-62350937D01*
X113000918Y-62089928D01*
X113102758Y-61844063D01*
X113250609Y-61622789D01*
X113438789Y-61434609D01*
X113612745Y-61318375D01*
X113660061Y-61286759D01*
X113747705Y-61250456D01*
X113905928Y-61184918D01*
X114166937Y-61133000D01*
X114433063Y-61133000D01*
X114694072Y-61184918D01*
G37*
G36*
X109614072Y-61184918D02*
G01*
X109772296Y-61250456D01*
X109859939Y-61286759D01*
X109907255Y-61318375D01*
X110081211Y-61434609D01*
X110269391Y-61622789D01*
X110417242Y-61844063D01*
X110519082Y-62089928D01*
X110571000Y-62350937D01*
X110571000Y-62617063D01*
X110519082Y-62878072D01*
X110417242Y-63123937D01*
X110269391Y-63345211D01*
X110081211Y-63533391D01*
X109971328Y-63606813D01*
X109859939Y-63681241D01*
X109859938Y-63681242D01*
X109859937Y-63681242D01*
X109614072Y-63783082D01*
X109353063Y-63835000D01*
X109086937Y-63835000D01*
X108825928Y-63783082D01*
X108580063Y-63681242D01*
X108580062Y-63681242D01*
X108580061Y-63681241D01*
X108468672Y-63606813D01*
X108358789Y-63533391D01*
X108170609Y-63345211D01*
X108022758Y-63123937D01*
X107920918Y-62878072D01*
X107869000Y-62617063D01*
X107869000Y-62350937D01*
X107920918Y-62089928D01*
X108022758Y-61844063D01*
X108170609Y-61622789D01*
X108358789Y-61434609D01*
X108532745Y-61318375D01*
X108580061Y-61286759D01*
X108667705Y-61250456D01*
X108825928Y-61184918D01*
X109086937Y-61133000D01*
X109353063Y-61133000D01*
X109614072Y-61184918D01*
G37*
G36*
X104534072Y-61184918D02*
G01*
X104692296Y-61250456D01*
X104779939Y-61286759D01*
X104827255Y-61318375D01*
X105001211Y-61434609D01*
X105189391Y-61622789D01*
X105337242Y-61844063D01*
X105439082Y-62089928D01*
X105491000Y-62350937D01*
X105491000Y-62617063D01*
X105439082Y-62878072D01*
X105337242Y-63123937D01*
X105189391Y-63345211D01*
X105001211Y-63533391D01*
X104891328Y-63606813D01*
X104779939Y-63681241D01*
X104779938Y-63681242D01*
X104779937Y-63681242D01*
X104534072Y-63783082D01*
X104273063Y-63835000D01*
X104006937Y-63835000D01*
X103745928Y-63783082D01*
X103500063Y-63681242D01*
X103500062Y-63681242D01*
X103500061Y-63681241D01*
X103388672Y-63606813D01*
X103278789Y-63533391D01*
X103090609Y-63345211D01*
X102942758Y-63123937D01*
X102840918Y-62878072D01*
X102789000Y-62617063D01*
X102789000Y-62350937D01*
X102840918Y-62089928D01*
X102942758Y-61844063D01*
X103090609Y-61622789D01*
X103278789Y-61434609D01*
X103452745Y-61318375D01*
X103500061Y-61286759D01*
X103587705Y-61250456D01*
X103745928Y-61184918D01*
X104006937Y-61133000D01*
X104273063Y-61133000D01*
X104534072Y-61184918D01*
G37*
G36*
X99454072Y-61184918D02*
G01*
X99612296Y-61250456D01*
X99699939Y-61286759D01*
X99747255Y-61318375D01*
X99921211Y-61434609D01*
X100109391Y-61622789D01*
X100257242Y-61844063D01*
X100359082Y-62089928D01*
X100411000Y-62350937D01*
X100411000Y-62617063D01*
X100359082Y-62878072D01*
X100257242Y-63123937D01*
X100109391Y-63345211D01*
X99921211Y-63533391D01*
X99811328Y-63606813D01*
X99699939Y-63681241D01*
X99699938Y-63681242D01*
X99699937Y-63681242D01*
X99454072Y-63783082D01*
X99193063Y-63835000D01*
X98926937Y-63835000D01*
X98665928Y-63783082D01*
X98420063Y-63681242D01*
X98420062Y-63681242D01*
X98420061Y-63681241D01*
X98308672Y-63606813D01*
X98198789Y-63533391D01*
X98010609Y-63345211D01*
X97862758Y-63123937D01*
X97760918Y-62878072D01*
X97709000Y-62617063D01*
X97709000Y-62350937D01*
X97760918Y-62089928D01*
X97862758Y-61844063D01*
X98010609Y-61622789D01*
X98198789Y-61434609D01*
X98372745Y-61318375D01*
X98420061Y-61286759D01*
X98507705Y-61250456D01*
X98665928Y-61184918D01*
X98926937Y-61133000D01*
X99193063Y-61133000D01*
X99454072Y-61184918D01*
G37*
G36*
X94374072Y-61184918D02*
G01*
X94532296Y-61250456D01*
X94619939Y-61286759D01*
X94667255Y-61318375D01*
X94841211Y-61434609D01*
X95029391Y-61622789D01*
X95177242Y-61844063D01*
X95279082Y-62089928D01*
X95331000Y-62350937D01*
X95331000Y-62617063D01*
X95279082Y-62878072D01*
X95177242Y-63123937D01*
X95029391Y-63345211D01*
X94841211Y-63533391D01*
X94731328Y-63606813D01*
X94619939Y-63681241D01*
X94619938Y-63681242D01*
X94619937Y-63681242D01*
X94374072Y-63783082D01*
X94113063Y-63835000D01*
X93846937Y-63835000D01*
X93585928Y-63783082D01*
X93340063Y-63681242D01*
X93340062Y-63681242D01*
X93340061Y-63681241D01*
X93228672Y-63606813D01*
X93118789Y-63533391D01*
X92930609Y-63345211D01*
X92782758Y-63123937D01*
X92680918Y-62878072D01*
X92629000Y-62617063D01*
X92629000Y-62350937D01*
X92680918Y-62089928D01*
X92782758Y-61844063D01*
X92930609Y-61622789D01*
X93118789Y-61434609D01*
X93292745Y-61318375D01*
X93340061Y-61286759D01*
X93427705Y-61250456D01*
X93585928Y-61184918D01*
X93846937Y-61133000D01*
X94113063Y-61133000D01*
X94374072Y-61184918D01*
G37*
G36*
X89294072Y-61184918D02*
G01*
X89452296Y-61250456D01*
X89539939Y-61286759D01*
X89587255Y-61318375D01*
X89761211Y-61434609D01*
X89949391Y-61622789D01*
X90097242Y-61844063D01*
X90199082Y-62089928D01*
X90251000Y-62350937D01*
X90251000Y-62617063D01*
X90199082Y-62878072D01*
X90097242Y-63123937D01*
X89949391Y-63345211D01*
X89761211Y-63533391D01*
X89651328Y-63606813D01*
X89539939Y-63681241D01*
X89539938Y-63681242D01*
X89539937Y-63681242D01*
X89294072Y-63783082D01*
X89033063Y-63835000D01*
X88766937Y-63835000D01*
X88505928Y-63783082D01*
X88260063Y-63681242D01*
X88260062Y-63681242D01*
X88260061Y-63681241D01*
X88148672Y-63606813D01*
X88038789Y-63533391D01*
X87850609Y-63345211D01*
X87702758Y-63123937D01*
X87600918Y-62878072D01*
X87549000Y-62617063D01*
X87549000Y-62350937D01*
X87600918Y-62089928D01*
X87702758Y-61844063D01*
X87850609Y-61622789D01*
X88038789Y-61434609D01*
X88212745Y-61318375D01*
X88260061Y-61286759D01*
X88347705Y-61250456D01*
X88505928Y-61184918D01*
X88766937Y-61133000D01*
X89033063Y-61133000D01*
X89294072Y-61184918D01*
G37*
G36*
X84214072Y-61184918D02*
G01*
X84372296Y-61250456D01*
X84459939Y-61286759D01*
X84507255Y-61318375D01*
X84681211Y-61434609D01*
X84869391Y-61622789D01*
X85017242Y-61844063D01*
X85119082Y-62089928D01*
X85171000Y-62350937D01*
X85171000Y-62617063D01*
X85119082Y-62878072D01*
X85017242Y-63123937D01*
X84869391Y-63345211D01*
X84681211Y-63533391D01*
X84571328Y-63606813D01*
X84459939Y-63681241D01*
X84459938Y-63681242D01*
X84459937Y-63681242D01*
X84214072Y-63783082D01*
X83953063Y-63835000D01*
X83686937Y-63835000D01*
X83425928Y-63783082D01*
X83180063Y-63681242D01*
X83180062Y-63681242D01*
X83180061Y-63681241D01*
X83068672Y-63606813D01*
X82958789Y-63533391D01*
X82770609Y-63345211D01*
X82622758Y-63123937D01*
X82520918Y-62878072D01*
X82469000Y-62617063D01*
X82469000Y-62350937D01*
X82520918Y-62089928D01*
X82622758Y-61844063D01*
X82770609Y-61622789D01*
X82958789Y-61434609D01*
X83132745Y-61318375D01*
X83180061Y-61286759D01*
X83267705Y-61250456D01*
X83425928Y-61184918D01*
X83686937Y-61133000D01*
X83953063Y-61133000D01*
X84214072Y-61184918D01*
G37*
G36*
X79134072Y-61184918D02*
G01*
X79292296Y-61250456D01*
X79379939Y-61286759D01*
X79427255Y-61318375D01*
X79601211Y-61434609D01*
X79789391Y-61622789D01*
X79937242Y-61844063D01*
X80039082Y-62089928D01*
X80091000Y-62350937D01*
X80091000Y-62617063D01*
X80039082Y-62878072D01*
X79937242Y-63123937D01*
X79789391Y-63345211D01*
X79601211Y-63533391D01*
X79491328Y-63606813D01*
X79379939Y-63681241D01*
X79379938Y-63681242D01*
X79379937Y-63681242D01*
X79134072Y-63783082D01*
X78873063Y-63835000D01*
X78606937Y-63835000D01*
X78345928Y-63783082D01*
X78100063Y-63681242D01*
X78100062Y-63681242D01*
X78100061Y-63681241D01*
X77988672Y-63606813D01*
X77878789Y-63533391D01*
X77690609Y-63345211D01*
X77542758Y-63123937D01*
X77440918Y-62878072D01*
X77389000Y-62617063D01*
X77389000Y-62350937D01*
X77440918Y-62089928D01*
X77542758Y-61844063D01*
X77690609Y-61622789D01*
X77878789Y-61434609D01*
X78052745Y-61318375D01*
X78100061Y-61286759D01*
X78187705Y-61250456D01*
X78345928Y-61184918D01*
X78606937Y-61133000D01*
X78873063Y-61133000D01*
X79134072Y-61184918D01*
G37*
G36*
X75011000Y-63835000D02*
G01*
X72309000Y-63835000D01*
X72309000Y-61133000D01*
X75011000Y-61133000D01*
X75011000Y-63835000D01*
G37*
G36*
X119774072Y-61184918D02*
G01*
X119932296Y-61250456D01*
X120019939Y-61286759D01*
X120067255Y-61318375D01*
X120241211Y-61434609D01*
X120429391Y-61622789D01*
X120577242Y-61844063D01*
X120679082Y-62089928D01*
X120731000Y-62350937D01*
X120731000Y-62617063D01*
X120679082Y-62878072D01*
X120577242Y-63123937D01*
X120429391Y-63345211D01*
X120241211Y-63533391D01*
X120131328Y-63606813D01*
X120019939Y-63681241D01*
X120019938Y-63681242D01*
X120019937Y-63681242D01*
X119774072Y-63783082D01*
X119513063Y-63835000D01*
X119246937Y-63835000D01*
X118985928Y-63783082D01*
X118740063Y-63681242D01*
X118740062Y-63681242D01*
X118740061Y-63681241D01*
X118628672Y-63606813D01*
X118518789Y-63533391D01*
X118330609Y-63345211D01*
X118182758Y-63123937D01*
X118080918Y-62878072D01*
X118029000Y-62617063D01*
X118029000Y-62350937D01*
X118080918Y-62089928D01*
X118182758Y-61844063D01*
X118330609Y-61622789D01*
X118518789Y-61434609D01*
X118692745Y-61318375D01*
X118740061Y-61286759D01*
X118827705Y-61250456D01*
X118985928Y-61184918D01*
X119246937Y-61133000D01*
X119513063Y-61133000D01*
X119774072Y-61184918D01*
G37*
G36*
X150254072Y-61184918D02*
G01*
X150412296Y-61250456D01*
X150499939Y-61286759D01*
X150547255Y-61318375D01*
X150721211Y-61434609D01*
X150909391Y-61622789D01*
X151057242Y-61844063D01*
X151159082Y-62089928D01*
X151211000Y-62350937D01*
X151211000Y-62617063D01*
X151159082Y-62878072D01*
X151057242Y-63123937D01*
X150909391Y-63345211D01*
X150721211Y-63533391D01*
X150611328Y-63606813D01*
X150499939Y-63681241D01*
X150499938Y-63681242D01*
X150499937Y-63681242D01*
X150254072Y-63783082D01*
X149993063Y-63835000D01*
X149726937Y-63835000D01*
X149465928Y-63783082D01*
X149220063Y-63681242D01*
X149220062Y-63681242D01*
X149220061Y-63681241D01*
X149108672Y-63606813D01*
X148998789Y-63533391D01*
X148810609Y-63345211D01*
X148662758Y-63123937D01*
X148560918Y-62878072D01*
X148509000Y-62617063D01*
X148509000Y-62350937D01*
X148560918Y-62089928D01*
X148662758Y-61844063D01*
X148810609Y-61622789D01*
X148998789Y-61434609D01*
X149172745Y-61318375D01*
X149220061Y-61286759D01*
X149307705Y-61250456D01*
X149465928Y-61184918D01*
X149726937Y-61133000D01*
X149993063Y-61133000D01*
X150254072Y-61184918D01*
G37*
G36*
X145174072Y-61184918D02*
G01*
X145332296Y-61250456D01*
X145419939Y-61286759D01*
X145467255Y-61318375D01*
X145641211Y-61434609D01*
X145829391Y-61622789D01*
X145977242Y-61844063D01*
X146079082Y-62089928D01*
X146131000Y-62350937D01*
X146131000Y-62617063D01*
X146079082Y-62878072D01*
X145977242Y-63123937D01*
X145829391Y-63345211D01*
X145641211Y-63533391D01*
X145531328Y-63606813D01*
X145419939Y-63681241D01*
X145419938Y-63681242D01*
X145419937Y-63681242D01*
X145174072Y-63783082D01*
X144913063Y-63835000D01*
X144646937Y-63835000D01*
X144385928Y-63783082D01*
X144140063Y-63681242D01*
X144140062Y-63681242D01*
X144140061Y-63681241D01*
X144028672Y-63606813D01*
X143918789Y-63533391D01*
X143730609Y-63345211D01*
X143582758Y-63123937D01*
X143480918Y-62878072D01*
X143429000Y-62617063D01*
X143429000Y-62350937D01*
X143480918Y-62089928D01*
X143582758Y-61844063D01*
X143730609Y-61622789D01*
X143918789Y-61434609D01*
X144092745Y-61318375D01*
X144140061Y-61286759D01*
X144227705Y-61250456D01*
X144385928Y-61184918D01*
X144646937Y-61133000D01*
X144913063Y-61133000D01*
X145174072Y-61184918D01*
G37*
G36*
X140094072Y-61184918D02*
G01*
X140252296Y-61250456D01*
X140339939Y-61286759D01*
X140387255Y-61318375D01*
X140561211Y-61434609D01*
X140749391Y-61622789D01*
X140897242Y-61844063D01*
X140999082Y-62089928D01*
X141051000Y-62350937D01*
X141051000Y-62617063D01*
X140999082Y-62878072D01*
X140897242Y-63123937D01*
X140749391Y-63345211D01*
X140561211Y-63533391D01*
X140451328Y-63606813D01*
X140339939Y-63681241D01*
X140339938Y-63681242D01*
X140339937Y-63681242D01*
X140094072Y-63783082D01*
X139833063Y-63835000D01*
X139566937Y-63835000D01*
X139305928Y-63783082D01*
X139060063Y-63681242D01*
X139060062Y-63681242D01*
X139060061Y-63681241D01*
X138948672Y-63606813D01*
X138838789Y-63533391D01*
X138650609Y-63345211D01*
X138502758Y-63123937D01*
X138400918Y-62878072D01*
X138349000Y-62617063D01*
X138349000Y-62350937D01*
X138400918Y-62089928D01*
X138502758Y-61844063D01*
X138650609Y-61622789D01*
X138838789Y-61434609D01*
X139012745Y-61318375D01*
X139060061Y-61286759D01*
X139147705Y-61250456D01*
X139305928Y-61184918D01*
X139566937Y-61133000D01*
X139833063Y-61133000D01*
X140094072Y-61184918D01*
G37*
G36*
X135014072Y-61184918D02*
G01*
X135172296Y-61250456D01*
X135259939Y-61286759D01*
X135307255Y-61318375D01*
X135481211Y-61434609D01*
X135669391Y-61622789D01*
X135817242Y-61844063D01*
X135919082Y-62089928D01*
X135971000Y-62350937D01*
X135971000Y-62617063D01*
X135919082Y-62878072D01*
X135817242Y-63123937D01*
X135669391Y-63345211D01*
X135481211Y-63533391D01*
X135371328Y-63606813D01*
X135259939Y-63681241D01*
X135259938Y-63681242D01*
X135259937Y-63681242D01*
X135014072Y-63783082D01*
X134753063Y-63835000D01*
X134486937Y-63835000D01*
X134225928Y-63783082D01*
X133980063Y-63681242D01*
X133980062Y-63681242D01*
X133980061Y-63681241D01*
X133868672Y-63606813D01*
X133758789Y-63533391D01*
X133570609Y-63345211D01*
X133422758Y-63123937D01*
X133320918Y-62878072D01*
X133269000Y-62617063D01*
X133269000Y-62350937D01*
X133320918Y-62089928D01*
X133422758Y-61844063D01*
X133570609Y-61622789D01*
X133758789Y-61434609D01*
X133932745Y-61318375D01*
X133980061Y-61286759D01*
X134067705Y-61250456D01*
X134225928Y-61184918D01*
X134486937Y-61133000D01*
X134753063Y-61133000D01*
X135014072Y-61184918D01*
G37*
G36*
X129934072Y-61184918D02*
G01*
X130092296Y-61250456D01*
X130179939Y-61286759D01*
X130227255Y-61318375D01*
X130401211Y-61434609D01*
X130589391Y-61622789D01*
X130737242Y-61844063D01*
X130839082Y-62089928D01*
X130891000Y-62350937D01*
X130891000Y-62617063D01*
X130839082Y-62878072D01*
X130737242Y-63123937D01*
X130589391Y-63345211D01*
X130401211Y-63533391D01*
X130291328Y-63606813D01*
X130179939Y-63681241D01*
X130179938Y-63681242D01*
X130179937Y-63681242D01*
X129934072Y-63783082D01*
X129673063Y-63835000D01*
X129406937Y-63835000D01*
X129145928Y-63783082D01*
X128900063Y-63681242D01*
X128900062Y-63681242D01*
X128900061Y-63681241D01*
X128788672Y-63606813D01*
X128678789Y-63533391D01*
X128490609Y-63345211D01*
X128342758Y-63123937D01*
X128240918Y-62878072D01*
X128189000Y-62617063D01*
X128189000Y-62350937D01*
X128240918Y-62089928D01*
X128342758Y-61844063D01*
X128490609Y-61622789D01*
X128678789Y-61434609D01*
X128852745Y-61318375D01*
X128900061Y-61286759D01*
X128987705Y-61250456D01*
X129145928Y-61184918D01*
X129406937Y-61133000D01*
X129673063Y-61133000D01*
X129934072Y-61184918D01*
G37*
G36*
X124854072Y-61184918D02*
G01*
X125012296Y-61250456D01*
X125099939Y-61286759D01*
X125147255Y-61318375D01*
X125321211Y-61434609D01*
X125509391Y-61622789D01*
X125657242Y-61844063D01*
X125759082Y-62089928D01*
X125811000Y-62350937D01*
X125811000Y-62617063D01*
X125759082Y-62878072D01*
X125657242Y-63123937D01*
X125509391Y-63345211D01*
X125321211Y-63533391D01*
X125211328Y-63606813D01*
X125099939Y-63681241D01*
X125099938Y-63681242D01*
X125099937Y-63681242D01*
X124854072Y-63783082D01*
X124593063Y-63835000D01*
X124326937Y-63835000D01*
X124065928Y-63783082D01*
X123820063Y-63681242D01*
X123820062Y-63681242D01*
X123820061Y-63681241D01*
X123708672Y-63606813D01*
X123598789Y-63533391D01*
X123410609Y-63345211D01*
X123262758Y-63123937D01*
X123160918Y-62878072D01*
X123109000Y-62617063D01*
X123109000Y-62350937D01*
X123160918Y-62089928D01*
X123262758Y-61844063D01*
X123410609Y-61622789D01*
X123598789Y-61434609D01*
X123772745Y-61318375D01*
X123820061Y-61286759D01*
X123907705Y-61250456D01*
X124065928Y-61184918D01*
X124326937Y-61133000D01*
X124593063Y-61133000D01*
X124854072Y-61184918D01*
G37*
G36*
X43293512Y-59555927D02*
G01*
X43442812Y-59585624D01*
X43606784Y-59653544D01*
X43754354Y-59752147D01*
X43879853Y-59877646D01*
X43978456Y-60025216D01*
X44046376Y-60189188D01*
X44081000Y-60363259D01*
X44081000Y-60540741D01*
X44046376Y-60714812D01*
X43978456Y-60878784D01*
X43879853Y-61026354D01*
X43754354Y-61151853D01*
X43606784Y-61250456D01*
X43442812Y-61318376D01*
X43293512Y-61348073D01*
X43268742Y-61353000D01*
X43091258Y-61353000D01*
X43066488Y-61348073D01*
X42917188Y-61318376D01*
X42753216Y-61250456D01*
X42605646Y-61151853D01*
X42480147Y-61026354D01*
X42381544Y-60878784D01*
X42313624Y-60714812D01*
X42279000Y-60540741D01*
X42279000Y-60363259D01*
X42313624Y-60189188D01*
X42381544Y-60025216D01*
X42480147Y-59877646D01*
X42605646Y-59752147D01*
X42753216Y-59653544D01*
X42917188Y-59585624D01*
X43066488Y-59555927D01*
X43091258Y-59551000D01*
X43268742Y-59551000D01*
X43293512Y-59555927D01*
G37*
G36*
X36951256Y-57827298D02*
G01*
X37057579Y-57848447D01*
X37358042Y-57972903D01*
X37628451Y-58153585D01*
X37858415Y-58383549D01*
X37858416Y-58383551D01*
X38039098Y-58653960D01*
X38163553Y-58954422D01*
X38227000Y-59273389D01*
X38227000Y-59598611D01*
X38196459Y-59752148D01*
X38163553Y-59917579D01*
X38039097Y-60218042D01*
X37858415Y-60488451D01*
X37628451Y-60718415D01*
X37358042Y-60899097D01*
X37057579Y-61023553D01*
X37043502Y-61026353D01*
X36738611Y-61087000D01*
X36413389Y-61087000D01*
X36108498Y-61026353D01*
X36094421Y-61023553D01*
X35793958Y-60899097D01*
X35523549Y-60718415D01*
X35293585Y-60488451D01*
X35112903Y-60218042D01*
X34988447Y-59917579D01*
X34955541Y-59752148D01*
X34925000Y-59598611D01*
X34925000Y-59273389D01*
X34988447Y-58954422D01*
X35112902Y-58653960D01*
X35293584Y-58383551D01*
X35293585Y-58383549D01*
X35523549Y-58153585D01*
X35793958Y-57972903D01*
X36094421Y-57848447D01*
X36200744Y-57827298D01*
X36413389Y-57785000D01*
X36738611Y-57785000D01*
X36951256Y-57827298D01*
G37*
G36*
X156839256Y-57827298D02*
G01*
X156945579Y-57848447D01*
X157246042Y-57972903D01*
X157516451Y-58153585D01*
X157746415Y-58383549D01*
X157746416Y-58383551D01*
X157927098Y-58653960D01*
X158051553Y-58954422D01*
X158115000Y-59273389D01*
X158115000Y-59598611D01*
X158084459Y-59752148D01*
X158051553Y-59917579D01*
X157927097Y-60218042D01*
X157746415Y-60488451D01*
X157516451Y-60718415D01*
X157246042Y-60899097D01*
X156945579Y-61023553D01*
X156931502Y-61026353D01*
X156626611Y-61087000D01*
X156301389Y-61087000D01*
X155996498Y-61026353D01*
X155982421Y-61023553D01*
X155681958Y-60899097D01*
X155411549Y-60718415D01*
X155181585Y-60488451D01*
X155000903Y-60218042D01*
X154876447Y-59917579D01*
X154843541Y-59752148D01*
X154813000Y-59598611D01*
X154813000Y-59273389D01*
X154876447Y-58954422D01*
X155000902Y-58653960D01*
X155181584Y-58383551D01*
X155181585Y-58383549D01*
X155411549Y-58153585D01*
X155681958Y-57972903D01*
X155982421Y-57848447D01*
X156088744Y-57827298D01*
X156301389Y-57785000D01*
X156626611Y-57785000D01*
X156839256Y-57827298D01*
G37*
G36*
X44081000Y-58813000D02*
G01*
X42279000Y-58813000D01*
X42279000Y-57011000D01*
X44081000Y-57011000D01*
X44081000Y-58813000D01*
G37*
M02*
