G04 #@! TF.GenerationSoftware,KiCad,Pcbnew,5.1.5+dfsg1-2build2*
G04 #@! TF.CreationDate,2022-05-26T11:06:16-04:00*
G04 #@! TF.ProjectId,feather_valve_driver,66656174-6865-4725-9f76-616c76655f64,rev?*
G04 #@! TF.SameCoordinates,Original*
G04 #@! TF.FileFunction,Soldermask,Top*
G04 #@! TF.FilePolarity,Negative*
%FSLAX46Y46*%
G04 Gerber Fmt 4.6, Leading zero omitted, Abs format (unit mm)*
G04 Created by KiCad (PCBNEW 5.1.5+dfsg1-2build2) date 2022-05-26 11:06:16*
%MOMM*%
%LPD*%
G04 APERTURE LIST*
%ADD10C,0.100000*%
G04 APERTURE END LIST*
D10*
G36*
X65775242Y-117093404D02*
G01*
X65812337Y-117104657D01*
X65846515Y-117122925D01*
X65876481Y-117147519D01*
X65901075Y-117177485D01*
X65919343Y-117211663D01*
X65930596Y-117248758D01*
X65935000Y-117293474D01*
X65935000Y-118786526D01*
X65930596Y-118831242D01*
X65919343Y-118868337D01*
X65901075Y-118902515D01*
X65876481Y-118932481D01*
X65846515Y-118957075D01*
X65812337Y-118975343D01*
X65775242Y-118986596D01*
X65730526Y-118991000D01*
X64837474Y-118991000D01*
X64792758Y-118986596D01*
X64755663Y-118975343D01*
X64721485Y-118957075D01*
X64691519Y-118932481D01*
X64666925Y-118902515D01*
X64648657Y-118868337D01*
X64637404Y-118831242D01*
X64633000Y-118786526D01*
X64633000Y-117293474D01*
X64637404Y-117248758D01*
X64648657Y-117211663D01*
X64666925Y-117177485D01*
X64691519Y-117147519D01*
X64721485Y-117122925D01*
X64755663Y-117104657D01*
X64792758Y-117093404D01*
X64837474Y-117089000D01*
X65730526Y-117089000D01*
X65775242Y-117093404D01*
G37*
G36*
X60175242Y-117093404D02*
G01*
X60212337Y-117104657D01*
X60246515Y-117122925D01*
X60276481Y-117147519D01*
X60301075Y-117177485D01*
X60319343Y-117211663D01*
X60330596Y-117248758D01*
X60335000Y-117293474D01*
X60335000Y-118786526D01*
X60330596Y-118831242D01*
X60319343Y-118868337D01*
X60301075Y-118902515D01*
X60276481Y-118932481D01*
X60246515Y-118957075D01*
X60212337Y-118975343D01*
X60175242Y-118986596D01*
X60130526Y-118991000D01*
X59237474Y-118991000D01*
X59192758Y-118986596D01*
X59155663Y-118975343D01*
X59121485Y-118957075D01*
X59091519Y-118932481D01*
X59066925Y-118902515D01*
X59048657Y-118868337D01*
X59037404Y-118831242D01*
X59033000Y-118786526D01*
X59033000Y-117293474D01*
X59037404Y-117248758D01*
X59048657Y-117211663D01*
X59066925Y-117177485D01*
X59091519Y-117147519D01*
X59121485Y-117122925D01*
X59155663Y-117104657D01*
X59192758Y-117093404D01*
X59237474Y-117089000D01*
X60130526Y-117089000D01*
X60175242Y-117093404D01*
G37*
G36*
X36951256Y-114215298D02*
G01*
X37057579Y-114236447D01*
X37358042Y-114360903D01*
X37628451Y-114541585D01*
X37858415Y-114771549D01*
X37858416Y-114771551D01*
X38039098Y-115041960D01*
X38163553Y-115342422D01*
X38221184Y-115632148D01*
X38227000Y-115661391D01*
X38227000Y-115986609D01*
X38163553Y-116305579D01*
X38039097Y-116606042D01*
X37858415Y-116876451D01*
X37628451Y-117106415D01*
X37358042Y-117287097D01*
X37057579Y-117411553D01*
X36951256Y-117432702D01*
X36738611Y-117475000D01*
X36413389Y-117475000D01*
X36200744Y-117432702D01*
X36094421Y-117411553D01*
X35793958Y-117287097D01*
X35523549Y-117106415D01*
X35293585Y-116876451D01*
X35112903Y-116606042D01*
X34988447Y-116305579D01*
X34925000Y-115986609D01*
X34925000Y-115661391D01*
X34930817Y-115632148D01*
X34988447Y-115342422D01*
X35112902Y-115041960D01*
X35293584Y-114771551D01*
X35293585Y-114771549D01*
X35523549Y-114541585D01*
X35793958Y-114360903D01*
X36094421Y-114236447D01*
X36200744Y-114215298D01*
X36413389Y-114173000D01*
X36738611Y-114173000D01*
X36951256Y-114215298D01*
G37*
G36*
X156839256Y-114215298D02*
G01*
X156945579Y-114236447D01*
X157246042Y-114360903D01*
X157516451Y-114541585D01*
X157746415Y-114771549D01*
X157746416Y-114771551D01*
X157927098Y-115041960D01*
X158051553Y-115342422D01*
X158109184Y-115632148D01*
X158115000Y-115661391D01*
X158115000Y-115986609D01*
X158051553Y-116305579D01*
X157927097Y-116606042D01*
X157746415Y-116876451D01*
X157516451Y-117106415D01*
X157246042Y-117287097D01*
X156945579Y-117411553D01*
X156839256Y-117432702D01*
X156626611Y-117475000D01*
X156301389Y-117475000D01*
X156088744Y-117432702D01*
X155982421Y-117411553D01*
X155681958Y-117287097D01*
X155411549Y-117106415D01*
X155181585Y-116876451D01*
X155000903Y-116606042D01*
X154876447Y-116305579D01*
X154813000Y-115986609D01*
X154813000Y-115661391D01*
X154818817Y-115632148D01*
X154876447Y-115342422D01*
X155000902Y-115041960D01*
X155181584Y-114771551D01*
X155181585Y-114771549D01*
X155411549Y-114541585D01*
X155681958Y-114360903D01*
X155982421Y-114236447D01*
X156088744Y-114215298D01*
X156301389Y-114173000D01*
X156626611Y-114173000D01*
X156839256Y-114215298D01*
G37*
G36*
X46849512Y-115435927D02*
G01*
X46998812Y-115465624D01*
X47162784Y-115533544D01*
X47310354Y-115632147D01*
X47435853Y-115757646D01*
X47534456Y-115905216D01*
X47602376Y-116069188D01*
X47637000Y-116243259D01*
X47637000Y-116420741D01*
X47602376Y-116594812D01*
X47534456Y-116758784D01*
X47435853Y-116906354D01*
X47310354Y-117031853D01*
X47162784Y-117130456D01*
X46998812Y-117198376D01*
X46849512Y-117228073D01*
X46824742Y-117233000D01*
X46647258Y-117233000D01*
X46622488Y-117228073D01*
X46473188Y-117198376D01*
X46309216Y-117130456D01*
X46161646Y-117031853D01*
X46036147Y-116906354D01*
X45937544Y-116758784D01*
X45869624Y-116594812D01*
X45835000Y-116420741D01*
X45835000Y-116243259D01*
X45869624Y-116069188D01*
X45937544Y-115905216D01*
X46036147Y-115757646D01*
X46161646Y-115632147D01*
X46309216Y-115533544D01*
X46473188Y-115465624D01*
X46622488Y-115435927D01*
X46647258Y-115431000D01*
X46824742Y-115431000D01*
X46849512Y-115435927D01*
G37*
G36*
X51929512Y-115435927D02*
G01*
X52078812Y-115465624D01*
X52242784Y-115533544D01*
X52390354Y-115632147D01*
X52515853Y-115757646D01*
X52614456Y-115905216D01*
X52682376Y-116069188D01*
X52717000Y-116243259D01*
X52717000Y-116420741D01*
X52682376Y-116594812D01*
X52614456Y-116758784D01*
X52515853Y-116906354D01*
X52390354Y-117031853D01*
X52242784Y-117130456D01*
X52078812Y-117198376D01*
X51929512Y-117228073D01*
X51904742Y-117233000D01*
X51727258Y-117233000D01*
X51702488Y-117228073D01*
X51553188Y-117198376D01*
X51389216Y-117130456D01*
X51241646Y-117031853D01*
X51116147Y-116906354D01*
X51017544Y-116758784D01*
X50949624Y-116594812D01*
X50915000Y-116420741D01*
X50915000Y-116243259D01*
X50949624Y-116069188D01*
X51017544Y-115905216D01*
X51116147Y-115757646D01*
X51241646Y-115632147D01*
X51389216Y-115533544D01*
X51553188Y-115465624D01*
X51702488Y-115435927D01*
X51727258Y-115431000D01*
X51904742Y-115431000D01*
X51929512Y-115435927D01*
G37*
G36*
X55257000Y-117233000D02*
G01*
X53455000Y-117233000D01*
X53455000Y-115431000D01*
X55257000Y-115431000D01*
X55257000Y-117233000D01*
G37*
G36*
X49389512Y-115435927D02*
G01*
X49538812Y-115465624D01*
X49702784Y-115533544D01*
X49850354Y-115632147D01*
X49975853Y-115757646D01*
X50074456Y-115905216D01*
X50142376Y-116069188D01*
X50177000Y-116243259D01*
X50177000Y-116420741D01*
X50142376Y-116594812D01*
X50074456Y-116758784D01*
X49975853Y-116906354D01*
X49850354Y-117031853D01*
X49702784Y-117130456D01*
X49538812Y-117198376D01*
X49389512Y-117228073D01*
X49364742Y-117233000D01*
X49187258Y-117233000D01*
X49162488Y-117228073D01*
X49013188Y-117198376D01*
X48849216Y-117130456D01*
X48701646Y-117031853D01*
X48576147Y-116906354D01*
X48477544Y-116758784D01*
X48409624Y-116594812D01*
X48375000Y-116420741D01*
X48375000Y-116243259D01*
X48409624Y-116069188D01*
X48477544Y-115905216D01*
X48576147Y-115757646D01*
X48701646Y-115632147D01*
X48849216Y-115533544D01*
X49013188Y-115465624D01*
X49162488Y-115435927D01*
X49187258Y-115431000D01*
X49364742Y-115431000D01*
X49389512Y-115435927D01*
G37*
G36*
X63243928Y-114691764D02*
G01*
X63265009Y-114698160D01*
X63284445Y-114708548D01*
X63301476Y-114722524D01*
X63315452Y-114739555D01*
X63325840Y-114758991D01*
X63332236Y-114780072D01*
X63335000Y-114808140D01*
X63335000Y-116221860D01*
X63332236Y-116249928D01*
X63325840Y-116271009D01*
X63315452Y-116290445D01*
X63301476Y-116307476D01*
X63284445Y-116321452D01*
X63265009Y-116331840D01*
X63243928Y-116338236D01*
X63215860Y-116341000D01*
X62752140Y-116341000D01*
X62724072Y-116338236D01*
X62702991Y-116331840D01*
X62683555Y-116321452D01*
X62666524Y-116307476D01*
X62652548Y-116290445D01*
X62642160Y-116271009D01*
X62635764Y-116249928D01*
X62633000Y-116221860D01*
X62633000Y-114808140D01*
X62635764Y-114780072D01*
X62642160Y-114758991D01*
X62652548Y-114739555D01*
X62666524Y-114722524D01*
X62683555Y-114708548D01*
X62702991Y-114698160D01*
X62724072Y-114691764D01*
X62752140Y-114689000D01*
X63215860Y-114689000D01*
X63243928Y-114691764D01*
G37*
G36*
X62243928Y-114691764D02*
G01*
X62265009Y-114698160D01*
X62284445Y-114708548D01*
X62301476Y-114722524D01*
X62315452Y-114739555D01*
X62325840Y-114758991D01*
X62332236Y-114780072D01*
X62335000Y-114808140D01*
X62335000Y-116221860D01*
X62332236Y-116249928D01*
X62325840Y-116271009D01*
X62315452Y-116290445D01*
X62301476Y-116307476D01*
X62284445Y-116321452D01*
X62265009Y-116331840D01*
X62243928Y-116338236D01*
X62215860Y-116341000D01*
X61752140Y-116341000D01*
X61724072Y-116338236D01*
X61702991Y-116331840D01*
X61683555Y-116321452D01*
X61666524Y-116307476D01*
X61652548Y-116290445D01*
X61642160Y-116271009D01*
X61635764Y-116249928D01*
X61633000Y-116221860D01*
X61633000Y-114808140D01*
X61635764Y-114780072D01*
X61642160Y-114758991D01*
X61652548Y-114739555D01*
X61666524Y-114722524D01*
X61683555Y-114708548D01*
X61702991Y-114698160D01*
X61724072Y-114691764D01*
X61752140Y-114689000D01*
X62215860Y-114689000D01*
X62243928Y-114691764D01*
G37*
G36*
X61243928Y-114691764D02*
G01*
X61265009Y-114698160D01*
X61284445Y-114708548D01*
X61301476Y-114722524D01*
X61315452Y-114739555D01*
X61325840Y-114758991D01*
X61332236Y-114780072D01*
X61335000Y-114808140D01*
X61335000Y-116221860D01*
X61332236Y-116249928D01*
X61325840Y-116271009D01*
X61315452Y-116290445D01*
X61301476Y-116307476D01*
X61284445Y-116321452D01*
X61265009Y-116331840D01*
X61243928Y-116338236D01*
X61215860Y-116341000D01*
X60752140Y-116341000D01*
X60724072Y-116338236D01*
X60702991Y-116331840D01*
X60683555Y-116321452D01*
X60666524Y-116307476D01*
X60652548Y-116290445D01*
X60642160Y-116271009D01*
X60635764Y-116249928D01*
X60633000Y-116221860D01*
X60633000Y-114808140D01*
X60635764Y-114780072D01*
X60642160Y-114758991D01*
X60652548Y-114739555D01*
X60666524Y-114722524D01*
X60683555Y-114708548D01*
X60702991Y-114698160D01*
X60724072Y-114691764D01*
X60752140Y-114689000D01*
X61215860Y-114689000D01*
X61243928Y-114691764D01*
G37*
G36*
X64243928Y-114691764D02*
G01*
X64265009Y-114698160D01*
X64284445Y-114708548D01*
X64301476Y-114722524D01*
X64315452Y-114739555D01*
X64325840Y-114758991D01*
X64332236Y-114780072D01*
X64335000Y-114808140D01*
X64335000Y-116221860D01*
X64332236Y-116249928D01*
X64325840Y-116271009D01*
X64315452Y-116290445D01*
X64301476Y-116307476D01*
X64284445Y-116321452D01*
X64265009Y-116331840D01*
X64243928Y-116338236D01*
X64215860Y-116341000D01*
X63752140Y-116341000D01*
X63724072Y-116338236D01*
X63702991Y-116331840D01*
X63683555Y-116321452D01*
X63666524Y-116307476D01*
X63652548Y-116290445D01*
X63642160Y-116271009D01*
X63635764Y-116249928D01*
X63633000Y-116221860D01*
X63633000Y-114808140D01*
X63635764Y-114780072D01*
X63642160Y-114758991D01*
X63652548Y-114739555D01*
X63666524Y-114722524D01*
X63683555Y-114708548D01*
X63702991Y-114698160D01*
X63724072Y-114691764D01*
X63752140Y-114689000D01*
X64215860Y-114689000D01*
X64243928Y-114691764D01*
G37*
G36*
X109614072Y-111476918D02*
G01*
X109859939Y-111578759D01*
X110081212Y-111726610D01*
X110269390Y-111914788D01*
X110417241Y-112136061D01*
X110519082Y-112381928D01*
X110571000Y-112642938D01*
X110571000Y-112909062D01*
X110519082Y-113170072D01*
X110417241Y-113415939D01*
X110269390Y-113637212D01*
X110081212Y-113825390D01*
X109859939Y-113973241D01*
X109859938Y-113973242D01*
X109859937Y-113973242D01*
X109614072Y-114075082D01*
X109353063Y-114127000D01*
X109086937Y-114127000D01*
X108825928Y-114075082D01*
X108580063Y-113973242D01*
X108580062Y-113973242D01*
X108580061Y-113973241D01*
X108358788Y-113825390D01*
X108170610Y-113637212D01*
X108022759Y-113415939D01*
X107920918Y-113170072D01*
X107869000Y-112909062D01*
X107869000Y-112642938D01*
X107920918Y-112381928D01*
X108022759Y-112136061D01*
X108170610Y-111914788D01*
X108358788Y-111726610D01*
X108580061Y-111578759D01*
X108825928Y-111476918D01*
X109086937Y-111425000D01*
X109353063Y-111425000D01*
X109614072Y-111476918D01*
G37*
G36*
X124854072Y-111476918D02*
G01*
X125099939Y-111578759D01*
X125321212Y-111726610D01*
X125509390Y-111914788D01*
X125657241Y-112136061D01*
X125759082Y-112381928D01*
X125811000Y-112642938D01*
X125811000Y-112909062D01*
X125759082Y-113170072D01*
X125657241Y-113415939D01*
X125509390Y-113637212D01*
X125321212Y-113825390D01*
X125099939Y-113973241D01*
X125099938Y-113973242D01*
X125099937Y-113973242D01*
X124854072Y-114075082D01*
X124593063Y-114127000D01*
X124326937Y-114127000D01*
X124065928Y-114075082D01*
X123820063Y-113973242D01*
X123820062Y-113973242D01*
X123820061Y-113973241D01*
X123598788Y-113825390D01*
X123410610Y-113637212D01*
X123262759Y-113415939D01*
X123160918Y-113170072D01*
X123109000Y-112909062D01*
X123109000Y-112642938D01*
X123160918Y-112381928D01*
X123262759Y-112136061D01*
X123410610Y-111914788D01*
X123598788Y-111726610D01*
X123820061Y-111578759D01*
X124065928Y-111476918D01*
X124326937Y-111425000D01*
X124593063Y-111425000D01*
X124854072Y-111476918D01*
G37*
G36*
X129934072Y-111476918D02*
G01*
X130179939Y-111578759D01*
X130401212Y-111726610D01*
X130589390Y-111914788D01*
X130737241Y-112136061D01*
X130839082Y-112381928D01*
X130891000Y-112642938D01*
X130891000Y-112909062D01*
X130839082Y-113170072D01*
X130737241Y-113415939D01*
X130589390Y-113637212D01*
X130401212Y-113825390D01*
X130179939Y-113973241D01*
X130179938Y-113973242D01*
X130179937Y-113973242D01*
X129934072Y-114075082D01*
X129673063Y-114127000D01*
X129406937Y-114127000D01*
X129145928Y-114075082D01*
X128900063Y-113973242D01*
X128900062Y-113973242D01*
X128900061Y-113973241D01*
X128678788Y-113825390D01*
X128490610Y-113637212D01*
X128342759Y-113415939D01*
X128240918Y-113170072D01*
X128189000Y-112909062D01*
X128189000Y-112642938D01*
X128240918Y-112381928D01*
X128342759Y-112136061D01*
X128490610Y-111914788D01*
X128678788Y-111726610D01*
X128900061Y-111578759D01*
X129145928Y-111476918D01*
X129406937Y-111425000D01*
X129673063Y-111425000D01*
X129934072Y-111476918D01*
G37*
G36*
X135014072Y-111476918D02*
G01*
X135259939Y-111578759D01*
X135481212Y-111726610D01*
X135669390Y-111914788D01*
X135817241Y-112136061D01*
X135919082Y-112381928D01*
X135971000Y-112642938D01*
X135971000Y-112909062D01*
X135919082Y-113170072D01*
X135817241Y-113415939D01*
X135669390Y-113637212D01*
X135481212Y-113825390D01*
X135259939Y-113973241D01*
X135259938Y-113973242D01*
X135259937Y-113973242D01*
X135014072Y-114075082D01*
X134753063Y-114127000D01*
X134486937Y-114127000D01*
X134225928Y-114075082D01*
X133980063Y-113973242D01*
X133980062Y-113973242D01*
X133980061Y-113973241D01*
X133758788Y-113825390D01*
X133570610Y-113637212D01*
X133422759Y-113415939D01*
X133320918Y-113170072D01*
X133269000Y-112909062D01*
X133269000Y-112642938D01*
X133320918Y-112381928D01*
X133422759Y-112136061D01*
X133570610Y-111914788D01*
X133758788Y-111726610D01*
X133980061Y-111578759D01*
X134225928Y-111476918D01*
X134486937Y-111425000D01*
X134753063Y-111425000D01*
X135014072Y-111476918D01*
G37*
G36*
X140094072Y-111476918D02*
G01*
X140339939Y-111578759D01*
X140561212Y-111726610D01*
X140749390Y-111914788D01*
X140897241Y-112136061D01*
X140999082Y-112381928D01*
X141051000Y-112642938D01*
X141051000Y-112909062D01*
X140999082Y-113170072D01*
X140897241Y-113415939D01*
X140749390Y-113637212D01*
X140561212Y-113825390D01*
X140339939Y-113973241D01*
X140339938Y-113973242D01*
X140339937Y-113973242D01*
X140094072Y-114075082D01*
X139833063Y-114127000D01*
X139566937Y-114127000D01*
X139305928Y-114075082D01*
X139060063Y-113973242D01*
X139060062Y-113973242D01*
X139060061Y-113973241D01*
X138838788Y-113825390D01*
X138650610Y-113637212D01*
X138502759Y-113415939D01*
X138400918Y-113170072D01*
X138349000Y-112909062D01*
X138349000Y-112642938D01*
X138400918Y-112381928D01*
X138502759Y-112136061D01*
X138650610Y-111914788D01*
X138838788Y-111726610D01*
X139060061Y-111578759D01*
X139305928Y-111476918D01*
X139566937Y-111425000D01*
X139833063Y-111425000D01*
X140094072Y-111476918D01*
G37*
G36*
X145174072Y-111476918D02*
G01*
X145419939Y-111578759D01*
X145641212Y-111726610D01*
X145829390Y-111914788D01*
X145977241Y-112136061D01*
X146079082Y-112381928D01*
X146131000Y-112642938D01*
X146131000Y-112909062D01*
X146079082Y-113170072D01*
X145977241Y-113415939D01*
X145829390Y-113637212D01*
X145641212Y-113825390D01*
X145419939Y-113973241D01*
X145419938Y-113973242D01*
X145419937Y-113973242D01*
X145174072Y-114075082D01*
X144913063Y-114127000D01*
X144646937Y-114127000D01*
X144385928Y-114075082D01*
X144140063Y-113973242D01*
X144140062Y-113973242D01*
X144140061Y-113973241D01*
X143918788Y-113825390D01*
X143730610Y-113637212D01*
X143582759Y-113415939D01*
X143480918Y-113170072D01*
X143429000Y-112909062D01*
X143429000Y-112642938D01*
X143480918Y-112381928D01*
X143582759Y-112136061D01*
X143730610Y-111914788D01*
X143918788Y-111726610D01*
X144140061Y-111578759D01*
X144385928Y-111476918D01*
X144646937Y-111425000D01*
X144913063Y-111425000D01*
X145174072Y-111476918D01*
G37*
G36*
X151211000Y-114127000D02*
G01*
X148509000Y-114127000D01*
X148509000Y-111425000D01*
X151211000Y-111425000D01*
X151211000Y-114127000D01*
G37*
G36*
X114694072Y-111476918D02*
G01*
X114939939Y-111578759D01*
X115161212Y-111726610D01*
X115349390Y-111914788D01*
X115497241Y-112136061D01*
X115599082Y-112381928D01*
X115651000Y-112642938D01*
X115651000Y-112909062D01*
X115599082Y-113170072D01*
X115497241Y-113415939D01*
X115349390Y-113637212D01*
X115161212Y-113825390D01*
X114939939Y-113973241D01*
X114939938Y-113973242D01*
X114939937Y-113973242D01*
X114694072Y-114075082D01*
X114433063Y-114127000D01*
X114166937Y-114127000D01*
X113905928Y-114075082D01*
X113660063Y-113973242D01*
X113660062Y-113973242D01*
X113660061Y-113973241D01*
X113438788Y-113825390D01*
X113250610Y-113637212D01*
X113102759Y-113415939D01*
X113000918Y-113170072D01*
X112949000Y-112909062D01*
X112949000Y-112642938D01*
X113000918Y-112381928D01*
X113102759Y-112136061D01*
X113250610Y-111914788D01*
X113438788Y-111726610D01*
X113660061Y-111578759D01*
X113905928Y-111476918D01*
X114166937Y-111425000D01*
X114433063Y-111425000D01*
X114694072Y-111476918D01*
G37*
G36*
X104534072Y-111476918D02*
G01*
X104779939Y-111578759D01*
X105001212Y-111726610D01*
X105189390Y-111914788D01*
X105337241Y-112136061D01*
X105439082Y-112381928D01*
X105491000Y-112642938D01*
X105491000Y-112909062D01*
X105439082Y-113170072D01*
X105337241Y-113415939D01*
X105189390Y-113637212D01*
X105001212Y-113825390D01*
X104779939Y-113973241D01*
X104779938Y-113973242D01*
X104779937Y-113973242D01*
X104534072Y-114075082D01*
X104273063Y-114127000D01*
X104006937Y-114127000D01*
X103745928Y-114075082D01*
X103500063Y-113973242D01*
X103500062Y-113973242D01*
X103500061Y-113973241D01*
X103278788Y-113825390D01*
X103090610Y-113637212D01*
X102942759Y-113415939D01*
X102840918Y-113170072D01*
X102789000Y-112909062D01*
X102789000Y-112642938D01*
X102840918Y-112381928D01*
X102942759Y-112136061D01*
X103090610Y-111914788D01*
X103278788Y-111726610D01*
X103500061Y-111578759D01*
X103745928Y-111476918D01*
X104006937Y-111425000D01*
X104273063Y-111425000D01*
X104534072Y-111476918D01*
G37*
G36*
X119774072Y-111476918D02*
G01*
X120019939Y-111578759D01*
X120241212Y-111726610D01*
X120429390Y-111914788D01*
X120577241Y-112136061D01*
X120679082Y-112381928D01*
X120731000Y-112642938D01*
X120731000Y-112909062D01*
X120679082Y-113170072D01*
X120577241Y-113415939D01*
X120429390Y-113637212D01*
X120241212Y-113825390D01*
X120019939Y-113973241D01*
X120019938Y-113973242D01*
X120019937Y-113973242D01*
X119774072Y-114075082D01*
X119513063Y-114127000D01*
X119246937Y-114127000D01*
X118985928Y-114075082D01*
X118740063Y-113973242D01*
X118740062Y-113973242D01*
X118740061Y-113973241D01*
X118518788Y-113825390D01*
X118330610Y-113637212D01*
X118182759Y-113415939D01*
X118080918Y-113170072D01*
X118029000Y-112909062D01*
X118029000Y-112642938D01*
X118080918Y-112381928D01*
X118182759Y-112136061D01*
X118330610Y-111914788D01*
X118518788Y-111726610D01*
X118740061Y-111578759D01*
X118985928Y-111476918D01*
X119246937Y-111425000D01*
X119513063Y-111425000D01*
X119774072Y-111476918D01*
G37*
G36*
X94374072Y-111476918D02*
G01*
X94619939Y-111578759D01*
X94841212Y-111726610D01*
X95029390Y-111914788D01*
X95177241Y-112136061D01*
X95279082Y-112381928D01*
X95331000Y-112642938D01*
X95331000Y-112909062D01*
X95279082Y-113170072D01*
X95177241Y-113415939D01*
X95029390Y-113637212D01*
X94841212Y-113825390D01*
X94619939Y-113973241D01*
X94619938Y-113973242D01*
X94619937Y-113973242D01*
X94374072Y-114075082D01*
X94113063Y-114127000D01*
X93846937Y-114127000D01*
X93585928Y-114075082D01*
X93340063Y-113973242D01*
X93340062Y-113973242D01*
X93340061Y-113973241D01*
X93118788Y-113825390D01*
X92930610Y-113637212D01*
X92782759Y-113415939D01*
X92680918Y-113170072D01*
X92629000Y-112909062D01*
X92629000Y-112642938D01*
X92680918Y-112381928D01*
X92782759Y-112136061D01*
X92930610Y-111914788D01*
X93118788Y-111726610D01*
X93340061Y-111578759D01*
X93585928Y-111476918D01*
X93846937Y-111425000D01*
X94113063Y-111425000D01*
X94374072Y-111476918D01*
G37*
G36*
X89294072Y-111476918D02*
G01*
X89539939Y-111578759D01*
X89761212Y-111726610D01*
X89949390Y-111914788D01*
X90097241Y-112136061D01*
X90199082Y-112381928D01*
X90251000Y-112642938D01*
X90251000Y-112909062D01*
X90199082Y-113170072D01*
X90097241Y-113415939D01*
X89949390Y-113637212D01*
X89761212Y-113825390D01*
X89539939Y-113973241D01*
X89539938Y-113973242D01*
X89539937Y-113973242D01*
X89294072Y-114075082D01*
X89033063Y-114127000D01*
X88766937Y-114127000D01*
X88505928Y-114075082D01*
X88260063Y-113973242D01*
X88260062Y-113973242D01*
X88260061Y-113973241D01*
X88038788Y-113825390D01*
X87850610Y-113637212D01*
X87702759Y-113415939D01*
X87600918Y-113170072D01*
X87549000Y-112909062D01*
X87549000Y-112642938D01*
X87600918Y-112381928D01*
X87702759Y-112136061D01*
X87850610Y-111914788D01*
X88038788Y-111726610D01*
X88260061Y-111578759D01*
X88505928Y-111476918D01*
X88766937Y-111425000D01*
X89033063Y-111425000D01*
X89294072Y-111476918D01*
G37*
G36*
X84214072Y-111476918D02*
G01*
X84459939Y-111578759D01*
X84681212Y-111726610D01*
X84869390Y-111914788D01*
X85017241Y-112136061D01*
X85119082Y-112381928D01*
X85171000Y-112642938D01*
X85171000Y-112909062D01*
X85119082Y-113170072D01*
X85017241Y-113415939D01*
X84869390Y-113637212D01*
X84681212Y-113825390D01*
X84459939Y-113973241D01*
X84459938Y-113973242D01*
X84459937Y-113973242D01*
X84214072Y-114075082D01*
X83953063Y-114127000D01*
X83686937Y-114127000D01*
X83425928Y-114075082D01*
X83180063Y-113973242D01*
X83180062Y-113973242D01*
X83180061Y-113973241D01*
X82958788Y-113825390D01*
X82770610Y-113637212D01*
X82622759Y-113415939D01*
X82520918Y-113170072D01*
X82469000Y-112909062D01*
X82469000Y-112642938D01*
X82520918Y-112381928D01*
X82622759Y-112136061D01*
X82770610Y-111914788D01*
X82958788Y-111726610D01*
X83180061Y-111578759D01*
X83425928Y-111476918D01*
X83686937Y-111425000D01*
X83953063Y-111425000D01*
X84214072Y-111476918D01*
G37*
G36*
X79134072Y-111476918D02*
G01*
X79379939Y-111578759D01*
X79601212Y-111726610D01*
X79789390Y-111914788D01*
X79937241Y-112136061D01*
X80039082Y-112381928D01*
X80091000Y-112642938D01*
X80091000Y-112909062D01*
X80039082Y-113170072D01*
X79937241Y-113415939D01*
X79789390Y-113637212D01*
X79601212Y-113825390D01*
X79379939Y-113973241D01*
X79379938Y-113973242D01*
X79379937Y-113973242D01*
X79134072Y-114075082D01*
X78873063Y-114127000D01*
X78606937Y-114127000D01*
X78345928Y-114075082D01*
X78100063Y-113973242D01*
X78100062Y-113973242D01*
X78100061Y-113973241D01*
X77878788Y-113825390D01*
X77690610Y-113637212D01*
X77542759Y-113415939D01*
X77440918Y-113170072D01*
X77389000Y-112909062D01*
X77389000Y-112642938D01*
X77440918Y-112381928D01*
X77542759Y-112136061D01*
X77690610Y-111914788D01*
X77878788Y-111726610D01*
X78100061Y-111578759D01*
X78345928Y-111476918D01*
X78606937Y-111425000D01*
X78873063Y-111425000D01*
X79134072Y-111476918D01*
G37*
G36*
X74054072Y-111476918D02*
G01*
X74299939Y-111578759D01*
X74521212Y-111726610D01*
X74709390Y-111914788D01*
X74857241Y-112136061D01*
X74959082Y-112381928D01*
X75011000Y-112642938D01*
X75011000Y-112909062D01*
X74959082Y-113170072D01*
X74857241Y-113415939D01*
X74709390Y-113637212D01*
X74521212Y-113825390D01*
X74299939Y-113973241D01*
X74299938Y-113973242D01*
X74299937Y-113973242D01*
X74054072Y-114075082D01*
X73793063Y-114127000D01*
X73526937Y-114127000D01*
X73265928Y-114075082D01*
X73020063Y-113973242D01*
X73020062Y-113973242D01*
X73020061Y-113973241D01*
X72798788Y-113825390D01*
X72610610Y-113637212D01*
X72462759Y-113415939D01*
X72360918Y-113170072D01*
X72309000Y-112909062D01*
X72309000Y-112642938D01*
X72360918Y-112381928D01*
X72462759Y-112136061D01*
X72610610Y-111914788D01*
X72798788Y-111726610D01*
X73020061Y-111578759D01*
X73265928Y-111476918D01*
X73526937Y-111425000D01*
X73793063Y-111425000D01*
X74054072Y-111476918D01*
G37*
G36*
X99454072Y-111476918D02*
G01*
X99699939Y-111578759D01*
X99921212Y-111726610D01*
X100109390Y-111914788D01*
X100257241Y-112136061D01*
X100359082Y-112381928D01*
X100411000Y-112642938D01*
X100411000Y-112909062D01*
X100359082Y-113170072D01*
X100257241Y-113415939D01*
X100109390Y-113637212D01*
X99921212Y-113825390D01*
X99699939Y-113973241D01*
X99699938Y-113973242D01*
X99699937Y-113973242D01*
X99454072Y-114075082D01*
X99193063Y-114127000D01*
X98926937Y-114127000D01*
X98665928Y-114075082D01*
X98420063Y-113973242D01*
X98420062Y-113973242D01*
X98420061Y-113973241D01*
X98198788Y-113825390D01*
X98010610Y-113637212D01*
X97862759Y-113415939D01*
X97760918Y-113170072D01*
X97709000Y-112909062D01*
X97709000Y-112642938D01*
X97760918Y-112381928D01*
X97862759Y-112136061D01*
X98010610Y-111914788D01*
X98198788Y-111726610D01*
X98420061Y-111578759D01*
X98665928Y-111476918D01*
X98926937Y-111425000D01*
X99193063Y-111425000D01*
X99454072Y-111476918D01*
G37*
G36*
X141461000Y-105091000D02*
G01*
X137859000Y-105091000D01*
X137859000Y-103189000D01*
X141461000Y-103189000D01*
X141461000Y-105091000D01*
G37*
G36*
X85701000Y-105091000D02*
G01*
X82099000Y-105091000D01*
X82099000Y-103189000D01*
X85701000Y-103189000D01*
X85701000Y-105091000D01*
G37*
G36*
X80541000Y-105091000D02*
G01*
X76939000Y-105091000D01*
X76939000Y-103189000D01*
X80541000Y-103189000D01*
X80541000Y-105091000D01*
G37*
G36*
X75541000Y-105091000D02*
G01*
X71939000Y-105091000D01*
X71939000Y-103189000D01*
X75541000Y-103189000D01*
X75541000Y-105091000D01*
G37*
G36*
X95821000Y-105091000D02*
G01*
X92219000Y-105091000D01*
X92219000Y-103189000D01*
X95821000Y-103189000D01*
X95821000Y-105091000D01*
G37*
G36*
X100821000Y-105091000D02*
G01*
X97219000Y-105091000D01*
X97219000Y-103189000D01*
X100821000Y-103189000D01*
X100821000Y-105091000D01*
G37*
G36*
X105981000Y-105091000D02*
G01*
X102379000Y-105091000D01*
X102379000Y-103189000D01*
X105981000Y-103189000D01*
X105981000Y-105091000D01*
G37*
G36*
X110981000Y-105091000D02*
G01*
X107379000Y-105091000D01*
X107379000Y-103189000D01*
X110981000Y-103189000D01*
X110981000Y-105091000D01*
G37*
G36*
X121101000Y-105091000D02*
G01*
X117499000Y-105091000D01*
X117499000Y-103189000D01*
X121101000Y-103189000D01*
X121101000Y-105091000D01*
G37*
G36*
X126341000Y-105091000D02*
G01*
X122739000Y-105091000D01*
X122739000Y-103189000D01*
X126341000Y-103189000D01*
X126341000Y-105091000D01*
G37*
G36*
X131341000Y-105091000D02*
G01*
X127739000Y-105091000D01*
X127739000Y-103189000D01*
X131341000Y-103189000D01*
X131341000Y-105091000D01*
G37*
G36*
X136461000Y-105091000D02*
G01*
X132859000Y-105091000D01*
X132859000Y-103189000D01*
X136461000Y-103189000D01*
X136461000Y-105091000D01*
G37*
G36*
X146661000Y-105091000D02*
G01*
X143059000Y-105091000D01*
X143059000Y-103189000D01*
X146661000Y-103189000D01*
X146661000Y-105091000D01*
G37*
G36*
X90701000Y-105091000D02*
G01*
X87099000Y-105091000D01*
X87099000Y-103189000D01*
X90701000Y-103189000D01*
X90701000Y-105091000D01*
G37*
G36*
X151661000Y-105091000D02*
G01*
X148059000Y-105091000D01*
X148059000Y-103189000D01*
X151661000Y-103189000D01*
X151661000Y-105091000D01*
G37*
G36*
X116101000Y-105091000D02*
G01*
X112499000Y-105091000D01*
X112499000Y-103189000D01*
X116101000Y-103189000D01*
X116101000Y-105091000D01*
G37*
G36*
X126501000Y-99191000D02*
G01*
X124499000Y-99191000D01*
X124499000Y-98289000D01*
X126501000Y-98289000D01*
X126501000Y-99191000D01*
G37*
G36*
X146821000Y-99191000D02*
G01*
X144819000Y-99191000D01*
X144819000Y-98289000D01*
X146821000Y-98289000D01*
X146821000Y-99191000D01*
G37*
G36*
X75701000Y-99191000D02*
G01*
X73699000Y-99191000D01*
X73699000Y-98289000D01*
X75701000Y-98289000D01*
X75701000Y-99191000D01*
G37*
G36*
X136661000Y-99191000D02*
G01*
X134659000Y-99191000D01*
X134659000Y-98289000D01*
X136661000Y-98289000D01*
X136661000Y-99191000D01*
G37*
G36*
X85861000Y-99191000D02*
G01*
X83859000Y-99191000D01*
X83859000Y-98289000D01*
X85861000Y-98289000D01*
X85861000Y-99191000D01*
G37*
G36*
X96251000Y-99191000D02*
G01*
X94249000Y-99191000D01*
X94249000Y-98289000D01*
X96251000Y-98289000D01*
X96251000Y-99191000D01*
G37*
G36*
X116341000Y-99191000D02*
G01*
X114339000Y-99191000D01*
X114339000Y-98289000D01*
X116341000Y-98289000D01*
X116341000Y-99191000D01*
G37*
G36*
X106181000Y-99191000D02*
G01*
X104179000Y-99191000D01*
X104179000Y-98289000D01*
X106181000Y-98289000D01*
X106181000Y-99191000D01*
G37*
G36*
X155188228Y-97225703D02*
G01*
X155343100Y-97289853D01*
X155482481Y-97382985D01*
X155601015Y-97501519D01*
X155694147Y-97640900D01*
X155758297Y-97795772D01*
X155791000Y-97960184D01*
X155791000Y-98127816D01*
X155758297Y-98292228D01*
X155694147Y-98447100D01*
X155601015Y-98586481D01*
X155482481Y-98705015D01*
X155343100Y-98798147D01*
X155188228Y-98862297D01*
X155023816Y-98895000D01*
X154856184Y-98895000D01*
X154691772Y-98862297D01*
X154536900Y-98798147D01*
X154397519Y-98705015D01*
X154278985Y-98586481D01*
X154185853Y-98447100D01*
X154121703Y-98292228D01*
X154089000Y-98127816D01*
X154089000Y-97960184D01*
X154121703Y-97795772D01*
X154185853Y-97640900D01*
X154278985Y-97501519D01*
X154397519Y-97382985D01*
X154536900Y-97289853D01*
X154691772Y-97225703D01*
X154856184Y-97193000D01*
X155023816Y-97193000D01*
X155188228Y-97225703D01*
G37*
G36*
X157791000Y-98895000D02*
G01*
X156089000Y-98895000D01*
X156089000Y-97193000D01*
X157791000Y-97193000D01*
X157791000Y-98895000D01*
G37*
G36*
X139661000Y-98241000D02*
G01*
X137659000Y-98241000D01*
X137659000Y-97339000D01*
X139661000Y-97339000D01*
X139661000Y-98241000D01*
G37*
G36*
X129501000Y-98241000D02*
G01*
X127499000Y-98241000D01*
X127499000Y-97339000D01*
X129501000Y-97339000D01*
X129501000Y-98241000D01*
G37*
G36*
X119341000Y-98241000D02*
G01*
X117339000Y-98241000D01*
X117339000Y-97339000D01*
X119341000Y-97339000D01*
X119341000Y-98241000D01*
G37*
G36*
X99251000Y-98241000D02*
G01*
X97249000Y-98241000D01*
X97249000Y-97339000D01*
X99251000Y-97339000D01*
X99251000Y-98241000D01*
G37*
G36*
X88861000Y-98241000D02*
G01*
X86859000Y-98241000D01*
X86859000Y-97339000D01*
X88861000Y-97339000D01*
X88861000Y-98241000D01*
G37*
G36*
X78701000Y-98241000D02*
G01*
X76699000Y-98241000D01*
X76699000Y-97339000D01*
X78701000Y-97339000D01*
X78701000Y-98241000D01*
G37*
G36*
X149821000Y-98241000D02*
G01*
X147819000Y-98241000D01*
X147819000Y-97339000D01*
X149821000Y-97339000D01*
X149821000Y-98241000D01*
G37*
G36*
X109181000Y-98241000D02*
G01*
X107179000Y-98241000D01*
X107179000Y-97339000D01*
X109181000Y-97339000D01*
X109181000Y-98241000D01*
G37*
G36*
X85861000Y-97291000D02*
G01*
X83859000Y-97291000D01*
X83859000Y-96389000D01*
X85861000Y-96389000D01*
X85861000Y-97291000D01*
G37*
G36*
X75701000Y-97291000D02*
G01*
X73699000Y-97291000D01*
X73699000Y-96389000D01*
X75701000Y-96389000D01*
X75701000Y-97291000D01*
G37*
G36*
X96251000Y-97291000D02*
G01*
X94249000Y-97291000D01*
X94249000Y-96389000D01*
X96251000Y-96389000D01*
X96251000Y-97291000D01*
G37*
G36*
X106181000Y-97291000D02*
G01*
X104179000Y-97291000D01*
X104179000Y-96389000D01*
X106181000Y-96389000D01*
X106181000Y-97291000D01*
G37*
G36*
X116341000Y-97291000D02*
G01*
X114339000Y-97291000D01*
X114339000Y-96389000D01*
X116341000Y-96389000D01*
X116341000Y-97291000D01*
G37*
G36*
X136661000Y-97291000D02*
G01*
X134659000Y-97291000D01*
X134659000Y-96389000D01*
X136661000Y-96389000D01*
X136661000Y-97291000D01*
G37*
G36*
X146821000Y-97291000D02*
G01*
X144819000Y-97291000D01*
X144819000Y-96389000D01*
X146821000Y-96389000D01*
X146821000Y-97291000D01*
G37*
G36*
X126501000Y-97291000D02*
G01*
X124499000Y-97291000D01*
X124499000Y-96389000D01*
X126501000Y-96389000D01*
X126501000Y-97291000D01*
G37*
G36*
X63613512Y-95115927D02*
G01*
X63762812Y-95145624D01*
X63926784Y-95213544D01*
X64074354Y-95312147D01*
X64199853Y-95437646D01*
X64298456Y-95585216D01*
X64366376Y-95749188D01*
X64401000Y-95923259D01*
X64401000Y-96100741D01*
X64366376Y-96274812D01*
X64298456Y-96438784D01*
X64199853Y-96586354D01*
X64074354Y-96711853D01*
X63926784Y-96810456D01*
X63762812Y-96878376D01*
X63613512Y-96908073D01*
X63588742Y-96913000D01*
X63411258Y-96913000D01*
X63386488Y-96908073D01*
X63237188Y-96878376D01*
X63073216Y-96810456D01*
X62925646Y-96711853D01*
X62800147Y-96586354D01*
X62701544Y-96438784D01*
X62633624Y-96274812D01*
X62599000Y-96100741D01*
X62599000Y-95923259D01*
X62633624Y-95749188D01*
X62701544Y-95585216D01*
X62800147Y-95437646D01*
X62925646Y-95312147D01*
X63073216Y-95213544D01*
X63237188Y-95145624D01*
X63386488Y-95115927D01*
X63411258Y-95111000D01*
X63588742Y-95111000D01*
X63613512Y-95115927D01*
G37*
G36*
X43293512Y-95115927D02*
G01*
X43442812Y-95145624D01*
X43606784Y-95213544D01*
X43754354Y-95312147D01*
X43879853Y-95437646D01*
X43978456Y-95585216D01*
X44046376Y-95749188D01*
X44081000Y-95923259D01*
X44081000Y-96100741D01*
X44046376Y-96274812D01*
X43978456Y-96438784D01*
X43879853Y-96586354D01*
X43754354Y-96711853D01*
X43606784Y-96810456D01*
X43442812Y-96878376D01*
X43293512Y-96908073D01*
X43268742Y-96913000D01*
X43091258Y-96913000D01*
X43066488Y-96908073D01*
X42917188Y-96878376D01*
X42753216Y-96810456D01*
X42605646Y-96711853D01*
X42480147Y-96586354D01*
X42381544Y-96438784D01*
X42313624Y-96274812D01*
X42279000Y-96100741D01*
X42279000Y-95923259D01*
X42313624Y-95749188D01*
X42381544Y-95585216D01*
X42480147Y-95437646D01*
X42605646Y-95312147D01*
X42753216Y-95213544D01*
X42917188Y-95145624D01*
X43066488Y-95115927D01*
X43091258Y-95111000D01*
X43268742Y-95111000D01*
X43293512Y-95115927D01*
G37*
G36*
X43293512Y-92575927D02*
G01*
X43442812Y-92605624D01*
X43606784Y-92673544D01*
X43754354Y-92772147D01*
X43879853Y-92897646D01*
X43978456Y-93045216D01*
X44046376Y-93209188D01*
X44081000Y-93383259D01*
X44081000Y-93560741D01*
X44046376Y-93734812D01*
X43978456Y-93898784D01*
X43879853Y-94046354D01*
X43754354Y-94171853D01*
X43606784Y-94270456D01*
X43442812Y-94338376D01*
X43293512Y-94368073D01*
X43268742Y-94373000D01*
X43091258Y-94373000D01*
X43066488Y-94368073D01*
X42917188Y-94338376D01*
X42753216Y-94270456D01*
X42605646Y-94171853D01*
X42480147Y-94046354D01*
X42381544Y-93898784D01*
X42313624Y-93734812D01*
X42279000Y-93560741D01*
X42279000Y-93383259D01*
X42313624Y-93209188D01*
X42381544Y-93045216D01*
X42480147Y-92897646D01*
X42605646Y-92772147D01*
X42753216Y-92673544D01*
X42917188Y-92605624D01*
X43066488Y-92575927D01*
X43091258Y-92571000D01*
X43268742Y-92571000D01*
X43293512Y-92575927D01*
G37*
G36*
X63613512Y-92575927D02*
G01*
X63762812Y-92605624D01*
X63926784Y-92673544D01*
X64074354Y-92772147D01*
X64199853Y-92897646D01*
X64298456Y-93045216D01*
X64366376Y-93209188D01*
X64401000Y-93383259D01*
X64401000Y-93560741D01*
X64366376Y-93734812D01*
X64298456Y-93898784D01*
X64199853Y-94046354D01*
X64074354Y-94171853D01*
X63926784Y-94270456D01*
X63762812Y-94338376D01*
X63613512Y-94368073D01*
X63588742Y-94373000D01*
X63411258Y-94373000D01*
X63386488Y-94368073D01*
X63237188Y-94338376D01*
X63073216Y-94270456D01*
X62925646Y-94171853D01*
X62800147Y-94046354D01*
X62701544Y-93898784D01*
X62633624Y-93734812D01*
X62599000Y-93560741D01*
X62599000Y-93383259D01*
X62633624Y-93209188D01*
X62701544Y-93045216D01*
X62800147Y-92897646D01*
X62925646Y-92772147D01*
X63073216Y-92673544D01*
X63237188Y-92605624D01*
X63386488Y-92575927D01*
X63411258Y-92571000D01*
X63588742Y-92571000D01*
X63613512Y-92575927D01*
G37*
G36*
X74024499Y-93013445D02*
G01*
X74061995Y-93024820D01*
X74096554Y-93043292D01*
X74126847Y-93068153D01*
X74151708Y-93098446D01*
X74170180Y-93133005D01*
X74181555Y-93170501D01*
X74186000Y-93215638D01*
X74186000Y-93954362D01*
X74181555Y-93999499D01*
X74170180Y-94036995D01*
X74151708Y-94071554D01*
X74126847Y-94101847D01*
X74096554Y-94126708D01*
X74061995Y-94145180D01*
X74024499Y-94156555D01*
X73979362Y-94161000D01*
X73340638Y-94161000D01*
X73295501Y-94156555D01*
X73258005Y-94145180D01*
X73223446Y-94126708D01*
X73193153Y-94101847D01*
X73168292Y-94071554D01*
X73149820Y-94036995D01*
X73138445Y-93999499D01*
X73134000Y-93954362D01*
X73134000Y-93215638D01*
X73138445Y-93170501D01*
X73149820Y-93133005D01*
X73168292Y-93098446D01*
X73193153Y-93068153D01*
X73223446Y-93043292D01*
X73258005Y-93024820D01*
X73295501Y-93013445D01*
X73340638Y-93009000D01*
X73979362Y-93009000D01*
X74024499Y-93013445D01*
G37*
G36*
X145144499Y-93013445D02*
G01*
X145181995Y-93024820D01*
X145216554Y-93043292D01*
X145246847Y-93068153D01*
X145271708Y-93098446D01*
X145290180Y-93133005D01*
X145301555Y-93170501D01*
X145306000Y-93215638D01*
X145306000Y-93954362D01*
X145301555Y-93999499D01*
X145290180Y-94036995D01*
X145271708Y-94071554D01*
X145246847Y-94101847D01*
X145216554Y-94126708D01*
X145181995Y-94145180D01*
X145144499Y-94156555D01*
X145099362Y-94161000D01*
X144460638Y-94161000D01*
X144415501Y-94156555D01*
X144378005Y-94145180D01*
X144343446Y-94126708D01*
X144313153Y-94101847D01*
X144288292Y-94071554D01*
X144269820Y-94036995D01*
X144258445Y-93999499D01*
X144254000Y-93954362D01*
X144254000Y-93215638D01*
X144258445Y-93170501D01*
X144269820Y-93133005D01*
X144288292Y-93098446D01*
X144313153Y-93068153D01*
X144343446Y-93043292D01*
X144378005Y-93024820D01*
X144415501Y-93013445D01*
X144460638Y-93009000D01*
X145099362Y-93009000D01*
X145144499Y-93013445D01*
G37*
G36*
X124824499Y-93013445D02*
G01*
X124861995Y-93024820D01*
X124896554Y-93043292D01*
X124926847Y-93068153D01*
X124951708Y-93098446D01*
X124970180Y-93133005D01*
X124981555Y-93170501D01*
X124986000Y-93215638D01*
X124986000Y-93954362D01*
X124981555Y-93999499D01*
X124970180Y-94036995D01*
X124951708Y-94071554D01*
X124926847Y-94101847D01*
X124896554Y-94126708D01*
X124861995Y-94145180D01*
X124824499Y-94156555D01*
X124779362Y-94161000D01*
X124140638Y-94161000D01*
X124095501Y-94156555D01*
X124058005Y-94145180D01*
X124023446Y-94126708D01*
X123993153Y-94101847D01*
X123968292Y-94071554D01*
X123949820Y-94036995D01*
X123938445Y-93999499D01*
X123934000Y-93954362D01*
X123934000Y-93215638D01*
X123938445Y-93170501D01*
X123949820Y-93133005D01*
X123968292Y-93098446D01*
X123993153Y-93068153D01*
X124023446Y-93043292D01*
X124058005Y-93024820D01*
X124095501Y-93013445D01*
X124140638Y-93009000D01*
X124779362Y-93009000D01*
X124824499Y-93013445D01*
G37*
G36*
X114664499Y-93013445D02*
G01*
X114701995Y-93024820D01*
X114736554Y-93043292D01*
X114766847Y-93068153D01*
X114791708Y-93098446D01*
X114810180Y-93133005D01*
X114821555Y-93170501D01*
X114826000Y-93215638D01*
X114826000Y-93954362D01*
X114821555Y-93999499D01*
X114810180Y-94036995D01*
X114791708Y-94071554D01*
X114766847Y-94101847D01*
X114736554Y-94126708D01*
X114701995Y-94145180D01*
X114664499Y-94156555D01*
X114619362Y-94161000D01*
X113980638Y-94161000D01*
X113935501Y-94156555D01*
X113898005Y-94145180D01*
X113863446Y-94126708D01*
X113833153Y-94101847D01*
X113808292Y-94071554D01*
X113789820Y-94036995D01*
X113778445Y-93999499D01*
X113774000Y-93954362D01*
X113774000Y-93215638D01*
X113778445Y-93170501D01*
X113789820Y-93133005D01*
X113808292Y-93098446D01*
X113833153Y-93068153D01*
X113863446Y-93043292D01*
X113898005Y-93024820D01*
X113935501Y-93013445D01*
X113980638Y-93009000D01*
X114619362Y-93009000D01*
X114664499Y-93013445D01*
G37*
G36*
X104504499Y-93013445D02*
G01*
X104541995Y-93024820D01*
X104576554Y-93043292D01*
X104606847Y-93068153D01*
X104631708Y-93098446D01*
X104650180Y-93133005D01*
X104661555Y-93170501D01*
X104666000Y-93215638D01*
X104666000Y-93954362D01*
X104661555Y-93999499D01*
X104650180Y-94036995D01*
X104631708Y-94071554D01*
X104606847Y-94101847D01*
X104576554Y-94126708D01*
X104541995Y-94145180D01*
X104504499Y-94156555D01*
X104459362Y-94161000D01*
X103820638Y-94161000D01*
X103775501Y-94156555D01*
X103738005Y-94145180D01*
X103703446Y-94126708D01*
X103673153Y-94101847D01*
X103648292Y-94071554D01*
X103629820Y-94036995D01*
X103618445Y-93999499D01*
X103614000Y-93954362D01*
X103614000Y-93215638D01*
X103618445Y-93170501D01*
X103629820Y-93133005D01*
X103648292Y-93098446D01*
X103673153Y-93068153D01*
X103703446Y-93043292D01*
X103738005Y-93024820D01*
X103775501Y-93013445D01*
X103820638Y-93009000D01*
X104459362Y-93009000D01*
X104504499Y-93013445D01*
G37*
G36*
X94574499Y-93013445D02*
G01*
X94611995Y-93024820D01*
X94646554Y-93043292D01*
X94676847Y-93068153D01*
X94701708Y-93098446D01*
X94720180Y-93133005D01*
X94731555Y-93170501D01*
X94736000Y-93215638D01*
X94736000Y-93954362D01*
X94731555Y-93999499D01*
X94720180Y-94036995D01*
X94701708Y-94071554D01*
X94676847Y-94101847D01*
X94646554Y-94126708D01*
X94611995Y-94145180D01*
X94574499Y-94156555D01*
X94529362Y-94161000D01*
X93890638Y-94161000D01*
X93845501Y-94156555D01*
X93808005Y-94145180D01*
X93773446Y-94126708D01*
X93743153Y-94101847D01*
X93718292Y-94071554D01*
X93699820Y-94036995D01*
X93688445Y-93999499D01*
X93684000Y-93954362D01*
X93684000Y-93215638D01*
X93688445Y-93170501D01*
X93699820Y-93133005D01*
X93718292Y-93098446D01*
X93743153Y-93068153D01*
X93773446Y-93043292D01*
X93808005Y-93024820D01*
X93845501Y-93013445D01*
X93890638Y-93009000D01*
X94529362Y-93009000D01*
X94574499Y-93013445D01*
G37*
G36*
X84184499Y-93013445D02*
G01*
X84221995Y-93024820D01*
X84256554Y-93043292D01*
X84286847Y-93068153D01*
X84311708Y-93098446D01*
X84330180Y-93133005D01*
X84341555Y-93170501D01*
X84346000Y-93215638D01*
X84346000Y-93954362D01*
X84341555Y-93999499D01*
X84330180Y-94036995D01*
X84311708Y-94071554D01*
X84286847Y-94101847D01*
X84256554Y-94126708D01*
X84221995Y-94145180D01*
X84184499Y-94156555D01*
X84139362Y-94161000D01*
X83500638Y-94161000D01*
X83455501Y-94156555D01*
X83418005Y-94145180D01*
X83383446Y-94126708D01*
X83353153Y-94101847D01*
X83328292Y-94071554D01*
X83309820Y-94036995D01*
X83298445Y-93999499D01*
X83294000Y-93954362D01*
X83294000Y-93215638D01*
X83298445Y-93170501D01*
X83309820Y-93133005D01*
X83328292Y-93098446D01*
X83353153Y-93068153D01*
X83383446Y-93043292D01*
X83418005Y-93024820D01*
X83455501Y-93013445D01*
X83500638Y-93009000D01*
X84139362Y-93009000D01*
X84184499Y-93013445D01*
G37*
G36*
X134984499Y-93013445D02*
G01*
X135021995Y-93024820D01*
X135056554Y-93043292D01*
X135086847Y-93068153D01*
X135111708Y-93098446D01*
X135130180Y-93133005D01*
X135141555Y-93170501D01*
X135146000Y-93215638D01*
X135146000Y-93954362D01*
X135141555Y-93999499D01*
X135130180Y-94036995D01*
X135111708Y-94071554D01*
X135086847Y-94101847D01*
X135056554Y-94126708D01*
X135021995Y-94145180D01*
X134984499Y-94156555D01*
X134939362Y-94161000D01*
X134300638Y-94161000D01*
X134255501Y-94156555D01*
X134218005Y-94145180D01*
X134183446Y-94126708D01*
X134153153Y-94101847D01*
X134128292Y-94071554D01*
X134109820Y-94036995D01*
X134098445Y-93999499D01*
X134094000Y-93954362D01*
X134094000Y-93215638D01*
X134098445Y-93170501D01*
X134109820Y-93133005D01*
X134128292Y-93098446D01*
X134153153Y-93068153D01*
X134183446Y-93043292D01*
X134218005Y-93024820D01*
X134255501Y-93013445D01*
X134300638Y-93009000D01*
X134939362Y-93009000D01*
X134984499Y-93013445D01*
G37*
G36*
X90189499Y-92188445D02*
G01*
X90226995Y-92199820D01*
X90261554Y-92218292D01*
X90291847Y-92243153D01*
X90316708Y-92273446D01*
X90335180Y-92308005D01*
X90346555Y-92345501D01*
X90351000Y-92390638D01*
X90351000Y-93029362D01*
X90346555Y-93074499D01*
X90335180Y-93111995D01*
X90316708Y-93146554D01*
X90291847Y-93176847D01*
X90261554Y-93201708D01*
X90226995Y-93220180D01*
X90189499Y-93231555D01*
X90144362Y-93236000D01*
X89405638Y-93236000D01*
X89360501Y-93231555D01*
X89323005Y-93220180D01*
X89288446Y-93201708D01*
X89258153Y-93176847D01*
X89233292Y-93146554D01*
X89214820Y-93111995D01*
X89203445Y-93074499D01*
X89199000Y-93029362D01*
X89199000Y-92390638D01*
X89203445Y-92345501D01*
X89214820Y-92308005D01*
X89233292Y-92273446D01*
X89258153Y-92243153D01*
X89288446Y-92218292D01*
X89323005Y-92199820D01*
X89360501Y-92188445D01*
X89405638Y-92184000D01*
X90144362Y-92184000D01*
X90189499Y-92188445D01*
G37*
G36*
X80029499Y-92188445D02*
G01*
X80066995Y-92199820D01*
X80101554Y-92218292D01*
X80131847Y-92243153D01*
X80156708Y-92273446D01*
X80175180Y-92308005D01*
X80186555Y-92345501D01*
X80191000Y-92390638D01*
X80191000Y-93029362D01*
X80186555Y-93074499D01*
X80175180Y-93111995D01*
X80156708Y-93146554D01*
X80131847Y-93176847D01*
X80101554Y-93201708D01*
X80066995Y-93220180D01*
X80029499Y-93231555D01*
X79984362Y-93236000D01*
X79245638Y-93236000D01*
X79200501Y-93231555D01*
X79163005Y-93220180D01*
X79128446Y-93201708D01*
X79098153Y-93176847D01*
X79073292Y-93146554D01*
X79054820Y-93111995D01*
X79043445Y-93074499D01*
X79039000Y-93029362D01*
X79039000Y-92390638D01*
X79043445Y-92345501D01*
X79054820Y-92308005D01*
X79073292Y-92273446D01*
X79098153Y-92243153D01*
X79128446Y-92218292D01*
X79163005Y-92199820D01*
X79200501Y-92188445D01*
X79245638Y-92184000D01*
X79984362Y-92184000D01*
X80029499Y-92188445D01*
G37*
G36*
X78279499Y-92188445D02*
G01*
X78316995Y-92199820D01*
X78351554Y-92218292D01*
X78381847Y-92243153D01*
X78406708Y-92273446D01*
X78425180Y-92308005D01*
X78436555Y-92345501D01*
X78441000Y-92390638D01*
X78441000Y-93029362D01*
X78436555Y-93074499D01*
X78425180Y-93111995D01*
X78406708Y-93146554D01*
X78381847Y-93176847D01*
X78351554Y-93201708D01*
X78316995Y-93220180D01*
X78279499Y-93231555D01*
X78234362Y-93236000D01*
X77495638Y-93236000D01*
X77450501Y-93231555D01*
X77413005Y-93220180D01*
X77378446Y-93201708D01*
X77348153Y-93176847D01*
X77323292Y-93146554D01*
X77304820Y-93111995D01*
X77293445Y-93074499D01*
X77289000Y-93029362D01*
X77289000Y-92390638D01*
X77293445Y-92345501D01*
X77304820Y-92308005D01*
X77323292Y-92273446D01*
X77348153Y-92243153D01*
X77378446Y-92218292D01*
X77413005Y-92199820D01*
X77450501Y-92188445D01*
X77495638Y-92184000D01*
X78234362Y-92184000D01*
X78279499Y-92188445D01*
G37*
G36*
X98829499Y-92188445D02*
G01*
X98866995Y-92199820D01*
X98901554Y-92218292D01*
X98931847Y-92243153D01*
X98956708Y-92273446D01*
X98975180Y-92308005D01*
X98986555Y-92345501D01*
X98991000Y-92390638D01*
X98991000Y-93029362D01*
X98986555Y-93074499D01*
X98975180Y-93111995D01*
X98956708Y-93146554D01*
X98931847Y-93176847D01*
X98901554Y-93201708D01*
X98866995Y-93220180D01*
X98829499Y-93231555D01*
X98784362Y-93236000D01*
X98045638Y-93236000D01*
X98000501Y-93231555D01*
X97963005Y-93220180D01*
X97928446Y-93201708D01*
X97898153Y-93176847D01*
X97873292Y-93146554D01*
X97854820Y-93111995D01*
X97843445Y-93074499D01*
X97839000Y-93029362D01*
X97839000Y-92390638D01*
X97843445Y-92345501D01*
X97854820Y-92308005D01*
X97873292Y-92273446D01*
X97898153Y-92243153D01*
X97928446Y-92218292D01*
X97963005Y-92199820D01*
X98000501Y-92188445D01*
X98045638Y-92184000D01*
X98784362Y-92184000D01*
X98829499Y-92188445D01*
G37*
G36*
X88439499Y-92188445D02*
G01*
X88476995Y-92199820D01*
X88511554Y-92218292D01*
X88541847Y-92243153D01*
X88566708Y-92273446D01*
X88585180Y-92308005D01*
X88596555Y-92345501D01*
X88601000Y-92390638D01*
X88601000Y-93029362D01*
X88596555Y-93074499D01*
X88585180Y-93111995D01*
X88566708Y-93146554D01*
X88541847Y-93176847D01*
X88511554Y-93201708D01*
X88476995Y-93220180D01*
X88439499Y-93231555D01*
X88394362Y-93236000D01*
X87655638Y-93236000D01*
X87610501Y-93231555D01*
X87573005Y-93220180D01*
X87538446Y-93201708D01*
X87508153Y-93176847D01*
X87483292Y-93146554D01*
X87464820Y-93111995D01*
X87453445Y-93074499D01*
X87449000Y-93029362D01*
X87449000Y-92390638D01*
X87453445Y-92345501D01*
X87464820Y-92308005D01*
X87483292Y-92273446D01*
X87508153Y-92243153D01*
X87538446Y-92218292D01*
X87573005Y-92199820D01*
X87610501Y-92188445D01*
X87655638Y-92184000D01*
X88394362Y-92184000D01*
X88439499Y-92188445D01*
G37*
G36*
X118919499Y-92188445D02*
G01*
X118956995Y-92199820D01*
X118991554Y-92218292D01*
X119021847Y-92243153D01*
X119046708Y-92273446D01*
X119065180Y-92308005D01*
X119076555Y-92345501D01*
X119081000Y-92390638D01*
X119081000Y-93029362D01*
X119076555Y-93074499D01*
X119065180Y-93111995D01*
X119046708Y-93146554D01*
X119021847Y-93176847D01*
X118991554Y-93201708D01*
X118956995Y-93220180D01*
X118919499Y-93231555D01*
X118874362Y-93236000D01*
X118135638Y-93236000D01*
X118090501Y-93231555D01*
X118053005Y-93220180D01*
X118018446Y-93201708D01*
X117988153Y-93176847D01*
X117963292Y-93146554D01*
X117944820Y-93111995D01*
X117933445Y-93074499D01*
X117929000Y-93029362D01*
X117929000Y-92390638D01*
X117933445Y-92345501D01*
X117944820Y-92308005D01*
X117963292Y-92273446D01*
X117988153Y-92243153D01*
X118018446Y-92218292D01*
X118053005Y-92199820D01*
X118090501Y-92188445D01*
X118135638Y-92184000D01*
X118874362Y-92184000D01*
X118919499Y-92188445D01*
G37*
G36*
X120669499Y-92188445D02*
G01*
X120706995Y-92199820D01*
X120741554Y-92218292D01*
X120771847Y-92243153D01*
X120796708Y-92273446D01*
X120815180Y-92308005D01*
X120826555Y-92345501D01*
X120831000Y-92390638D01*
X120831000Y-93029362D01*
X120826555Y-93074499D01*
X120815180Y-93111995D01*
X120796708Y-93146554D01*
X120771847Y-93176847D01*
X120741554Y-93201708D01*
X120706995Y-93220180D01*
X120669499Y-93231555D01*
X120624362Y-93236000D01*
X119885638Y-93236000D01*
X119840501Y-93231555D01*
X119803005Y-93220180D01*
X119768446Y-93201708D01*
X119738153Y-93176847D01*
X119713292Y-93146554D01*
X119694820Y-93111995D01*
X119683445Y-93074499D01*
X119679000Y-93029362D01*
X119679000Y-92390638D01*
X119683445Y-92345501D01*
X119694820Y-92308005D01*
X119713292Y-92273446D01*
X119738153Y-92243153D01*
X119768446Y-92218292D01*
X119803005Y-92199820D01*
X119840501Y-92188445D01*
X119885638Y-92184000D01*
X120624362Y-92184000D01*
X120669499Y-92188445D01*
G37*
G36*
X110509499Y-92188445D02*
G01*
X110546995Y-92199820D01*
X110581554Y-92218292D01*
X110611847Y-92243153D01*
X110636708Y-92273446D01*
X110655180Y-92308005D01*
X110666555Y-92345501D01*
X110671000Y-92390638D01*
X110671000Y-93029362D01*
X110666555Y-93074499D01*
X110655180Y-93111995D01*
X110636708Y-93146554D01*
X110611847Y-93176847D01*
X110581554Y-93201708D01*
X110546995Y-93220180D01*
X110509499Y-93231555D01*
X110464362Y-93236000D01*
X109725638Y-93236000D01*
X109680501Y-93231555D01*
X109643005Y-93220180D01*
X109608446Y-93201708D01*
X109578153Y-93176847D01*
X109553292Y-93146554D01*
X109534820Y-93111995D01*
X109523445Y-93074499D01*
X109519000Y-93029362D01*
X109519000Y-92390638D01*
X109523445Y-92345501D01*
X109534820Y-92308005D01*
X109553292Y-92273446D01*
X109578153Y-92243153D01*
X109608446Y-92218292D01*
X109643005Y-92199820D01*
X109680501Y-92188445D01*
X109725638Y-92184000D01*
X110464362Y-92184000D01*
X110509499Y-92188445D01*
G37*
G36*
X129079499Y-92188445D02*
G01*
X129116995Y-92199820D01*
X129151554Y-92218292D01*
X129181847Y-92243153D01*
X129206708Y-92273446D01*
X129225180Y-92308005D01*
X129236555Y-92345501D01*
X129241000Y-92390638D01*
X129241000Y-93029362D01*
X129236555Y-93074499D01*
X129225180Y-93111995D01*
X129206708Y-93146554D01*
X129181847Y-93176847D01*
X129151554Y-93201708D01*
X129116995Y-93220180D01*
X129079499Y-93231555D01*
X129034362Y-93236000D01*
X128295638Y-93236000D01*
X128250501Y-93231555D01*
X128213005Y-93220180D01*
X128178446Y-93201708D01*
X128148153Y-93176847D01*
X128123292Y-93146554D01*
X128104820Y-93111995D01*
X128093445Y-93074499D01*
X128089000Y-93029362D01*
X128089000Y-92390638D01*
X128093445Y-92345501D01*
X128104820Y-92308005D01*
X128123292Y-92273446D01*
X128148153Y-92243153D01*
X128178446Y-92218292D01*
X128213005Y-92199820D01*
X128250501Y-92188445D01*
X128295638Y-92184000D01*
X129034362Y-92184000D01*
X129079499Y-92188445D01*
G37*
G36*
X139239499Y-92188445D02*
G01*
X139276995Y-92199820D01*
X139311554Y-92218292D01*
X139341847Y-92243153D01*
X139366708Y-92273446D01*
X139385180Y-92308005D01*
X139396555Y-92345501D01*
X139401000Y-92390638D01*
X139401000Y-93029362D01*
X139396555Y-93074499D01*
X139385180Y-93111995D01*
X139366708Y-93146554D01*
X139341847Y-93176847D01*
X139311554Y-93201708D01*
X139276995Y-93220180D01*
X139239499Y-93231555D01*
X139194362Y-93236000D01*
X138455638Y-93236000D01*
X138410501Y-93231555D01*
X138373005Y-93220180D01*
X138338446Y-93201708D01*
X138308153Y-93176847D01*
X138283292Y-93146554D01*
X138264820Y-93111995D01*
X138253445Y-93074499D01*
X138249000Y-93029362D01*
X138249000Y-92390638D01*
X138253445Y-92345501D01*
X138264820Y-92308005D01*
X138283292Y-92273446D01*
X138308153Y-92243153D01*
X138338446Y-92218292D01*
X138373005Y-92199820D01*
X138410501Y-92188445D01*
X138455638Y-92184000D01*
X139194362Y-92184000D01*
X139239499Y-92188445D01*
G37*
G36*
X140989499Y-92188445D02*
G01*
X141026995Y-92199820D01*
X141061554Y-92218292D01*
X141091847Y-92243153D01*
X141116708Y-92273446D01*
X141135180Y-92308005D01*
X141146555Y-92345501D01*
X141151000Y-92390638D01*
X141151000Y-93029362D01*
X141146555Y-93074499D01*
X141135180Y-93111995D01*
X141116708Y-93146554D01*
X141091847Y-93176847D01*
X141061554Y-93201708D01*
X141026995Y-93220180D01*
X140989499Y-93231555D01*
X140944362Y-93236000D01*
X140205638Y-93236000D01*
X140160501Y-93231555D01*
X140123005Y-93220180D01*
X140088446Y-93201708D01*
X140058153Y-93176847D01*
X140033292Y-93146554D01*
X140014820Y-93111995D01*
X140003445Y-93074499D01*
X139999000Y-93029362D01*
X139999000Y-92390638D01*
X140003445Y-92345501D01*
X140014820Y-92308005D01*
X140033292Y-92273446D01*
X140058153Y-92243153D01*
X140088446Y-92218292D01*
X140123005Y-92199820D01*
X140160501Y-92188445D01*
X140205638Y-92184000D01*
X140944362Y-92184000D01*
X140989499Y-92188445D01*
G37*
G36*
X100579499Y-92188445D02*
G01*
X100616995Y-92199820D01*
X100651554Y-92218292D01*
X100681847Y-92243153D01*
X100706708Y-92273446D01*
X100725180Y-92308005D01*
X100736555Y-92345501D01*
X100741000Y-92390638D01*
X100741000Y-93029362D01*
X100736555Y-93074499D01*
X100725180Y-93111995D01*
X100706708Y-93146554D01*
X100681847Y-93176847D01*
X100651554Y-93201708D01*
X100616995Y-93220180D01*
X100579499Y-93231555D01*
X100534362Y-93236000D01*
X99795638Y-93236000D01*
X99750501Y-93231555D01*
X99713005Y-93220180D01*
X99678446Y-93201708D01*
X99648153Y-93176847D01*
X99623292Y-93146554D01*
X99604820Y-93111995D01*
X99593445Y-93074499D01*
X99589000Y-93029362D01*
X99589000Y-92390638D01*
X99593445Y-92345501D01*
X99604820Y-92308005D01*
X99623292Y-92273446D01*
X99648153Y-92243153D01*
X99678446Y-92218292D01*
X99713005Y-92199820D01*
X99750501Y-92188445D01*
X99795638Y-92184000D01*
X100534362Y-92184000D01*
X100579499Y-92188445D01*
G37*
G36*
X149399499Y-92188445D02*
G01*
X149436995Y-92199820D01*
X149471554Y-92218292D01*
X149501847Y-92243153D01*
X149526708Y-92273446D01*
X149545180Y-92308005D01*
X149556555Y-92345501D01*
X149561000Y-92390638D01*
X149561000Y-93029362D01*
X149556555Y-93074499D01*
X149545180Y-93111995D01*
X149526708Y-93146554D01*
X149501847Y-93176847D01*
X149471554Y-93201708D01*
X149436995Y-93220180D01*
X149399499Y-93231555D01*
X149354362Y-93236000D01*
X148615638Y-93236000D01*
X148570501Y-93231555D01*
X148533005Y-93220180D01*
X148498446Y-93201708D01*
X148468153Y-93176847D01*
X148443292Y-93146554D01*
X148424820Y-93111995D01*
X148413445Y-93074499D01*
X148409000Y-93029362D01*
X148409000Y-92390638D01*
X148413445Y-92345501D01*
X148424820Y-92308005D01*
X148443292Y-92273446D01*
X148468153Y-92243153D01*
X148498446Y-92218292D01*
X148533005Y-92199820D01*
X148570501Y-92188445D01*
X148615638Y-92184000D01*
X149354362Y-92184000D01*
X149399499Y-92188445D01*
G37*
G36*
X151149499Y-92188445D02*
G01*
X151186995Y-92199820D01*
X151221554Y-92218292D01*
X151251847Y-92243153D01*
X151276708Y-92273446D01*
X151295180Y-92308005D01*
X151306555Y-92345501D01*
X151311000Y-92390638D01*
X151311000Y-93029362D01*
X151306555Y-93074499D01*
X151295180Y-93111995D01*
X151276708Y-93146554D01*
X151251847Y-93176847D01*
X151221554Y-93201708D01*
X151186995Y-93220180D01*
X151149499Y-93231555D01*
X151104362Y-93236000D01*
X150365638Y-93236000D01*
X150320501Y-93231555D01*
X150283005Y-93220180D01*
X150248446Y-93201708D01*
X150218153Y-93176847D01*
X150193292Y-93146554D01*
X150174820Y-93111995D01*
X150163445Y-93074499D01*
X150159000Y-93029362D01*
X150159000Y-92390638D01*
X150163445Y-92345501D01*
X150174820Y-92308005D01*
X150193292Y-92273446D01*
X150218153Y-92243153D01*
X150248446Y-92218292D01*
X150283005Y-92199820D01*
X150320501Y-92188445D01*
X150365638Y-92184000D01*
X151104362Y-92184000D01*
X151149499Y-92188445D01*
G37*
G36*
X130829499Y-92188445D02*
G01*
X130866995Y-92199820D01*
X130901554Y-92218292D01*
X130931847Y-92243153D01*
X130956708Y-92273446D01*
X130975180Y-92308005D01*
X130986555Y-92345501D01*
X130991000Y-92390638D01*
X130991000Y-93029362D01*
X130986555Y-93074499D01*
X130975180Y-93111995D01*
X130956708Y-93146554D01*
X130931847Y-93176847D01*
X130901554Y-93201708D01*
X130866995Y-93220180D01*
X130829499Y-93231555D01*
X130784362Y-93236000D01*
X130045638Y-93236000D01*
X130000501Y-93231555D01*
X129963005Y-93220180D01*
X129928446Y-93201708D01*
X129898153Y-93176847D01*
X129873292Y-93146554D01*
X129854820Y-93111995D01*
X129843445Y-93074499D01*
X129839000Y-93029362D01*
X129839000Y-92390638D01*
X129843445Y-92345501D01*
X129854820Y-92308005D01*
X129873292Y-92273446D01*
X129898153Y-92243153D01*
X129928446Y-92218292D01*
X129963005Y-92199820D01*
X130000501Y-92188445D01*
X130045638Y-92184000D01*
X130784362Y-92184000D01*
X130829499Y-92188445D01*
G37*
G36*
X108759499Y-92188445D02*
G01*
X108796995Y-92199820D01*
X108831554Y-92218292D01*
X108861847Y-92243153D01*
X108886708Y-92273446D01*
X108905180Y-92308005D01*
X108916555Y-92345501D01*
X108921000Y-92390638D01*
X108921000Y-93029362D01*
X108916555Y-93074499D01*
X108905180Y-93111995D01*
X108886708Y-93146554D01*
X108861847Y-93176847D01*
X108831554Y-93201708D01*
X108796995Y-93220180D01*
X108759499Y-93231555D01*
X108714362Y-93236000D01*
X107975638Y-93236000D01*
X107930501Y-93231555D01*
X107893005Y-93220180D01*
X107858446Y-93201708D01*
X107828153Y-93176847D01*
X107803292Y-93146554D01*
X107784820Y-93111995D01*
X107773445Y-93074499D01*
X107769000Y-93029362D01*
X107769000Y-92390638D01*
X107773445Y-92345501D01*
X107784820Y-92308005D01*
X107803292Y-92273446D01*
X107828153Y-92243153D01*
X107858446Y-92218292D01*
X107893005Y-92199820D01*
X107930501Y-92188445D01*
X107975638Y-92184000D01*
X108714362Y-92184000D01*
X108759499Y-92188445D01*
G37*
G36*
X84184499Y-91263445D02*
G01*
X84221995Y-91274820D01*
X84256554Y-91293292D01*
X84286847Y-91318153D01*
X84311708Y-91348446D01*
X84330180Y-91383005D01*
X84341555Y-91420501D01*
X84346000Y-91465638D01*
X84346000Y-92204362D01*
X84341555Y-92249499D01*
X84330180Y-92286995D01*
X84311708Y-92321554D01*
X84286847Y-92351847D01*
X84256554Y-92376708D01*
X84221995Y-92395180D01*
X84184499Y-92406555D01*
X84139362Y-92411000D01*
X83500638Y-92411000D01*
X83455501Y-92406555D01*
X83418005Y-92395180D01*
X83383446Y-92376708D01*
X83353153Y-92351847D01*
X83328292Y-92321554D01*
X83309820Y-92286995D01*
X83298445Y-92249499D01*
X83294000Y-92204362D01*
X83294000Y-91465638D01*
X83298445Y-91420501D01*
X83309820Y-91383005D01*
X83328292Y-91348446D01*
X83353153Y-91318153D01*
X83383446Y-91293292D01*
X83418005Y-91274820D01*
X83455501Y-91263445D01*
X83500638Y-91259000D01*
X84139362Y-91259000D01*
X84184499Y-91263445D01*
G37*
G36*
X104504499Y-91263445D02*
G01*
X104541995Y-91274820D01*
X104576554Y-91293292D01*
X104606847Y-91318153D01*
X104631708Y-91348446D01*
X104650180Y-91383005D01*
X104661555Y-91420501D01*
X104666000Y-91465638D01*
X104666000Y-92204362D01*
X104661555Y-92249499D01*
X104650180Y-92286995D01*
X104631708Y-92321554D01*
X104606847Y-92351847D01*
X104576554Y-92376708D01*
X104541995Y-92395180D01*
X104504499Y-92406555D01*
X104459362Y-92411000D01*
X103820638Y-92411000D01*
X103775501Y-92406555D01*
X103738005Y-92395180D01*
X103703446Y-92376708D01*
X103673153Y-92351847D01*
X103648292Y-92321554D01*
X103629820Y-92286995D01*
X103618445Y-92249499D01*
X103614000Y-92204362D01*
X103614000Y-91465638D01*
X103618445Y-91420501D01*
X103629820Y-91383005D01*
X103648292Y-91348446D01*
X103673153Y-91318153D01*
X103703446Y-91293292D01*
X103738005Y-91274820D01*
X103775501Y-91263445D01*
X103820638Y-91259000D01*
X104459362Y-91259000D01*
X104504499Y-91263445D01*
G37*
G36*
X145144499Y-91263445D02*
G01*
X145181995Y-91274820D01*
X145216554Y-91293292D01*
X145246847Y-91318153D01*
X145271708Y-91348446D01*
X145290180Y-91383005D01*
X145301555Y-91420501D01*
X145306000Y-91465638D01*
X145306000Y-92204362D01*
X145301555Y-92249499D01*
X145290180Y-92286995D01*
X145271708Y-92321554D01*
X145246847Y-92351847D01*
X145216554Y-92376708D01*
X145181995Y-92395180D01*
X145144499Y-92406555D01*
X145099362Y-92411000D01*
X144460638Y-92411000D01*
X144415501Y-92406555D01*
X144378005Y-92395180D01*
X144343446Y-92376708D01*
X144313153Y-92351847D01*
X144288292Y-92321554D01*
X144269820Y-92286995D01*
X144258445Y-92249499D01*
X144254000Y-92204362D01*
X144254000Y-91465638D01*
X144258445Y-91420501D01*
X144269820Y-91383005D01*
X144288292Y-91348446D01*
X144313153Y-91318153D01*
X144343446Y-91293292D01*
X144378005Y-91274820D01*
X144415501Y-91263445D01*
X144460638Y-91259000D01*
X145099362Y-91259000D01*
X145144499Y-91263445D01*
G37*
G36*
X134984499Y-91263445D02*
G01*
X135021995Y-91274820D01*
X135056554Y-91293292D01*
X135086847Y-91318153D01*
X135111708Y-91348446D01*
X135130180Y-91383005D01*
X135141555Y-91420501D01*
X135146000Y-91465638D01*
X135146000Y-92204362D01*
X135141555Y-92249499D01*
X135130180Y-92286995D01*
X135111708Y-92321554D01*
X135086847Y-92351847D01*
X135056554Y-92376708D01*
X135021995Y-92395180D01*
X134984499Y-92406555D01*
X134939362Y-92411000D01*
X134300638Y-92411000D01*
X134255501Y-92406555D01*
X134218005Y-92395180D01*
X134183446Y-92376708D01*
X134153153Y-92351847D01*
X134128292Y-92321554D01*
X134109820Y-92286995D01*
X134098445Y-92249499D01*
X134094000Y-92204362D01*
X134094000Y-91465638D01*
X134098445Y-91420501D01*
X134109820Y-91383005D01*
X134128292Y-91348446D01*
X134153153Y-91318153D01*
X134183446Y-91293292D01*
X134218005Y-91274820D01*
X134255501Y-91263445D01*
X134300638Y-91259000D01*
X134939362Y-91259000D01*
X134984499Y-91263445D01*
G37*
G36*
X124824499Y-91263445D02*
G01*
X124861995Y-91274820D01*
X124896554Y-91293292D01*
X124926847Y-91318153D01*
X124951708Y-91348446D01*
X124970180Y-91383005D01*
X124981555Y-91420501D01*
X124986000Y-91465638D01*
X124986000Y-92204362D01*
X124981555Y-92249499D01*
X124970180Y-92286995D01*
X124951708Y-92321554D01*
X124926847Y-92351847D01*
X124896554Y-92376708D01*
X124861995Y-92395180D01*
X124824499Y-92406555D01*
X124779362Y-92411000D01*
X124140638Y-92411000D01*
X124095501Y-92406555D01*
X124058005Y-92395180D01*
X124023446Y-92376708D01*
X123993153Y-92351847D01*
X123968292Y-92321554D01*
X123949820Y-92286995D01*
X123938445Y-92249499D01*
X123934000Y-92204362D01*
X123934000Y-91465638D01*
X123938445Y-91420501D01*
X123949820Y-91383005D01*
X123968292Y-91348446D01*
X123993153Y-91318153D01*
X124023446Y-91293292D01*
X124058005Y-91274820D01*
X124095501Y-91263445D01*
X124140638Y-91259000D01*
X124779362Y-91259000D01*
X124824499Y-91263445D01*
G37*
G36*
X114664499Y-91263445D02*
G01*
X114701995Y-91274820D01*
X114736554Y-91293292D01*
X114766847Y-91318153D01*
X114791708Y-91348446D01*
X114810180Y-91383005D01*
X114821555Y-91420501D01*
X114826000Y-91465638D01*
X114826000Y-92204362D01*
X114821555Y-92249499D01*
X114810180Y-92286995D01*
X114791708Y-92321554D01*
X114766847Y-92351847D01*
X114736554Y-92376708D01*
X114701995Y-92395180D01*
X114664499Y-92406555D01*
X114619362Y-92411000D01*
X113980638Y-92411000D01*
X113935501Y-92406555D01*
X113898005Y-92395180D01*
X113863446Y-92376708D01*
X113833153Y-92351847D01*
X113808292Y-92321554D01*
X113789820Y-92286995D01*
X113778445Y-92249499D01*
X113774000Y-92204362D01*
X113774000Y-91465638D01*
X113778445Y-91420501D01*
X113789820Y-91383005D01*
X113808292Y-91348446D01*
X113833153Y-91318153D01*
X113863446Y-91293292D01*
X113898005Y-91274820D01*
X113935501Y-91263445D01*
X113980638Y-91259000D01*
X114619362Y-91259000D01*
X114664499Y-91263445D01*
G37*
G36*
X94574499Y-91263445D02*
G01*
X94611995Y-91274820D01*
X94646554Y-91293292D01*
X94676847Y-91318153D01*
X94701708Y-91348446D01*
X94720180Y-91383005D01*
X94731555Y-91420501D01*
X94736000Y-91465638D01*
X94736000Y-92204362D01*
X94731555Y-92249499D01*
X94720180Y-92286995D01*
X94701708Y-92321554D01*
X94676847Y-92351847D01*
X94646554Y-92376708D01*
X94611995Y-92395180D01*
X94574499Y-92406555D01*
X94529362Y-92411000D01*
X93890638Y-92411000D01*
X93845501Y-92406555D01*
X93808005Y-92395180D01*
X93773446Y-92376708D01*
X93743153Y-92351847D01*
X93718292Y-92321554D01*
X93699820Y-92286995D01*
X93688445Y-92249499D01*
X93684000Y-92204362D01*
X93684000Y-91465638D01*
X93688445Y-91420501D01*
X93699820Y-91383005D01*
X93718292Y-91348446D01*
X93743153Y-91318153D01*
X93773446Y-91293292D01*
X93808005Y-91274820D01*
X93845501Y-91263445D01*
X93890638Y-91259000D01*
X94529362Y-91259000D01*
X94574499Y-91263445D01*
G37*
G36*
X74024499Y-91263445D02*
G01*
X74061995Y-91274820D01*
X74096554Y-91293292D01*
X74126847Y-91318153D01*
X74151708Y-91348446D01*
X74170180Y-91383005D01*
X74181555Y-91420501D01*
X74186000Y-91465638D01*
X74186000Y-92204362D01*
X74181555Y-92249499D01*
X74170180Y-92286995D01*
X74151708Y-92321554D01*
X74126847Y-92351847D01*
X74096554Y-92376708D01*
X74061995Y-92395180D01*
X74024499Y-92406555D01*
X73979362Y-92411000D01*
X73340638Y-92411000D01*
X73295501Y-92406555D01*
X73258005Y-92395180D01*
X73223446Y-92376708D01*
X73193153Y-92351847D01*
X73168292Y-92321554D01*
X73149820Y-92286995D01*
X73138445Y-92249499D01*
X73134000Y-92204362D01*
X73134000Y-91465638D01*
X73138445Y-91420501D01*
X73149820Y-91383005D01*
X73168292Y-91348446D01*
X73193153Y-91318153D01*
X73223446Y-91293292D01*
X73258005Y-91274820D01*
X73295501Y-91263445D01*
X73340638Y-91259000D01*
X73979362Y-91259000D01*
X74024499Y-91263445D01*
G37*
G36*
X63613512Y-90035927D02*
G01*
X63762812Y-90065624D01*
X63926784Y-90133544D01*
X64074354Y-90232147D01*
X64199853Y-90357646D01*
X64298456Y-90505216D01*
X64366376Y-90669188D01*
X64401000Y-90843259D01*
X64401000Y-91020741D01*
X64366376Y-91194812D01*
X64298456Y-91358784D01*
X64199853Y-91506354D01*
X64074354Y-91631853D01*
X63926784Y-91730456D01*
X63762812Y-91798376D01*
X63613512Y-91828073D01*
X63588742Y-91833000D01*
X63411258Y-91833000D01*
X63386488Y-91828073D01*
X63237188Y-91798376D01*
X63073216Y-91730456D01*
X62925646Y-91631853D01*
X62800147Y-91506354D01*
X62701544Y-91358784D01*
X62633624Y-91194812D01*
X62599000Y-91020741D01*
X62599000Y-90843259D01*
X62633624Y-90669188D01*
X62701544Y-90505216D01*
X62800147Y-90357646D01*
X62925646Y-90232147D01*
X63073216Y-90133544D01*
X63237188Y-90065624D01*
X63386488Y-90035927D01*
X63411258Y-90031000D01*
X63588742Y-90031000D01*
X63613512Y-90035927D01*
G37*
G36*
X43293512Y-90035927D02*
G01*
X43442812Y-90065624D01*
X43606784Y-90133544D01*
X43754354Y-90232147D01*
X43879853Y-90357646D01*
X43978456Y-90505216D01*
X44046376Y-90669188D01*
X44081000Y-90843259D01*
X44081000Y-91020741D01*
X44046376Y-91194812D01*
X43978456Y-91358784D01*
X43879853Y-91506354D01*
X43754354Y-91631853D01*
X43606784Y-91730456D01*
X43442812Y-91798376D01*
X43293512Y-91828073D01*
X43268742Y-91833000D01*
X43091258Y-91833000D01*
X43066488Y-91828073D01*
X42917188Y-91798376D01*
X42753216Y-91730456D01*
X42605646Y-91631853D01*
X42480147Y-91506354D01*
X42381544Y-91358784D01*
X42313624Y-91194812D01*
X42279000Y-91020741D01*
X42279000Y-90843259D01*
X42313624Y-90669188D01*
X42381544Y-90505216D01*
X42480147Y-90357646D01*
X42605646Y-90232147D01*
X42753216Y-90133544D01*
X42917188Y-90065624D01*
X43066488Y-90035927D01*
X43091258Y-90031000D01*
X43268742Y-90031000D01*
X43293512Y-90035927D01*
G37*
G36*
X156170795Y-87820156D02*
G01*
X156277150Y-87841311D01*
X156477520Y-87924307D01*
X156657844Y-88044795D01*
X156811205Y-88198156D01*
X156931693Y-88378480D01*
X156931693Y-88378481D01*
X157014689Y-88578850D01*
X157057000Y-88791561D01*
X157057000Y-89008439D01*
X157014689Y-89221150D01*
X156931693Y-89421520D01*
X156811205Y-89601844D01*
X156657844Y-89755205D01*
X156477520Y-89875693D01*
X156277150Y-89958689D01*
X156170795Y-89979844D01*
X156064440Y-90001000D01*
X155847560Y-90001000D01*
X155741206Y-89979845D01*
X155634850Y-89958689D01*
X155534666Y-89917191D01*
X155434480Y-89875693D01*
X155254156Y-89755205D01*
X155100795Y-89601844D01*
X154980307Y-89421520D01*
X154897311Y-89221150D01*
X154855000Y-89008439D01*
X154855000Y-88791561D01*
X154897311Y-88578850D01*
X154980307Y-88378481D01*
X154980307Y-88378480D01*
X155100795Y-88198156D01*
X155254156Y-88044795D01*
X155434480Y-87924307D01*
X155534666Y-87882809D01*
X155634850Y-87841311D01*
X155741206Y-87820155D01*
X155847560Y-87799000D01*
X156064440Y-87799000D01*
X156170795Y-87820156D01*
G37*
G36*
X63613512Y-87495927D02*
G01*
X63762812Y-87525624D01*
X63926784Y-87593544D01*
X64074354Y-87692147D01*
X64199853Y-87817646D01*
X64298456Y-87965216D01*
X64366376Y-88129188D01*
X64401000Y-88303259D01*
X64401000Y-88480741D01*
X64366376Y-88654812D01*
X64298456Y-88818784D01*
X64199853Y-88966354D01*
X64074354Y-89091853D01*
X63926784Y-89190456D01*
X63762812Y-89258376D01*
X63613512Y-89288073D01*
X63588742Y-89293000D01*
X63411258Y-89293000D01*
X63386488Y-89288073D01*
X63237188Y-89258376D01*
X63073216Y-89190456D01*
X62925646Y-89091853D01*
X62800147Y-88966354D01*
X62701544Y-88818784D01*
X62633624Y-88654812D01*
X62599000Y-88480741D01*
X62599000Y-88303259D01*
X62633624Y-88129188D01*
X62701544Y-87965216D01*
X62800147Y-87817646D01*
X62925646Y-87692147D01*
X63073216Y-87593544D01*
X63237188Y-87525624D01*
X63386488Y-87495927D01*
X63411258Y-87491000D01*
X63588742Y-87491000D01*
X63613512Y-87495927D01*
G37*
G36*
X43293512Y-87495927D02*
G01*
X43442812Y-87525624D01*
X43606784Y-87593544D01*
X43754354Y-87692147D01*
X43879853Y-87817646D01*
X43978456Y-87965216D01*
X44046376Y-88129188D01*
X44081000Y-88303259D01*
X44081000Y-88480741D01*
X44046376Y-88654812D01*
X43978456Y-88818784D01*
X43879853Y-88966354D01*
X43754354Y-89091853D01*
X43606784Y-89190456D01*
X43442812Y-89258376D01*
X43293512Y-89288073D01*
X43268742Y-89293000D01*
X43091258Y-89293000D01*
X43066488Y-89288073D01*
X42917188Y-89258376D01*
X42753216Y-89190456D01*
X42605646Y-89091853D01*
X42480147Y-88966354D01*
X42381544Y-88818784D01*
X42313624Y-88654812D01*
X42279000Y-88480741D01*
X42279000Y-88303259D01*
X42313624Y-88129188D01*
X42381544Y-87965216D01*
X42480147Y-87817646D01*
X42605646Y-87692147D01*
X42753216Y-87593544D01*
X42917188Y-87525624D01*
X43066488Y-87495927D01*
X43091258Y-87491000D01*
X43268742Y-87491000D01*
X43293512Y-87495927D01*
G37*
G36*
X157057000Y-87461000D02*
G01*
X154855000Y-87461000D01*
X154855000Y-85259000D01*
X157057000Y-85259000D01*
X157057000Y-87461000D01*
G37*
G36*
X63613512Y-84955927D02*
G01*
X63762812Y-84985624D01*
X63926784Y-85053544D01*
X64074354Y-85152147D01*
X64199853Y-85277646D01*
X64298456Y-85425216D01*
X64366376Y-85589188D01*
X64401000Y-85763259D01*
X64401000Y-85940741D01*
X64366376Y-86114812D01*
X64298456Y-86278784D01*
X64199853Y-86426354D01*
X64074354Y-86551853D01*
X63926784Y-86650456D01*
X63762812Y-86718376D01*
X63613512Y-86748073D01*
X63588742Y-86753000D01*
X63411258Y-86753000D01*
X63386488Y-86748073D01*
X63237188Y-86718376D01*
X63073216Y-86650456D01*
X62925646Y-86551853D01*
X62800147Y-86426354D01*
X62701544Y-86278784D01*
X62633624Y-86114812D01*
X62599000Y-85940741D01*
X62599000Y-85763259D01*
X62633624Y-85589188D01*
X62701544Y-85425216D01*
X62800147Y-85277646D01*
X62925646Y-85152147D01*
X63073216Y-85053544D01*
X63237188Y-84985624D01*
X63386488Y-84955927D01*
X63411258Y-84951000D01*
X63588742Y-84951000D01*
X63613512Y-84955927D01*
G37*
G36*
X43293512Y-84955927D02*
G01*
X43442812Y-84985624D01*
X43606784Y-85053544D01*
X43754354Y-85152147D01*
X43879853Y-85277646D01*
X43978456Y-85425216D01*
X44046376Y-85589188D01*
X44081000Y-85763259D01*
X44081000Y-85940741D01*
X44046376Y-86114812D01*
X43978456Y-86278784D01*
X43879853Y-86426354D01*
X43754354Y-86551853D01*
X43606784Y-86650456D01*
X43442812Y-86718376D01*
X43293512Y-86748073D01*
X43268742Y-86753000D01*
X43091258Y-86753000D01*
X43066488Y-86748073D01*
X42917188Y-86718376D01*
X42753216Y-86650456D01*
X42605646Y-86551853D01*
X42480147Y-86426354D01*
X42381544Y-86278784D01*
X42313624Y-86114812D01*
X42279000Y-85940741D01*
X42279000Y-85763259D01*
X42313624Y-85589188D01*
X42381544Y-85425216D01*
X42480147Y-85277646D01*
X42605646Y-85152147D01*
X42753216Y-85053544D01*
X42917188Y-84985624D01*
X43066488Y-84955927D01*
X43091258Y-84951000D01*
X43268742Y-84951000D01*
X43293512Y-84955927D01*
G37*
G36*
X43293512Y-82415927D02*
G01*
X43442812Y-82445624D01*
X43606784Y-82513544D01*
X43754354Y-82612147D01*
X43879853Y-82737646D01*
X43978456Y-82885216D01*
X44046376Y-83049188D01*
X44081000Y-83223259D01*
X44081000Y-83400741D01*
X44046376Y-83574812D01*
X43978456Y-83738784D01*
X43879853Y-83886354D01*
X43754354Y-84011853D01*
X43606784Y-84110456D01*
X43442812Y-84178376D01*
X43293512Y-84208073D01*
X43268742Y-84213000D01*
X43091258Y-84213000D01*
X43066488Y-84208073D01*
X42917188Y-84178376D01*
X42753216Y-84110456D01*
X42605646Y-84011853D01*
X42480147Y-83886354D01*
X42381544Y-83738784D01*
X42313624Y-83574812D01*
X42279000Y-83400741D01*
X42279000Y-83223259D01*
X42313624Y-83049188D01*
X42381544Y-82885216D01*
X42480147Y-82737646D01*
X42605646Y-82612147D01*
X42753216Y-82513544D01*
X42917188Y-82445624D01*
X43066488Y-82415927D01*
X43091258Y-82411000D01*
X43268742Y-82411000D01*
X43293512Y-82415927D01*
G37*
G36*
X63613512Y-82415927D02*
G01*
X63762812Y-82445624D01*
X63926784Y-82513544D01*
X64074354Y-82612147D01*
X64199853Y-82737646D01*
X64298456Y-82885216D01*
X64366376Y-83049188D01*
X64401000Y-83223259D01*
X64401000Y-83400741D01*
X64366376Y-83574812D01*
X64298456Y-83738784D01*
X64199853Y-83886354D01*
X64074354Y-84011853D01*
X63926784Y-84110456D01*
X63762812Y-84178376D01*
X63613512Y-84208073D01*
X63588742Y-84213000D01*
X63411258Y-84213000D01*
X63386488Y-84208073D01*
X63237188Y-84178376D01*
X63073216Y-84110456D01*
X62925646Y-84011853D01*
X62800147Y-83886354D01*
X62701544Y-83738784D01*
X62633624Y-83574812D01*
X62599000Y-83400741D01*
X62599000Y-83223259D01*
X62633624Y-83049188D01*
X62701544Y-82885216D01*
X62800147Y-82737646D01*
X62925646Y-82612147D01*
X63073216Y-82513544D01*
X63237188Y-82445624D01*
X63386488Y-82415927D01*
X63411258Y-82411000D01*
X63588742Y-82411000D01*
X63613512Y-82415927D01*
G37*
G36*
X99424499Y-82853445D02*
G01*
X99461995Y-82864820D01*
X99496554Y-82883292D01*
X99526847Y-82908153D01*
X99551708Y-82938446D01*
X99570180Y-82973005D01*
X99581555Y-83010501D01*
X99586000Y-83055638D01*
X99586000Y-83794362D01*
X99581555Y-83839499D01*
X99570180Y-83876995D01*
X99551708Y-83911554D01*
X99526847Y-83941847D01*
X99496554Y-83966708D01*
X99461995Y-83985180D01*
X99424499Y-83996555D01*
X99379362Y-84001000D01*
X98740638Y-84001000D01*
X98695501Y-83996555D01*
X98658005Y-83985180D01*
X98623446Y-83966708D01*
X98593153Y-83941847D01*
X98568292Y-83911554D01*
X98549820Y-83876995D01*
X98538445Y-83839499D01*
X98534000Y-83794362D01*
X98534000Y-83055638D01*
X98538445Y-83010501D01*
X98549820Y-82973005D01*
X98568292Y-82938446D01*
X98593153Y-82908153D01*
X98623446Y-82883292D01*
X98658005Y-82864820D01*
X98695501Y-82853445D01*
X98740638Y-82849000D01*
X99379362Y-82849000D01*
X99424499Y-82853445D01*
G37*
G36*
X119744499Y-82853445D02*
G01*
X119781995Y-82864820D01*
X119816554Y-82883292D01*
X119846847Y-82908153D01*
X119871708Y-82938446D01*
X119890180Y-82973005D01*
X119901555Y-83010501D01*
X119906000Y-83055638D01*
X119906000Y-83794362D01*
X119901555Y-83839499D01*
X119890180Y-83876995D01*
X119871708Y-83911554D01*
X119846847Y-83941847D01*
X119816554Y-83966708D01*
X119781995Y-83985180D01*
X119744499Y-83996555D01*
X119699362Y-84001000D01*
X119060638Y-84001000D01*
X119015501Y-83996555D01*
X118978005Y-83985180D01*
X118943446Y-83966708D01*
X118913153Y-83941847D01*
X118888292Y-83911554D01*
X118869820Y-83876995D01*
X118858445Y-83839499D01*
X118854000Y-83794362D01*
X118854000Y-83055638D01*
X118858445Y-83010501D01*
X118869820Y-82973005D01*
X118888292Y-82938446D01*
X118913153Y-82908153D01*
X118943446Y-82883292D01*
X118978005Y-82864820D01*
X119015501Y-82853445D01*
X119060638Y-82849000D01*
X119699362Y-82849000D01*
X119744499Y-82853445D01*
G37*
G36*
X89264499Y-82853445D02*
G01*
X89301995Y-82864820D01*
X89336554Y-82883292D01*
X89366847Y-82908153D01*
X89391708Y-82938446D01*
X89410180Y-82973005D01*
X89421555Y-83010501D01*
X89426000Y-83055638D01*
X89426000Y-83794362D01*
X89421555Y-83839499D01*
X89410180Y-83876995D01*
X89391708Y-83911554D01*
X89366847Y-83941847D01*
X89336554Y-83966708D01*
X89301995Y-83985180D01*
X89264499Y-83996555D01*
X89219362Y-84001000D01*
X88580638Y-84001000D01*
X88535501Y-83996555D01*
X88498005Y-83985180D01*
X88463446Y-83966708D01*
X88433153Y-83941847D01*
X88408292Y-83911554D01*
X88389820Y-83876995D01*
X88378445Y-83839499D01*
X88374000Y-83794362D01*
X88374000Y-83055638D01*
X88378445Y-83010501D01*
X88389820Y-82973005D01*
X88408292Y-82938446D01*
X88433153Y-82908153D01*
X88463446Y-82883292D01*
X88498005Y-82864820D01*
X88535501Y-82853445D01*
X88580638Y-82849000D01*
X89219362Y-82849000D01*
X89264499Y-82853445D01*
G37*
G36*
X129904499Y-82853445D02*
G01*
X129941995Y-82864820D01*
X129976554Y-82883292D01*
X130006847Y-82908153D01*
X130031708Y-82938446D01*
X130050180Y-82973005D01*
X130061555Y-83010501D01*
X130066000Y-83055638D01*
X130066000Y-83794362D01*
X130061555Y-83839499D01*
X130050180Y-83876995D01*
X130031708Y-83911554D01*
X130006847Y-83941847D01*
X129976554Y-83966708D01*
X129941995Y-83985180D01*
X129904499Y-83996555D01*
X129859362Y-84001000D01*
X129220638Y-84001000D01*
X129175501Y-83996555D01*
X129138005Y-83985180D01*
X129103446Y-83966708D01*
X129073153Y-83941847D01*
X129048292Y-83911554D01*
X129029820Y-83876995D01*
X129018445Y-83839499D01*
X129014000Y-83794362D01*
X129014000Y-83055638D01*
X129018445Y-83010501D01*
X129029820Y-82973005D01*
X129048292Y-82938446D01*
X129073153Y-82908153D01*
X129103446Y-82883292D01*
X129138005Y-82864820D01*
X129175501Y-82853445D01*
X129220638Y-82849000D01*
X129859362Y-82849000D01*
X129904499Y-82853445D01*
G37*
G36*
X79104499Y-82853445D02*
G01*
X79141995Y-82864820D01*
X79176554Y-82883292D01*
X79206847Y-82908153D01*
X79231708Y-82938446D01*
X79250180Y-82973005D01*
X79261555Y-83010501D01*
X79266000Y-83055638D01*
X79266000Y-83794362D01*
X79261555Y-83839499D01*
X79250180Y-83876995D01*
X79231708Y-83911554D01*
X79206847Y-83941847D01*
X79176554Y-83966708D01*
X79141995Y-83985180D01*
X79104499Y-83996555D01*
X79059362Y-84001000D01*
X78420638Y-84001000D01*
X78375501Y-83996555D01*
X78338005Y-83985180D01*
X78303446Y-83966708D01*
X78273153Y-83941847D01*
X78248292Y-83911554D01*
X78229820Y-83876995D01*
X78218445Y-83839499D01*
X78214000Y-83794362D01*
X78214000Y-83055638D01*
X78218445Y-83010501D01*
X78229820Y-82973005D01*
X78248292Y-82938446D01*
X78273153Y-82908153D01*
X78303446Y-82883292D01*
X78338005Y-82864820D01*
X78375501Y-82853445D01*
X78420638Y-82849000D01*
X79059362Y-82849000D01*
X79104499Y-82853445D01*
G37*
G36*
X140064499Y-82853445D02*
G01*
X140101995Y-82864820D01*
X140136554Y-82883292D01*
X140166847Y-82908153D01*
X140191708Y-82938446D01*
X140210180Y-82973005D01*
X140221555Y-83010501D01*
X140226000Y-83055638D01*
X140226000Y-83794362D01*
X140221555Y-83839499D01*
X140210180Y-83876995D01*
X140191708Y-83911554D01*
X140166847Y-83941847D01*
X140136554Y-83966708D01*
X140101995Y-83985180D01*
X140064499Y-83996555D01*
X140019362Y-84001000D01*
X139380638Y-84001000D01*
X139335501Y-83996555D01*
X139298005Y-83985180D01*
X139263446Y-83966708D01*
X139233153Y-83941847D01*
X139208292Y-83911554D01*
X139189820Y-83876995D01*
X139178445Y-83839499D01*
X139174000Y-83794362D01*
X139174000Y-83055638D01*
X139178445Y-83010501D01*
X139189820Y-82973005D01*
X139208292Y-82938446D01*
X139233153Y-82908153D01*
X139263446Y-82883292D01*
X139298005Y-82864820D01*
X139335501Y-82853445D01*
X139380638Y-82849000D01*
X140019362Y-82849000D01*
X140064499Y-82853445D01*
G37*
G36*
X109814499Y-82853445D02*
G01*
X109851995Y-82864820D01*
X109886554Y-82883292D01*
X109916847Y-82908153D01*
X109941708Y-82938446D01*
X109960180Y-82973005D01*
X109971555Y-83010501D01*
X109976000Y-83055638D01*
X109976000Y-83794362D01*
X109971555Y-83839499D01*
X109960180Y-83876995D01*
X109941708Y-83911554D01*
X109916847Y-83941847D01*
X109886554Y-83966708D01*
X109851995Y-83985180D01*
X109814499Y-83996555D01*
X109769362Y-84001000D01*
X109130638Y-84001000D01*
X109085501Y-83996555D01*
X109048005Y-83985180D01*
X109013446Y-83966708D01*
X108983153Y-83941847D01*
X108958292Y-83911554D01*
X108939820Y-83876995D01*
X108928445Y-83839499D01*
X108924000Y-83794362D01*
X108924000Y-83055638D01*
X108928445Y-83010501D01*
X108939820Y-82973005D01*
X108958292Y-82938446D01*
X108983153Y-82908153D01*
X109013446Y-82883292D01*
X109048005Y-82864820D01*
X109085501Y-82853445D01*
X109130638Y-82849000D01*
X109769362Y-82849000D01*
X109814499Y-82853445D01*
G37*
G36*
X150224499Y-82853445D02*
G01*
X150261995Y-82864820D01*
X150296554Y-82883292D01*
X150326847Y-82908153D01*
X150351708Y-82938446D01*
X150370180Y-82973005D01*
X150381555Y-83010501D01*
X150386000Y-83055638D01*
X150386000Y-83794362D01*
X150381555Y-83839499D01*
X150370180Y-83876995D01*
X150351708Y-83911554D01*
X150326847Y-83941847D01*
X150296554Y-83966708D01*
X150261995Y-83985180D01*
X150224499Y-83996555D01*
X150179362Y-84001000D01*
X149540638Y-84001000D01*
X149495501Y-83996555D01*
X149458005Y-83985180D01*
X149423446Y-83966708D01*
X149393153Y-83941847D01*
X149368292Y-83911554D01*
X149349820Y-83876995D01*
X149338445Y-83839499D01*
X149334000Y-83794362D01*
X149334000Y-83055638D01*
X149338445Y-83010501D01*
X149349820Y-82973005D01*
X149368292Y-82938446D01*
X149393153Y-82908153D01*
X149423446Y-82883292D01*
X149458005Y-82864820D01*
X149495501Y-82853445D01*
X149540638Y-82849000D01*
X150179362Y-82849000D01*
X150224499Y-82853445D01*
G37*
G36*
X73199499Y-82028445D02*
G01*
X73236995Y-82039820D01*
X73271554Y-82058292D01*
X73301847Y-82083153D01*
X73326708Y-82113446D01*
X73345180Y-82148005D01*
X73356555Y-82185501D01*
X73361000Y-82230638D01*
X73361000Y-82869362D01*
X73356555Y-82914499D01*
X73345180Y-82951995D01*
X73326708Y-82986554D01*
X73301847Y-83016847D01*
X73271554Y-83041708D01*
X73236995Y-83060180D01*
X73199499Y-83071555D01*
X73154362Y-83076000D01*
X72415638Y-83076000D01*
X72370501Y-83071555D01*
X72333005Y-83060180D01*
X72298446Y-83041708D01*
X72268153Y-83016847D01*
X72243292Y-82986554D01*
X72224820Y-82951995D01*
X72213445Y-82914499D01*
X72209000Y-82869362D01*
X72209000Y-82230638D01*
X72213445Y-82185501D01*
X72224820Y-82148005D01*
X72243292Y-82113446D01*
X72268153Y-82083153D01*
X72298446Y-82058292D01*
X72333005Y-82039820D01*
X72370501Y-82028445D01*
X72415638Y-82024000D01*
X73154362Y-82024000D01*
X73199499Y-82028445D01*
G37*
G36*
X74949499Y-82028445D02*
G01*
X74986995Y-82039820D01*
X75021554Y-82058292D01*
X75051847Y-82083153D01*
X75076708Y-82113446D01*
X75095180Y-82148005D01*
X75106555Y-82185501D01*
X75111000Y-82230638D01*
X75111000Y-82869362D01*
X75106555Y-82914499D01*
X75095180Y-82951995D01*
X75076708Y-82986554D01*
X75051847Y-83016847D01*
X75021554Y-83041708D01*
X74986995Y-83060180D01*
X74949499Y-83071555D01*
X74904362Y-83076000D01*
X74165638Y-83076000D01*
X74120501Y-83071555D01*
X74083005Y-83060180D01*
X74048446Y-83041708D01*
X74018153Y-83016847D01*
X73993292Y-82986554D01*
X73974820Y-82951995D01*
X73963445Y-82914499D01*
X73959000Y-82869362D01*
X73959000Y-82230638D01*
X73963445Y-82185501D01*
X73974820Y-82148005D01*
X73993292Y-82113446D01*
X74018153Y-82083153D01*
X74048446Y-82058292D01*
X74083005Y-82039820D01*
X74120501Y-82028445D01*
X74165638Y-82024000D01*
X74904362Y-82024000D01*
X74949499Y-82028445D01*
G37*
G36*
X83359499Y-82028445D02*
G01*
X83396995Y-82039820D01*
X83431554Y-82058292D01*
X83461847Y-82083153D01*
X83486708Y-82113446D01*
X83505180Y-82148005D01*
X83516555Y-82185501D01*
X83521000Y-82230638D01*
X83521000Y-82869362D01*
X83516555Y-82914499D01*
X83505180Y-82951995D01*
X83486708Y-82986554D01*
X83461847Y-83016847D01*
X83431554Y-83041708D01*
X83396995Y-83060180D01*
X83359499Y-83071555D01*
X83314362Y-83076000D01*
X82575638Y-83076000D01*
X82530501Y-83071555D01*
X82493005Y-83060180D01*
X82458446Y-83041708D01*
X82428153Y-83016847D01*
X82403292Y-82986554D01*
X82384820Y-82951995D01*
X82373445Y-82914499D01*
X82369000Y-82869362D01*
X82369000Y-82230638D01*
X82373445Y-82185501D01*
X82384820Y-82148005D01*
X82403292Y-82113446D01*
X82428153Y-82083153D01*
X82458446Y-82058292D01*
X82493005Y-82039820D01*
X82530501Y-82028445D01*
X82575638Y-82024000D01*
X83314362Y-82024000D01*
X83359499Y-82028445D01*
G37*
G36*
X85109499Y-82028445D02*
G01*
X85146995Y-82039820D01*
X85181554Y-82058292D01*
X85211847Y-82083153D01*
X85236708Y-82113446D01*
X85255180Y-82148005D01*
X85266555Y-82185501D01*
X85271000Y-82230638D01*
X85271000Y-82869362D01*
X85266555Y-82914499D01*
X85255180Y-82951995D01*
X85236708Y-82986554D01*
X85211847Y-83016847D01*
X85181554Y-83041708D01*
X85146995Y-83060180D01*
X85109499Y-83071555D01*
X85064362Y-83076000D01*
X84325638Y-83076000D01*
X84280501Y-83071555D01*
X84243005Y-83060180D01*
X84208446Y-83041708D01*
X84178153Y-83016847D01*
X84153292Y-82986554D01*
X84134820Y-82951995D01*
X84123445Y-82914499D01*
X84119000Y-82869362D01*
X84119000Y-82230638D01*
X84123445Y-82185501D01*
X84134820Y-82148005D01*
X84153292Y-82113446D01*
X84178153Y-82083153D01*
X84208446Y-82058292D01*
X84243005Y-82039820D01*
X84280501Y-82028445D01*
X84325638Y-82024000D01*
X85064362Y-82024000D01*
X85109499Y-82028445D01*
G37*
G36*
X93519499Y-82028445D02*
G01*
X93556995Y-82039820D01*
X93591554Y-82058292D01*
X93621847Y-82083153D01*
X93646708Y-82113446D01*
X93665180Y-82148005D01*
X93676555Y-82185501D01*
X93681000Y-82230638D01*
X93681000Y-82869362D01*
X93676555Y-82914499D01*
X93665180Y-82951995D01*
X93646708Y-82986554D01*
X93621847Y-83016847D01*
X93591554Y-83041708D01*
X93556995Y-83060180D01*
X93519499Y-83071555D01*
X93474362Y-83076000D01*
X92735638Y-83076000D01*
X92690501Y-83071555D01*
X92653005Y-83060180D01*
X92618446Y-83041708D01*
X92588153Y-83016847D01*
X92563292Y-82986554D01*
X92544820Y-82951995D01*
X92533445Y-82914499D01*
X92529000Y-82869362D01*
X92529000Y-82230638D01*
X92533445Y-82185501D01*
X92544820Y-82148005D01*
X92563292Y-82113446D01*
X92588153Y-82083153D01*
X92618446Y-82058292D01*
X92653005Y-82039820D01*
X92690501Y-82028445D01*
X92735638Y-82024000D01*
X93474362Y-82024000D01*
X93519499Y-82028445D01*
G37*
G36*
X95269499Y-82028445D02*
G01*
X95306995Y-82039820D01*
X95341554Y-82058292D01*
X95371847Y-82083153D01*
X95396708Y-82113446D01*
X95415180Y-82148005D01*
X95426555Y-82185501D01*
X95431000Y-82230638D01*
X95431000Y-82869362D01*
X95426555Y-82914499D01*
X95415180Y-82951995D01*
X95396708Y-82986554D01*
X95371847Y-83016847D01*
X95341554Y-83041708D01*
X95306995Y-83060180D01*
X95269499Y-83071555D01*
X95224362Y-83076000D01*
X94485638Y-83076000D01*
X94440501Y-83071555D01*
X94403005Y-83060180D01*
X94368446Y-83041708D01*
X94338153Y-83016847D01*
X94313292Y-82986554D01*
X94294820Y-82951995D01*
X94283445Y-82914499D01*
X94279000Y-82869362D01*
X94279000Y-82230638D01*
X94283445Y-82185501D01*
X94294820Y-82148005D01*
X94313292Y-82113446D01*
X94338153Y-82083153D01*
X94368446Y-82058292D01*
X94403005Y-82039820D01*
X94440501Y-82028445D01*
X94485638Y-82024000D01*
X95224362Y-82024000D01*
X95269499Y-82028445D01*
G37*
G36*
X103909499Y-82028445D02*
G01*
X103946995Y-82039820D01*
X103981554Y-82058292D01*
X104011847Y-82083153D01*
X104036708Y-82113446D01*
X104055180Y-82148005D01*
X104066555Y-82185501D01*
X104071000Y-82230638D01*
X104071000Y-82869362D01*
X104066555Y-82914499D01*
X104055180Y-82951995D01*
X104036708Y-82986554D01*
X104011847Y-83016847D01*
X103981554Y-83041708D01*
X103946995Y-83060180D01*
X103909499Y-83071555D01*
X103864362Y-83076000D01*
X103125638Y-83076000D01*
X103080501Y-83071555D01*
X103043005Y-83060180D01*
X103008446Y-83041708D01*
X102978153Y-83016847D01*
X102953292Y-82986554D01*
X102934820Y-82951995D01*
X102923445Y-82914499D01*
X102919000Y-82869362D01*
X102919000Y-82230638D01*
X102923445Y-82185501D01*
X102934820Y-82148005D01*
X102953292Y-82113446D01*
X102978153Y-82083153D01*
X103008446Y-82058292D01*
X103043005Y-82039820D01*
X103080501Y-82028445D01*
X103125638Y-82024000D01*
X103864362Y-82024000D01*
X103909499Y-82028445D01*
G37*
G36*
X105659499Y-82028445D02*
G01*
X105696995Y-82039820D01*
X105731554Y-82058292D01*
X105761847Y-82083153D01*
X105786708Y-82113446D01*
X105805180Y-82148005D01*
X105816555Y-82185501D01*
X105821000Y-82230638D01*
X105821000Y-82869362D01*
X105816555Y-82914499D01*
X105805180Y-82951995D01*
X105786708Y-82986554D01*
X105761847Y-83016847D01*
X105731554Y-83041708D01*
X105696995Y-83060180D01*
X105659499Y-83071555D01*
X105614362Y-83076000D01*
X104875638Y-83076000D01*
X104830501Y-83071555D01*
X104793005Y-83060180D01*
X104758446Y-83041708D01*
X104728153Y-83016847D01*
X104703292Y-82986554D01*
X104684820Y-82951995D01*
X104673445Y-82914499D01*
X104669000Y-82869362D01*
X104669000Y-82230638D01*
X104673445Y-82185501D01*
X104684820Y-82148005D01*
X104703292Y-82113446D01*
X104728153Y-82083153D01*
X104758446Y-82058292D01*
X104793005Y-82039820D01*
X104830501Y-82028445D01*
X104875638Y-82024000D01*
X105614362Y-82024000D01*
X105659499Y-82028445D01*
G37*
G36*
X115589499Y-82028445D02*
G01*
X115626995Y-82039820D01*
X115661554Y-82058292D01*
X115691847Y-82083153D01*
X115716708Y-82113446D01*
X115735180Y-82148005D01*
X115746555Y-82185501D01*
X115751000Y-82230638D01*
X115751000Y-82869362D01*
X115746555Y-82914499D01*
X115735180Y-82951995D01*
X115716708Y-82986554D01*
X115691847Y-83016847D01*
X115661554Y-83041708D01*
X115626995Y-83060180D01*
X115589499Y-83071555D01*
X115544362Y-83076000D01*
X114805638Y-83076000D01*
X114760501Y-83071555D01*
X114723005Y-83060180D01*
X114688446Y-83041708D01*
X114658153Y-83016847D01*
X114633292Y-82986554D01*
X114614820Y-82951995D01*
X114603445Y-82914499D01*
X114599000Y-82869362D01*
X114599000Y-82230638D01*
X114603445Y-82185501D01*
X114614820Y-82148005D01*
X114633292Y-82113446D01*
X114658153Y-82083153D01*
X114688446Y-82058292D01*
X114723005Y-82039820D01*
X114760501Y-82028445D01*
X114805638Y-82024000D01*
X115544362Y-82024000D01*
X115589499Y-82028445D01*
G37*
G36*
X113839499Y-82028445D02*
G01*
X113876995Y-82039820D01*
X113911554Y-82058292D01*
X113941847Y-82083153D01*
X113966708Y-82113446D01*
X113985180Y-82148005D01*
X113996555Y-82185501D01*
X114001000Y-82230638D01*
X114001000Y-82869362D01*
X113996555Y-82914499D01*
X113985180Y-82951995D01*
X113966708Y-82986554D01*
X113941847Y-83016847D01*
X113911554Y-83041708D01*
X113876995Y-83060180D01*
X113839499Y-83071555D01*
X113794362Y-83076000D01*
X113055638Y-83076000D01*
X113010501Y-83071555D01*
X112973005Y-83060180D01*
X112938446Y-83041708D01*
X112908153Y-83016847D01*
X112883292Y-82986554D01*
X112864820Y-82951995D01*
X112853445Y-82914499D01*
X112849000Y-82869362D01*
X112849000Y-82230638D01*
X112853445Y-82185501D01*
X112864820Y-82148005D01*
X112883292Y-82113446D01*
X112908153Y-82083153D01*
X112938446Y-82058292D01*
X112973005Y-82039820D01*
X113010501Y-82028445D01*
X113055638Y-82024000D01*
X113794362Y-82024000D01*
X113839499Y-82028445D01*
G37*
G36*
X125749499Y-82028445D02*
G01*
X125786995Y-82039820D01*
X125821554Y-82058292D01*
X125851847Y-82083153D01*
X125876708Y-82113446D01*
X125895180Y-82148005D01*
X125906555Y-82185501D01*
X125911000Y-82230638D01*
X125911000Y-82869362D01*
X125906555Y-82914499D01*
X125895180Y-82951995D01*
X125876708Y-82986554D01*
X125851847Y-83016847D01*
X125821554Y-83041708D01*
X125786995Y-83060180D01*
X125749499Y-83071555D01*
X125704362Y-83076000D01*
X124965638Y-83076000D01*
X124920501Y-83071555D01*
X124883005Y-83060180D01*
X124848446Y-83041708D01*
X124818153Y-83016847D01*
X124793292Y-82986554D01*
X124774820Y-82951995D01*
X124763445Y-82914499D01*
X124759000Y-82869362D01*
X124759000Y-82230638D01*
X124763445Y-82185501D01*
X124774820Y-82148005D01*
X124793292Y-82113446D01*
X124818153Y-82083153D01*
X124848446Y-82058292D01*
X124883005Y-82039820D01*
X124920501Y-82028445D01*
X124965638Y-82024000D01*
X125704362Y-82024000D01*
X125749499Y-82028445D01*
G37*
G36*
X146069499Y-82028445D02*
G01*
X146106995Y-82039820D01*
X146141554Y-82058292D01*
X146171847Y-82083153D01*
X146196708Y-82113446D01*
X146215180Y-82148005D01*
X146226555Y-82185501D01*
X146231000Y-82230638D01*
X146231000Y-82869362D01*
X146226555Y-82914499D01*
X146215180Y-82951995D01*
X146196708Y-82986554D01*
X146171847Y-83016847D01*
X146141554Y-83041708D01*
X146106995Y-83060180D01*
X146069499Y-83071555D01*
X146024362Y-83076000D01*
X145285638Y-83076000D01*
X145240501Y-83071555D01*
X145203005Y-83060180D01*
X145168446Y-83041708D01*
X145138153Y-83016847D01*
X145113292Y-82986554D01*
X145094820Y-82951995D01*
X145083445Y-82914499D01*
X145079000Y-82869362D01*
X145079000Y-82230638D01*
X145083445Y-82185501D01*
X145094820Y-82148005D01*
X145113292Y-82113446D01*
X145138153Y-82083153D01*
X145168446Y-82058292D01*
X145203005Y-82039820D01*
X145240501Y-82028445D01*
X145285638Y-82024000D01*
X146024362Y-82024000D01*
X146069499Y-82028445D01*
G37*
G36*
X144319499Y-82028445D02*
G01*
X144356995Y-82039820D01*
X144391554Y-82058292D01*
X144421847Y-82083153D01*
X144446708Y-82113446D01*
X144465180Y-82148005D01*
X144476555Y-82185501D01*
X144481000Y-82230638D01*
X144481000Y-82869362D01*
X144476555Y-82914499D01*
X144465180Y-82951995D01*
X144446708Y-82986554D01*
X144421847Y-83016847D01*
X144391554Y-83041708D01*
X144356995Y-83060180D01*
X144319499Y-83071555D01*
X144274362Y-83076000D01*
X143535638Y-83076000D01*
X143490501Y-83071555D01*
X143453005Y-83060180D01*
X143418446Y-83041708D01*
X143388153Y-83016847D01*
X143363292Y-82986554D01*
X143344820Y-82951995D01*
X143333445Y-82914499D01*
X143329000Y-82869362D01*
X143329000Y-82230638D01*
X143333445Y-82185501D01*
X143344820Y-82148005D01*
X143363292Y-82113446D01*
X143388153Y-82083153D01*
X143418446Y-82058292D01*
X143453005Y-82039820D01*
X143490501Y-82028445D01*
X143535638Y-82024000D01*
X144274362Y-82024000D01*
X144319499Y-82028445D01*
G37*
G36*
X135909499Y-82028445D02*
G01*
X135946995Y-82039820D01*
X135981554Y-82058292D01*
X136011847Y-82083153D01*
X136036708Y-82113446D01*
X136055180Y-82148005D01*
X136066555Y-82185501D01*
X136071000Y-82230638D01*
X136071000Y-82869362D01*
X136066555Y-82914499D01*
X136055180Y-82951995D01*
X136036708Y-82986554D01*
X136011847Y-83016847D01*
X135981554Y-83041708D01*
X135946995Y-83060180D01*
X135909499Y-83071555D01*
X135864362Y-83076000D01*
X135125638Y-83076000D01*
X135080501Y-83071555D01*
X135043005Y-83060180D01*
X135008446Y-83041708D01*
X134978153Y-83016847D01*
X134953292Y-82986554D01*
X134934820Y-82951995D01*
X134923445Y-82914499D01*
X134919000Y-82869362D01*
X134919000Y-82230638D01*
X134923445Y-82185501D01*
X134934820Y-82148005D01*
X134953292Y-82113446D01*
X134978153Y-82083153D01*
X135008446Y-82058292D01*
X135043005Y-82039820D01*
X135080501Y-82028445D01*
X135125638Y-82024000D01*
X135864362Y-82024000D01*
X135909499Y-82028445D01*
G37*
G36*
X134159499Y-82028445D02*
G01*
X134196995Y-82039820D01*
X134231554Y-82058292D01*
X134261847Y-82083153D01*
X134286708Y-82113446D01*
X134305180Y-82148005D01*
X134316555Y-82185501D01*
X134321000Y-82230638D01*
X134321000Y-82869362D01*
X134316555Y-82914499D01*
X134305180Y-82951995D01*
X134286708Y-82986554D01*
X134261847Y-83016847D01*
X134231554Y-83041708D01*
X134196995Y-83060180D01*
X134159499Y-83071555D01*
X134114362Y-83076000D01*
X133375638Y-83076000D01*
X133330501Y-83071555D01*
X133293005Y-83060180D01*
X133258446Y-83041708D01*
X133228153Y-83016847D01*
X133203292Y-82986554D01*
X133184820Y-82951995D01*
X133173445Y-82914499D01*
X133169000Y-82869362D01*
X133169000Y-82230638D01*
X133173445Y-82185501D01*
X133184820Y-82148005D01*
X133203292Y-82113446D01*
X133228153Y-82083153D01*
X133258446Y-82058292D01*
X133293005Y-82039820D01*
X133330501Y-82028445D01*
X133375638Y-82024000D01*
X134114362Y-82024000D01*
X134159499Y-82028445D01*
G37*
G36*
X123999499Y-82028445D02*
G01*
X124036995Y-82039820D01*
X124071554Y-82058292D01*
X124101847Y-82083153D01*
X124126708Y-82113446D01*
X124145180Y-82148005D01*
X124156555Y-82185501D01*
X124161000Y-82230638D01*
X124161000Y-82869362D01*
X124156555Y-82914499D01*
X124145180Y-82951995D01*
X124126708Y-82986554D01*
X124101847Y-83016847D01*
X124071554Y-83041708D01*
X124036995Y-83060180D01*
X123999499Y-83071555D01*
X123954362Y-83076000D01*
X123215638Y-83076000D01*
X123170501Y-83071555D01*
X123133005Y-83060180D01*
X123098446Y-83041708D01*
X123068153Y-83016847D01*
X123043292Y-82986554D01*
X123024820Y-82951995D01*
X123013445Y-82914499D01*
X123009000Y-82869362D01*
X123009000Y-82230638D01*
X123013445Y-82185501D01*
X123024820Y-82148005D01*
X123043292Y-82113446D01*
X123068153Y-82083153D01*
X123098446Y-82058292D01*
X123133005Y-82039820D01*
X123170501Y-82028445D01*
X123215638Y-82024000D01*
X123954362Y-82024000D01*
X123999499Y-82028445D01*
G37*
G36*
X140064499Y-81103445D02*
G01*
X140101995Y-81114820D01*
X140136554Y-81133292D01*
X140166847Y-81158153D01*
X140191708Y-81188446D01*
X140210180Y-81223005D01*
X140221555Y-81260501D01*
X140226000Y-81305638D01*
X140226000Y-82044362D01*
X140221555Y-82089499D01*
X140210180Y-82126995D01*
X140191708Y-82161554D01*
X140166847Y-82191847D01*
X140136554Y-82216708D01*
X140101995Y-82235180D01*
X140064499Y-82246555D01*
X140019362Y-82251000D01*
X139380638Y-82251000D01*
X139335501Y-82246555D01*
X139298005Y-82235180D01*
X139263446Y-82216708D01*
X139233153Y-82191847D01*
X139208292Y-82161554D01*
X139189820Y-82126995D01*
X139178445Y-82089499D01*
X139174000Y-82044362D01*
X139174000Y-81305638D01*
X139178445Y-81260501D01*
X139189820Y-81223005D01*
X139208292Y-81188446D01*
X139233153Y-81158153D01*
X139263446Y-81133292D01*
X139298005Y-81114820D01*
X139335501Y-81103445D01*
X139380638Y-81099000D01*
X140019362Y-81099000D01*
X140064499Y-81103445D01*
G37*
G36*
X99424499Y-81103445D02*
G01*
X99461995Y-81114820D01*
X99496554Y-81133292D01*
X99526847Y-81158153D01*
X99551708Y-81188446D01*
X99570180Y-81223005D01*
X99581555Y-81260501D01*
X99586000Y-81305638D01*
X99586000Y-82044362D01*
X99581555Y-82089499D01*
X99570180Y-82126995D01*
X99551708Y-82161554D01*
X99526847Y-82191847D01*
X99496554Y-82216708D01*
X99461995Y-82235180D01*
X99424499Y-82246555D01*
X99379362Y-82251000D01*
X98740638Y-82251000D01*
X98695501Y-82246555D01*
X98658005Y-82235180D01*
X98623446Y-82216708D01*
X98593153Y-82191847D01*
X98568292Y-82161554D01*
X98549820Y-82126995D01*
X98538445Y-82089499D01*
X98534000Y-82044362D01*
X98534000Y-81305638D01*
X98538445Y-81260501D01*
X98549820Y-81223005D01*
X98568292Y-81188446D01*
X98593153Y-81158153D01*
X98623446Y-81133292D01*
X98658005Y-81114820D01*
X98695501Y-81103445D01*
X98740638Y-81099000D01*
X99379362Y-81099000D01*
X99424499Y-81103445D01*
G37*
G36*
X89264499Y-81103445D02*
G01*
X89301995Y-81114820D01*
X89336554Y-81133292D01*
X89366847Y-81158153D01*
X89391708Y-81188446D01*
X89410180Y-81223005D01*
X89421555Y-81260501D01*
X89426000Y-81305638D01*
X89426000Y-82044362D01*
X89421555Y-82089499D01*
X89410180Y-82126995D01*
X89391708Y-82161554D01*
X89366847Y-82191847D01*
X89336554Y-82216708D01*
X89301995Y-82235180D01*
X89264499Y-82246555D01*
X89219362Y-82251000D01*
X88580638Y-82251000D01*
X88535501Y-82246555D01*
X88498005Y-82235180D01*
X88463446Y-82216708D01*
X88433153Y-82191847D01*
X88408292Y-82161554D01*
X88389820Y-82126995D01*
X88378445Y-82089499D01*
X88374000Y-82044362D01*
X88374000Y-81305638D01*
X88378445Y-81260501D01*
X88389820Y-81223005D01*
X88408292Y-81188446D01*
X88433153Y-81158153D01*
X88463446Y-81133292D01*
X88498005Y-81114820D01*
X88535501Y-81103445D01*
X88580638Y-81099000D01*
X89219362Y-81099000D01*
X89264499Y-81103445D01*
G37*
G36*
X129904499Y-81103445D02*
G01*
X129941995Y-81114820D01*
X129976554Y-81133292D01*
X130006847Y-81158153D01*
X130031708Y-81188446D01*
X130050180Y-81223005D01*
X130061555Y-81260501D01*
X130066000Y-81305638D01*
X130066000Y-82044362D01*
X130061555Y-82089499D01*
X130050180Y-82126995D01*
X130031708Y-82161554D01*
X130006847Y-82191847D01*
X129976554Y-82216708D01*
X129941995Y-82235180D01*
X129904499Y-82246555D01*
X129859362Y-82251000D01*
X129220638Y-82251000D01*
X129175501Y-82246555D01*
X129138005Y-82235180D01*
X129103446Y-82216708D01*
X129073153Y-82191847D01*
X129048292Y-82161554D01*
X129029820Y-82126995D01*
X129018445Y-82089499D01*
X129014000Y-82044362D01*
X129014000Y-81305638D01*
X129018445Y-81260501D01*
X129029820Y-81223005D01*
X129048292Y-81188446D01*
X129073153Y-81158153D01*
X129103446Y-81133292D01*
X129138005Y-81114820D01*
X129175501Y-81103445D01*
X129220638Y-81099000D01*
X129859362Y-81099000D01*
X129904499Y-81103445D01*
G37*
G36*
X119744499Y-81103445D02*
G01*
X119781995Y-81114820D01*
X119816554Y-81133292D01*
X119846847Y-81158153D01*
X119871708Y-81188446D01*
X119890180Y-81223005D01*
X119901555Y-81260501D01*
X119906000Y-81305638D01*
X119906000Y-82044362D01*
X119901555Y-82089499D01*
X119890180Y-82126995D01*
X119871708Y-82161554D01*
X119846847Y-82191847D01*
X119816554Y-82216708D01*
X119781995Y-82235180D01*
X119744499Y-82246555D01*
X119699362Y-82251000D01*
X119060638Y-82251000D01*
X119015501Y-82246555D01*
X118978005Y-82235180D01*
X118943446Y-82216708D01*
X118913153Y-82191847D01*
X118888292Y-82161554D01*
X118869820Y-82126995D01*
X118858445Y-82089499D01*
X118854000Y-82044362D01*
X118854000Y-81305638D01*
X118858445Y-81260501D01*
X118869820Y-81223005D01*
X118888292Y-81188446D01*
X118913153Y-81158153D01*
X118943446Y-81133292D01*
X118978005Y-81114820D01*
X119015501Y-81103445D01*
X119060638Y-81099000D01*
X119699362Y-81099000D01*
X119744499Y-81103445D01*
G37*
G36*
X109814499Y-81103445D02*
G01*
X109851995Y-81114820D01*
X109886554Y-81133292D01*
X109916847Y-81158153D01*
X109941708Y-81188446D01*
X109960180Y-81223005D01*
X109971555Y-81260501D01*
X109976000Y-81305638D01*
X109976000Y-82044362D01*
X109971555Y-82089499D01*
X109960180Y-82126995D01*
X109941708Y-82161554D01*
X109916847Y-82191847D01*
X109886554Y-82216708D01*
X109851995Y-82235180D01*
X109814499Y-82246555D01*
X109769362Y-82251000D01*
X109130638Y-82251000D01*
X109085501Y-82246555D01*
X109048005Y-82235180D01*
X109013446Y-82216708D01*
X108983153Y-82191847D01*
X108958292Y-82161554D01*
X108939820Y-82126995D01*
X108928445Y-82089499D01*
X108924000Y-82044362D01*
X108924000Y-81305638D01*
X108928445Y-81260501D01*
X108939820Y-81223005D01*
X108958292Y-81188446D01*
X108983153Y-81158153D01*
X109013446Y-81133292D01*
X109048005Y-81114820D01*
X109085501Y-81103445D01*
X109130638Y-81099000D01*
X109769362Y-81099000D01*
X109814499Y-81103445D01*
G37*
G36*
X79104499Y-81103445D02*
G01*
X79141995Y-81114820D01*
X79176554Y-81133292D01*
X79206847Y-81158153D01*
X79231708Y-81188446D01*
X79250180Y-81223005D01*
X79261555Y-81260501D01*
X79266000Y-81305638D01*
X79266000Y-82044362D01*
X79261555Y-82089499D01*
X79250180Y-82126995D01*
X79231708Y-82161554D01*
X79206847Y-82191847D01*
X79176554Y-82216708D01*
X79141995Y-82235180D01*
X79104499Y-82246555D01*
X79059362Y-82251000D01*
X78420638Y-82251000D01*
X78375501Y-82246555D01*
X78338005Y-82235180D01*
X78303446Y-82216708D01*
X78273153Y-82191847D01*
X78248292Y-82161554D01*
X78229820Y-82126995D01*
X78218445Y-82089499D01*
X78214000Y-82044362D01*
X78214000Y-81305638D01*
X78218445Y-81260501D01*
X78229820Y-81223005D01*
X78248292Y-81188446D01*
X78273153Y-81158153D01*
X78303446Y-81133292D01*
X78338005Y-81114820D01*
X78375501Y-81103445D01*
X78420638Y-81099000D01*
X79059362Y-81099000D01*
X79104499Y-81103445D01*
G37*
G36*
X150224499Y-81103445D02*
G01*
X150261995Y-81114820D01*
X150296554Y-81133292D01*
X150326847Y-81158153D01*
X150351708Y-81188446D01*
X150370180Y-81223005D01*
X150381555Y-81260501D01*
X150386000Y-81305638D01*
X150386000Y-82044362D01*
X150381555Y-82089499D01*
X150370180Y-82126995D01*
X150351708Y-82161554D01*
X150326847Y-82191847D01*
X150296554Y-82216708D01*
X150261995Y-82235180D01*
X150224499Y-82246555D01*
X150179362Y-82251000D01*
X149540638Y-82251000D01*
X149495501Y-82246555D01*
X149458005Y-82235180D01*
X149423446Y-82216708D01*
X149393153Y-82191847D01*
X149368292Y-82161554D01*
X149349820Y-82126995D01*
X149338445Y-82089499D01*
X149334000Y-82044362D01*
X149334000Y-81305638D01*
X149338445Y-81260501D01*
X149349820Y-81223005D01*
X149368292Y-81188446D01*
X149393153Y-81158153D01*
X149423446Y-81133292D01*
X149458005Y-81114820D01*
X149495501Y-81103445D01*
X149540638Y-81099000D01*
X150179362Y-81099000D01*
X150224499Y-81103445D01*
G37*
G36*
X43293512Y-79875927D02*
G01*
X43442812Y-79905624D01*
X43606784Y-79973544D01*
X43754354Y-80072147D01*
X43879853Y-80197646D01*
X43978456Y-80345216D01*
X44046376Y-80509188D01*
X44081000Y-80683259D01*
X44081000Y-80860741D01*
X44046376Y-81034812D01*
X43978456Y-81198784D01*
X43879853Y-81346354D01*
X43754354Y-81471853D01*
X43606784Y-81570456D01*
X43442812Y-81638376D01*
X43293512Y-81668073D01*
X43268742Y-81673000D01*
X43091258Y-81673000D01*
X43066488Y-81668073D01*
X42917188Y-81638376D01*
X42753216Y-81570456D01*
X42605646Y-81471853D01*
X42480147Y-81346354D01*
X42381544Y-81198784D01*
X42313624Y-81034812D01*
X42279000Y-80860741D01*
X42279000Y-80683259D01*
X42313624Y-80509188D01*
X42381544Y-80345216D01*
X42480147Y-80197646D01*
X42605646Y-80072147D01*
X42753216Y-79973544D01*
X42917188Y-79905624D01*
X43066488Y-79875927D01*
X43091258Y-79871000D01*
X43268742Y-79871000D01*
X43293512Y-79875927D01*
G37*
G36*
X63613512Y-79875927D02*
G01*
X63762812Y-79905624D01*
X63926784Y-79973544D01*
X64074354Y-80072147D01*
X64199853Y-80197646D01*
X64298456Y-80345216D01*
X64366376Y-80509188D01*
X64401000Y-80683259D01*
X64401000Y-80860741D01*
X64366376Y-81034812D01*
X64298456Y-81198784D01*
X64199853Y-81346354D01*
X64074354Y-81471853D01*
X63926784Y-81570456D01*
X63762812Y-81638376D01*
X63613512Y-81668073D01*
X63588742Y-81673000D01*
X63411258Y-81673000D01*
X63386488Y-81668073D01*
X63237188Y-81638376D01*
X63073216Y-81570456D01*
X62925646Y-81471853D01*
X62800147Y-81346354D01*
X62701544Y-81198784D01*
X62633624Y-81034812D01*
X62599000Y-80860741D01*
X62599000Y-80683259D01*
X62633624Y-80509188D01*
X62701544Y-80345216D01*
X62800147Y-80197646D01*
X62925646Y-80072147D01*
X63073216Y-79973544D01*
X63237188Y-79905624D01*
X63386488Y-79875927D01*
X63411258Y-79871000D01*
X63588742Y-79871000D01*
X63613512Y-79875927D01*
G37*
G36*
X43293512Y-77335927D02*
G01*
X43442812Y-77365624D01*
X43606784Y-77433544D01*
X43754354Y-77532147D01*
X43879853Y-77657646D01*
X43978456Y-77805216D01*
X44046376Y-77969188D01*
X44081000Y-78143259D01*
X44081000Y-78320741D01*
X44046376Y-78494812D01*
X43978456Y-78658784D01*
X43879853Y-78806354D01*
X43754354Y-78931853D01*
X43606784Y-79030456D01*
X43442812Y-79098376D01*
X43293512Y-79128073D01*
X43268742Y-79133000D01*
X43091258Y-79133000D01*
X43066488Y-79128073D01*
X42917188Y-79098376D01*
X42753216Y-79030456D01*
X42605646Y-78931853D01*
X42480147Y-78806354D01*
X42381544Y-78658784D01*
X42313624Y-78494812D01*
X42279000Y-78320741D01*
X42279000Y-78143259D01*
X42313624Y-77969188D01*
X42381544Y-77805216D01*
X42480147Y-77657646D01*
X42605646Y-77532147D01*
X42753216Y-77433544D01*
X42917188Y-77365624D01*
X43066488Y-77335927D01*
X43091258Y-77331000D01*
X43268742Y-77331000D01*
X43293512Y-77335927D01*
G37*
G36*
X63613512Y-77335927D02*
G01*
X63762812Y-77365624D01*
X63926784Y-77433544D01*
X64074354Y-77532147D01*
X64199853Y-77657646D01*
X64298456Y-77805216D01*
X64366376Y-77969188D01*
X64401000Y-78143259D01*
X64401000Y-78320741D01*
X64366376Y-78494812D01*
X64298456Y-78658784D01*
X64199853Y-78806354D01*
X64074354Y-78931853D01*
X63926784Y-79030456D01*
X63762812Y-79098376D01*
X63613512Y-79128073D01*
X63588742Y-79133000D01*
X63411258Y-79133000D01*
X63386488Y-79128073D01*
X63237188Y-79098376D01*
X63073216Y-79030456D01*
X62925646Y-78931853D01*
X62800147Y-78806354D01*
X62701544Y-78658784D01*
X62633624Y-78494812D01*
X62599000Y-78320741D01*
X62599000Y-78143259D01*
X62633624Y-77969188D01*
X62701544Y-77805216D01*
X62800147Y-77657646D01*
X62925646Y-77532147D01*
X63073216Y-77433544D01*
X63237188Y-77365624D01*
X63386488Y-77335927D01*
X63411258Y-77331000D01*
X63588742Y-77331000D01*
X63613512Y-77335927D01*
G37*
G36*
X88861000Y-78871000D02*
G01*
X86859000Y-78871000D01*
X86859000Y-77969000D01*
X88861000Y-77969000D01*
X88861000Y-78871000D01*
G37*
G36*
X149821000Y-78871000D02*
G01*
X147819000Y-78871000D01*
X147819000Y-77969000D01*
X149821000Y-77969000D01*
X149821000Y-78871000D01*
G37*
G36*
X78701000Y-78871000D02*
G01*
X76699000Y-78871000D01*
X76699000Y-77969000D01*
X78701000Y-77969000D01*
X78701000Y-78871000D01*
G37*
G36*
X99021000Y-78871000D02*
G01*
X97019000Y-78871000D01*
X97019000Y-77969000D01*
X99021000Y-77969000D01*
X99021000Y-78871000D01*
G37*
G36*
X109411000Y-78871000D02*
G01*
X107409000Y-78871000D01*
X107409000Y-77969000D01*
X109411000Y-77969000D01*
X109411000Y-78871000D01*
G37*
G36*
X119341000Y-78871000D02*
G01*
X117339000Y-78871000D01*
X117339000Y-77969000D01*
X119341000Y-77969000D01*
X119341000Y-78871000D01*
G37*
G36*
X139661000Y-78871000D02*
G01*
X137659000Y-78871000D01*
X137659000Y-77969000D01*
X139661000Y-77969000D01*
X139661000Y-78871000D01*
G37*
G36*
X129501000Y-78871000D02*
G01*
X127499000Y-78871000D01*
X127499000Y-77969000D01*
X129501000Y-77969000D01*
X129501000Y-78871000D01*
G37*
G36*
X157823000Y-78067000D02*
G01*
X156121000Y-78067000D01*
X156121000Y-76365000D01*
X157823000Y-76365000D01*
X157823000Y-78067000D01*
G37*
G36*
X155220228Y-76397703D02*
G01*
X155375100Y-76461853D01*
X155514481Y-76554985D01*
X155633015Y-76673519D01*
X155726147Y-76812900D01*
X155790297Y-76967772D01*
X155823000Y-77132184D01*
X155823000Y-77299816D01*
X155790297Y-77464228D01*
X155726147Y-77619100D01*
X155633015Y-77758481D01*
X155514481Y-77877015D01*
X155375100Y-77970147D01*
X155220228Y-78034297D01*
X155055816Y-78067000D01*
X154888184Y-78067000D01*
X154723772Y-78034297D01*
X154568900Y-77970147D01*
X154429519Y-77877015D01*
X154310985Y-77758481D01*
X154217853Y-77619100D01*
X154153703Y-77464228D01*
X154121000Y-77299816D01*
X154121000Y-77132184D01*
X154153703Y-76967772D01*
X154217853Y-76812900D01*
X154310985Y-76673519D01*
X154429519Y-76554985D01*
X154568900Y-76461853D01*
X154723772Y-76397703D01*
X154888184Y-76365000D01*
X155055816Y-76365000D01*
X155220228Y-76397703D01*
G37*
G36*
X75701000Y-77921000D02*
G01*
X73699000Y-77921000D01*
X73699000Y-77019000D01*
X75701000Y-77019000D01*
X75701000Y-77921000D01*
G37*
G36*
X85861000Y-77921000D02*
G01*
X83859000Y-77921000D01*
X83859000Y-77019000D01*
X85861000Y-77019000D01*
X85861000Y-77921000D01*
G37*
G36*
X146821000Y-77921000D02*
G01*
X144819000Y-77921000D01*
X144819000Y-77019000D01*
X146821000Y-77019000D01*
X146821000Y-77921000D01*
G37*
G36*
X96021000Y-77921000D02*
G01*
X94019000Y-77921000D01*
X94019000Y-77019000D01*
X96021000Y-77019000D01*
X96021000Y-77921000D01*
G37*
G36*
X126501000Y-77921000D02*
G01*
X124499000Y-77921000D01*
X124499000Y-77019000D01*
X126501000Y-77019000D01*
X126501000Y-77921000D01*
G37*
G36*
X116341000Y-77921000D02*
G01*
X114339000Y-77921000D01*
X114339000Y-77019000D01*
X116341000Y-77019000D01*
X116341000Y-77921000D01*
G37*
G36*
X106411000Y-77921000D02*
G01*
X104409000Y-77921000D01*
X104409000Y-77019000D01*
X106411000Y-77019000D01*
X106411000Y-77921000D01*
G37*
G36*
X136661000Y-77921000D02*
G01*
X134659000Y-77921000D01*
X134659000Y-77019000D01*
X136661000Y-77019000D01*
X136661000Y-77921000D01*
G37*
G36*
X149821000Y-76971000D02*
G01*
X147819000Y-76971000D01*
X147819000Y-76069000D01*
X149821000Y-76069000D01*
X149821000Y-76971000D01*
G37*
G36*
X119341000Y-76971000D02*
G01*
X117339000Y-76971000D01*
X117339000Y-76069000D01*
X119341000Y-76069000D01*
X119341000Y-76971000D01*
G37*
G36*
X109411000Y-76971000D02*
G01*
X107409000Y-76971000D01*
X107409000Y-76069000D01*
X109411000Y-76069000D01*
X109411000Y-76971000D01*
G37*
G36*
X129501000Y-76971000D02*
G01*
X127499000Y-76971000D01*
X127499000Y-76069000D01*
X129501000Y-76069000D01*
X129501000Y-76971000D01*
G37*
G36*
X139661000Y-76971000D02*
G01*
X137659000Y-76971000D01*
X137659000Y-76069000D01*
X139661000Y-76069000D01*
X139661000Y-76971000D01*
G37*
G36*
X99021000Y-76971000D02*
G01*
X97019000Y-76971000D01*
X97019000Y-76069000D01*
X99021000Y-76069000D01*
X99021000Y-76971000D01*
G37*
G36*
X88861000Y-76971000D02*
G01*
X86859000Y-76971000D01*
X86859000Y-76069000D01*
X88861000Y-76069000D01*
X88861000Y-76971000D01*
G37*
G36*
X78701000Y-76971000D02*
G01*
X76699000Y-76971000D01*
X76699000Y-76069000D01*
X78701000Y-76069000D01*
X78701000Y-76971000D01*
G37*
G36*
X43293512Y-74795927D02*
G01*
X43442812Y-74825624D01*
X43606784Y-74893544D01*
X43754354Y-74992147D01*
X43879853Y-75117646D01*
X43978456Y-75265216D01*
X44046376Y-75429188D01*
X44081000Y-75603259D01*
X44081000Y-75780741D01*
X44046376Y-75954812D01*
X43978456Y-76118784D01*
X43879853Y-76266354D01*
X43754354Y-76391853D01*
X43606784Y-76490456D01*
X43442812Y-76558376D01*
X43293512Y-76588073D01*
X43268742Y-76593000D01*
X43091258Y-76593000D01*
X43066488Y-76588073D01*
X42917188Y-76558376D01*
X42753216Y-76490456D01*
X42605646Y-76391853D01*
X42480147Y-76266354D01*
X42381544Y-76118784D01*
X42313624Y-75954812D01*
X42279000Y-75780741D01*
X42279000Y-75603259D01*
X42313624Y-75429188D01*
X42381544Y-75265216D01*
X42480147Y-75117646D01*
X42605646Y-74992147D01*
X42753216Y-74893544D01*
X42917188Y-74825624D01*
X43066488Y-74795927D01*
X43091258Y-74791000D01*
X43268742Y-74791000D01*
X43293512Y-74795927D01*
G37*
G36*
X63613512Y-74795927D02*
G01*
X63762812Y-74825624D01*
X63926784Y-74893544D01*
X64074354Y-74992147D01*
X64199853Y-75117646D01*
X64298456Y-75265216D01*
X64366376Y-75429188D01*
X64401000Y-75603259D01*
X64401000Y-75780741D01*
X64366376Y-75954812D01*
X64298456Y-76118784D01*
X64199853Y-76266354D01*
X64074354Y-76391853D01*
X63926784Y-76490456D01*
X63762812Y-76558376D01*
X63613512Y-76588073D01*
X63588742Y-76593000D01*
X63411258Y-76593000D01*
X63386488Y-76588073D01*
X63237188Y-76558376D01*
X63073216Y-76490456D01*
X62925646Y-76391853D01*
X62800147Y-76266354D01*
X62701544Y-76118784D01*
X62633624Y-75954812D01*
X62599000Y-75780741D01*
X62599000Y-75603259D01*
X62633624Y-75429188D01*
X62701544Y-75265216D01*
X62800147Y-75117646D01*
X62925646Y-74992147D01*
X63073216Y-74893544D01*
X63237188Y-74825624D01*
X63386488Y-74795927D01*
X63411258Y-74791000D01*
X63588742Y-74791000D01*
X63613512Y-74795927D01*
G37*
G36*
X63613512Y-72255927D02*
G01*
X63762812Y-72285624D01*
X63926784Y-72353544D01*
X64074354Y-72452147D01*
X64199853Y-72577646D01*
X64298456Y-72725216D01*
X64366376Y-72889188D01*
X64401000Y-73063259D01*
X64401000Y-73240741D01*
X64366376Y-73414812D01*
X64298456Y-73578784D01*
X64199853Y-73726354D01*
X64074354Y-73851853D01*
X63926784Y-73950456D01*
X63762812Y-74018376D01*
X63613512Y-74048073D01*
X63588742Y-74053000D01*
X63411258Y-74053000D01*
X63386488Y-74048073D01*
X63237188Y-74018376D01*
X63073216Y-73950456D01*
X62925646Y-73851853D01*
X62800147Y-73726354D01*
X62701544Y-73578784D01*
X62633624Y-73414812D01*
X62599000Y-73240741D01*
X62599000Y-73063259D01*
X62633624Y-72889188D01*
X62701544Y-72725216D01*
X62800147Y-72577646D01*
X62925646Y-72452147D01*
X63073216Y-72353544D01*
X63237188Y-72285624D01*
X63386488Y-72255927D01*
X63411258Y-72251000D01*
X63588742Y-72251000D01*
X63613512Y-72255927D01*
G37*
G36*
X43293512Y-72255927D02*
G01*
X43442812Y-72285624D01*
X43606784Y-72353544D01*
X43754354Y-72452147D01*
X43879853Y-72577646D01*
X43978456Y-72725216D01*
X44046376Y-72889188D01*
X44081000Y-73063259D01*
X44081000Y-73240741D01*
X44046376Y-73414812D01*
X43978456Y-73578784D01*
X43879853Y-73726354D01*
X43754354Y-73851853D01*
X43606784Y-73950456D01*
X43442812Y-74018376D01*
X43293512Y-74048073D01*
X43268742Y-74053000D01*
X43091258Y-74053000D01*
X43066488Y-74048073D01*
X42917188Y-74018376D01*
X42753216Y-73950456D01*
X42605646Y-73851853D01*
X42480147Y-73726354D01*
X42381544Y-73578784D01*
X42313624Y-73414812D01*
X42279000Y-73240741D01*
X42279000Y-73063259D01*
X42313624Y-72889188D01*
X42381544Y-72725216D01*
X42480147Y-72577646D01*
X42605646Y-72452147D01*
X42753216Y-72353544D01*
X42917188Y-72285624D01*
X43066488Y-72255927D01*
X43091258Y-72251000D01*
X43268742Y-72251000D01*
X43293512Y-72255927D01*
G37*
G36*
X146621000Y-72071000D02*
G01*
X143019000Y-72071000D01*
X143019000Y-70169000D01*
X146621000Y-70169000D01*
X146621000Y-72071000D01*
G37*
G36*
X151621000Y-72071000D02*
G01*
X148019000Y-72071000D01*
X148019000Y-70169000D01*
X151621000Y-70169000D01*
X151621000Y-72071000D01*
G37*
G36*
X110981000Y-72071000D02*
G01*
X107379000Y-72071000D01*
X107379000Y-70169000D01*
X110981000Y-70169000D01*
X110981000Y-72071000D01*
G37*
G36*
X105981000Y-72071000D02*
G01*
X102379000Y-72071000D01*
X102379000Y-70169000D01*
X105981000Y-70169000D01*
X105981000Y-72071000D01*
G37*
G36*
X100781000Y-72071000D02*
G01*
X97179000Y-72071000D01*
X97179000Y-70169000D01*
X100781000Y-70169000D01*
X100781000Y-72071000D01*
G37*
G36*
X90661000Y-72071000D02*
G01*
X87059000Y-72071000D01*
X87059000Y-70169000D01*
X90661000Y-70169000D01*
X90661000Y-72071000D01*
G37*
G36*
X95781000Y-72071000D02*
G01*
X92179000Y-72071000D01*
X92179000Y-70169000D01*
X95781000Y-70169000D01*
X95781000Y-72071000D01*
G37*
G36*
X116181000Y-72071000D02*
G01*
X112579000Y-72071000D01*
X112579000Y-70169000D01*
X116181000Y-70169000D01*
X116181000Y-72071000D01*
G37*
G36*
X126301000Y-72071000D02*
G01*
X122699000Y-72071000D01*
X122699000Y-70169000D01*
X126301000Y-70169000D01*
X126301000Y-72071000D01*
G37*
G36*
X131301000Y-72071000D02*
G01*
X127699000Y-72071000D01*
X127699000Y-70169000D01*
X131301000Y-70169000D01*
X131301000Y-72071000D01*
G37*
G36*
X136501000Y-72071000D02*
G01*
X132899000Y-72071000D01*
X132899000Y-70169000D01*
X136501000Y-70169000D01*
X136501000Y-72071000D01*
G37*
G36*
X141501000Y-72071000D02*
G01*
X137899000Y-72071000D01*
X137899000Y-70169000D01*
X141501000Y-70169000D01*
X141501000Y-72071000D01*
G37*
G36*
X80501000Y-72071000D02*
G01*
X76899000Y-72071000D01*
X76899000Y-70169000D01*
X80501000Y-70169000D01*
X80501000Y-72071000D01*
G37*
G36*
X85661000Y-72071000D02*
G01*
X82059000Y-72071000D01*
X82059000Y-70169000D01*
X85661000Y-70169000D01*
X85661000Y-72071000D01*
G37*
G36*
X75501000Y-72071000D02*
G01*
X71899000Y-72071000D01*
X71899000Y-70169000D01*
X75501000Y-70169000D01*
X75501000Y-72071000D01*
G37*
G36*
X121181000Y-72071000D02*
G01*
X117579000Y-72071000D01*
X117579000Y-70169000D01*
X121181000Y-70169000D01*
X121181000Y-72071000D01*
G37*
G36*
X43293512Y-69715927D02*
G01*
X43442812Y-69745624D01*
X43606784Y-69813544D01*
X43754354Y-69912147D01*
X43879853Y-70037646D01*
X43978456Y-70185216D01*
X44046376Y-70349188D01*
X44081000Y-70523259D01*
X44081000Y-70700741D01*
X44046376Y-70874812D01*
X43978456Y-71038784D01*
X43879853Y-71186354D01*
X43754354Y-71311853D01*
X43606784Y-71410456D01*
X43442812Y-71478376D01*
X43293512Y-71508073D01*
X43268742Y-71513000D01*
X43091258Y-71513000D01*
X43066488Y-71508073D01*
X42917188Y-71478376D01*
X42753216Y-71410456D01*
X42605646Y-71311853D01*
X42480147Y-71186354D01*
X42381544Y-71038784D01*
X42313624Y-70874812D01*
X42279000Y-70700741D01*
X42279000Y-70523259D01*
X42313624Y-70349188D01*
X42381544Y-70185216D01*
X42480147Y-70037646D01*
X42605646Y-69912147D01*
X42753216Y-69813544D01*
X42917188Y-69745624D01*
X43066488Y-69715927D01*
X43091258Y-69711000D01*
X43268742Y-69711000D01*
X43293512Y-69715927D01*
G37*
G36*
X63613512Y-69715927D02*
G01*
X63762812Y-69745624D01*
X63926784Y-69813544D01*
X64074354Y-69912147D01*
X64199853Y-70037646D01*
X64298456Y-70185216D01*
X64366376Y-70349188D01*
X64401000Y-70523259D01*
X64401000Y-70700741D01*
X64366376Y-70874812D01*
X64298456Y-71038784D01*
X64199853Y-71186354D01*
X64074354Y-71311853D01*
X63926784Y-71410456D01*
X63762812Y-71478376D01*
X63613512Y-71508073D01*
X63588742Y-71513000D01*
X63411258Y-71513000D01*
X63386488Y-71508073D01*
X63237188Y-71478376D01*
X63073216Y-71410456D01*
X62925646Y-71311853D01*
X62800147Y-71186354D01*
X62701544Y-71038784D01*
X62633624Y-70874812D01*
X62599000Y-70700741D01*
X62599000Y-70523259D01*
X62633624Y-70349188D01*
X62701544Y-70185216D01*
X62800147Y-70037646D01*
X62925646Y-69912147D01*
X63073216Y-69813544D01*
X63237188Y-69745624D01*
X63386488Y-69715927D01*
X63411258Y-69711000D01*
X63588742Y-69711000D01*
X63613512Y-69715927D01*
G37*
G36*
X43293512Y-67175927D02*
G01*
X43442812Y-67205624D01*
X43606784Y-67273544D01*
X43754354Y-67372147D01*
X43879853Y-67497646D01*
X43978456Y-67645216D01*
X44046376Y-67809188D01*
X44081000Y-67983259D01*
X44081000Y-68160741D01*
X44046376Y-68334812D01*
X43978456Y-68498784D01*
X43879853Y-68646354D01*
X43754354Y-68771853D01*
X43606784Y-68870456D01*
X43442812Y-68938376D01*
X43293512Y-68968073D01*
X43268742Y-68973000D01*
X43091258Y-68973000D01*
X43066488Y-68968073D01*
X42917188Y-68938376D01*
X42753216Y-68870456D01*
X42605646Y-68771853D01*
X42480147Y-68646354D01*
X42381544Y-68498784D01*
X42313624Y-68334812D01*
X42279000Y-68160741D01*
X42279000Y-67983259D01*
X42313624Y-67809188D01*
X42381544Y-67645216D01*
X42480147Y-67497646D01*
X42605646Y-67372147D01*
X42753216Y-67273544D01*
X42917188Y-67205624D01*
X43066488Y-67175927D01*
X43091258Y-67171000D01*
X43268742Y-67171000D01*
X43293512Y-67175927D01*
G37*
G36*
X64401000Y-68973000D02*
G01*
X62599000Y-68973000D01*
X62599000Y-67171000D01*
X64401000Y-67171000D01*
X64401000Y-68973000D01*
G37*
G36*
X43293512Y-64635927D02*
G01*
X43442812Y-64665624D01*
X43606784Y-64733544D01*
X43754354Y-64832147D01*
X43879853Y-64957646D01*
X43978456Y-65105216D01*
X44046376Y-65269188D01*
X44081000Y-65443259D01*
X44081000Y-65620741D01*
X44046376Y-65794812D01*
X43978456Y-65958784D01*
X43879853Y-66106354D01*
X43754354Y-66231853D01*
X43606784Y-66330456D01*
X43442812Y-66398376D01*
X43293512Y-66428073D01*
X43268742Y-66433000D01*
X43091258Y-66433000D01*
X43066488Y-66428073D01*
X42917188Y-66398376D01*
X42753216Y-66330456D01*
X42605646Y-66231853D01*
X42480147Y-66106354D01*
X42381544Y-65958784D01*
X42313624Y-65794812D01*
X42279000Y-65620741D01*
X42279000Y-65443259D01*
X42313624Y-65269188D01*
X42381544Y-65105216D01*
X42480147Y-64957646D01*
X42605646Y-64832147D01*
X42753216Y-64733544D01*
X42917188Y-64665624D01*
X43066488Y-64635927D01*
X43091258Y-64631000D01*
X43268742Y-64631000D01*
X43293512Y-64635927D01*
G37*
G36*
X43293512Y-62095927D02*
G01*
X43442812Y-62125624D01*
X43606784Y-62193544D01*
X43754354Y-62292147D01*
X43879853Y-62417646D01*
X43978456Y-62565216D01*
X44046376Y-62729188D01*
X44081000Y-62903259D01*
X44081000Y-63080741D01*
X44046376Y-63254812D01*
X43978456Y-63418784D01*
X43879853Y-63566354D01*
X43754354Y-63691853D01*
X43606784Y-63790456D01*
X43442812Y-63858376D01*
X43293512Y-63888073D01*
X43268742Y-63893000D01*
X43091258Y-63893000D01*
X43066488Y-63888073D01*
X42917188Y-63858376D01*
X42753216Y-63790456D01*
X42605646Y-63691853D01*
X42480147Y-63566354D01*
X42381544Y-63418784D01*
X42313624Y-63254812D01*
X42279000Y-63080741D01*
X42279000Y-62903259D01*
X42313624Y-62729188D01*
X42381544Y-62565216D01*
X42480147Y-62417646D01*
X42605646Y-62292147D01*
X42753216Y-62193544D01*
X42917188Y-62125624D01*
X43066488Y-62095927D01*
X43091258Y-62091000D01*
X43268742Y-62091000D01*
X43293512Y-62095927D01*
G37*
G36*
X79134072Y-61184918D02*
G01*
X79292296Y-61250456D01*
X79379939Y-61286759D01*
X79427255Y-61318375D01*
X79601211Y-61434609D01*
X79789391Y-61622789D01*
X79937242Y-61844063D01*
X80039082Y-62089928D01*
X80091000Y-62350937D01*
X80091000Y-62617063D01*
X80039082Y-62878072D01*
X79937242Y-63123937D01*
X79789391Y-63345211D01*
X79601211Y-63533391D01*
X79491328Y-63606813D01*
X79379939Y-63681241D01*
X79379938Y-63681242D01*
X79379937Y-63681242D01*
X79134072Y-63783082D01*
X78873063Y-63835000D01*
X78606937Y-63835000D01*
X78345928Y-63783082D01*
X78100063Y-63681242D01*
X78100062Y-63681242D01*
X78100061Y-63681241D01*
X77988672Y-63606813D01*
X77878789Y-63533391D01*
X77690609Y-63345211D01*
X77542758Y-63123937D01*
X77440918Y-62878072D01*
X77389000Y-62617063D01*
X77389000Y-62350937D01*
X77440918Y-62089928D01*
X77542758Y-61844063D01*
X77690609Y-61622789D01*
X77878789Y-61434609D01*
X78052745Y-61318375D01*
X78100061Y-61286759D01*
X78187705Y-61250456D01*
X78345928Y-61184918D01*
X78606937Y-61133000D01*
X78873063Y-61133000D01*
X79134072Y-61184918D01*
G37*
G36*
X94374072Y-61184918D02*
G01*
X94532296Y-61250456D01*
X94619939Y-61286759D01*
X94667255Y-61318375D01*
X94841211Y-61434609D01*
X95029391Y-61622789D01*
X95177242Y-61844063D01*
X95279082Y-62089928D01*
X95331000Y-62350937D01*
X95331000Y-62617063D01*
X95279082Y-62878072D01*
X95177242Y-63123937D01*
X95029391Y-63345211D01*
X94841211Y-63533391D01*
X94731328Y-63606813D01*
X94619939Y-63681241D01*
X94619938Y-63681242D01*
X94619937Y-63681242D01*
X94374072Y-63783082D01*
X94113063Y-63835000D01*
X93846937Y-63835000D01*
X93585928Y-63783082D01*
X93340063Y-63681242D01*
X93340062Y-63681242D01*
X93340061Y-63681241D01*
X93228672Y-63606813D01*
X93118789Y-63533391D01*
X92930609Y-63345211D01*
X92782758Y-63123937D01*
X92680918Y-62878072D01*
X92629000Y-62617063D01*
X92629000Y-62350937D01*
X92680918Y-62089928D01*
X92782758Y-61844063D01*
X92930609Y-61622789D01*
X93118789Y-61434609D01*
X93292745Y-61318375D01*
X93340061Y-61286759D01*
X93427705Y-61250456D01*
X93585928Y-61184918D01*
X93846937Y-61133000D01*
X94113063Y-61133000D01*
X94374072Y-61184918D01*
G37*
G36*
X104534072Y-61184918D02*
G01*
X104692296Y-61250456D01*
X104779939Y-61286759D01*
X104827255Y-61318375D01*
X105001211Y-61434609D01*
X105189391Y-61622789D01*
X105337242Y-61844063D01*
X105439082Y-62089928D01*
X105491000Y-62350937D01*
X105491000Y-62617063D01*
X105439082Y-62878072D01*
X105337242Y-63123937D01*
X105189391Y-63345211D01*
X105001211Y-63533391D01*
X104891328Y-63606813D01*
X104779939Y-63681241D01*
X104779938Y-63681242D01*
X104779937Y-63681242D01*
X104534072Y-63783082D01*
X104273063Y-63835000D01*
X104006937Y-63835000D01*
X103745928Y-63783082D01*
X103500063Y-63681242D01*
X103500062Y-63681242D01*
X103500061Y-63681241D01*
X103388672Y-63606813D01*
X103278789Y-63533391D01*
X103090609Y-63345211D01*
X102942758Y-63123937D01*
X102840918Y-62878072D01*
X102789000Y-62617063D01*
X102789000Y-62350937D01*
X102840918Y-62089928D01*
X102942758Y-61844063D01*
X103090609Y-61622789D01*
X103278789Y-61434609D01*
X103452745Y-61318375D01*
X103500061Y-61286759D01*
X103587705Y-61250456D01*
X103745928Y-61184918D01*
X104006937Y-61133000D01*
X104273063Y-61133000D01*
X104534072Y-61184918D01*
G37*
G36*
X109614072Y-61184918D02*
G01*
X109772296Y-61250456D01*
X109859939Y-61286759D01*
X109907255Y-61318375D01*
X110081211Y-61434609D01*
X110269391Y-61622789D01*
X110417242Y-61844063D01*
X110519082Y-62089928D01*
X110571000Y-62350937D01*
X110571000Y-62617063D01*
X110519082Y-62878072D01*
X110417242Y-63123937D01*
X110269391Y-63345211D01*
X110081211Y-63533391D01*
X109971328Y-63606813D01*
X109859939Y-63681241D01*
X109859938Y-63681242D01*
X109859937Y-63681242D01*
X109614072Y-63783082D01*
X109353063Y-63835000D01*
X109086937Y-63835000D01*
X108825928Y-63783082D01*
X108580063Y-63681242D01*
X108580062Y-63681242D01*
X108580061Y-63681241D01*
X108468672Y-63606813D01*
X108358789Y-63533391D01*
X108170609Y-63345211D01*
X108022758Y-63123937D01*
X107920918Y-62878072D01*
X107869000Y-62617063D01*
X107869000Y-62350937D01*
X107920918Y-62089928D01*
X108022758Y-61844063D01*
X108170609Y-61622789D01*
X108358789Y-61434609D01*
X108532745Y-61318375D01*
X108580061Y-61286759D01*
X108667705Y-61250456D01*
X108825928Y-61184918D01*
X109086937Y-61133000D01*
X109353063Y-61133000D01*
X109614072Y-61184918D01*
G37*
G36*
X114694072Y-61184918D02*
G01*
X114852296Y-61250456D01*
X114939939Y-61286759D01*
X114987255Y-61318375D01*
X115161211Y-61434609D01*
X115349391Y-61622789D01*
X115497242Y-61844063D01*
X115599082Y-62089928D01*
X115651000Y-62350937D01*
X115651000Y-62617063D01*
X115599082Y-62878072D01*
X115497242Y-63123937D01*
X115349391Y-63345211D01*
X115161211Y-63533391D01*
X115051328Y-63606813D01*
X114939939Y-63681241D01*
X114939938Y-63681242D01*
X114939937Y-63681242D01*
X114694072Y-63783082D01*
X114433063Y-63835000D01*
X114166937Y-63835000D01*
X113905928Y-63783082D01*
X113660063Y-63681242D01*
X113660062Y-63681242D01*
X113660061Y-63681241D01*
X113548672Y-63606813D01*
X113438789Y-63533391D01*
X113250609Y-63345211D01*
X113102758Y-63123937D01*
X113000918Y-62878072D01*
X112949000Y-62617063D01*
X112949000Y-62350937D01*
X113000918Y-62089928D01*
X113102758Y-61844063D01*
X113250609Y-61622789D01*
X113438789Y-61434609D01*
X113612745Y-61318375D01*
X113660061Y-61286759D01*
X113747705Y-61250456D01*
X113905928Y-61184918D01*
X114166937Y-61133000D01*
X114433063Y-61133000D01*
X114694072Y-61184918D01*
G37*
G36*
X119774072Y-61184918D02*
G01*
X119932296Y-61250456D01*
X120019939Y-61286759D01*
X120067255Y-61318375D01*
X120241211Y-61434609D01*
X120429391Y-61622789D01*
X120577242Y-61844063D01*
X120679082Y-62089928D01*
X120731000Y-62350937D01*
X120731000Y-62617063D01*
X120679082Y-62878072D01*
X120577242Y-63123937D01*
X120429391Y-63345211D01*
X120241211Y-63533391D01*
X120131328Y-63606813D01*
X120019939Y-63681241D01*
X120019938Y-63681242D01*
X120019937Y-63681242D01*
X119774072Y-63783082D01*
X119513063Y-63835000D01*
X119246937Y-63835000D01*
X118985928Y-63783082D01*
X118740063Y-63681242D01*
X118740062Y-63681242D01*
X118740061Y-63681241D01*
X118628672Y-63606813D01*
X118518789Y-63533391D01*
X118330609Y-63345211D01*
X118182758Y-63123937D01*
X118080918Y-62878072D01*
X118029000Y-62617063D01*
X118029000Y-62350937D01*
X118080918Y-62089928D01*
X118182758Y-61844063D01*
X118330609Y-61622789D01*
X118518789Y-61434609D01*
X118692745Y-61318375D01*
X118740061Y-61286759D01*
X118827705Y-61250456D01*
X118985928Y-61184918D01*
X119246937Y-61133000D01*
X119513063Y-61133000D01*
X119774072Y-61184918D01*
G37*
G36*
X124854072Y-61184918D02*
G01*
X125012296Y-61250456D01*
X125099939Y-61286759D01*
X125147255Y-61318375D01*
X125321211Y-61434609D01*
X125509391Y-61622789D01*
X125657242Y-61844063D01*
X125759082Y-62089928D01*
X125811000Y-62350937D01*
X125811000Y-62617063D01*
X125759082Y-62878072D01*
X125657242Y-63123937D01*
X125509391Y-63345211D01*
X125321211Y-63533391D01*
X125211328Y-63606813D01*
X125099939Y-63681241D01*
X125099938Y-63681242D01*
X125099937Y-63681242D01*
X124854072Y-63783082D01*
X124593063Y-63835000D01*
X124326937Y-63835000D01*
X124065928Y-63783082D01*
X123820063Y-63681242D01*
X123820062Y-63681242D01*
X123820061Y-63681241D01*
X123708672Y-63606813D01*
X123598789Y-63533391D01*
X123410609Y-63345211D01*
X123262758Y-63123937D01*
X123160918Y-62878072D01*
X123109000Y-62617063D01*
X123109000Y-62350937D01*
X123160918Y-62089928D01*
X123262758Y-61844063D01*
X123410609Y-61622789D01*
X123598789Y-61434609D01*
X123772745Y-61318375D01*
X123820061Y-61286759D01*
X123907705Y-61250456D01*
X124065928Y-61184918D01*
X124326937Y-61133000D01*
X124593063Y-61133000D01*
X124854072Y-61184918D01*
G37*
G36*
X129934072Y-61184918D02*
G01*
X130092296Y-61250456D01*
X130179939Y-61286759D01*
X130227255Y-61318375D01*
X130401211Y-61434609D01*
X130589391Y-61622789D01*
X130737242Y-61844063D01*
X130839082Y-62089928D01*
X130891000Y-62350937D01*
X130891000Y-62617063D01*
X130839082Y-62878072D01*
X130737242Y-63123937D01*
X130589391Y-63345211D01*
X130401211Y-63533391D01*
X130291328Y-63606813D01*
X130179939Y-63681241D01*
X130179938Y-63681242D01*
X130179937Y-63681242D01*
X129934072Y-63783082D01*
X129673063Y-63835000D01*
X129406937Y-63835000D01*
X129145928Y-63783082D01*
X128900063Y-63681242D01*
X128900062Y-63681242D01*
X128900061Y-63681241D01*
X128788672Y-63606813D01*
X128678789Y-63533391D01*
X128490609Y-63345211D01*
X128342758Y-63123937D01*
X128240918Y-62878072D01*
X128189000Y-62617063D01*
X128189000Y-62350937D01*
X128240918Y-62089928D01*
X128342758Y-61844063D01*
X128490609Y-61622789D01*
X128678789Y-61434609D01*
X128852745Y-61318375D01*
X128900061Y-61286759D01*
X128987705Y-61250456D01*
X129145928Y-61184918D01*
X129406937Y-61133000D01*
X129673063Y-61133000D01*
X129934072Y-61184918D01*
G37*
G36*
X135014072Y-61184918D02*
G01*
X135172296Y-61250456D01*
X135259939Y-61286759D01*
X135307255Y-61318375D01*
X135481211Y-61434609D01*
X135669391Y-61622789D01*
X135817242Y-61844063D01*
X135919082Y-62089928D01*
X135971000Y-62350937D01*
X135971000Y-62617063D01*
X135919082Y-62878072D01*
X135817242Y-63123937D01*
X135669391Y-63345211D01*
X135481211Y-63533391D01*
X135371328Y-63606813D01*
X135259939Y-63681241D01*
X135259938Y-63681242D01*
X135259937Y-63681242D01*
X135014072Y-63783082D01*
X134753063Y-63835000D01*
X134486937Y-63835000D01*
X134225928Y-63783082D01*
X133980063Y-63681242D01*
X133980062Y-63681242D01*
X133980061Y-63681241D01*
X133868672Y-63606813D01*
X133758789Y-63533391D01*
X133570609Y-63345211D01*
X133422758Y-63123937D01*
X133320918Y-62878072D01*
X133269000Y-62617063D01*
X133269000Y-62350937D01*
X133320918Y-62089928D01*
X133422758Y-61844063D01*
X133570609Y-61622789D01*
X133758789Y-61434609D01*
X133932745Y-61318375D01*
X133980061Y-61286759D01*
X134067705Y-61250456D01*
X134225928Y-61184918D01*
X134486937Y-61133000D01*
X134753063Y-61133000D01*
X135014072Y-61184918D01*
G37*
G36*
X140094072Y-61184918D02*
G01*
X140252296Y-61250456D01*
X140339939Y-61286759D01*
X140387255Y-61318375D01*
X140561211Y-61434609D01*
X140749391Y-61622789D01*
X140897242Y-61844063D01*
X140999082Y-62089928D01*
X141051000Y-62350937D01*
X141051000Y-62617063D01*
X140999082Y-62878072D01*
X140897242Y-63123937D01*
X140749391Y-63345211D01*
X140561211Y-63533391D01*
X140451328Y-63606813D01*
X140339939Y-63681241D01*
X140339938Y-63681242D01*
X140339937Y-63681242D01*
X140094072Y-63783082D01*
X139833063Y-63835000D01*
X139566937Y-63835000D01*
X139305928Y-63783082D01*
X139060063Y-63681242D01*
X139060062Y-63681242D01*
X139060061Y-63681241D01*
X138948672Y-63606813D01*
X138838789Y-63533391D01*
X138650609Y-63345211D01*
X138502758Y-63123937D01*
X138400918Y-62878072D01*
X138349000Y-62617063D01*
X138349000Y-62350937D01*
X138400918Y-62089928D01*
X138502758Y-61844063D01*
X138650609Y-61622789D01*
X138838789Y-61434609D01*
X139012745Y-61318375D01*
X139060061Y-61286759D01*
X139147705Y-61250456D01*
X139305928Y-61184918D01*
X139566937Y-61133000D01*
X139833063Y-61133000D01*
X140094072Y-61184918D01*
G37*
G36*
X145174072Y-61184918D02*
G01*
X145332296Y-61250456D01*
X145419939Y-61286759D01*
X145467255Y-61318375D01*
X145641211Y-61434609D01*
X145829391Y-61622789D01*
X145977242Y-61844063D01*
X146079082Y-62089928D01*
X146131000Y-62350937D01*
X146131000Y-62617063D01*
X146079082Y-62878072D01*
X145977242Y-63123937D01*
X145829391Y-63345211D01*
X145641211Y-63533391D01*
X145531328Y-63606813D01*
X145419939Y-63681241D01*
X145419938Y-63681242D01*
X145419937Y-63681242D01*
X145174072Y-63783082D01*
X144913063Y-63835000D01*
X144646937Y-63835000D01*
X144385928Y-63783082D01*
X144140063Y-63681242D01*
X144140062Y-63681242D01*
X144140061Y-63681241D01*
X144028672Y-63606813D01*
X143918789Y-63533391D01*
X143730609Y-63345211D01*
X143582758Y-63123937D01*
X143480918Y-62878072D01*
X143429000Y-62617063D01*
X143429000Y-62350937D01*
X143480918Y-62089928D01*
X143582758Y-61844063D01*
X143730609Y-61622789D01*
X143918789Y-61434609D01*
X144092745Y-61318375D01*
X144140061Y-61286759D01*
X144227705Y-61250456D01*
X144385928Y-61184918D01*
X144646937Y-61133000D01*
X144913063Y-61133000D01*
X145174072Y-61184918D01*
G37*
G36*
X99454072Y-61184918D02*
G01*
X99612296Y-61250456D01*
X99699939Y-61286759D01*
X99747255Y-61318375D01*
X99921211Y-61434609D01*
X100109391Y-61622789D01*
X100257242Y-61844063D01*
X100359082Y-62089928D01*
X100411000Y-62350937D01*
X100411000Y-62617063D01*
X100359082Y-62878072D01*
X100257242Y-63123937D01*
X100109391Y-63345211D01*
X99921211Y-63533391D01*
X99811328Y-63606813D01*
X99699939Y-63681241D01*
X99699938Y-63681242D01*
X99699937Y-63681242D01*
X99454072Y-63783082D01*
X99193063Y-63835000D01*
X98926937Y-63835000D01*
X98665928Y-63783082D01*
X98420063Y-63681242D01*
X98420062Y-63681242D01*
X98420061Y-63681241D01*
X98308672Y-63606813D01*
X98198789Y-63533391D01*
X98010609Y-63345211D01*
X97862758Y-63123937D01*
X97760918Y-62878072D01*
X97709000Y-62617063D01*
X97709000Y-62350937D01*
X97760918Y-62089928D01*
X97862758Y-61844063D01*
X98010609Y-61622789D01*
X98198789Y-61434609D01*
X98372745Y-61318375D01*
X98420061Y-61286759D01*
X98507705Y-61250456D01*
X98665928Y-61184918D01*
X98926937Y-61133000D01*
X99193063Y-61133000D01*
X99454072Y-61184918D01*
G37*
G36*
X84214072Y-61184918D02*
G01*
X84372296Y-61250456D01*
X84459939Y-61286759D01*
X84507255Y-61318375D01*
X84681211Y-61434609D01*
X84869391Y-61622789D01*
X85017242Y-61844063D01*
X85119082Y-62089928D01*
X85171000Y-62350937D01*
X85171000Y-62617063D01*
X85119082Y-62878072D01*
X85017242Y-63123937D01*
X84869391Y-63345211D01*
X84681211Y-63533391D01*
X84571328Y-63606813D01*
X84459939Y-63681241D01*
X84459938Y-63681242D01*
X84459937Y-63681242D01*
X84214072Y-63783082D01*
X83953063Y-63835000D01*
X83686937Y-63835000D01*
X83425928Y-63783082D01*
X83180063Y-63681242D01*
X83180062Y-63681242D01*
X83180061Y-63681241D01*
X83068672Y-63606813D01*
X82958789Y-63533391D01*
X82770609Y-63345211D01*
X82622758Y-63123937D01*
X82520918Y-62878072D01*
X82469000Y-62617063D01*
X82469000Y-62350937D01*
X82520918Y-62089928D01*
X82622758Y-61844063D01*
X82770609Y-61622789D01*
X82958789Y-61434609D01*
X83132745Y-61318375D01*
X83180061Y-61286759D01*
X83267705Y-61250456D01*
X83425928Y-61184918D01*
X83686937Y-61133000D01*
X83953063Y-61133000D01*
X84214072Y-61184918D01*
G37*
G36*
X75011000Y-63835000D02*
G01*
X72309000Y-63835000D01*
X72309000Y-61133000D01*
X75011000Y-61133000D01*
X75011000Y-63835000D01*
G37*
G36*
X150254072Y-61184918D02*
G01*
X150412296Y-61250456D01*
X150499939Y-61286759D01*
X150547255Y-61318375D01*
X150721211Y-61434609D01*
X150909391Y-61622789D01*
X151057242Y-61844063D01*
X151159082Y-62089928D01*
X151211000Y-62350937D01*
X151211000Y-62617063D01*
X151159082Y-62878072D01*
X151057242Y-63123937D01*
X150909391Y-63345211D01*
X150721211Y-63533391D01*
X150611328Y-63606813D01*
X150499939Y-63681241D01*
X150499938Y-63681242D01*
X150499937Y-63681242D01*
X150254072Y-63783082D01*
X149993063Y-63835000D01*
X149726937Y-63835000D01*
X149465928Y-63783082D01*
X149220063Y-63681242D01*
X149220062Y-63681242D01*
X149220061Y-63681241D01*
X149108672Y-63606813D01*
X148998789Y-63533391D01*
X148810609Y-63345211D01*
X148662758Y-63123937D01*
X148560918Y-62878072D01*
X148509000Y-62617063D01*
X148509000Y-62350937D01*
X148560918Y-62089928D01*
X148662758Y-61844063D01*
X148810609Y-61622789D01*
X148998789Y-61434609D01*
X149172745Y-61318375D01*
X149220061Y-61286759D01*
X149307705Y-61250456D01*
X149465928Y-61184918D01*
X149726937Y-61133000D01*
X149993063Y-61133000D01*
X150254072Y-61184918D01*
G37*
G36*
X89294072Y-61184918D02*
G01*
X89452296Y-61250456D01*
X89539939Y-61286759D01*
X89587255Y-61318375D01*
X89761211Y-61434609D01*
X89949391Y-61622789D01*
X90097242Y-61844063D01*
X90199082Y-62089928D01*
X90251000Y-62350937D01*
X90251000Y-62617063D01*
X90199082Y-62878072D01*
X90097242Y-63123937D01*
X89949391Y-63345211D01*
X89761211Y-63533391D01*
X89651328Y-63606813D01*
X89539939Y-63681241D01*
X89539938Y-63681242D01*
X89539937Y-63681242D01*
X89294072Y-63783082D01*
X89033063Y-63835000D01*
X88766937Y-63835000D01*
X88505928Y-63783082D01*
X88260063Y-63681242D01*
X88260062Y-63681242D01*
X88260061Y-63681241D01*
X88148672Y-63606813D01*
X88038789Y-63533391D01*
X87850609Y-63345211D01*
X87702758Y-63123937D01*
X87600918Y-62878072D01*
X87549000Y-62617063D01*
X87549000Y-62350937D01*
X87600918Y-62089928D01*
X87702758Y-61844063D01*
X87850609Y-61622789D01*
X88038789Y-61434609D01*
X88212745Y-61318375D01*
X88260061Y-61286759D01*
X88347705Y-61250456D01*
X88505928Y-61184918D01*
X88766937Y-61133000D01*
X89033063Y-61133000D01*
X89294072Y-61184918D01*
G37*
G36*
X43293512Y-59555927D02*
G01*
X43442812Y-59585624D01*
X43606784Y-59653544D01*
X43754354Y-59752147D01*
X43879853Y-59877646D01*
X43978456Y-60025216D01*
X44046376Y-60189188D01*
X44081000Y-60363259D01*
X44081000Y-60540741D01*
X44046376Y-60714812D01*
X43978456Y-60878784D01*
X43879853Y-61026354D01*
X43754354Y-61151853D01*
X43606784Y-61250456D01*
X43442812Y-61318376D01*
X43293512Y-61348073D01*
X43268742Y-61353000D01*
X43091258Y-61353000D01*
X43066488Y-61348073D01*
X42917188Y-61318376D01*
X42753216Y-61250456D01*
X42605646Y-61151853D01*
X42480147Y-61026354D01*
X42381544Y-60878784D01*
X42313624Y-60714812D01*
X42279000Y-60540741D01*
X42279000Y-60363259D01*
X42313624Y-60189188D01*
X42381544Y-60025216D01*
X42480147Y-59877646D01*
X42605646Y-59752147D01*
X42753216Y-59653544D01*
X42917188Y-59585624D01*
X43066488Y-59555927D01*
X43091258Y-59551000D01*
X43268742Y-59551000D01*
X43293512Y-59555927D01*
G37*
G36*
X36951256Y-57827298D02*
G01*
X37057579Y-57848447D01*
X37358042Y-57972903D01*
X37628451Y-58153585D01*
X37858415Y-58383549D01*
X38039097Y-58653958D01*
X38039098Y-58653960D01*
X38163553Y-58954422D01*
X38227000Y-59273389D01*
X38227000Y-59598611D01*
X38163553Y-59917578D01*
X38068725Y-60146515D01*
X38039097Y-60218042D01*
X37858415Y-60488451D01*
X37628451Y-60718415D01*
X37358042Y-60899097D01*
X37057579Y-61023553D01*
X37043502Y-61026353D01*
X36738611Y-61087000D01*
X36413389Y-61087000D01*
X36108498Y-61026353D01*
X36094421Y-61023553D01*
X35793958Y-60899097D01*
X35523549Y-60718415D01*
X35293585Y-60488451D01*
X35112903Y-60218042D01*
X35083276Y-60146515D01*
X34988447Y-59917578D01*
X34925000Y-59598611D01*
X34925000Y-59273389D01*
X34988447Y-58954422D01*
X35112902Y-58653960D01*
X35112903Y-58653958D01*
X35293585Y-58383549D01*
X35523549Y-58153585D01*
X35793958Y-57972903D01*
X36094421Y-57848447D01*
X36200744Y-57827298D01*
X36413389Y-57785000D01*
X36738611Y-57785000D01*
X36951256Y-57827298D01*
G37*
G36*
X156839256Y-57827298D02*
G01*
X156945579Y-57848447D01*
X157246042Y-57972903D01*
X157516451Y-58153585D01*
X157746415Y-58383549D01*
X157927097Y-58653958D01*
X157927098Y-58653960D01*
X158051553Y-58954422D01*
X158115000Y-59273389D01*
X158115000Y-59598611D01*
X158051553Y-59917578D01*
X157956725Y-60146515D01*
X157927097Y-60218042D01*
X157746415Y-60488451D01*
X157516451Y-60718415D01*
X157246042Y-60899097D01*
X156945579Y-61023553D01*
X156931502Y-61026353D01*
X156626611Y-61087000D01*
X156301389Y-61087000D01*
X155996498Y-61026353D01*
X155982421Y-61023553D01*
X155681958Y-60899097D01*
X155411549Y-60718415D01*
X155181585Y-60488451D01*
X155000903Y-60218042D01*
X154971276Y-60146515D01*
X154876447Y-59917578D01*
X154813000Y-59598611D01*
X154813000Y-59273389D01*
X154876447Y-58954422D01*
X155000902Y-58653960D01*
X155000903Y-58653958D01*
X155181585Y-58383549D01*
X155411549Y-58153585D01*
X155681958Y-57972903D01*
X155982421Y-57848447D01*
X156088744Y-57827298D01*
X156301389Y-57785000D01*
X156626611Y-57785000D01*
X156839256Y-57827298D01*
G37*
G36*
X51745534Y-57993643D02*
G01*
X52018515Y-58106716D01*
X52018517Y-58106717D01*
X52264194Y-58270874D01*
X52473126Y-58479806D01*
X52589493Y-58653960D01*
X52637284Y-58725485D01*
X52750357Y-58998466D01*
X52808000Y-59288262D01*
X52808000Y-59583738D01*
X52750357Y-59873534D01*
X52687527Y-60025218D01*
X52637283Y-60146517D01*
X52473126Y-60392194D01*
X52264194Y-60601126D01*
X52018517Y-60765283D01*
X52018516Y-60765284D01*
X52018515Y-60765284D01*
X51745534Y-60878357D01*
X51455738Y-60936000D01*
X51160262Y-60936000D01*
X50870466Y-60878357D01*
X50597485Y-60765284D01*
X50597484Y-60765284D01*
X50597483Y-60765283D01*
X50351806Y-60601126D01*
X50142874Y-60392194D01*
X49978717Y-60146517D01*
X49928473Y-60025218D01*
X49865643Y-59873534D01*
X49808000Y-59583738D01*
X49808000Y-59288262D01*
X49865643Y-58998466D01*
X49978716Y-58725485D01*
X50026508Y-58653960D01*
X50142874Y-58479806D01*
X50351806Y-58270874D01*
X50597483Y-58106717D01*
X50597485Y-58106716D01*
X50870466Y-57993643D01*
X51160262Y-57936000D01*
X51455738Y-57936000D01*
X51745534Y-57993643D01*
G37*
G36*
X44081000Y-58813000D02*
G01*
X42279000Y-58813000D01*
X42279000Y-57011000D01*
X44081000Y-57011000D01*
X44081000Y-58813000D01*
G37*
M02*
