G04 #@! TF.GenerationSoftware,KiCad,Pcbnew,5.1.5+dfsg1-2build2*
G04 #@! TF.CreationDate,2022-05-26T11:06:16-04:00*
G04 #@! TF.ProjectId,feather_valve_driver,66656174-6865-4725-9f76-616c76655f64,rev?*
G04 #@! TF.SameCoordinates,Original*
G04 #@! TF.FileFunction,Legend,Top*
G04 #@! TF.FilePolarity,Positive*
%FSLAX46Y46*%
G04 Gerber Fmt 4.6, Leading zero omitted, Abs format (unit mm)*
G04 Created by KiCad (PCBNEW 5.1.5+dfsg1-2build2) date 2022-05-26 11:06:16*
%MOMM*%
%LPD*%
G04 APERTURE LIST*
%ADD10C,0.120000*%
%ADD11C,0.150000*%
%ADD12C,0.300000*%
G04 APERTURE END LIST*
D10*
X151384000Y-87630000D02*
X72390000Y-87630000D01*
D11*
X150302201Y-85373996D02*
X150905996Y-85373996D01*
X150604099Y-85373996D02*
X150604099Y-86430636D01*
X150704731Y-86279687D01*
X150805363Y-86179055D01*
X150905996Y-86128739D01*
X149396510Y-86430636D02*
X149597775Y-86430636D01*
X149698407Y-86380320D01*
X149748723Y-86330003D01*
X149849356Y-86179055D01*
X149899672Y-85977790D01*
X149899672Y-85575260D01*
X149849356Y-85474628D01*
X149799039Y-85424312D01*
X149698407Y-85373996D01*
X149497142Y-85373996D01*
X149396510Y-85424312D01*
X149346194Y-85474628D01*
X149295878Y-85575260D01*
X149295878Y-85826841D01*
X149346194Y-85927474D01*
X149396510Y-85977790D01*
X149497142Y-86028106D01*
X149698407Y-86028106D01*
X149799039Y-85977790D01*
X149849356Y-85927474D01*
X149899672Y-85826841D01*
X147786392Y-85021782D02*
X147786392Y-86531268D01*
X145673112Y-85373996D02*
X146276906Y-85373996D01*
X145975009Y-85373996D02*
X145975009Y-86430636D01*
X146075641Y-86279687D01*
X146176274Y-86179055D01*
X146276906Y-86128739D01*
X145270582Y-86330003D02*
X145220266Y-86380320D01*
X145119634Y-86430636D01*
X144868053Y-86430636D01*
X144767420Y-86380320D01*
X144717104Y-86330003D01*
X144666788Y-86229371D01*
X144666788Y-86128739D01*
X144717104Y-85977790D01*
X145320899Y-85373996D01*
X144666788Y-85373996D01*
X144364891Y-86430636D02*
X144012678Y-85373996D01*
X143660464Y-86430636D01*
X142251611Y-85021782D02*
X142251611Y-86531268D01*
X140138331Y-85373996D02*
X140742125Y-85373996D01*
X140440228Y-85373996D02*
X140440228Y-86430636D01*
X140540860Y-86279687D01*
X140641493Y-86179055D01*
X140742125Y-86128739D01*
X139182323Y-86430636D02*
X139685485Y-86430636D01*
X139735801Y-85927474D01*
X139685485Y-85977790D01*
X139584853Y-86028106D01*
X139333272Y-86028106D01*
X139232639Y-85977790D01*
X139182323Y-85927474D01*
X139132007Y-85826841D01*
X139132007Y-85575260D01*
X139182323Y-85474628D01*
X139232639Y-85424312D01*
X139333272Y-85373996D01*
X139584853Y-85373996D01*
X139685485Y-85424312D01*
X139735801Y-85474628D01*
X137622521Y-85021782D02*
X137622521Y-86531268D01*
X135509241Y-85373996D02*
X136113036Y-85373996D01*
X135811139Y-85373996D02*
X135811139Y-86430636D01*
X135911771Y-86279687D01*
X136012403Y-86179055D01*
X136113036Y-86128739D01*
X135106712Y-86330003D02*
X135056396Y-86380320D01*
X134955763Y-86430636D01*
X134704182Y-86430636D01*
X134603550Y-86380320D01*
X134553234Y-86330003D01*
X134502918Y-86229371D01*
X134502918Y-86128739D01*
X134553234Y-85977790D01*
X135157028Y-85373996D01*
X134502918Y-85373996D01*
X134201020Y-86430636D02*
X133848807Y-85373996D01*
X133496594Y-86430636D01*
X132087740Y-85021782D02*
X132087740Y-86531268D01*
X129974460Y-85373996D02*
X130578255Y-85373996D01*
X130276358Y-85373996D02*
X130276358Y-86430636D01*
X130376990Y-86279687D01*
X130477622Y-86179055D01*
X130578255Y-86128739D01*
X129068769Y-86078422D02*
X129068769Y-85373996D01*
X129320350Y-86480952D02*
X129571931Y-85726209D01*
X128917820Y-85726209D01*
X127458651Y-85021782D02*
X127458651Y-86531268D01*
X125345371Y-85373996D02*
X125949165Y-85373996D01*
X125647268Y-85373996D02*
X125647268Y-86430636D01*
X125747900Y-86279687D01*
X125848533Y-86179055D01*
X125949165Y-86128739D01*
X124942841Y-86330003D02*
X124892525Y-86380320D01*
X124791893Y-86430636D01*
X124540312Y-86430636D01*
X124439679Y-86380320D01*
X124389363Y-86330003D01*
X124339047Y-86229371D01*
X124339047Y-86128739D01*
X124389363Y-85977790D01*
X124993158Y-85373996D01*
X124339047Y-85373996D01*
X124037150Y-86430636D02*
X123684937Y-85373996D01*
X123332723Y-86430636D01*
X121923870Y-85021782D02*
X121923870Y-86531268D01*
X119810590Y-85373996D02*
X120414384Y-85373996D01*
X120112487Y-85373996D02*
X120112487Y-86430636D01*
X120213119Y-86279687D01*
X120313752Y-86179055D01*
X120414384Y-86128739D01*
X119458377Y-86430636D02*
X118804266Y-86430636D01*
X119156479Y-86028106D01*
X119005531Y-86028106D01*
X118904899Y-85977790D01*
X118854582Y-85927474D01*
X118804266Y-85826841D01*
X118804266Y-85575260D01*
X118854582Y-85474628D01*
X118904899Y-85424312D01*
X119005531Y-85373996D01*
X119307428Y-85373996D01*
X119408060Y-85424312D01*
X119458377Y-85474628D01*
X117294780Y-85021782D02*
X117294780Y-86531268D01*
X115181500Y-85373996D02*
X115785295Y-85373996D01*
X115483398Y-85373996D02*
X115483398Y-86430636D01*
X115584030Y-86279687D01*
X115684662Y-86179055D01*
X115785295Y-86128739D01*
X114778971Y-86330003D02*
X114728655Y-86380320D01*
X114628022Y-86430636D01*
X114376441Y-86430636D01*
X114275809Y-86380320D01*
X114225493Y-86330003D01*
X114175177Y-86229371D01*
X114175177Y-86128739D01*
X114225493Y-85977790D01*
X114829287Y-85373996D01*
X114175177Y-85373996D01*
X113873279Y-86430636D02*
X113521066Y-85373996D01*
X113168853Y-86430636D01*
X111759999Y-85021782D02*
X111759999Y-86531268D01*
X109646719Y-85373996D02*
X110250514Y-85373996D01*
X109948617Y-85373996D02*
X109948617Y-86430636D01*
X110049249Y-86279687D01*
X110149881Y-86179055D01*
X110250514Y-86128739D01*
X109244190Y-86330003D02*
X109193874Y-86380320D01*
X109093241Y-86430636D01*
X108841660Y-86430636D01*
X108741028Y-86380320D01*
X108690712Y-86330003D01*
X108640396Y-86229371D01*
X108640396Y-86128739D01*
X108690712Y-85977790D01*
X109294506Y-85373996D01*
X108640396Y-85373996D01*
X107130910Y-85021782D02*
X107130910Y-86531268D01*
X105017630Y-85373996D02*
X105621424Y-85373996D01*
X105319527Y-85373996D02*
X105319527Y-86430636D01*
X105420159Y-86279687D01*
X105520792Y-86179055D01*
X105621424Y-86128739D01*
X104615100Y-86330003D02*
X104564784Y-86380320D01*
X104464152Y-86430636D01*
X104212571Y-86430636D01*
X104111939Y-86380320D01*
X104061622Y-86330003D01*
X104011306Y-86229371D01*
X104011306Y-86128739D01*
X104061622Y-85977790D01*
X104665417Y-85373996D01*
X104011306Y-85373996D01*
X103709409Y-86430636D02*
X103357196Y-85373996D01*
X103004982Y-86430636D01*
X101596129Y-85021782D02*
X101596129Y-86531268D01*
X99482849Y-85373996D02*
X100086643Y-85373996D01*
X99784746Y-85373996D02*
X99784746Y-86430636D01*
X99885379Y-86279687D01*
X99986011Y-86179055D01*
X100086643Y-86128739D01*
X98476525Y-85373996D02*
X99080319Y-85373996D01*
X98778422Y-85373996D02*
X98778422Y-86430636D01*
X98879055Y-86279687D01*
X98979687Y-86179055D01*
X99080319Y-86128739D01*
X96967040Y-85021782D02*
X96967040Y-86531268D01*
X94853760Y-85373996D02*
X95457554Y-85373996D01*
X95155657Y-85373996D02*
X95155657Y-86430636D01*
X95256289Y-86279687D01*
X95356921Y-86179055D01*
X95457554Y-86128739D01*
X94451230Y-86330003D02*
X94400914Y-86380320D01*
X94300281Y-86430636D01*
X94048700Y-86430636D01*
X93948068Y-86380320D01*
X93897752Y-86330003D01*
X93847436Y-86229371D01*
X93847436Y-86128739D01*
X93897752Y-85977790D01*
X94501546Y-85373996D01*
X93847436Y-85373996D01*
X93545539Y-86430636D02*
X93193325Y-85373996D01*
X92841112Y-86430636D01*
X91432259Y-85021782D02*
X91432259Y-86531268D01*
X89318979Y-85373996D02*
X89922773Y-85373996D01*
X89620876Y-85373996D02*
X89620876Y-86430636D01*
X89721508Y-86279687D01*
X89822140Y-86179055D01*
X89922773Y-86128739D01*
X88664868Y-86430636D02*
X88564236Y-86430636D01*
X88463603Y-86380320D01*
X88413287Y-86330003D01*
X88362971Y-86229371D01*
X88312655Y-86028106D01*
X88312655Y-85776525D01*
X88362971Y-85575260D01*
X88413287Y-85474628D01*
X88463603Y-85424312D01*
X88564236Y-85373996D01*
X88664868Y-85373996D01*
X88765500Y-85424312D01*
X88815817Y-85474628D01*
X88866133Y-85575260D01*
X88916449Y-85776525D01*
X88916449Y-86028106D01*
X88866133Y-86229371D01*
X88815817Y-86330003D01*
X88765500Y-86380320D01*
X88664868Y-86430636D01*
X86803169Y-85021782D02*
X86803169Y-86531268D01*
X84689889Y-85373996D02*
X85293683Y-85373996D01*
X84991786Y-85373996D02*
X84991786Y-86430636D01*
X85092419Y-86279687D01*
X85193051Y-86179055D01*
X85293683Y-86128739D01*
X84287360Y-86330003D02*
X84237043Y-86380320D01*
X84136411Y-86430636D01*
X83884830Y-86430636D01*
X83784198Y-86380320D01*
X83733881Y-86330003D01*
X83683565Y-86229371D01*
X83683565Y-86128739D01*
X83733881Y-85977790D01*
X84337676Y-85373996D01*
X83683565Y-85373996D01*
X83381668Y-86430636D02*
X83029455Y-85373996D01*
X82677241Y-86430636D01*
X81268388Y-85021782D02*
X81268388Y-86531268D01*
X79507321Y-86430636D02*
X79406689Y-86430636D01*
X79306057Y-86380320D01*
X79255740Y-86330003D01*
X79205424Y-86229371D01*
X79155108Y-86028106D01*
X79155108Y-85776525D01*
X79205424Y-85575260D01*
X79255740Y-85474628D01*
X79306057Y-85424312D01*
X79406689Y-85373996D01*
X79507321Y-85373996D01*
X79607954Y-85424312D01*
X79658270Y-85474628D01*
X79708586Y-85575260D01*
X79758902Y-85776525D01*
X79758902Y-86028106D01*
X79708586Y-86229371D01*
X79658270Y-86330003D01*
X79607954Y-86380320D01*
X79507321Y-86430636D01*
X78651946Y-85373996D02*
X78450681Y-85373996D01*
X78350049Y-85424312D01*
X78299733Y-85474628D01*
X78199100Y-85625577D01*
X78148784Y-85826841D01*
X78148784Y-86229371D01*
X78199100Y-86330003D01*
X78249417Y-86380320D01*
X78350049Y-86430636D01*
X78551314Y-86430636D01*
X78651946Y-86380320D01*
X78702262Y-86330003D01*
X78752579Y-86229371D01*
X78752579Y-85977790D01*
X78702262Y-85877158D01*
X78651946Y-85826841D01*
X78551314Y-85776525D01*
X78350049Y-85776525D01*
X78249417Y-85826841D01*
X78199100Y-85877158D01*
X78148784Y-85977790D01*
X76639299Y-85021782D02*
X76639299Y-86531268D01*
X74526019Y-85373996D02*
X75129813Y-85373996D01*
X74827916Y-85373996D02*
X74827916Y-86430636D01*
X74928548Y-86279687D01*
X75029180Y-86179055D01*
X75129813Y-86128739D01*
X74123489Y-86330003D02*
X74073173Y-86380320D01*
X73972540Y-86430636D01*
X73720960Y-86430636D01*
X73620327Y-86380320D01*
X73570011Y-86330003D01*
X73519695Y-86229371D01*
X73519695Y-86128739D01*
X73570011Y-85977790D01*
X74173805Y-85373996D01*
X73519695Y-85373996D01*
X73217798Y-86430636D02*
X72865584Y-85373996D01*
X72513371Y-86430636D01*
X72865584Y-88829363D02*
X72966217Y-88829363D01*
X73066849Y-88879680D01*
X73117165Y-88929996D01*
X73167481Y-89030628D01*
X73217798Y-89231893D01*
X73217798Y-89483474D01*
X73167481Y-89684739D01*
X73117165Y-89785371D01*
X73066849Y-89835687D01*
X72966217Y-89886003D01*
X72865584Y-89886003D01*
X72764952Y-89835687D01*
X72714636Y-89785371D01*
X72664320Y-89684739D01*
X72614003Y-89483474D01*
X72614003Y-89231893D01*
X72664320Y-89030628D01*
X72714636Y-88929996D01*
X72764952Y-88879680D01*
X72865584Y-88829363D01*
X73821592Y-89282209D02*
X73720960Y-89231893D01*
X73670643Y-89181577D01*
X73620327Y-89080944D01*
X73620327Y-89030628D01*
X73670643Y-88929996D01*
X73720960Y-88879680D01*
X73821592Y-88829363D01*
X74022857Y-88829363D01*
X74123489Y-88879680D01*
X74173805Y-88929996D01*
X74224121Y-89030628D01*
X74224121Y-89080944D01*
X74173805Y-89181577D01*
X74123489Y-89231893D01*
X74022857Y-89282209D01*
X73821592Y-89282209D01*
X73720960Y-89332525D01*
X73670643Y-89382841D01*
X73620327Y-89483474D01*
X73620327Y-89684739D01*
X73670643Y-89785371D01*
X73720960Y-89835687D01*
X73821592Y-89886003D01*
X74022857Y-89886003D01*
X74123489Y-89835687D01*
X74173805Y-89785371D01*
X74224121Y-89684739D01*
X74224121Y-89483474D01*
X74173805Y-89382841D01*
X74123489Y-89332525D01*
X74022857Y-89282209D01*
X75733607Y-90238217D02*
X75733607Y-88728731D01*
X77846887Y-89886003D02*
X77243093Y-89886003D01*
X77544990Y-89886003D02*
X77544990Y-88829363D01*
X77444358Y-88980312D01*
X77343725Y-89080944D01*
X77243093Y-89131260D01*
X78249417Y-88929996D02*
X78299733Y-88879680D01*
X78400365Y-88829363D01*
X78651946Y-88829363D01*
X78752579Y-88879680D01*
X78802895Y-88929996D01*
X78853211Y-89030628D01*
X78853211Y-89131260D01*
X78802895Y-89282209D01*
X78199100Y-89886003D01*
X78853211Y-89886003D01*
X79155108Y-88829363D02*
X79507321Y-89886003D01*
X79859535Y-88829363D01*
X81268388Y-90238217D02*
X81268388Y-88728731D01*
X83029455Y-88829363D02*
X83130087Y-88829363D01*
X83230720Y-88879680D01*
X83281036Y-88929996D01*
X83331352Y-89030628D01*
X83381668Y-89231893D01*
X83381668Y-89483474D01*
X83331352Y-89684739D01*
X83281036Y-89785371D01*
X83230720Y-89835687D01*
X83130087Y-89886003D01*
X83029455Y-89886003D01*
X82928822Y-89835687D01*
X82878506Y-89785371D01*
X82828190Y-89684739D01*
X82777874Y-89483474D01*
X82777874Y-89231893D01*
X82828190Y-89030628D01*
X82878506Y-88929996D01*
X82928822Y-88879680D01*
X83029455Y-88829363D01*
X83733881Y-88829363D02*
X84438308Y-88829363D01*
X83985462Y-89886003D01*
X85897478Y-90238217D02*
X85897478Y-88728731D01*
X88010758Y-89886003D02*
X87406963Y-89886003D01*
X87708860Y-89886003D02*
X87708860Y-88829363D01*
X87608228Y-88980312D01*
X87507596Y-89080944D01*
X87406963Y-89131260D01*
X88413287Y-88929996D02*
X88463603Y-88879680D01*
X88564236Y-88829363D01*
X88815817Y-88829363D01*
X88916449Y-88879680D01*
X88966765Y-88929996D01*
X89017081Y-89030628D01*
X89017081Y-89131260D01*
X88966765Y-89282209D01*
X88362971Y-89886003D01*
X89017081Y-89886003D01*
X89318979Y-88829363D02*
X89671192Y-89886003D01*
X90023405Y-88829363D01*
X91432259Y-90238217D02*
X91432259Y-88728731D01*
X93193325Y-88829363D02*
X93293958Y-88829363D01*
X93394590Y-88879680D01*
X93444906Y-88929996D01*
X93495222Y-89030628D01*
X93545539Y-89231893D01*
X93545539Y-89483474D01*
X93495222Y-89684739D01*
X93444906Y-89785371D01*
X93394590Y-89835687D01*
X93293958Y-89886003D01*
X93193325Y-89886003D01*
X93092693Y-89835687D01*
X93042377Y-89785371D01*
X92992060Y-89684739D01*
X92941744Y-89483474D01*
X92941744Y-89231893D01*
X92992060Y-89030628D01*
X93042377Y-88929996D01*
X93092693Y-88879680D01*
X93193325Y-88829363D01*
X94451230Y-88829363D02*
X94249965Y-88829363D01*
X94149333Y-88879680D01*
X94099017Y-88929996D01*
X93998384Y-89080944D01*
X93948068Y-89282209D01*
X93948068Y-89684739D01*
X93998384Y-89785371D01*
X94048700Y-89835687D01*
X94149333Y-89886003D01*
X94350598Y-89886003D01*
X94451230Y-89835687D01*
X94501546Y-89785371D01*
X94551862Y-89684739D01*
X94551862Y-89433158D01*
X94501546Y-89332525D01*
X94451230Y-89282209D01*
X94350598Y-89231893D01*
X94149333Y-89231893D01*
X94048700Y-89282209D01*
X93998384Y-89332525D01*
X93948068Y-89433158D01*
X96061348Y-90238217D02*
X96061348Y-88728731D01*
X98174628Y-89886003D02*
X97570834Y-89886003D01*
X97872731Y-89886003D02*
X97872731Y-88829363D01*
X97772099Y-88980312D01*
X97671466Y-89080944D01*
X97570834Y-89131260D01*
X98577158Y-88929996D02*
X98627474Y-88879680D01*
X98728106Y-88829363D01*
X98979687Y-88829363D01*
X99080320Y-88879680D01*
X99130636Y-88929996D01*
X99180952Y-89030628D01*
X99180952Y-89131260D01*
X99130636Y-89282209D01*
X98526841Y-89886003D01*
X99180952Y-89886003D01*
X99482849Y-88829363D02*
X99835062Y-89886003D01*
X100187276Y-88829363D01*
X101596129Y-90238217D02*
X101596129Y-88728731D01*
X103357196Y-88829363D02*
X103457828Y-88829363D01*
X103558460Y-88879680D01*
X103608777Y-88929996D01*
X103659093Y-89030628D01*
X103709409Y-89231893D01*
X103709409Y-89483474D01*
X103659093Y-89684739D01*
X103608777Y-89785371D01*
X103558460Y-89835687D01*
X103457828Y-89886003D01*
X103357196Y-89886003D01*
X103256563Y-89835687D01*
X103206247Y-89785371D01*
X103155931Y-89684739D01*
X103105615Y-89483474D01*
X103105615Y-89231893D01*
X103155931Y-89030628D01*
X103206247Y-88929996D01*
X103256563Y-88879680D01*
X103357196Y-88829363D01*
X104665417Y-88829363D02*
X104162255Y-88829363D01*
X104111939Y-89332525D01*
X104162255Y-89282209D01*
X104262887Y-89231893D01*
X104514468Y-89231893D01*
X104615100Y-89282209D01*
X104665417Y-89332525D01*
X104715733Y-89433158D01*
X104715733Y-89684739D01*
X104665417Y-89785371D01*
X104615100Y-89835687D01*
X104514468Y-89886003D01*
X104262887Y-89886003D01*
X104162255Y-89835687D01*
X104111939Y-89785371D01*
X106225219Y-90238217D02*
X106225219Y-88728731D01*
X108338499Y-89886003D02*
X107734704Y-89886003D01*
X108036601Y-89886003D02*
X108036601Y-88829363D01*
X107935969Y-88980312D01*
X107835337Y-89080944D01*
X107734704Y-89131260D01*
X108741028Y-88929996D02*
X108791344Y-88879680D01*
X108891977Y-88829363D01*
X109143558Y-88829363D01*
X109244190Y-88879680D01*
X109294506Y-88929996D01*
X109344822Y-89030628D01*
X109344822Y-89131260D01*
X109294506Y-89282209D01*
X108690712Y-89886003D01*
X109344822Y-89886003D01*
X109646720Y-88829363D02*
X109998933Y-89886003D01*
X110351146Y-88829363D01*
X111760000Y-90238217D02*
X111760000Y-88728731D01*
X113521066Y-88829363D02*
X113621699Y-88829363D01*
X113722331Y-88879680D01*
X113772647Y-88929996D01*
X113822963Y-89030628D01*
X113873280Y-89231893D01*
X113873280Y-89483474D01*
X113822963Y-89684739D01*
X113772647Y-89785371D01*
X113722331Y-89835687D01*
X113621699Y-89886003D01*
X113521066Y-89886003D01*
X113420434Y-89835687D01*
X113370118Y-89785371D01*
X113319801Y-89684739D01*
X113269485Y-89483474D01*
X113269485Y-89231893D01*
X113319801Y-89030628D01*
X113370118Y-88929996D01*
X113420434Y-88879680D01*
X113521066Y-88829363D01*
X114778971Y-89181577D02*
X114778971Y-89886003D01*
X114527390Y-88779047D02*
X114275809Y-89533790D01*
X114929920Y-89533790D01*
X116389089Y-90238217D02*
X116389089Y-88728731D01*
X118502369Y-89886003D02*
X117898575Y-89886003D01*
X118200472Y-89886003D02*
X118200472Y-88829363D01*
X118099840Y-88980312D01*
X117999207Y-89080944D01*
X117898575Y-89131260D01*
X118904899Y-88929996D02*
X118955215Y-88879680D01*
X119055847Y-88829363D01*
X119307428Y-88829363D01*
X119408060Y-88879680D01*
X119458377Y-88929996D01*
X119508693Y-89030628D01*
X119508693Y-89131260D01*
X119458377Y-89282209D01*
X118854582Y-89886003D01*
X119508693Y-89886003D01*
X119810590Y-88829363D02*
X120162803Y-89886003D01*
X120515017Y-88829363D01*
X121923870Y-90238217D02*
X121923870Y-88728731D01*
X123684937Y-88829363D02*
X123785569Y-88829363D01*
X123886201Y-88879680D01*
X123936518Y-88929996D01*
X123986834Y-89030628D01*
X124037150Y-89231893D01*
X124037150Y-89483474D01*
X123986834Y-89684739D01*
X123936518Y-89785371D01*
X123886201Y-89835687D01*
X123785569Y-89886003D01*
X123684937Y-89886003D01*
X123584304Y-89835687D01*
X123533988Y-89785371D01*
X123483672Y-89684739D01*
X123433356Y-89483474D01*
X123433356Y-89231893D01*
X123483672Y-89030628D01*
X123533988Y-88929996D01*
X123584304Y-88879680D01*
X123684937Y-88829363D01*
X124389363Y-88829363D02*
X125043474Y-88829363D01*
X124691260Y-89231893D01*
X124842209Y-89231893D01*
X124942841Y-89282209D01*
X124993158Y-89332525D01*
X125043474Y-89433158D01*
X125043474Y-89684739D01*
X124993158Y-89785371D01*
X124942841Y-89835687D01*
X124842209Y-89886003D01*
X124540312Y-89886003D01*
X124439680Y-89835687D01*
X124389363Y-89785371D01*
X126552960Y-90238217D02*
X126552960Y-88728731D01*
X128666240Y-89886003D02*
X128062445Y-89886003D01*
X128364342Y-89886003D02*
X128364342Y-88829363D01*
X128263710Y-88980312D01*
X128163078Y-89080944D01*
X128062445Y-89131260D01*
X129068769Y-88929996D02*
X129119085Y-88879680D01*
X129219718Y-88829363D01*
X129471299Y-88829363D01*
X129571931Y-88879680D01*
X129622247Y-88929996D01*
X129672563Y-89030628D01*
X129672563Y-89131260D01*
X129622247Y-89282209D01*
X129018453Y-89886003D01*
X129672563Y-89886003D01*
X129974460Y-88829363D02*
X130326674Y-89886003D01*
X130678887Y-88829363D01*
X132087740Y-90238217D02*
X132087740Y-88728731D01*
X133848807Y-88829363D02*
X133949439Y-88829363D01*
X134050072Y-88879680D01*
X134100388Y-88929996D01*
X134150704Y-89030628D01*
X134201020Y-89231893D01*
X134201020Y-89483474D01*
X134150704Y-89684739D01*
X134100388Y-89785371D01*
X134050072Y-89835687D01*
X133949439Y-89886003D01*
X133848807Y-89886003D01*
X133748175Y-89835687D01*
X133697859Y-89785371D01*
X133647542Y-89684739D01*
X133597226Y-89483474D01*
X133597226Y-89231893D01*
X133647542Y-89030628D01*
X133697859Y-88929996D01*
X133748175Y-88879680D01*
X133848807Y-88829363D01*
X134603550Y-88929996D02*
X134653866Y-88879680D01*
X134754499Y-88829363D01*
X135006079Y-88829363D01*
X135106712Y-88879680D01*
X135157028Y-88929996D01*
X135207344Y-89030628D01*
X135207344Y-89131260D01*
X135157028Y-89282209D01*
X134553234Y-89886003D01*
X135207344Y-89886003D01*
X136716830Y-90238217D02*
X136716830Y-88728731D01*
X138830110Y-89886003D02*
X138226316Y-89886003D01*
X138528213Y-89886003D02*
X138528213Y-88829363D01*
X138427580Y-88980312D01*
X138326948Y-89080944D01*
X138226316Y-89131260D01*
X139232639Y-88929996D02*
X139282956Y-88879680D01*
X139383588Y-88829363D01*
X139635169Y-88829363D01*
X139735801Y-88879680D01*
X139786118Y-88929996D01*
X139836434Y-89030628D01*
X139836434Y-89131260D01*
X139786118Y-89282209D01*
X139182323Y-89886003D01*
X139836434Y-89886003D01*
X140138331Y-88829363D02*
X140490544Y-89886003D01*
X140842758Y-88829363D01*
X142251611Y-90238217D02*
X142251611Y-88728731D01*
X144012678Y-88829363D02*
X144113310Y-88829363D01*
X144213942Y-88879680D01*
X144264259Y-88929996D01*
X144314575Y-89030628D01*
X144364891Y-89231893D01*
X144364891Y-89483474D01*
X144314575Y-89684739D01*
X144264259Y-89785371D01*
X144213942Y-89835687D01*
X144113310Y-89886003D01*
X144012678Y-89886003D01*
X143912045Y-89835687D01*
X143861729Y-89785371D01*
X143811413Y-89684739D01*
X143761097Y-89483474D01*
X143761097Y-89231893D01*
X143811413Y-89030628D01*
X143861729Y-88929996D01*
X143912045Y-88879680D01*
X144012678Y-88829363D01*
X145371215Y-89886003D02*
X144767420Y-89886003D01*
X145069318Y-89886003D02*
X145069318Y-88829363D01*
X144968685Y-88980312D01*
X144868053Y-89080944D01*
X144767420Y-89131260D01*
X146880700Y-90238217D02*
X146880700Y-88728731D01*
X148993980Y-89886003D02*
X148390186Y-89886003D01*
X148692083Y-89886003D02*
X148692083Y-88829363D01*
X148591451Y-88980312D01*
X148490819Y-89080944D01*
X148390186Y-89131260D01*
X149396510Y-88929996D02*
X149446826Y-88879680D01*
X149547459Y-88829363D01*
X149799039Y-88829363D01*
X149899672Y-88879680D01*
X149949988Y-88929996D01*
X150000304Y-89030628D01*
X150000304Y-89131260D01*
X149949988Y-89282209D01*
X149346194Y-89886003D01*
X150000304Y-89886003D01*
X150302201Y-88829363D02*
X150654415Y-89886003D01*
X151006628Y-88829363D01*
D12*
X45958857Y-102435428D02*
X46030285Y-102364000D01*
X46173142Y-102292571D01*
X46530285Y-102292571D01*
X46673142Y-102364000D01*
X46744571Y-102435428D01*
X46816000Y-102578285D01*
X46816000Y-102721142D01*
X46744571Y-102935428D01*
X45887428Y-103792571D01*
X46816000Y-103792571D01*
X47387428Y-102435428D02*
X47458857Y-102364000D01*
X47601714Y-102292571D01*
X47958857Y-102292571D01*
X48101714Y-102364000D01*
X48173142Y-102435428D01*
X48244571Y-102578285D01*
X48244571Y-102721142D01*
X48173142Y-102935428D01*
X47316000Y-103792571D01*
X48244571Y-103792571D01*
X49173142Y-102292571D02*
X49316000Y-102292571D01*
X49458857Y-102364000D01*
X49530285Y-102435428D01*
X49601714Y-102578285D01*
X49673142Y-102864000D01*
X49673142Y-103221142D01*
X49601714Y-103506857D01*
X49530285Y-103649714D01*
X49458857Y-103721142D01*
X49316000Y-103792571D01*
X49173142Y-103792571D01*
X49030285Y-103721142D01*
X48958857Y-103649714D01*
X48887428Y-103506857D01*
X48816000Y-103221142D01*
X48816000Y-102864000D01*
X48887428Y-102578285D01*
X48958857Y-102435428D01*
X49030285Y-102364000D01*
X49173142Y-102292571D01*
X51030285Y-102292571D02*
X50316000Y-102292571D01*
X50244571Y-103006857D01*
X50316000Y-102935428D01*
X50458857Y-102864000D01*
X50816000Y-102864000D01*
X50958857Y-102935428D01*
X51030285Y-103006857D01*
X51101714Y-103149714D01*
X51101714Y-103506857D01*
X51030285Y-103649714D01*
X50958857Y-103721142D01*
X50816000Y-103792571D01*
X50458857Y-103792571D01*
X50316000Y-103721142D01*
X50244571Y-103649714D01*
X52530285Y-103792571D02*
X51673142Y-103792571D01*
X52101714Y-103792571D02*
X52101714Y-102292571D01*
X51958857Y-102506857D01*
X51816000Y-102649714D01*
X51673142Y-102721142D01*
X53244571Y-103792571D02*
X53530285Y-103792571D01*
X53673142Y-103721142D01*
X53744571Y-103649714D01*
X53887428Y-103435428D01*
X53958857Y-103149714D01*
X53958857Y-102578285D01*
X53887428Y-102435428D01*
X53816000Y-102364000D01*
X53673142Y-102292571D01*
X53387428Y-102292571D01*
X53244571Y-102364000D01*
X53173142Y-102435428D01*
X53101714Y-102578285D01*
X53101714Y-102935428D01*
X53173142Y-103078285D01*
X53244571Y-103149714D01*
X53387428Y-103221142D01*
X53673142Y-103221142D01*
X53816000Y-103149714D01*
X53887428Y-103078285D01*
X53958857Y-102935428D01*
X55601714Y-102792571D02*
X55958857Y-103792571D01*
X56316000Y-102792571D01*
X57673142Y-103792571D02*
X56816000Y-103792571D01*
X57244571Y-103792571D02*
X57244571Y-102292571D01*
X57101714Y-102506857D01*
X56958857Y-102649714D01*
X56816000Y-102721142D01*
X43708857Y-106199714D02*
X43637428Y-106271142D01*
X43423142Y-106342571D01*
X43280285Y-106342571D01*
X43066000Y-106271142D01*
X42923142Y-106128285D01*
X42851714Y-105985428D01*
X42780285Y-105699714D01*
X42780285Y-105485428D01*
X42851714Y-105199714D01*
X42923142Y-105056857D01*
X43066000Y-104914000D01*
X43280285Y-104842571D01*
X43423142Y-104842571D01*
X43637428Y-104914000D01*
X43708857Y-104985428D01*
X44851714Y-105556857D02*
X45066000Y-105628285D01*
X45137428Y-105699714D01*
X45208857Y-105842571D01*
X45208857Y-106056857D01*
X45137428Y-106199714D01*
X45066000Y-106271142D01*
X44923142Y-106342571D01*
X44351714Y-106342571D01*
X44351714Y-104842571D01*
X44851714Y-104842571D01*
X44994571Y-104914000D01*
X45066000Y-104985428D01*
X45137428Y-105128285D01*
X45137428Y-105271142D01*
X45066000Y-105414000D01*
X44994571Y-105485428D01*
X44851714Y-105556857D01*
X44351714Y-105556857D01*
X45780285Y-106271142D02*
X45994571Y-106342571D01*
X46351714Y-106342571D01*
X46494571Y-106271142D01*
X46566000Y-106199714D01*
X46637428Y-106056857D01*
X46637428Y-105914000D01*
X46566000Y-105771142D01*
X46494571Y-105699714D01*
X46351714Y-105628285D01*
X46066000Y-105556857D01*
X45923142Y-105485428D01*
X45851714Y-105414000D01*
X45780285Y-105271142D01*
X45780285Y-105128285D01*
X45851714Y-104985428D01*
X45923142Y-104914000D01*
X46066000Y-104842571D01*
X46423142Y-104842571D01*
X46637428Y-104914000D01*
X48423142Y-106342571D02*
X48423142Y-104842571D01*
X49280285Y-106342571D01*
X49280285Y-104842571D01*
X49780285Y-104842571D02*
X50637428Y-104842571D01*
X50208857Y-106342571D02*
X50208857Y-104842571D01*
X51994571Y-106199714D02*
X51923142Y-106271142D01*
X51708857Y-106342571D01*
X51566000Y-106342571D01*
X51351714Y-106271142D01*
X51208857Y-106128285D01*
X51137428Y-105985428D01*
X51066000Y-105699714D01*
X51066000Y-105485428D01*
X51137428Y-105199714D01*
X51208857Y-105056857D01*
X51351714Y-104914000D01*
X51566000Y-104842571D01*
X51708857Y-104842571D01*
X51923142Y-104914000D01*
X51994571Y-104985428D01*
X52851714Y-106342571D02*
X52708857Y-106271142D01*
X52637428Y-106199714D01*
X52565999Y-106056857D01*
X52565999Y-105628285D01*
X52637428Y-105485428D01*
X52708857Y-105414000D01*
X52851714Y-105342571D01*
X53065999Y-105342571D01*
X53208857Y-105414000D01*
X53280285Y-105485428D01*
X53351714Y-105628285D01*
X53351714Y-106056857D01*
X53280285Y-106199714D01*
X53208857Y-106271142D01*
X53065999Y-106342571D01*
X52851714Y-106342571D01*
X53994571Y-106342571D02*
X53994571Y-105342571D01*
X53994571Y-105628285D02*
X54065999Y-105485428D01*
X54137428Y-105414000D01*
X54280285Y-105342571D01*
X54423142Y-105342571D01*
X55494571Y-106271142D02*
X55351714Y-106342571D01*
X55065999Y-106342571D01*
X54923142Y-106271142D01*
X54851714Y-106128285D01*
X54851714Y-105556857D01*
X54923142Y-105414000D01*
X55065999Y-105342571D01*
X55351714Y-105342571D01*
X55494571Y-105414000D01*
X55565999Y-105556857D01*
X55565999Y-105699714D01*
X54851714Y-105842571D01*
X57851714Y-105556857D02*
X58065999Y-105628285D01*
X58137428Y-105699714D01*
X58208857Y-105842571D01*
X58208857Y-106056857D01*
X58137428Y-106199714D01*
X58065999Y-106271142D01*
X57923142Y-106342571D01*
X57351714Y-106342571D01*
X57351714Y-104842571D01*
X57851714Y-104842571D01*
X57994571Y-104914000D01*
X58065999Y-104985428D01*
X58137428Y-105128285D01*
X58137428Y-105271142D01*
X58065999Y-105414000D01*
X57994571Y-105485428D01*
X57851714Y-105556857D01*
X57351714Y-105556857D01*
X59280285Y-104842571D02*
X59280285Y-105914000D01*
X59208857Y-106128285D01*
X59065999Y-106271142D01*
X58851714Y-106342571D01*
X58708857Y-106342571D01*
X60780285Y-104914000D02*
X60637428Y-104842571D01*
X60423142Y-104842571D01*
X60208857Y-104914000D01*
X60065999Y-105056857D01*
X59994571Y-105199714D01*
X59923142Y-105485428D01*
X59923142Y-105699714D01*
X59994571Y-105985428D01*
X60065999Y-106128285D01*
X60208857Y-106271142D01*
X60423142Y-106342571D01*
X60565999Y-106342571D01*
X60780285Y-106271142D01*
X60851714Y-106199714D01*
X60851714Y-105699714D01*
X60565999Y-105699714D01*
X39137428Y-108892571D02*
X38280285Y-108892571D01*
X38708857Y-108892571D02*
X38708857Y-107392571D01*
X38566000Y-107606857D01*
X38423142Y-107749714D01*
X38280285Y-107821142D01*
X40423142Y-107392571D02*
X40137428Y-107392571D01*
X39994571Y-107464000D01*
X39923142Y-107535428D01*
X39780285Y-107749714D01*
X39708857Y-108035428D01*
X39708857Y-108606857D01*
X39780285Y-108749714D01*
X39851714Y-108821142D01*
X39994571Y-108892571D01*
X40280285Y-108892571D01*
X40423142Y-108821142D01*
X40494571Y-108749714D01*
X40566000Y-108606857D01*
X40566000Y-108249714D01*
X40494571Y-108106857D01*
X40423142Y-108035428D01*
X40280285Y-107964000D01*
X39994571Y-107964000D01*
X39851714Y-108035428D01*
X39780285Y-108106857D01*
X39708857Y-108249714D01*
X43208857Y-108749714D02*
X43137428Y-108821142D01*
X42923142Y-108892571D01*
X42780285Y-108892571D01*
X42566000Y-108821142D01*
X42423142Y-108678285D01*
X42351714Y-108535428D01*
X42280285Y-108249714D01*
X42280285Y-108035428D01*
X42351714Y-107749714D01*
X42423142Y-107606857D01*
X42566000Y-107464000D01*
X42780285Y-107392571D01*
X42923142Y-107392571D01*
X43137428Y-107464000D01*
X43208857Y-107535428D01*
X43851714Y-108892571D02*
X43851714Y-107392571D01*
X44494571Y-108892571D02*
X44494571Y-108106857D01*
X44423142Y-107964000D01*
X44280285Y-107892571D01*
X44066000Y-107892571D01*
X43923142Y-107964000D01*
X43851714Y-108035428D01*
X45851714Y-108892571D02*
X45851714Y-108106857D01*
X45780285Y-107964000D01*
X45637428Y-107892571D01*
X45351714Y-107892571D01*
X45208857Y-107964000D01*
X45851714Y-108821142D02*
X45708857Y-108892571D01*
X45351714Y-108892571D01*
X45208857Y-108821142D01*
X45137428Y-108678285D01*
X45137428Y-108535428D01*
X45208857Y-108392571D01*
X45351714Y-108321142D01*
X45708857Y-108321142D01*
X45851714Y-108249714D01*
X46566000Y-107892571D02*
X46566000Y-108892571D01*
X46566000Y-108035428D02*
X46637428Y-107964000D01*
X46780285Y-107892571D01*
X46994571Y-107892571D01*
X47137428Y-107964000D01*
X47208857Y-108106857D01*
X47208857Y-108892571D01*
X47923142Y-107892571D02*
X47923142Y-108892571D01*
X47923142Y-108035428D02*
X47994571Y-107964000D01*
X48137428Y-107892571D01*
X48351714Y-107892571D01*
X48494571Y-107964000D01*
X48566000Y-108106857D01*
X48566000Y-108892571D01*
X49851714Y-108821142D02*
X49708857Y-108892571D01*
X49423142Y-108892571D01*
X49280285Y-108821142D01*
X49208857Y-108678285D01*
X49208857Y-108106857D01*
X49280285Y-107964000D01*
X49423142Y-107892571D01*
X49708857Y-107892571D01*
X49851714Y-107964000D01*
X49923142Y-108106857D01*
X49923142Y-108249714D01*
X49208857Y-108392571D01*
X50780285Y-108892571D02*
X50637428Y-108821142D01*
X50565999Y-108678285D01*
X50565999Y-107392571D01*
X52280285Y-107392571D02*
X52780285Y-108892571D01*
X53280285Y-107392571D01*
X54423142Y-108892571D02*
X54423142Y-108106857D01*
X54351714Y-107964000D01*
X54208857Y-107892571D01*
X53923142Y-107892571D01*
X53780285Y-107964000D01*
X54423142Y-108821142D02*
X54280285Y-108892571D01*
X53923142Y-108892571D01*
X53780285Y-108821142D01*
X53708857Y-108678285D01*
X53708857Y-108535428D01*
X53780285Y-108392571D01*
X53923142Y-108321142D01*
X54280285Y-108321142D01*
X54423142Y-108249714D01*
X55351714Y-108892571D02*
X55208857Y-108821142D01*
X55137428Y-108678285D01*
X55137428Y-107392571D01*
X55780285Y-107892571D02*
X56137428Y-108892571D01*
X56494571Y-107892571D01*
X57637428Y-108821142D02*
X57494571Y-108892571D01*
X57208857Y-108892571D01*
X57066000Y-108821142D01*
X56994571Y-108678285D01*
X56994571Y-108106857D01*
X57066000Y-107964000D01*
X57208857Y-107892571D01*
X57494571Y-107892571D01*
X57637428Y-107964000D01*
X57708857Y-108106857D01*
X57708857Y-108249714D01*
X56994571Y-108392571D01*
X59494571Y-108892571D02*
X59494571Y-107392571D01*
X59851714Y-107392571D01*
X60066000Y-107464000D01*
X60208857Y-107606857D01*
X60280285Y-107749714D01*
X60351714Y-108035428D01*
X60351714Y-108249714D01*
X60280285Y-108535428D01*
X60208857Y-108678285D01*
X60066000Y-108821142D01*
X59851714Y-108892571D01*
X59494571Y-108892571D01*
X60994571Y-108892571D02*
X60994571Y-107892571D01*
X60994571Y-108178285D02*
X61066000Y-108035428D01*
X61137428Y-107964000D01*
X61280285Y-107892571D01*
X61423142Y-107892571D01*
X61923142Y-108892571D02*
X61923142Y-107892571D01*
X61923142Y-107392571D02*
X61851714Y-107464000D01*
X61923142Y-107535428D01*
X61994571Y-107464000D01*
X61923142Y-107392571D01*
X61923142Y-107535428D01*
X62494571Y-107892571D02*
X62851714Y-108892571D01*
X63208857Y-107892571D01*
X64351714Y-108821142D02*
X64208857Y-108892571D01*
X63923142Y-108892571D01*
X63780285Y-108821142D01*
X63708857Y-108678285D01*
X63708857Y-108106857D01*
X63780285Y-107964000D01*
X63923142Y-107892571D01*
X64208857Y-107892571D01*
X64351714Y-107964000D01*
X64423142Y-108106857D01*
X64423142Y-108249714D01*
X63708857Y-108392571D01*
X65066000Y-108892571D02*
X65066000Y-107892571D01*
X65066000Y-108178285D02*
X65137428Y-108035428D01*
X65208857Y-107964000D01*
X65351714Y-107892571D01*
X65494571Y-107892571D01*
D11*
X66317904Y-68000571D02*
X66460761Y-68048190D01*
X66508380Y-68095809D01*
X66556000Y-68191047D01*
X66556000Y-68333904D01*
X66508380Y-68429142D01*
X66460761Y-68476761D01*
X66365523Y-68524380D01*
X65984571Y-68524380D01*
X65984571Y-67524380D01*
X66317904Y-67524380D01*
X66413142Y-67572000D01*
X66460761Y-67619619D01*
X66508380Y-67714857D01*
X66508380Y-67810095D01*
X66460761Y-67905333D01*
X66413142Y-67952952D01*
X66317904Y-68000571D01*
X65984571Y-68000571D01*
X66936952Y-68238666D02*
X67413142Y-68238666D01*
X66841714Y-68524380D02*
X67175047Y-67524380D01*
X67508380Y-68524380D01*
X67698857Y-67524380D02*
X68270285Y-67524380D01*
X67984571Y-68524380D02*
X67984571Y-67524380D01*
X65809904Y-70540571D02*
X66143238Y-70540571D01*
X66286095Y-71064380D02*
X65809904Y-71064380D01*
X65809904Y-70064380D01*
X66286095Y-70064380D01*
X66714666Y-71064380D02*
X66714666Y-70064380D01*
X67286095Y-71064380D01*
X67286095Y-70064380D01*
X65794095Y-72604380D02*
X65794095Y-73413904D01*
X65841714Y-73509142D01*
X65889333Y-73556761D01*
X65984571Y-73604380D01*
X66175047Y-73604380D01*
X66270285Y-73556761D01*
X66317904Y-73509142D01*
X66365523Y-73413904D01*
X66365523Y-72604380D01*
X66794095Y-73556761D02*
X66936952Y-73604380D01*
X67175047Y-73604380D01*
X67270285Y-73556761D01*
X67317904Y-73509142D01*
X67365523Y-73413904D01*
X67365523Y-73318666D01*
X67317904Y-73223428D01*
X67270285Y-73175809D01*
X67175047Y-73128190D01*
X66984571Y-73080571D01*
X66889333Y-73032952D01*
X66841714Y-72985333D01*
X66794095Y-72890095D01*
X66794095Y-72794857D01*
X66841714Y-72699619D01*
X66889333Y-72652000D01*
X66984571Y-72604380D01*
X67222666Y-72604380D01*
X67365523Y-72652000D01*
X68127428Y-73080571D02*
X68270285Y-73128190D01*
X68317904Y-73175809D01*
X68365523Y-73271047D01*
X68365523Y-73413904D01*
X68317904Y-73509142D01*
X68270285Y-73556761D01*
X68175047Y-73604380D01*
X67794095Y-73604380D01*
X67794095Y-72604380D01*
X68127428Y-72604380D01*
X68222666Y-72652000D01*
X68270285Y-72699619D01*
X68317904Y-72794857D01*
X68317904Y-72890095D01*
X68270285Y-72985333D01*
X68222666Y-73032952D01*
X68127428Y-73080571D01*
X67794095Y-73080571D01*
X66103809Y-75144380D02*
X66199047Y-75144380D01*
X66294285Y-75192000D01*
X66341904Y-75239619D01*
X66389523Y-75334857D01*
X66437142Y-75525333D01*
X66437142Y-75763428D01*
X66389523Y-75953904D01*
X66341904Y-76049142D01*
X66294285Y-76096761D01*
X66199047Y-76144380D01*
X66103809Y-76144380D01*
X66008571Y-76096761D01*
X65960952Y-76049142D01*
X65913333Y-75953904D01*
X65865714Y-75763428D01*
X65865714Y-75525333D01*
X65913333Y-75334857D01*
X65960952Y-75239619D01*
X66008571Y-75192000D01*
X66103809Y-75144380D01*
X67389523Y-76144380D02*
X66818095Y-76144380D01*
X67103809Y-76144380D02*
X67103809Y-75144380D01*
X67008571Y-75287238D01*
X66913333Y-75382476D01*
X66818095Y-75430095D01*
X68341904Y-75192000D02*
X68246666Y-75144380D01*
X68103809Y-75144380D01*
X67960952Y-75192000D01*
X67865714Y-75287238D01*
X67818095Y-75382476D01*
X67770476Y-75572952D01*
X67770476Y-75715809D01*
X67818095Y-75906285D01*
X67865714Y-76001523D01*
X67960952Y-76096761D01*
X68103809Y-76144380D01*
X68199047Y-76144380D01*
X68341904Y-76096761D01*
X68389523Y-76049142D01*
X68389523Y-75715809D01*
X68199047Y-75715809D01*
X68818095Y-76144380D02*
X68818095Y-75144380D01*
X69199047Y-75144380D01*
X69294285Y-75192000D01*
X69341904Y-75239619D01*
X69389523Y-75334857D01*
X69389523Y-75477714D01*
X69341904Y-75572952D01*
X69294285Y-75620571D01*
X69199047Y-75668190D01*
X68818095Y-75668190D01*
X70341904Y-76144380D02*
X69770476Y-76144380D01*
X70056190Y-76144380D02*
X70056190Y-75144380D01*
X69960952Y-75287238D01*
X69865714Y-75382476D01*
X69770476Y-75430095D01*
X70675238Y-75144380D02*
X71294285Y-75144380D01*
X70960952Y-75525333D01*
X71103809Y-75525333D01*
X71199047Y-75572952D01*
X71246666Y-75620571D01*
X71294285Y-75715809D01*
X71294285Y-75953904D01*
X71246666Y-76049142D01*
X71199047Y-76096761D01*
X71103809Y-76144380D01*
X70818095Y-76144380D01*
X70722857Y-76096761D01*
X70675238Y-76049142D01*
X66103809Y-77684380D02*
X66199047Y-77684380D01*
X66294285Y-77732000D01*
X66341904Y-77779619D01*
X66389523Y-77874857D01*
X66437142Y-78065333D01*
X66437142Y-78303428D01*
X66389523Y-78493904D01*
X66341904Y-78589142D01*
X66294285Y-78636761D01*
X66199047Y-78684380D01*
X66103809Y-78684380D01*
X66008571Y-78636761D01*
X65960952Y-78589142D01*
X65913333Y-78493904D01*
X65865714Y-78303428D01*
X65865714Y-78065333D01*
X65913333Y-77874857D01*
X65960952Y-77779619D01*
X66008571Y-77732000D01*
X66103809Y-77684380D01*
X66818095Y-77779619D02*
X66865714Y-77732000D01*
X66960952Y-77684380D01*
X67199047Y-77684380D01*
X67294285Y-77732000D01*
X67341904Y-77779619D01*
X67389523Y-77874857D01*
X67389523Y-77970095D01*
X67341904Y-78112952D01*
X66770476Y-78684380D01*
X67389523Y-78684380D01*
X68341904Y-77732000D02*
X68246666Y-77684380D01*
X68103809Y-77684380D01*
X67960952Y-77732000D01*
X67865714Y-77827238D01*
X67818095Y-77922476D01*
X67770476Y-78112952D01*
X67770476Y-78255809D01*
X67818095Y-78446285D01*
X67865714Y-78541523D01*
X67960952Y-78636761D01*
X68103809Y-78684380D01*
X68199047Y-78684380D01*
X68341904Y-78636761D01*
X68389523Y-78589142D01*
X68389523Y-78255809D01*
X68199047Y-78255809D01*
X68818095Y-78684380D02*
X68818095Y-77684380D01*
X69199047Y-77684380D01*
X69294285Y-77732000D01*
X69341904Y-77779619D01*
X69389523Y-77874857D01*
X69389523Y-78017714D01*
X69341904Y-78112952D01*
X69294285Y-78160571D01*
X69199047Y-78208190D01*
X68818095Y-78208190D01*
X70341904Y-78684380D02*
X69770476Y-78684380D01*
X70056190Y-78684380D02*
X70056190Y-77684380D01*
X69960952Y-77827238D01*
X69865714Y-77922476D01*
X69770476Y-77970095D01*
X70722857Y-77779619D02*
X70770476Y-77732000D01*
X70865714Y-77684380D01*
X71103809Y-77684380D01*
X71199047Y-77732000D01*
X71246666Y-77779619D01*
X71294285Y-77874857D01*
X71294285Y-77970095D01*
X71246666Y-78112952D01*
X70675238Y-78684380D01*
X71294285Y-78684380D01*
X66103809Y-80224380D02*
X66199047Y-80224380D01*
X66294285Y-80272000D01*
X66341904Y-80319619D01*
X66389523Y-80414857D01*
X66437142Y-80605333D01*
X66437142Y-80843428D01*
X66389523Y-81033904D01*
X66341904Y-81129142D01*
X66294285Y-81176761D01*
X66199047Y-81224380D01*
X66103809Y-81224380D01*
X66008571Y-81176761D01*
X65960952Y-81129142D01*
X65913333Y-81033904D01*
X65865714Y-80843428D01*
X65865714Y-80605333D01*
X65913333Y-80414857D01*
X65960952Y-80319619D01*
X66008571Y-80272000D01*
X66103809Y-80224380D01*
X66770476Y-80224380D02*
X67389523Y-80224380D01*
X67056190Y-80605333D01*
X67199047Y-80605333D01*
X67294285Y-80652952D01*
X67341904Y-80700571D01*
X67389523Y-80795809D01*
X67389523Y-81033904D01*
X67341904Y-81129142D01*
X67294285Y-81176761D01*
X67199047Y-81224380D01*
X66913333Y-81224380D01*
X66818095Y-81176761D01*
X66770476Y-81129142D01*
X68341904Y-80272000D02*
X68246666Y-80224380D01*
X68103809Y-80224380D01*
X67960952Y-80272000D01*
X67865714Y-80367238D01*
X67818095Y-80462476D01*
X67770476Y-80652952D01*
X67770476Y-80795809D01*
X67818095Y-80986285D01*
X67865714Y-81081523D01*
X67960952Y-81176761D01*
X68103809Y-81224380D01*
X68199047Y-81224380D01*
X68341904Y-81176761D01*
X68389523Y-81129142D01*
X68389523Y-80795809D01*
X68199047Y-80795809D01*
X68818095Y-81224380D02*
X68818095Y-80224380D01*
X69199047Y-80224380D01*
X69294285Y-80272000D01*
X69341904Y-80319619D01*
X69389523Y-80414857D01*
X69389523Y-80557714D01*
X69341904Y-80652952D01*
X69294285Y-80700571D01*
X69199047Y-80748190D01*
X68818095Y-80748190D01*
X70341904Y-81224380D02*
X69770476Y-81224380D01*
X70056190Y-81224380D02*
X70056190Y-80224380D01*
X69960952Y-80367238D01*
X69865714Y-80462476D01*
X69770476Y-80510095D01*
X71294285Y-81224380D02*
X70722857Y-81224380D01*
X71008571Y-81224380D02*
X71008571Y-80224380D01*
X70913333Y-80367238D01*
X70818095Y-80462476D01*
X70722857Y-80510095D01*
X66103809Y-82764380D02*
X66199047Y-82764380D01*
X66294285Y-82812000D01*
X66341904Y-82859619D01*
X66389523Y-82954857D01*
X66437142Y-83145333D01*
X66437142Y-83383428D01*
X66389523Y-83573904D01*
X66341904Y-83669142D01*
X66294285Y-83716761D01*
X66199047Y-83764380D01*
X66103809Y-83764380D01*
X66008571Y-83716761D01*
X65960952Y-83669142D01*
X65913333Y-83573904D01*
X65865714Y-83383428D01*
X65865714Y-83145333D01*
X65913333Y-82954857D01*
X65960952Y-82859619D01*
X66008571Y-82812000D01*
X66103809Y-82764380D01*
X67294285Y-83097714D02*
X67294285Y-83764380D01*
X67056190Y-82716761D02*
X66818095Y-83431047D01*
X67437142Y-83431047D01*
X68341904Y-82812000D02*
X68246666Y-82764380D01*
X68103809Y-82764380D01*
X67960952Y-82812000D01*
X67865714Y-82907238D01*
X67818095Y-83002476D01*
X67770476Y-83192952D01*
X67770476Y-83335809D01*
X67818095Y-83526285D01*
X67865714Y-83621523D01*
X67960952Y-83716761D01*
X68103809Y-83764380D01*
X68199047Y-83764380D01*
X68341904Y-83716761D01*
X68389523Y-83669142D01*
X68389523Y-83335809D01*
X68199047Y-83335809D01*
X68818095Y-83764380D02*
X68818095Y-82764380D01*
X69199047Y-82764380D01*
X69294285Y-82812000D01*
X69341904Y-82859619D01*
X69389523Y-82954857D01*
X69389523Y-83097714D01*
X69341904Y-83192952D01*
X69294285Y-83240571D01*
X69199047Y-83288190D01*
X68818095Y-83288190D01*
X70341904Y-83764380D02*
X69770476Y-83764380D01*
X70056190Y-83764380D02*
X70056190Y-82764380D01*
X69960952Y-82907238D01*
X69865714Y-83002476D01*
X69770476Y-83050095D01*
X70960952Y-82764380D02*
X71056190Y-82764380D01*
X71151428Y-82812000D01*
X71199047Y-82859619D01*
X71246666Y-82954857D01*
X71294285Y-83145333D01*
X71294285Y-83383428D01*
X71246666Y-83573904D01*
X71199047Y-83669142D01*
X71151428Y-83716761D01*
X71056190Y-83764380D01*
X70960952Y-83764380D01*
X70865714Y-83716761D01*
X70818095Y-83669142D01*
X70770476Y-83573904D01*
X70722857Y-83383428D01*
X70722857Y-83145333D01*
X70770476Y-82954857D01*
X70818095Y-82859619D01*
X70865714Y-82812000D01*
X70960952Y-82764380D01*
X66103809Y-85304380D02*
X66199047Y-85304380D01*
X66294285Y-85352000D01*
X66341904Y-85399619D01*
X66389523Y-85494857D01*
X66437142Y-85685333D01*
X66437142Y-85923428D01*
X66389523Y-86113904D01*
X66341904Y-86209142D01*
X66294285Y-86256761D01*
X66199047Y-86304380D01*
X66103809Y-86304380D01*
X66008571Y-86256761D01*
X65960952Y-86209142D01*
X65913333Y-86113904D01*
X65865714Y-85923428D01*
X65865714Y-85685333D01*
X65913333Y-85494857D01*
X65960952Y-85399619D01*
X66008571Y-85352000D01*
X66103809Y-85304380D01*
X67341904Y-85304380D02*
X66865714Y-85304380D01*
X66818095Y-85780571D01*
X66865714Y-85732952D01*
X66960952Y-85685333D01*
X67199047Y-85685333D01*
X67294285Y-85732952D01*
X67341904Y-85780571D01*
X67389523Y-85875809D01*
X67389523Y-86113904D01*
X67341904Y-86209142D01*
X67294285Y-86256761D01*
X67199047Y-86304380D01*
X66960952Y-86304380D01*
X66865714Y-86256761D01*
X66818095Y-86209142D01*
X68341904Y-85352000D02*
X68246666Y-85304380D01*
X68103809Y-85304380D01*
X67960952Y-85352000D01*
X67865714Y-85447238D01*
X67818095Y-85542476D01*
X67770476Y-85732952D01*
X67770476Y-85875809D01*
X67818095Y-86066285D01*
X67865714Y-86161523D01*
X67960952Y-86256761D01*
X68103809Y-86304380D01*
X68199047Y-86304380D01*
X68341904Y-86256761D01*
X68389523Y-86209142D01*
X68389523Y-85875809D01*
X68199047Y-85875809D01*
X68818095Y-86304380D02*
X68818095Y-85304380D01*
X69199047Y-85304380D01*
X69294285Y-85352000D01*
X69341904Y-85399619D01*
X69389523Y-85494857D01*
X69389523Y-85637714D01*
X69341904Y-85732952D01*
X69294285Y-85780571D01*
X69199047Y-85828190D01*
X68818095Y-85828190D01*
X70008571Y-85304380D02*
X70103809Y-85304380D01*
X70199047Y-85352000D01*
X70246666Y-85399619D01*
X70294285Y-85494857D01*
X70341904Y-85685333D01*
X70341904Y-85923428D01*
X70294285Y-86113904D01*
X70246666Y-86209142D01*
X70199047Y-86256761D01*
X70103809Y-86304380D01*
X70008571Y-86304380D01*
X69913333Y-86256761D01*
X69865714Y-86209142D01*
X69818095Y-86113904D01*
X69770476Y-85923428D01*
X69770476Y-85685333D01*
X69818095Y-85494857D01*
X69865714Y-85399619D01*
X69913333Y-85352000D01*
X70008571Y-85304380D01*
X70818095Y-86304380D02*
X71008571Y-86304380D01*
X71103809Y-86256761D01*
X71151428Y-86209142D01*
X71246666Y-86066285D01*
X71294285Y-85875809D01*
X71294285Y-85494857D01*
X71246666Y-85399619D01*
X71199047Y-85352000D01*
X71103809Y-85304380D01*
X70913333Y-85304380D01*
X70818095Y-85352000D01*
X70770476Y-85399619D01*
X70722857Y-85494857D01*
X70722857Y-85732952D01*
X70770476Y-85828190D01*
X70818095Y-85875809D01*
X70913333Y-85923428D01*
X71103809Y-85923428D01*
X71199047Y-85875809D01*
X71246666Y-85828190D01*
X71294285Y-85732952D01*
X66103809Y-87844380D02*
X66199047Y-87844380D01*
X66294285Y-87892000D01*
X66341904Y-87939619D01*
X66389523Y-88034857D01*
X66437142Y-88225333D01*
X66437142Y-88463428D01*
X66389523Y-88653904D01*
X66341904Y-88749142D01*
X66294285Y-88796761D01*
X66199047Y-88844380D01*
X66103809Y-88844380D01*
X66008571Y-88796761D01*
X65960952Y-88749142D01*
X65913333Y-88653904D01*
X65865714Y-88463428D01*
X65865714Y-88225333D01*
X65913333Y-88034857D01*
X65960952Y-87939619D01*
X66008571Y-87892000D01*
X66103809Y-87844380D01*
X67294285Y-87844380D02*
X67103809Y-87844380D01*
X67008571Y-87892000D01*
X66960952Y-87939619D01*
X66865714Y-88082476D01*
X66818095Y-88272952D01*
X66818095Y-88653904D01*
X66865714Y-88749142D01*
X66913333Y-88796761D01*
X67008571Y-88844380D01*
X67199047Y-88844380D01*
X67294285Y-88796761D01*
X67341904Y-88749142D01*
X67389523Y-88653904D01*
X67389523Y-88415809D01*
X67341904Y-88320571D01*
X67294285Y-88272952D01*
X67199047Y-88225333D01*
X67008571Y-88225333D01*
X66913333Y-88272952D01*
X66865714Y-88320571D01*
X66818095Y-88415809D01*
X68341904Y-87892000D02*
X68246666Y-87844380D01*
X68103809Y-87844380D01*
X67960952Y-87892000D01*
X67865714Y-87987238D01*
X67818095Y-88082476D01*
X67770476Y-88272952D01*
X67770476Y-88415809D01*
X67818095Y-88606285D01*
X67865714Y-88701523D01*
X67960952Y-88796761D01*
X68103809Y-88844380D01*
X68199047Y-88844380D01*
X68341904Y-88796761D01*
X68389523Y-88749142D01*
X68389523Y-88415809D01*
X68199047Y-88415809D01*
X68818095Y-88844380D02*
X68818095Y-87844380D01*
X69199047Y-87844380D01*
X69294285Y-87892000D01*
X69341904Y-87939619D01*
X69389523Y-88034857D01*
X69389523Y-88177714D01*
X69341904Y-88272952D01*
X69294285Y-88320571D01*
X69199047Y-88368190D01*
X68818095Y-88368190D01*
X70008571Y-87844380D02*
X70103809Y-87844380D01*
X70199047Y-87892000D01*
X70246666Y-87939619D01*
X70294285Y-88034857D01*
X70341904Y-88225333D01*
X70341904Y-88463428D01*
X70294285Y-88653904D01*
X70246666Y-88749142D01*
X70199047Y-88796761D01*
X70103809Y-88844380D01*
X70008571Y-88844380D01*
X69913333Y-88796761D01*
X69865714Y-88749142D01*
X69818095Y-88653904D01*
X69770476Y-88463428D01*
X69770476Y-88225333D01*
X69818095Y-88034857D01*
X69865714Y-87939619D01*
X69913333Y-87892000D01*
X70008571Y-87844380D01*
X70913333Y-88272952D02*
X70818095Y-88225333D01*
X70770476Y-88177714D01*
X70722857Y-88082476D01*
X70722857Y-88034857D01*
X70770476Y-87939619D01*
X70818095Y-87892000D01*
X70913333Y-87844380D01*
X71103809Y-87844380D01*
X71199047Y-87892000D01*
X71246666Y-87939619D01*
X71294285Y-88034857D01*
X71294285Y-88082476D01*
X71246666Y-88177714D01*
X71199047Y-88225333D01*
X71103809Y-88272952D01*
X70913333Y-88272952D01*
X70818095Y-88320571D01*
X70770476Y-88368190D01*
X70722857Y-88463428D01*
X70722857Y-88653904D01*
X70770476Y-88749142D01*
X70818095Y-88796761D01*
X70913333Y-88844380D01*
X71103809Y-88844380D01*
X71199047Y-88796761D01*
X71246666Y-88749142D01*
X71294285Y-88653904D01*
X71294285Y-88463428D01*
X71246666Y-88368190D01*
X71199047Y-88320571D01*
X71103809Y-88272952D01*
X66103809Y-90384380D02*
X66199047Y-90384380D01*
X66294285Y-90432000D01*
X66341904Y-90479619D01*
X66389523Y-90574857D01*
X66437142Y-90765333D01*
X66437142Y-91003428D01*
X66389523Y-91193904D01*
X66341904Y-91289142D01*
X66294285Y-91336761D01*
X66199047Y-91384380D01*
X66103809Y-91384380D01*
X66008571Y-91336761D01*
X65960952Y-91289142D01*
X65913333Y-91193904D01*
X65865714Y-91003428D01*
X65865714Y-90765333D01*
X65913333Y-90574857D01*
X65960952Y-90479619D01*
X66008571Y-90432000D01*
X66103809Y-90384380D01*
X66770476Y-90384380D02*
X67437142Y-90384380D01*
X67008571Y-91384380D01*
X68341904Y-90432000D02*
X68246666Y-90384380D01*
X68103809Y-90384380D01*
X67960952Y-90432000D01*
X67865714Y-90527238D01*
X67818095Y-90622476D01*
X67770476Y-90812952D01*
X67770476Y-90955809D01*
X67818095Y-91146285D01*
X67865714Y-91241523D01*
X67960952Y-91336761D01*
X68103809Y-91384380D01*
X68199047Y-91384380D01*
X68341904Y-91336761D01*
X68389523Y-91289142D01*
X68389523Y-90955809D01*
X68199047Y-90955809D01*
X68818095Y-91384380D02*
X68818095Y-90384380D01*
X69199047Y-90384380D01*
X69294285Y-90432000D01*
X69341904Y-90479619D01*
X69389523Y-90574857D01*
X69389523Y-90717714D01*
X69341904Y-90812952D01*
X69294285Y-90860571D01*
X69199047Y-90908190D01*
X68818095Y-90908190D01*
X70008571Y-90384380D02*
X70103809Y-90384380D01*
X70199047Y-90432000D01*
X70246666Y-90479619D01*
X70294285Y-90574857D01*
X70341904Y-90765333D01*
X70341904Y-91003428D01*
X70294285Y-91193904D01*
X70246666Y-91289142D01*
X70199047Y-91336761D01*
X70103809Y-91384380D01*
X70008571Y-91384380D01*
X69913333Y-91336761D01*
X69865714Y-91289142D01*
X69818095Y-91193904D01*
X69770476Y-91003428D01*
X69770476Y-90765333D01*
X69818095Y-90574857D01*
X69865714Y-90479619D01*
X69913333Y-90432000D01*
X70008571Y-90384380D01*
X70675238Y-90384380D02*
X71341904Y-90384380D01*
X70913333Y-91384380D01*
X66373523Y-92972000D02*
X66278285Y-92924380D01*
X66135428Y-92924380D01*
X65992571Y-92972000D01*
X65897333Y-93067238D01*
X65849714Y-93162476D01*
X65802095Y-93352952D01*
X65802095Y-93495809D01*
X65849714Y-93686285D01*
X65897333Y-93781523D01*
X65992571Y-93876761D01*
X66135428Y-93924380D01*
X66230666Y-93924380D01*
X66373523Y-93876761D01*
X66421142Y-93829142D01*
X66421142Y-93495809D01*
X66230666Y-93495809D01*
X66849714Y-93924380D02*
X66849714Y-92924380D01*
X67230666Y-92924380D01*
X67325904Y-92972000D01*
X67373523Y-93019619D01*
X67421142Y-93114857D01*
X67421142Y-93257714D01*
X67373523Y-93352952D01*
X67325904Y-93400571D01*
X67230666Y-93448190D01*
X66849714Y-93448190D01*
X68040190Y-92924380D02*
X68135428Y-92924380D01*
X68230666Y-92972000D01*
X68278285Y-93019619D01*
X68325904Y-93114857D01*
X68373523Y-93305333D01*
X68373523Y-93543428D01*
X68325904Y-93733904D01*
X68278285Y-93829142D01*
X68230666Y-93876761D01*
X68135428Y-93924380D01*
X68040190Y-93924380D01*
X67944952Y-93876761D01*
X67897333Y-93829142D01*
X67849714Y-93733904D01*
X67802095Y-93543428D01*
X67802095Y-93305333D01*
X67849714Y-93114857D01*
X67897333Y-93019619D01*
X67944952Y-92972000D01*
X68040190Y-92924380D01*
X68706857Y-92924380D02*
X69325904Y-92924380D01*
X68992571Y-93305333D01*
X69135428Y-93305333D01*
X69230666Y-93352952D01*
X69278285Y-93400571D01*
X69325904Y-93495809D01*
X69325904Y-93733904D01*
X69278285Y-93829142D01*
X69230666Y-93876761D01*
X69135428Y-93924380D01*
X68849714Y-93924380D01*
X68754476Y-93876761D01*
X68706857Y-93829142D01*
X66373523Y-95512000D02*
X66278285Y-95464380D01*
X66135428Y-95464380D01*
X65992571Y-95512000D01*
X65897333Y-95607238D01*
X65849714Y-95702476D01*
X65802095Y-95892952D01*
X65802095Y-96035809D01*
X65849714Y-96226285D01*
X65897333Y-96321523D01*
X65992571Y-96416761D01*
X66135428Y-96464380D01*
X66230666Y-96464380D01*
X66373523Y-96416761D01*
X66421142Y-96369142D01*
X66421142Y-96035809D01*
X66230666Y-96035809D01*
X66849714Y-96464380D02*
X66849714Y-95464380D01*
X67230666Y-95464380D01*
X67325904Y-95512000D01*
X67373523Y-95559619D01*
X67421142Y-95654857D01*
X67421142Y-95797714D01*
X67373523Y-95892952D01*
X67325904Y-95940571D01*
X67230666Y-95988190D01*
X66849714Y-95988190D01*
X68040190Y-95464380D02*
X68135428Y-95464380D01*
X68230666Y-95512000D01*
X68278285Y-95559619D01*
X68325904Y-95654857D01*
X68373523Y-95845333D01*
X68373523Y-96083428D01*
X68325904Y-96273904D01*
X68278285Y-96369142D01*
X68230666Y-96416761D01*
X68135428Y-96464380D01*
X68040190Y-96464380D01*
X67944952Y-96416761D01*
X67897333Y-96369142D01*
X67849714Y-96273904D01*
X67802095Y-96083428D01*
X67802095Y-95845333D01*
X67849714Y-95654857D01*
X67897333Y-95559619D01*
X67944952Y-95512000D01*
X68040190Y-95464380D01*
X68754476Y-95559619D02*
X68802095Y-95512000D01*
X68897333Y-95464380D01*
X69135428Y-95464380D01*
X69230666Y-95512000D01*
X69278285Y-95559619D01*
X69325904Y-95654857D01*
X69325904Y-95750095D01*
X69278285Y-95892952D01*
X68706857Y-96464380D01*
X69325904Y-96464380D01*
X37925523Y-95512000D02*
X37830285Y-95464380D01*
X37687428Y-95464380D01*
X37544571Y-95512000D01*
X37449333Y-95607238D01*
X37401714Y-95702476D01*
X37354095Y-95892952D01*
X37354095Y-96035809D01*
X37401714Y-96226285D01*
X37449333Y-96321523D01*
X37544571Y-96416761D01*
X37687428Y-96464380D01*
X37782666Y-96464380D01*
X37925523Y-96416761D01*
X37973142Y-96369142D01*
X37973142Y-96035809D01*
X37782666Y-96035809D01*
X38401714Y-96464380D02*
X38401714Y-95464380D01*
X38782666Y-95464380D01*
X38877904Y-95512000D01*
X38925523Y-95559619D01*
X38973142Y-95654857D01*
X38973142Y-95797714D01*
X38925523Y-95892952D01*
X38877904Y-95940571D01*
X38782666Y-95988190D01*
X38401714Y-95988190D01*
X39592190Y-95464380D02*
X39687428Y-95464380D01*
X39782666Y-95512000D01*
X39830285Y-95559619D01*
X39877904Y-95654857D01*
X39925523Y-95845333D01*
X39925523Y-96083428D01*
X39877904Y-96273904D01*
X39830285Y-96369142D01*
X39782666Y-96416761D01*
X39687428Y-96464380D01*
X39592190Y-96464380D01*
X39496952Y-96416761D01*
X39449333Y-96369142D01*
X39401714Y-96273904D01*
X39354095Y-96083428D01*
X39354095Y-95845333D01*
X39401714Y-95654857D01*
X39449333Y-95559619D01*
X39496952Y-95512000D01*
X39592190Y-95464380D01*
X40782666Y-95464380D02*
X40592190Y-95464380D01*
X40496952Y-95512000D01*
X40449333Y-95559619D01*
X40354095Y-95702476D01*
X40306476Y-95892952D01*
X40306476Y-96273904D01*
X40354095Y-96369142D01*
X40401714Y-96416761D01*
X40496952Y-96464380D01*
X40687428Y-96464380D01*
X40782666Y-96416761D01*
X40830285Y-96369142D01*
X40877904Y-96273904D01*
X40877904Y-96035809D01*
X40830285Y-95940571D01*
X40782666Y-95892952D01*
X40687428Y-95845333D01*
X40496952Y-95845333D01*
X40401714Y-95892952D01*
X40354095Y-95940571D01*
X40306476Y-96035809D01*
X37925523Y-92972000D02*
X37830285Y-92924380D01*
X37687428Y-92924380D01*
X37544571Y-92972000D01*
X37449333Y-93067238D01*
X37401714Y-93162476D01*
X37354095Y-93352952D01*
X37354095Y-93495809D01*
X37401714Y-93686285D01*
X37449333Y-93781523D01*
X37544571Y-93876761D01*
X37687428Y-93924380D01*
X37782666Y-93924380D01*
X37925523Y-93876761D01*
X37973142Y-93829142D01*
X37973142Y-93495809D01*
X37782666Y-93495809D01*
X38401714Y-93924380D02*
X38401714Y-92924380D01*
X38782666Y-92924380D01*
X38877904Y-92972000D01*
X38925523Y-93019619D01*
X38973142Y-93114857D01*
X38973142Y-93257714D01*
X38925523Y-93352952D01*
X38877904Y-93400571D01*
X38782666Y-93448190D01*
X38401714Y-93448190D01*
X39592190Y-92924380D02*
X39687428Y-92924380D01*
X39782666Y-92972000D01*
X39830285Y-93019619D01*
X39877904Y-93114857D01*
X39925523Y-93305333D01*
X39925523Y-93543428D01*
X39877904Y-93733904D01*
X39830285Y-93829142D01*
X39782666Y-93876761D01*
X39687428Y-93924380D01*
X39592190Y-93924380D01*
X39496952Y-93876761D01*
X39449333Y-93829142D01*
X39401714Y-93733904D01*
X39354095Y-93543428D01*
X39354095Y-93305333D01*
X39401714Y-93114857D01*
X39449333Y-93019619D01*
X39496952Y-92972000D01*
X39592190Y-92924380D01*
X40544571Y-92924380D02*
X40639809Y-92924380D01*
X40735047Y-92972000D01*
X40782666Y-93019619D01*
X40830285Y-93114857D01*
X40877904Y-93305333D01*
X40877904Y-93543428D01*
X40830285Y-93733904D01*
X40782666Y-93829142D01*
X40735047Y-93876761D01*
X40639809Y-93924380D01*
X40544571Y-93924380D01*
X40449333Y-93876761D01*
X40401714Y-93829142D01*
X40354095Y-93733904D01*
X40306476Y-93543428D01*
X40306476Y-93305333D01*
X40354095Y-93114857D01*
X40401714Y-93019619D01*
X40449333Y-92972000D01*
X40544571Y-92924380D01*
X37925523Y-90432000D02*
X37830285Y-90384380D01*
X37687428Y-90384380D01*
X37544571Y-90432000D01*
X37449333Y-90527238D01*
X37401714Y-90622476D01*
X37354095Y-90812952D01*
X37354095Y-90955809D01*
X37401714Y-91146285D01*
X37449333Y-91241523D01*
X37544571Y-91336761D01*
X37687428Y-91384380D01*
X37782666Y-91384380D01*
X37925523Y-91336761D01*
X37973142Y-91289142D01*
X37973142Y-90955809D01*
X37782666Y-90955809D01*
X38401714Y-91384380D02*
X38401714Y-90384380D01*
X38782666Y-90384380D01*
X38877904Y-90432000D01*
X38925523Y-90479619D01*
X38973142Y-90574857D01*
X38973142Y-90717714D01*
X38925523Y-90812952D01*
X38877904Y-90860571D01*
X38782666Y-90908190D01*
X38401714Y-90908190D01*
X39592190Y-90384380D02*
X39687428Y-90384380D01*
X39782666Y-90432000D01*
X39830285Y-90479619D01*
X39877904Y-90574857D01*
X39925523Y-90765333D01*
X39925523Y-91003428D01*
X39877904Y-91193904D01*
X39830285Y-91289142D01*
X39782666Y-91336761D01*
X39687428Y-91384380D01*
X39592190Y-91384380D01*
X39496952Y-91336761D01*
X39449333Y-91289142D01*
X39401714Y-91193904D01*
X39354095Y-91003428D01*
X39354095Y-90765333D01*
X39401714Y-90574857D01*
X39449333Y-90479619D01*
X39496952Y-90432000D01*
X39592190Y-90384380D01*
X40877904Y-91384380D02*
X40306476Y-91384380D01*
X40592190Y-91384380D02*
X40592190Y-90384380D01*
X40496952Y-90527238D01*
X40401714Y-90622476D01*
X40306476Y-90670095D01*
X35623809Y-87844380D02*
X35719047Y-87844380D01*
X35814285Y-87892000D01*
X35861904Y-87939619D01*
X35909523Y-88034857D01*
X35957142Y-88225333D01*
X35957142Y-88463428D01*
X35909523Y-88653904D01*
X35861904Y-88749142D01*
X35814285Y-88796761D01*
X35719047Y-88844380D01*
X35623809Y-88844380D01*
X35528571Y-88796761D01*
X35480952Y-88749142D01*
X35433333Y-88653904D01*
X35385714Y-88463428D01*
X35385714Y-88225333D01*
X35433333Y-88034857D01*
X35480952Y-87939619D01*
X35528571Y-87892000D01*
X35623809Y-87844380D01*
X36528571Y-88272952D02*
X36433333Y-88225333D01*
X36385714Y-88177714D01*
X36338095Y-88082476D01*
X36338095Y-88034857D01*
X36385714Y-87939619D01*
X36433333Y-87892000D01*
X36528571Y-87844380D01*
X36719047Y-87844380D01*
X36814285Y-87892000D01*
X36861904Y-87939619D01*
X36909523Y-88034857D01*
X36909523Y-88082476D01*
X36861904Y-88177714D01*
X36814285Y-88225333D01*
X36719047Y-88272952D01*
X36528571Y-88272952D01*
X36433333Y-88320571D01*
X36385714Y-88368190D01*
X36338095Y-88463428D01*
X36338095Y-88653904D01*
X36385714Y-88749142D01*
X36433333Y-88796761D01*
X36528571Y-88844380D01*
X36719047Y-88844380D01*
X36814285Y-88796761D01*
X36861904Y-88749142D01*
X36909523Y-88653904D01*
X36909523Y-88463428D01*
X36861904Y-88368190D01*
X36814285Y-88320571D01*
X36719047Y-88272952D01*
X37861904Y-87892000D02*
X37766666Y-87844380D01*
X37623809Y-87844380D01*
X37480952Y-87892000D01*
X37385714Y-87987238D01*
X37338095Y-88082476D01*
X37290476Y-88272952D01*
X37290476Y-88415809D01*
X37338095Y-88606285D01*
X37385714Y-88701523D01*
X37480952Y-88796761D01*
X37623809Y-88844380D01*
X37719047Y-88844380D01*
X37861904Y-88796761D01*
X37909523Y-88749142D01*
X37909523Y-88415809D01*
X37719047Y-88415809D01*
X38338095Y-88844380D02*
X38338095Y-87844380D01*
X38719047Y-87844380D01*
X38814285Y-87892000D01*
X38861904Y-87939619D01*
X38909523Y-88034857D01*
X38909523Y-88177714D01*
X38861904Y-88272952D01*
X38814285Y-88320571D01*
X38719047Y-88368190D01*
X38338095Y-88368190D01*
X39290476Y-87939619D02*
X39338095Y-87892000D01*
X39433333Y-87844380D01*
X39671428Y-87844380D01*
X39766666Y-87892000D01*
X39814285Y-87939619D01*
X39861904Y-88034857D01*
X39861904Y-88130095D01*
X39814285Y-88272952D01*
X39242857Y-88844380D01*
X39861904Y-88844380D01*
X40480952Y-87844380D02*
X40576190Y-87844380D01*
X40671428Y-87892000D01*
X40719047Y-87939619D01*
X40766666Y-88034857D01*
X40814285Y-88225333D01*
X40814285Y-88463428D01*
X40766666Y-88653904D01*
X40719047Y-88749142D01*
X40671428Y-88796761D01*
X40576190Y-88844380D01*
X40480952Y-88844380D01*
X40385714Y-88796761D01*
X40338095Y-88749142D01*
X40290476Y-88653904D01*
X40242857Y-88463428D01*
X40242857Y-88225333D01*
X40290476Y-88034857D01*
X40338095Y-87939619D01*
X40385714Y-87892000D01*
X40480952Y-87844380D01*
X35957142Y-86304380D02*
X35385714Y-86304380D01*
X35671428Y-86304380D02*
X35671428Y-85304380D01*
X35576190Y-85447238D01*
X35480952Y-85542476D01*
X35385714Y-85590095D01*
X36814285Y-85304380D02*
X36623809Y-85304380D01*
X36528571Y-85352000D01*
X36480952Y-85399619D01*
X36385714Y-85542476D01*
X36338095Y-85732952D01*
X36338095Y-86113904D01*
X36385714Y-86209142D01*
X36433333Y-86256761D01*
X36528571Y-86304380D01*
X36719047Y-86304380D01*
X36814285Y-86256761D01*
X36861904Y-86209142D01*
X36909523Y-86113904D01*
X36909523Y-85875809D01*
X36861904Y-85780571D01*
X36814285Y-85732952D01*
X36719047Y-85685333D01*
X36528571Y-85685333D01*
X36433333Y-85732952D01*
X36385714Y-85780571D01*
X36338095Y-85875809D01*
X37861904Y-85352000D02*
X37766666Y-85304380D01*
X37623809Y-85304380D01*
X37480952Y-85352000D01*
X37385714Y-85447238D01*
X37338095Y-85542476D01*
X37290476Y-85732952D01*
X37290476Y-85875809D01*
X37338095Y-86066285D01*
X37385714Y-86161523D01*
X37480952Y-86256761D01*
X37623809Y-86304380D01*
X37719047Y-86304380D01*
X37861904Y-86256761D01*
X37909523Y-86209142D01*
X37909523Y-85875809D01*
X37719047Y-85875809D01*
X38338095Y-86304380D02*
X38338095Y-85304380D01*
X38719047Y-85304380D01*
X38814285Y-85352000D01*
X38861904Y-85399619D01*
X38909523Y-85494857D01*
X38909523Y-85637714D01*
X38861904Y-85732952D01*
X38814285Y-85780571D01*
X38719047Y-85828190D01*
X38338095Y-85828190D01*
X39290476Y-85399619D02*
X39338095Y-85352000D01*
X39433333Y-85304380D01*
X39671428Y-85304380D01*
X39766666Y-85352000D01*
X39814285Y-85399619D01*
X39861904Y-85494857D01*
X39861904Y-85590095D01*
X39814285Y-85732952D01*
X39242857Y-86304380D01*
X39861904Y-86304380D01*
X40338095Y-86304380D02*
X40528571Y-86304380D01*
X40623809Y-86256761D01*
X40671428Y-86209142D01*
X40766666Y-86066285D01*
X40814285Y-85875809D01*
X40814285Y-85494857D01*
X40766666Y-85399619D01*
X40719047Y-85352000D01*
X40623809Y-85304380D01*
X40433333Y-85304380D01*
X40338095Y-85352000D01*
X40290476Y-85399619D01*
X40242857Y-85494857D01*
X40242857Y-85732952D01*
X40290476Y-85828190D01*
X40338095Y-85875809D01*
X40433333Y-85923428D01*
X40623809Y-85923428D01*
X40719047Y-85875809D01*
X40766666Y-85828190D01*
X40814285Y-85732952D01*
X35957142Y-83764380D02*
X35385714Y-83764380D01*
X35671428Y-83764380D02*
X35671428Y-82764380D01*
X35576190Y-82907238D01*
X35480952Y-83002476D01*
X35385714Y-83050095D01*
X36861904Y-82764380D02*
X36385714Y-82764380D01*
X36338095Y-83240571D01*
X36385714Y-83192952D01*
X36480952Y-83145333D01*
X36719047Y-83145333D01*
X36814285Y-83192952D01*
X36861904Y-83240571D01*
X36909523Y-83335809D01*
X36909523Y-83573904D01*
X36861904Y-83669142D01*
X36814285Y-83716761D01*
X36719047Y-83764380D01*
X36480952Y-83764380D01*
X36385714Y-83716761D01*
X36338095Y-83669142D01*
X37861904Y-82812000D02*
X37766666Y-82764380D01*
X37623809Y-82764380D01*
X37480952Y-82812000D01*
X37385714Y-82907238D01*
X37338095Y-83002476D01*
X37290476Y-83192952D01*
X37290476Y-83335809D01*
X37338095Y-83526285D01*
X37385714Y-83621523D01*
X37480952Y-83716761D01*
X37623809Y-83764380D01*
X37719047Y-83764380D01*
X37861904Y-83716761D01*
X37909523Y-83669142D01*
X37909523Y-83335809D01*
X37719047Y-83335809D01*
X38338095Y-83764380D02*
X38338095Y-82764380D01*
X38719047Y-82764380D01*
X38814285Y-82812000D01*
X38861904Y-82859619D01*
X38909523Y-82954857D01*
X38909523Y-83097714D01*
X38861904Y-83192952D01*
X38814285Y-83240571D01*
X38719047Y-83288190D01*
X38338095Y-83288190D01*
X39861904Y-83764380D02*
X39290476Y-83764380D01*
X39576190Y-83764380D02*
X39576190Y-82764380D01*
X39480952Y-82907238D01*
X39385714Y-83002476D01*
X39290476Y-83050095D01*
X40433333Y-83192952D02*
X40338095Y-83145333D01*
X40290476Y-83097714D01*
X40242857Y-83002476D01*
X40242857Y-82954857D01*
X40290476Y-82859619D01*
X40338095Y-82812000D01*
X40433333Y-82764380D01*
X40623809Y-82764380D01*
X40719047Y-82812000D01*
X40766666Y-82859619D01*
X40814285Y-82954857D01*
X40814285Y-83002476D01*
X40766666Y-83097714D01*
X40719047Y-83145333D01*
X40623809Y-83192952D01*
X40433333Y-83192952D01*
X40338095Y-83240571D01*
X40290476Y-83288190D01*
X40242857Y-83383428D01*
X40242857Y-83573904D01*
X40290476Y-83669142D01*
X40338095Y-83716761D01*
X40433333Y-83764380D01*
X40623809Y-83764380D01*
X40719047Y-83716761D01*
X40766666Y-83669142D01*
X40814285Y-83573904D01*
X40814285Y-83383428D01*
X40766666Y-83288190D01*
X40719047Y-83240571D01*
X40623809Y-83192952D01*
X35957142Y-81224380D02*
X35385714Y-81224380D01*
X35671428Y-81224380D02*
X35671428Y-80224380D01*
X35576190Y-80367238D01*
X35480952Y-80462476D01*
X35385714Y-80510095D01*
X36814285Y-80557714D02*
X36814285Y-81224380D01*
X36576190Y-80176761D02*
X36338095Y-80891047D01*
X36957142Y-80891047D01*
X37861904Y-80272000D02*
X37766666Y-80224380D01*
X37623809Y-80224380D01*
X37480952Y-80272000D01*
X37385714Y-80367238D01*
X37338095Y-80462476D01*
X37290476Y-80652952D01*
X37290476Y-80795809D01*
X37338095Y-80986285D01*
X37385714Y-81081523D01*
X37480952Y-81176761D01*
X37623809Y-81224380D01*
X37719047Y-81224380D01*
X37861904Y-81176761D01*
X37909523Y-81129142D01*
X37909523Y-80795809D01*
X37719047Y-80795809D01*
X38338095Y-81224380D02*
X38338095Y-80224380D01*
X38719047Y-80224380D01*
X38814285Y-80272000D01*
X38861904Y-80319619D01*
X38909523Y-80414857D01*
X38909523Y-80557714D01*
X38861904Y-80652952D01*
X38814285Y-80700571D01*
X38719047Y-80748190D01*
X38338095Y-80748190D01*
X39290476Y-80319619D02*
X39338095Y-80272000D01*
X39433333Y-80224380D01*
X39671428Y-80224380D01*
X39766666Y-80272000D01*
X39814285Y-80319619D01*
X39861904Y-80414857D01*
X39861904Y-80510095D01*
X39814285Y-80652952D01*
X39242857Y-81224380D01*
X39861904Y-81224380D01*
X40766666Y-80224380D02*
X40290476Y-80224380D01*
X40242857Y-80700571D01*
X40290476Y-80652952D01*
X40385714Y-80605333D01*
X40623809Y-80605333D01*
X40719047Y-80652952D01*
X40766666Y-80700571D01*
X40814285Y-80795809D01*
X40814285Y-81033904D01*
X40766666Y-81129142D01*
X40719047Y-81176761D01*
X40623809Y-81224380D01*
X40385714Y-81224380D01*
X40290476Y-81176761D01*
X40242857Y-81129142D01*
X35957142Y-78684380D02*
X35385714Y-78684380D01*
X35671428Y-78684380D02*
X35671428Y-77684380D01*
X35576190Y-77827238D01*
X35480952Y-77922476D01*
X35385714Y-77970095D01*
X36290476Y-77684380D02*
X36909523Y-77684380D01*
X36576190Y-78065333D01*
X36719047Y-78065333D01*
X36814285Y-78112952D01*
X36861904Y-78160571D01*
X36909523Y-78255809D01*
X36909523Y-78493904D01*
X36861904Y-78589142D01*
X36814285Y-78636761D01*
X36719047Y-78684380D01*
X36433333Y-78684380D01*
X36338095Y-78636761D01*
X36290476Y-78589142D01*
X37861904Y-77732000D02*
X37766666Y-77684380D01*
X37623809Y-77684380D01*
X37480952Y-77732000D01*
X37385714Y-77827238D01*
X37338095Y-77922476D01*
X37290476Y-78112952D01*
X37290476Y-78255809D01*
X37338095Y-78446285D01*
X37385714Y-78541523D01*
X37480952Y-78636761D01*
X37623809Y-78684380D01*
X37719047Y-78684380D01*
X37861904Y-78636761D01*
X37909523Y-78589142D01*
X37909523Y-78255809D01*
X37719047Y-78255809D01*
X38338095Y-78684380D02*
X38338095Y-77684380D01*
X38719047Y-77684380D01*
X38814285Y-77732000D01*
X38861904Y-77779619D01*
X38909523Y-77874857D01*
X38909523Y-78017714D01*
X38861904Y-78112952D01*
X38814285Y-78160571D01*
X38719047Y-78208190D01*
X38338095Y-78208190D01*
X39290476Y-77779619D02*
X39338095Y-77732000D01*
X39433333Y-77684380D01*
X39671428Y-77684380D01*
X39766666Y-77732000D01*
X39814285Y-77779619D01*
X39861904Y-77874857D01*
X39861904Y-77970095D01*
X39814285Y-78112952D01*
X39242857Y-78684380D01*
X39861904Y-78684380D01*
X40719047Y-78017714D02*
X40719047Y-78684380D01*
X40480952Y-77636761D02*
X40242857Y-78351047D01*
X40861904Y-78351047D01*
X35957142Y-76144380D02*
X35385714Y-76144380D01*
X35671428Y-76144380D02*
X35671428Y-75144380D01*
X35576190Y-75287238D01*
X35480952Y-75382476D01*
X35385714Y-75430095D01*
X36338095Y-75239619D02*
X36385714Y-75192000D01*
X36480952Y-75144380D01*
X36719047Y-75144380D01*
X36814285Y-75192000D01*
X36861904Y-75239619D01*
X36909523Y-75334857D01*
X36909523Y-75430095D01*
X36861904Y-75572952D01*
X36290476Y-76144380D01*
X36909523Y-76144380D01*
X37861904Y-75192000D02*
X37766666Y-75144380D01*
X37623809Y-75144380D01*
X37480952Y-75192000D01*
X37385714Y-75287238D01*
X37338095Y-75382476D01*
X37290476Y-75572952D01*
X37290476Y-75715809D01*
X37338095Y-75906285D01*
X37385714Y-76001523D01*
X37480952Y-76096761D01*
X37623809Y-76144380D01*
X37719047Y-76144380D01*
X37861904Y-76096761D01*
X37909523Y-76049142D01*
X37909523Y-75715809D01*
X37719047Y-75715809D01*
X38338095Y-76144380D02*
X38338095Y-75144380D01*
X38719047Y-75144380D01*
X38814285Y-75192000D01*
X38861904Y-75239619D01*
X38909523Y-75334857D01*
X38909523Y-75477714D01*
X38861904Y-75572952D01*
X38814285Y-75620571D01*
X38719047Y-75668190D01*
X38338095Y-75668190D01*
X39290476Y-75239619D02*
X39338095Y-75192000D01*
X39433333Y-75144380D01*
X39671428Y-75144380D01*
X39766666Y-75192000D01*
X39814285Y-75239619D01*
X39861904Y-75334857D01*
X39861904Y-75430095D01*
X39814285Y-75572952D01*
X39242857Y-76144380D01*
X39861904Y-76144380D01*
X40338095Y-76144380D02*
X40528571Y-76144380D01*
X40623809Y-76096761D01*
X40671428Y-76049142D01*
X40766666Y-75906285D01*
X40814285Y-75715809D01*
X40814285Y-75334857D01*
X40766666Y-75239619D01*
X40719047Y-75192000D01*
X40623809Y-75144380D01*
X40433333Y-75144380D01*
X40338095Y-75192000D01*
X40290476Y-75239619D01*
X40242857Y-75334857D01*
X40242857Y-75572952D01*
X40290476Y-75668190D01*
X40338095Y-75715809D01*
X40433333Y-75763428D01*
X40623809Y-75763428D01*
X40719047Y-75715809D01*
X40766666Y-75668190D01*
X40814285Y-75572952D01*
X35957142Y-73604380D02*
X35385714Y-73604380D01*
X35671428Y-73604380D02*
X35671428Y-72604380D01*
X35576190Y-72747238D01*
X35480952Y-72842476D01*
X35385714Y-72890095D01*
X36909523Y-73604380D02*
X36338095Y-73604380D01*
X36623809Y-73604380D02*
X36623809Y-72604380D01*
X36528571Y-72747238D01*
X36433333Y-72842476D01*
X36338095Y-72890095D01*
X37861904Y-72652000D02*
X37766666Y-72604380D01*
X37623809Y-72604380D01*
X37480952Y-72652000D01*
X37385714Y-72747238D01*
X37338095Y-72842476D01*
X37290476Y-73032952D01*
X37290476Y-73175809D01*
X37338095Y-73366285D01*
X37385714Y-73461523D01*
X37480952Y-73556761D01*
X37623809Y-73604380D01*
X37719047Y-73604380D01*
X37861904Y-73556761D01*
X37909523Y-73509142D01*
X37909523Y-73175809D01*
X37719047Y-73175809D01*
X38338095Y-73604380D02*
X38338095Y-72604380D01*
X38719047Y-72604380D01*
X38814285Y-72652000D01*
X38861904Y-72699619D01*
X38909523Y-72794857D01*
X38909523Y-72937714D01*
X38861904Y-73032952D01*
X38814285Y-73080571D01*
X38719047Y-73128190D01*
X38338095Y-73128190D01*
X39290476Y-72699619D02*
X39338095Y-72652000D01*
X39433333Y-72604380D01*
X39671428Y-72604380D01*
X39766666Y-72652000D01*
X39814285Y-72699619D01*
X39861904Y-72794857D01*
X39861904Y-72890095D01*
X39814285Y-73032952D01*
X39242857Y-73604380D01*
X39861904Y-73604380D01*
X40433333Y-73032952D02*
X40338095Y-72985333D01*
X40290476Y-72937714D01*
X40242857Y-72842476D01*
X40242857Y-72794857D01*
X40290476Y-72699619D01*
X40338095Y-72652000D01*
X40433333Y-72604380D01*
X40623809Y-72604380D01*
X40719047Y-72652000D01*
X40766666Y-72699619D01*
X40814285Y-72794857D01*
X40814285Y-72842476D01*
X40766666Y-72937714D01*
X40719047Y-72985333D01*
X40623809Y-73032952D01*
X40433333Y-73032952D01*
X40338095Y-73080571D01*
X40290476Y-73128190D01*
X40242857Y-73223428D01*
X40242857Y-73413904D01*
X40290476Y-73509142D01*
X40338095Y-73556761D01*
X40433333Y-73604380D01*
X40623809Y-73604380D01*
X40719047Y-73556761D01*
X40766666Y-73509142D01*
X40814285Y-73413904D01*
X40814285Y-73223428D01*
X40766666Y-73128190D01*
X40719047Y-73080571D01*
X40623809Y-73032952D01*
X35957142Y-71064380D02*
X35385714Y-71064380D01*
X35671428Y-71064380D02*
X35671428Y-70064380D01*
X35576190Y-70207238D01*
X35480952Y-70302476D01*
X35385714Y-70350095D01*
X36576190Y-70064380D02*
X36671428Y-70064380D01*
X36766666Y-70112000D01*
X36814285Y-70159619D01*
X36861904Y-70254857D01*
X36909523Y-70445333D01*
X36909523Y-70683428D01*
X36861904Y-70873904D01*
X36814285Y-70969142D01*
X36766666Y-71016761D01*
X36671428Y-71064380D01*
X36576190Y-71064380D01*
X36480952Y-71016761D01*
X36433333Y-70969142D01*
X36385714Y-70873904D01*
X36338095Y-70683428D01*
X36338095Y-70445333D01*
X36385714Y-70254857D01*
X36433333Y-70159619D01*
X36480952Y-70112000D01*
X36576190Y-70064380D01*
X37861904Y-70112000D02*
X37766666Y-70064380D01*
X37623809Y-70064380D01*
X37480952Y-70112000D01*
X37385714Y-70207238D01*
X37338095Y-70302476D01*
X37290476Y-70492952D01*
X37290476Y-70635809D01*
X37338095Y-70826285D01*
X37385714Y-70921523D01*
X37480952Y-71016761D01*
X37623809Y-71064380D01*
X37719047Y-71064380D01*
X37861904Y-71016761D01*
X37909523Y-70969142D01*
X37909523Y-70635809D01*
X37719047Y-70635809D01*
X38338095Y-71064380D02*
X38338095Y-70064380D01*
X38719047Y-70064380D01*
X38814285Y-70112000D01*
X38861904Y-70159619D01*
X38909523Y-70254857D01*
X38909523Y-70397714D01*
X38861904Y-70492952D01*
X38814285Y-70540571D01*
X38719047Y-70588190D01*
X38338095Y-70588190D01*
X39290476Y-70159619D02*
X39338095Y-70112000D01*
X39433333Y-70064380D01*
X39671428Y-70064380D01*
X39766666Y-70112000D01*
X39814285Y-70159619D01*
X39861904Y-70254857D01*
X39861904Y-70350095D01*
X39814285Y-70492952D01*
X39242857Y-71064380D01*
X39861904Y-71064380D01*
X40195238Y-70064380D02*
X40861904Y-70064380D01*
X40433333Y-71064380D01*
X35623809Y-67524380D02*
X35719047Y-67524380D01*
X35814285Y-67572000D01*
X35861904Y-67619619D01*
X35909523Y-67714857D01*
X35957142Y-67905333D01*
X35957142Y-68143428D01*
X35909523Y-68333904D01*
X35861904Y-68429142D01*
X35814285Y-68476761D01*
X35719047Y-68524380D01*
X35623809Y-68524380D01*
X35528571Y-68476761D01*
X35480952Y-68429142D01*
X35433333Y-68333904D01*
X35385714Y-68143428D01*
X35385714Y-67905333D01*
X35433333Y-67714857D01*
X35480952Y-67619619D01*
X35528571Y-67572000D01*
X35623809Y-67524380D01*
X36433333Y-68524380D02*
X36623809Y-68524380D01*
X36719047Y-68476761D01*
X36766666Y-68429142D01*
X36861904Y-68286285D01*
X36909523Y-68095809D01*
X36909523Y-67714857D01*
X36861904Y-67619619D01*
X36814285Y-67572000D01*
X36719047Y-67524380D01*
X36528571Y-67524380D01*
X36433333Y-67572000D01*
X36385714Y-67619619D01*
X36338095Y-67714857D01*
X36338095Y-67952952D01*
X36385714Y-68048190D01*
X36433333Y-68095809D01*
X36528571Y-68143428D01*
X36719047Y-68143428D01*
X36814285Y-68095809D01*
X36861904Y-68048190D01*
X36909523Y-67952952D01*
X37861904Y-67572000D02*
X37766666Y-67524380D01*
X37623809Y-67524380D01*
X37480952Y-67572000D01*
X37385714Y-67667238D01*
X37338095Y-67762476D01*
X37290476Y-67952952D01*
X37290476Y-68095809D01*
X37338095Y-68286285D01*
X37385714Y-68381523D01*
X37480952Y-68476761D01*
X37623809Y-68524380D01*
X37719047Y-68524380D01*
X37861904Y-68476761D01*
X37909523Y-68429142D01*
X37909523Y-68095809D01*
X37719047Y-68095809D01*
X38338095Y-68524380D02*
X38338095Y-67524380D01*
X38719047Y-67524380D01*
X38814285Y-67572000D01*
X38861904Y-67619619D01*
X38909523Y-67714857D01*
X38909523Y-67857714D01*
X38861904Y-67952952D01*
X38814285Y-68000571D01*
X38719047Y-68048190D01*
X38338095Y-68048190D01*
X39290476Y-67619619D02*
X39338095Y-67572000D01*
X39433333Y-67524380D01*
X39671428Y-67524380D01*
X39766666Y-67572000D01*
X39814285Y-67619619D01*
X39861904Y-67714857D01*
X39861904Y-67810095D01*
X39814285Y-67952952D01*
X39242857Y-68524380D01*
X39861904Y-68524380D01*
X40719047Y-67524380D02*
X40528571Y-67524380D01*
X40433333Y-67572000D01*
X40385714Y-67619619D01*
X40290476Y-67762476D01*
X40242857Y-67952952D01*
X40242857Y-68333904D01*
X40290476Y-68429142D01*
X40338095Y-68476761D01*
X40433333Y-68524380D01*
X40623809Y-68524380D01*
X40719047Y-68476761D01*
X40766666Y-68429142D01*
X40814285Y-68333904D01*
X40814285Y-68095809D01*
X40766666Y-68000571D01*
X40719047Y-67952952D01*
X40623809Y-67905333D01*
X40433333Y-67905333D01*
X40338095Y-67952952D01*
X40290476Y-68000571D01*
X40242857Y-68095809D01*
X38862095Y-65032000D02*
X38766857Y-64984380D01*
X38624000Y-64984380D01*
X38481142Y-65032000D01*
X38385904Y-65127238D01*
X38338285Y-65222476D01*
X38290666Y-65412952D01*
X38290666Y-65555809D01*
X38338285Y-65746285D01*
X38385904Y-65841523D01*
X38481142Y-65936761D01*
X38624000Y-65984380D01*
X38719238Y-65984380D01*
X38862095Y-65936761D01*
X38909714Y-65889142D01*
X38909714Y-65555809D01*
X38719238Y-65555809D01*
X39338285Y-65984380D02*
X39338285Y-64984380D01*
X39909714Y-65984380D01*
X39909714Y-64984380D01*
X40385904Y-65984380D02*
X40385904Y-64984380D01*
X40624000Y-64984380D01*
X40766857Y-65032000D01*
X40862095Y-65127238D01*
X40909714Y-65222476D01*
X40957333Y-65412952D01*
X40957333Y-65555809D01*
X40909714Y-65746285D01*
X40862095Y-65841523D01*
X40766857Y-65936761D01*
X40624000Y-65984380D01*
X40385904Y-65984380D01*
X45497904Y-59904380D02*
X46116952Y-59904380D01*
X45783619Y-60285333D01*
X45926476Y-60285333D01*
X46021714Y-60332952D01*
X46069333Y-60380571D01*
X46116952Y-60475809D01*
X46116952Y-60713904D01*
X46069333Y-60809142D01*
X46021714Y-60856761D01*
X45926476Y-60904380D01*
X45640761Y-60904380D01*
X45545523Y-60856761D01*
X45497904Y-60809142D01*
X46402666Y-59904380D02*
X46736000Y-60904380D01*
X47069333Y-59904380D01*
X47307428Y-59904380D02*
X47926476Y-59904380D01*
X47593142Y-60285333D01*
X47736000Y-60285333D01*
X47831238Y-60332952D01*
X47878857Y-60380571D01*
X47926476Y-60475809D01*
X47926476Y-60713904D01*
X47878857Y-60809142D01*
X47831238Y-60856761D01*
X47736000Y-60904380D01*
X47450285Y-60904380D01*
X47355047Y-60856761D01*
X47307428Y-60809142D01*
X46188380Y-58364380D02*
X45855047Y-57888190D01*
X45616952Y-58364380D02*
X45616952Y-57364380D01*
X45997904Y-57364380D01*
X46093142Y-57412000D01*
X46140761Y-57459619D01*
X46188380Y-57554857D01*
X46188380Y-57697714D01*
X46140761Y-57792952D01*
X46093142Y-57840571D01*
X45997904Y-57888190D01*
X45616952Y-57888190D01*
X46569333Y-58316761D02*
X46712190Y-58364380D01*
X46950285Y-58364380D01*
X47045523Y-58316761D01*
X47093142Y-58269142D01*
X47140761Y-58173904D01*
X47140761Y-58078666D01*
X47093142Y-57983428D01*
X47045523Y-57935809D01*
X46950285Y-57888190D01*
X46759809Y-57840571D01*
X46664571Y-57792952D01*
X46616952Y-57745333D01*
X46569333Y-57650095D01*
X46569333Y-57554857D01*
X46616952Y-57459619D01*
X46664571Y-57412000D01*
X46759809Y-57364380D01*
X46997904Y-57364380D01*
X47140761Y-57412000D01*
X47426476Y-57364380D02*
X47997904Y-57364380D01*
X47712190Y-58364380D02*
X47712190Y-57364380D01*
X53808380Y-114014095D02*
X53808380Y-113395047D01*
X54189333Y-113728380D01*
X54189333Y-113585523D01*
X54236952Y-113490285D01*
X54284571Y-113442666D01*
X54379809Y-113395047D01*
X54617904Y-113395047D01*
X54713142Y-113442666D01*
X54760761Y-113490285D01*
X54808380Y-113585523D01*
X54808380Y-113871238D01*
X54760761Y-113966476D01*
X54713142Y-114014095D01*
X53808380Y-113109333D02*
X54808380Y-112776000D01*
X53808380Y-112442666D01*
X53808380Y-112204571D02*
X53808380Y-111585523D01*
X54189333Y-111918857D01*
X54189333Y-111776000D01*
X54236952Y-111680761D01*
X54284571Y-111633142D01*
X54379809Y-111585523D01*
X54617904Y-111585523D01*
X54713142Y-111633142D01*
X54760761Y-111680761D01*
X54808380Y-111776000D01*
X54808380Y-112061714D01*
X54760761Y-112156952D01*
X54713142Y-112204571D01*
X51316000Y-113458476D02*
X51268380Y-113553714D01*
X51268380Y-113696571D01*
X51316000Y-113839428D01*
X51411238Y-113934666D01*
X51506476Y-113982285D01*
X51696952Y-114029904D01*
X51839809Y-114029904D01*
X52030285Y-113982285D01*
X52125523Y-113934666D01*
X52220761Y-113839428D01*
X52268380Y-113696571D01*
X52268380Y-113601333D01*
X52220761Y-113458476D01*
X52173142Y-113410857D01*
X51839809Y-113410857D01*
X51839809Y-113601333D01*
X52268380Y-112982285D02*
X51268380Y-112982285D01*
X51268380Y-112601333D01*
X51316000Y-112506095D01*
X51363619Y-112458476D01*
X51458857Y-112410857D01*
X51601714Y-112410857D01*
X51696952Y-112458476D01*
X51744571Y-112506095D01*
X51792190Y-112601333D01*
X51792190Y-112982285D01*
X51268380Y-111791809D02*
X51268380Y-111696571D01*
X51316000Y-111601333D01*
X51363619Y-111553714D01*
X51458857Y-111506095D01*
X51649333Y-111458476D01*
X51887428Y-111458476D01*
X52077904Y-111506095D01*
X52173142Y-111553714D01*
X52220761Y-111601333D01*
X52268380Y-111696571D01*
X52268380Y-111791809D01*
X52220761Y-111887047D01*
X52173142Y-111934666D01*
X52077904Y-111982285D01*
X51887428Y-112029904D01*
X51649333Y-112029904D01*
X51458857Y-111982285D01*
X51363619Y-111934666D01*
X51316000Y-111887047D01*
X51268380Y-111791809D01*
X52268380Y-110506095D02*
X52268380Y-111077523D01*
X52268380Y-110791809D02*
X51268380Y-110791809D01*
X51411238Y-110887047D01*
X51506476Y-110982285D01*
X51554095Y-111077523D01*
X48776000Y-113458476D02*
X48728380Y-113553714D01*
X48728380Y-113696571D01*
X48776000Y-113839428D01*
X48871238Y-113934666D01*
X48966476Y-113982285D01*
X49156952Y-114029904D01*
X49299809Y-114029904D01*
X49490285Y-113982285D01*
X49585523Y-113934666D01*
X49680761Y-113839428D01*
X49728380Y-113696571D01*
X49728380Y-113601333D01*
X49680761Y-113458476D01*
X49633142Y-113410857D01*
X49299809Y-113410857D01*
X49299809Y-113601333D01*
X49728380Y-112982285D02*
X48728380Y-112982285D01*
X48728380Y-112601333D01*
X48776000Y-112506095D01*
X48823619Y-112458476D01*
X48918857Y-112410857D01*
X49061714Y-112410857D01*
X49156952Y-112458476D01*
X49204571Y-112506095D01*
X49252190Y-112601333D01*
X49252190Y-112982285D01*
X48728380Y-111791809D02*
X48728380Y-111696571D01*
X48776000Y-111601333D01*
X48823619Y-111553714D01*
X48918857Y-111506095D01*
X49109333Y-111458476D01*
X49347428Y-111458476D01*
X49537904Y-111506095D01*
X49633142Y-111553714D01*
X49680761Y-111601333D01*
X49728380Y-111696571D01*
X49728380Y-111791809D01*
X49680761Y-111887047D01*
X49633142Y-111934666D01*
X49537904Y-111982285D01*
X49347428Y-112029904D01*
X49109333Y-112029904D01*
X48918857Y-111982285D01*
X48823619Y-111934666D01*
X48776000Y-111887047D01*
X48728380Y-111791809D01*
X48728380Y-110839428D02*
X48728380Y-110744190D01*
X48776000Y-110648952D01*
X48823619Y-110601333D01*
X48918857Y-110553714D01*
X49109333Y-110506095D01*
X49347428Y-110506095D01*
X49537904Y-110553714D01*
X49633142Y-110601333D01*
X49680761Y-110648952D01*
X49728380Y-110744190D01*
X49728380Y-110839428D01*
X49680761Y-110934666D01*
X49633142Y-110982285D01*
X49537904Y-111029904D01*
X49347428Y-111077523D01*
X49109333Y-111077523D01*
X48918857Y-111029904D01*
X48823619Y-110982285D01*
X48776000Y-110934666D01*
X48728380Y-110839428D01*
X46236000Y-113537904D02*
X46188380Y-113633142D01*
X46188380Y-113776000D01*
X46236000Y-113918857D01*
X46331238Y-114014095D01*
X46426476Y-114061714D01*
X46616952Y-114109333D01*
X46759809Y-114109333D01*
X46950285Y-114061714D01*
X47045523Y-114014095D01*
X47140761Y-113918857D01*
X47188380Y-113776000D01*
X47188380Y-113680761D01*
X47140761Y-113537904D01*
X47093142Y-113490285D01*
X46759809Y-113490285D01*
X46759809Y-113680761D01*
X47188380Y-113061714D02*
X46188380Y-113061714D01*
X47188380Y-112490285D01*
X46188380Y-112490285D01*
X47188380Y-112014095D02*
X46188380Y-112014095D01*
X46188380Y-111776000D01*
X46236000Y-111633142D01*
X46331238Y-111537904D01*
X46426476Y-111490285D01*
X46616952Y-111442666D01*
X46759809Y-111442666D01*
X46950285Y-111490285D01*
X47045523Y-111537904D01*
X47140761Y-111633142D01*
X47188380Y-111776000D01*
X47188380Y-112014095D01*
D10*
X202692000Y-86868000D02*
X200152000Y-86868000D01*
X182372000Y-86868000D02*
X179832000Y-86868000D01*
X182372000Y-46228000D02*
X182372000Y-86868000D01*
X179832000Y-46228000D02*
X182372000Y-46228000D01*
X179832000Y-91948000D02*
X179832000Y-41148000D01*
X202692000Y-91948000D02*
X179832000Y-91948000D01*
X202692000Y-41148000D02*
X202692000Y-91948000D01*
X179832000Y-41148000D02*
X202692000Y-41148000D01*
X152346000Y-84500000D02*
X152346000Y-84900000D01*
X152986000Y-84500000D02*
X152346000Y-84500000D01*
X159326000Y-90520000D02*
X152586000Y-90520000D01*
X159326000Y-84740000D02*
X152586000Y-84740000D01*
X152586000Y-84740000D02*
X152586000Y-90520000D01*
X159326000Y-84740000D02*
X159326000Y-90520000D01*
X158206000Y-84740000D02*
X158206000Y-90520000D01*
X153106000Y-84740000D02*
X153106000Y-90520000D01*
X70820000Y-67384000D02*
X71320000Y-67384000D01*
X70820000Y-66644000D02*
X70820000Y-67384000D01*
X148633000Y-63507000D02*
X148586000Y-63553000D01*
X150930000Y-61209000D02*
X150895000Y-61245000D01*
X148826000Y-63723000D02*
X148791000Y-63758000D01*
X151135000Y-61415000D02*
X151088000Y-61461000D01*
X143553000Y-63507000D02*
X143506000Y-63553000D01*
X145850000Y-61209000D02*
X145815000Y-61245000D01*
X143746000Y-63723000D02*
X143711000Y-63758000D01*
X146055000Y-61415000D02*
X146008000Y-61461000D01*
X138473000Y-63507000D02*
X138426000Y-63553000D01*
X140770000Y-61209000D02*
X140735000Y-61245000D01*
X138666000Y-63723000D02*
X138631000Y-63758000D01*
X140975000Y-61415000D02*
X140928000Y-61461000D01*
X133393000Y-63507000D02*
X133346000Y-63553000D01*
X135690000Y-61209000D02*
X135655000Y-61245000D01*
X133586000Y-63723000D02*
X133551000Y-63758000D01*
X135895000Y-61415000D02*
X135848000Y-61461000D01*
X128313000Y-63507000D02*
X128266000Y-63553000D01*
X130610000Y-61209000D02*
X130575000Y-61245000D01*
X128506000Y-63723000D02*
X128471000Y-63758000D01*
X130815000Y-61415000D02*
X130768000Y-61461000D01*
X123233000Y-63507000D02*
X123186000Y-63553000D01*
X125530000Y-61209000D02*
X125495000Y-61245000D01*
X123426000Y-63723000D02*
X123391000Y-63758000D01*
X125735000Y-61415000D02*
X125688000Y-61461000D01*
X118153000Y-63507000D02*
X118106000Y-63553000D01*
X120450000Y-61209000D02*
X120415000Y-61245000D01*
X118346000Y-63723000D02*
X118311000Y-63758000D01*
X120655000Y-61415000D02*
X120608000Y-61461000D01*
X113073000Y-63507000D02*
X113026000Y-63553000D01*
X115370000Y-61209000D02*
X115335000Y-61245000D01*
X113266000Y-63723000D02*
X113231000Y-63758000D01*
X115575000Y-61415000D02*
X115528000Y-61461000D01*
X107993000Y-63507000D02*
X107946000Y-63553000D01*
X110290000Y-61209000D02*
X110255000Y-61245000D01*
X108186000Y-63723000D02*
X108151000Y-63758000D01*
X110495000Y-61415000D02*
X110448000Y-61461000D01*
X102913000Y-63507000D02*
X102866000Y-63553000D01*
X105210000Y-61209000D02*
X105175000Y-61245000D01*
X103106000Y-63723000D02*
X103071000Y-63758000D01*
X105415000Y-61415000D02*
X105368000Y-61461000D01*
X97833000Y-63507000D02*
X97786000Y-63553000D01*
X100130000Y-61209000D02*
X100095000Y-61245000D01*
X98026000Y-63723000D02*
X97991000Y-63758000D01*
X100335000Y-61415000D02*
X100288000Y-61461000D01*
X92753000Y-63507000D02*
X92706000Y-63553000D01*
X95050000Y-61209000D02*
X95015000Y-61245000D01*
X92946000Y-63723000D02*
X92911000Y-63758000D01*
X95255000Y-61415000D02*
X95208000Y-61461000D01*
X87673000Y-63507000D02*
X87626000Y-63553000D01*
X89970000Y-61209000D02*
X89935000Y-61245000D01*
X87866000Y-63723000D02*
X87831000Y-63758000D01*
X90175000Y-61415000D02*
X90128000Y-61461000D01*
X82593000Y-63507000D02*
X82546000Y-63553000D01*
X84890000Y-61209000D02*
X84855000Y-61245000D01*
X82786000Y-63723000D02*
X82751000Y-63758000D01*
X85095000Y-61415000D02*
X85048000Y-61461000D01*
X77513000Y-63507000D02*
X77466000Y-63553000D01*
X79810000Y-61209000D02*
X79775000Y-61245000D01*
X77706000Y-63723000D02*
X77671000Y-63758000D01*
X80015000Y-61415000D02*
X79968000Y-61461000D01*
X152461000Y-57223000D02*
X152461000Y-67144000D01*
X71060000Y-57223000D02*
X71060000Y-67144000D01*
X71060000Y-67144000D02*
X152461000Y-67144000D01*
X71060000Y-57223000D02*
X152461000Y-57223000D01*
X71060000Y-60183000D02*
X152461000Y-60183000D01*
X71060000Y-65084000D02*
X152461000Y-65084000D01*
X71060000Y-66584000D02*
X152461000Y-66584000D01*
X151540000Y-62484000D02*
G75*
G03X151540000Y-62484000I-1680000J0D01*
G01*
X146460000Y-62484000D02*
G75*
G03X146460000Y-62484000I-1680000J0D01*
G01*
X141380000Y-62484000D02*
G75*
G03X141380000Y-62484000I-1680000J0D01*
G01*
X136300000Y-62484000D02*
G75*
G03X136300000Y-62484000I-1680000J0D01*
G01*
X131220000Y-62484000D02*
G75*
G03X131220000Y-62484000I-1680000J0D01*
G01*
X126140000Y-62484000D02*
G75*
G03X126140000Y-62484000I-1680000J0D01*
G01*
X121060000Y-62484000D02*
G75*
G03X121060000Y-62484000I-1680000J0D01*
G01*
X115980000Y-62484000D02*
G75*
G03X115980000Y-62484000I-1680000J0D01*
G01*
X110900000Y-62484000D02*
G75*
G03X110900000Y-62484000I-1680000J0D01*
G01*
X105820000Y-62484000D02*
G75*
G03X105820000Y-62484000I-1680000J0D01*
G01*
X100740000Y-62484000D02*
G75*
G03X100740000Y-62484000I-1680000J0D01*
G01*
X95660000Y-62484000D02*
G75*
G03X95660000Y-62484000I-1680000J0D01*
G01*
X90580000Y-62484000D02*
G75*
G03X90580000Y-62484000I-1680000J0D01*
G01*
X85500000Y-62484000D02*
G75*
G03X85500000Y-62484000I-1680000J0D01*
G01*
X80420000Y-62484000D02*
G75*
G03X80420000Y-62484000I-1680000J0D01*
G01*
X73688805Y-64164253D02*
G75*
G02X72976000Y-64019000I-28805J1680253D01*
G01*
X72124574Y-63167042D02*
G75*
G02X72125000Y-61800000I1535426J683042D01*
G01*
X72976958Y-60948574D02*
G75*
G02X74344000Y-60949000I683042J-1535426D01*
G01*
X75195426Y-61800958D02*
G75*
G02X75195000Y-63168000I-1535426J-683042D01*
G01*
X74343318Y-64018756D02*
G75*
G02X73660000Y-64164000I-683318J1534756D01*
G01*
X152700000Y-107876000D02*
X152200000Y-107876000D01*
X152700000Y-108616000D02*
X152700000Y-107876000D01*
X74887000Y-111753000D02*
X74934000Y-111707000D01*
X72590000Y-114051000D02*
X72625000Y-114015000D01*
X74694000Y-111537000D02*
X74729000Y-111502000D01*
X72385000Y-113845000D02*
X72432000Y-113799000D01*
X79967000Y-111753000D02*
X80014000Y-111707000D01*
X77670000Y-114051000D02*
X77705000Y-114015000D01*
X79774000Y-111537000D02*
X79809000Y-111502000D01*
X77465000Y-113845000D02*
X77512000Y-113799000D01*
X85047000Y-111753000D02*
X85094000Y-111707000D01*
X82750000Y-114051000D02*
X82785000Y-114015000D01*
X84854000Y-111537000D02*
X84889000Y-111502000D01*
X82545000Y-113845000D02*
X82592000Y-113799000D01*
X90127000Y-111753000D02*
X90174000Y-111707000D01*
X87830000Y-114051000D02*
X87865000Y-114015000D01*
X89934000Y-111537000D02*
X89969000Y-111502000D01*
X87625000Y-113845000D02*
X87672000Y-113799000D01*
X95207000Y-111753000D02*
X95254000Y-111707000D01*
X92910000Y-114051000D02*
X92945000Y-114015000D01*
X95014000Y-111537000D02*
X95049000Y-111502000D01*
X92705000Y-113845000D02*
X92752000Y-113799000D01*
X100287000Y-111753000D02*
X100334000Y-111707000D01*
X97990000Y-114051000D02*
X98025000Y-114015000D01*
X100094000Y-111537000D02*
X100129000Y-111502000D01*
X97785000Y-113845000D02*
X97832000Y-113799000D01*
X105367000Y-111753000D02*
X105414000Y-111707000D01*
X103070000Y-114051000D02*
X103105000Y-114015000D01*
X105174000Y-111537000D02*
X105209000Y-111502000D01*
X102865000Y-113845000D02*
X102912000Y-113799000D01*
X110447000Y-111753000D02*
X110494000Y-111707000D01*
X108150000Y-114051000D02*
X108185000Y-114015000D01*
X110254000Y-111537000D02*
X110289000Y-111502000D01*
X107945000Y-113845000D02*
X107992000Y-113799000D01*
X115527000Y-111753000D02*
X115574000Y-111707000D01*
X113230000Y-114051000D02*
X113265000Y-114015000D01*
X115334000Y-111537000D02*
X115369000Y-111502000D01*
X113025000Y-113845000D02*
X113072000Y-113799000D01*
X120607000Y-111753000D02*
X120654000Y-111707000D01*
X118310000Y-114051000D02*
X118345000Y-114015000D01*
X120414000Y-111537000D02*
X120449000Y-111502000D01*
X118105000Y-113845000D02*
X118152000Y-113799000D01*
X125687000Y-111753000D02*
X125734000Y-111707000D01*
X123390000Y-114051000D02*
X123425000Y-114015000D01*
X125494000Y-111537000D02*
X125529000Y-111502000D01*
X123185000Y-113845000D02*
X123232000Y-113799000D01*
X130767000Y-111753000D02*
X130814000Y-111707000D01*
X128470000Y-114051000D02*
X128505000Y-114015000D01*
X130574000Y-111537000D02*
X130609000Y-111502000D01*
X128265000Y-113845000D02*
X128312000Y-113799000D01*
X135847000Y-111753000D02*
X135894000Y-111707000D01*
X133550000Y-114051000D02*
X133585000Y-114015000D01*
X135654000Y-111537000D02*
X135689000Y-111502000D01*
X133345000Y-113845000D02*
X133392000Y-113799000D01*
X140927000Y-111753000D02*
X140974000Y-111707000D01*
X138630000Y-114051000D02*
X138665000Y-114015000D01*
X140734000Y-111537000D02*
X140769000Y-111502000D01*
X138425000Y-113845000D02*
X138472000Y-113799000D01*
X146007000Y-111753000D02*
X146054000Y-111707000D01*
X143710000Y-114051000D02*
X143745000Y-114015000D01*
X145814000Y-111537000D02*
X145849000Y-111502000D01*
X143505000Y-113845000D02*
X143552000Y-113799000D01*
X71059000Y-118037000D02*
X71059000Y-108116000D01*
X152460000Y-118037000D02*
X152460000Y-108116000D01*
X152460000Y-108116000D02*
X71059000Y-108116000D01*
X152460000Y-118037000D02*
X71059000Y-118037000D01*
X152460000Y-115077000D02*
X71059000Y-115077000D01*
X152460000Y-110176000D02*
X71059000Y-110176000D01*
X152460000Y-108676000D02*
X71059000Y-108676000D01*
X75340000Y-112776000D02*
G75*
G03X75340000Y-112776000I-1680000J0D01*
G01*
X80420000Y-112776000D02*
G75*
G03X80420000Y-112776000I-1680000J0D01*
G01*
X85500000Y-112776000D02*
G75*
G03X85500000Y-112776000I-1680000J0D01*
G01*
X90580000Y-112776000D02*
G75*
G03X90580000Y-112776000I-1680000J0D01*
G01*
X95660000Y-112776000D02*
G75*
G03X95660000Y-112776000I-1680000J0D01*
G01*
X100740000Y-112776000D02*
G75*
G03X100740000Y-112776000I-1680000J0D01*
G01*
X105820000Y-112776000D02*
G75*
G03X105820000Y-112776000I-1680000J0D01*
G01*
X110900000Y-112776000D02*
G75*
G03X110900000Y-112776000I-1680000J0D01*
G01*
X115980000Y-112776000D02*
G75*
G03X115980000Y-112776000I-1680000J0D01*
G01*
X121060000Y-112776000D02*
G75*
G03X121060000Y-112776000I-1680000J0D01*
G01*
X126140000Y-112776000D02*
G75*
G03X126140000Y-112776000I-1680000J0D01*
G01*
X131220000Y-112776000D02*
G75*
G03X131220000Y-112776000I-1680000J0D01*
G01*
X136300000Y-112776000D02*
G75*
G03X136300000Y-112776000I-1680000J0D01*
G01*
X141380000Y-112776000D02*
G75*
G03X141380000Y-112776000I-1680000J0D01*
G01*
X146460000Y-112776000D02*
G75*
G03X146460000Y-112776000I-1680000J0D01*
G01*
X149831195Y-111095747D02*
G75*
G02X150544000Y-111241000I28805J-1680253D01*
G01*
X151395426Y-112092958D02*
G75*
G02X151395000Y-113460000I-1535426J-683042D01*
G01*
X150543042Y-114311426D02*
G75*
G02X149176000Y-114311000I-683042J1535426D01*
G01*
X148324574Y-113459042D02*
G75*
G02X148325000Y-112092000I1535426J683042D01*
G01*
X149176682Y-111241244D02*
G75*
G02X149860000Y-111096000I683318J-1534756D01*
G01*
X158494775Y-99769000D02*
X158494775Y-99269000D01*
X158744775Y-99519000D02*
X158244775Y-99519000D01*
X153339000Y-98328000D02*
X153339000Y-97760000D01*
X153379000Y-98562000D02*
X153379000Y-97526000D01*
X153419000Y-98721000D02*
X153419000Y-97367000D01*
X153459000Y-98849000D02*
X153459000Y-97239000D01*
X153499000Y-98959000D02*
X153499000Y-97129000D01*
X153539000Y-99055000D02*
X153539000Y-97033000D01*
X153579000Y-99142000D02*
X153579000Y-96946000D01*
X153619000Y-99222000D02*
X153619000Y-96866000D01*
X153659000Y-99295000D02*
X153659000Y-96793000D01*
X153699000Y-99363000D02*
X153699000Y-96725000D01*
X153739000Y-99427000D02*
X153739000Y-96661000D01*
X153779000Y-99487000D02*
X153779000Y-96601000D01*
X153819000Y-99544000D02*
X153819000Y-96544000D01*
X153859000Y-99598000D02*
X153859000Y-96490000D01*
X153899000Y-99649000D02*
X153899000Y-96439000D01*
X153939000Y-97004000D02*
X153939000Y-96391000D01*
X153939000Y-99697000D02*
X153939000Y-99084000D01*
X153979000Y-97004000D02*
X153979000Y-96345000D01*
X153979000Y-99743000D02*
X153979000Y-99084000D01*
X154019000Y-97004000D02*
X154019000Y-96301000D01*
X154019000Y-99787000D02*
X154019000Y-99084000D01*
X154059000Y-97004000D02*
X154059000Y-96259000D01*
X154059000Y-99829000D02*
X154059000Y-99084000D01*
X154099000Y-97004000D02*
X154099000Y-96218000D01*
X154099000Y-99870000D02*
X154099000Y-99084000D01*
X154139000Y-97004000D02*
X154139000Y-96180000D01*
X154139000Y-99908000D02*
X154139000Y-99084000D01*
X154179000Y-97004000D02*
X154179000Y-96143000D01*
X154179000Y-99945000D02*
X154179000Y-99084000D01*
X154219000Y-97004000D02*
X154219000Y-96107000D01*
X154219000Y-99981000D02*
X154219000Y-99084000D01*
X154259000Y-97004000D02*
X154259000Y-96073000D01*
X154259000Y-100015000D02*
X154259000Y-99084000D01*
X154299000Y-97004000D02*
X154299000Y-96040000D01*
X154299000Y-100048000D02*
X154299000Y-99084000D01*
X154339000Y-97004000D02*
X154339000Y-96009000D01*
X154339000Y-100079000D02*
X154339000Y-99084000D01*
X154379000Y-97004000D02*
X154379000Y-95979000D01*
X154379000Y-100109000D02*
X154379000Y-99084000D01*
X154419000Y-97004000D02*
X154419000Y-95949000D01*
X154419000Y-100139000D02*
X154419000Y-99084000D01*
X154459000Y-97004000D02*
X154459000Y-95922000D01*
X154459000Y-100166000D02*
X154459000Y-99084000D01*
X154499000Y-97004000D02*
X154499000Y-95895000D01*
X154499000Y-100193000D02*
X154499000Y-99084000D01*
X154539000Y-97004000D02*
X154539000Y-95869000D01*
X154539000Y-100219000D02*
X154539000Y-99084000D01*
X154579000Y-97004000D02*
X154579000Y-95844000D01*
X154579000Y-100244000D02*
X154579000Y-99084000D01*
X154619000Y-97004000D02*
X154619000Y-95820000D01*
X154619000Y-100268000D02*
X154619000Y-99084000D01*
X154659000Y-97004000D02*
X154659000Y-95797000D01*
X154659000Y-100291000D02*
X154659000Y-99084000D01*
X154699000Y-97004000D02*
X154699000Y-95776000D01*
X154699000Y-100312000D02*
X154699000Y-99084000D01*
X154739000Y-97004000D02*
X154739000Y-95754000D01*
X154739000Y-100334000D02*
X154739000Y-99084000D01*
X154779000Y-97004000D02*
X154779000Y-95734000D01*
X154779000Y-100354000D02*
X154779000Y-99084000D01*
X154819000Y-97004000D02*
X154819000Y-95715000D01*
X154819000Y-100373000D02*
X154819000Y-99084000D01*
X154859000Y-97004000D02*
X154859000Y-95696000D01*
X154859000Y-100392000D02*
X154859000Y-99084000D01*
X154899000Y-97004000D02*
X154899000Y-95679000D01*
X154899000Y-100409000D02*
X154899000Y-99084000D01*
X154939000Y-97004000D02*
X154939000Y-95662000D01*
X154939000Y-100426000D02*
X154939000Y-99084000D01*
X154979000Y-97004000D02*
X154979000Y-95646000D01*
X154979000Y-100442000D02*
X154979000Y-99084000D01*
X155019000Y-97004000D02*
X155019000Y-95630000D01*
X155019000Y-100458000D02*
X155019000Y-99084000D01*
X155059000Y-97004000D02*
X155059000Y-95616000D01*
X155059000Y-100472000D02*
X155059000Y-99084000D01*
X155099000Y-97004000D02*
X155099000Y-95602000D01*
X155099000Y-100486000D02*
X155099000Y-99084000D01*
X155139000Y-97004000D02*
X155139000Y-95589000D01*
X155139000Y-100499000D02*
X155139000Y-99084000D01*
X155179000Y-97004000D02*
X155179000Y-95576000D01*
X155179000Y-100512000D02*
X155179000Y-99084000D01*
X155219000Y-97004000D02*
X155219000Y-95564000D01*
X155219000Y-100524000D02*
X155219000Y-99084000D01*
X155260000Y-97004000D02*
X155260000Y-95553000D01*
X155260000Y-100535000D02*
X155260000Y-99084000D01*
X155300000Y-97004000D02*
X155300000Y-95543000D01*
X155300000Y-100545000D02*
X155300000Y-99084000D01*
X155340000Y-97004000D02*
X155340000Y-95533000D01*
X155340000Y-100555000D02*
X155340000Y-99084000D01*
X155380000Y-97004000D02*
X155380000Y-95524000D01*
X155380000Y-100564000D02*
X155380000Y-99084000D01*
X155420000Y-97004000D02*
X155420000Y-95516000D01*
X155420000Y-100572000D02*
X155420000Y-99084000D01*
X155460000Y-97004000D02*
X155460000Y-95508000D01*
X155460000Y-100580000D02*
X155460000Y-99084000D01*
X155500000Y-97004000D02*
X155500000Y-95501000D01*
X155500000Y-100587000D02*
X155500000Y-99084000D01*
X155540000Y-97004000D02*
X155540000Y-95494000D01*
X155540000Y-100594000D02*
X155540000Y-99084000D01*
X155580000Y-97004000D02*
X155580000Y-95488000D01*
X155580000Y-100600000D02*
X155580000Y-99084000D01*
X155620000Y-97004000D02*
X155620000Y-95483000D01*
X155620000Y-100605000D02*
X155620000Y-99084000D01*
X155660000Y-97004000D02*
X155660000Y-95479000D01*
X155660000Y-100609000D02*
X155660000Y-99084000D01*
X155700000Y-97004000D02*
X155700000Y-95475000D01*
X155700000Y-100613000D02*
X155700000Y-99084000D01*
X155740000Y-97004000D02*
X155740000Y-95471000D01*
X155740000Y-100617000D02*
X155740000Y-99084000D01*
X155780000Y-97004000D02*
X155780000Y-95468000D01*
X155780000Y-100620000D02*
X155780000Y-99084000D01*
X155820000Y-97004000D02*
X155820000Y-95466000D01*
X155820000Y-100622000D02*
X155820000Y-99084000D01*
X155860000Y-97004000D02*
X155860000Y-95465000D01*
X155860000Y-100623000D02*
X155860000Y-99084000D01*
X155900000Y-100624000D02*
X155900000Y-99084000D01*
X155900000Y-97004000D02*
X155900000Y-95464000D01*
X155940000Y-100624000D02*
X155940000Y-99084000D01*
X155940000Y-97004000D02*
X155940000Y-95464000D01*
X158560000Y-98044000D02*
G75*
G03X158560000Y-98044000I-2620000J0D01*
G01*
X158526775Y-78941000D02*
X158526775Y-78441000D01*
X158776775Y-78691000D02*
X158276775Y-78691000D01*
X153371000Y-77500000D02*
X153371000Y-76932000D01*
X153411000Y-77734000D02*
X153411000Y-76698000D01*
X153451000Y-77893000D02*
X153451000Y-76539000D01*
X153491000Y-78021000D02*
X153491000Y-76411000D01*
X153531000Y-78131000D02*
X153531000Y-76301000D01*
X153571000Y-78227000D02*
X153571000Y-76205000D01*
X153611000Y-78314000D02*
X153611000Y-76118000D01*
X153651000Y-78394000D02*
X153651000Y-76038000D01*
X153691000Y-78467000D02*
X153691000Y-75965000D01*
X153731000Y-78535000D02*
X153731000Y-75897000D01*
X153771000Y-78599000D02*
X153771000Y-75833000D01*
X153811000Y-78659000D02*
X153811000Y-75773000D01*
X153851000Y-78716000D02*
X153851000Y-75716000D01*
X153891000Y-78770000D02*
X153891000Y-75662000D01*
X153931000Y-78821000D02*
X153931000Y-75611000D01*
X153971000Y-76176000D02*
X153971000Y-75563000D01*
X153971000Y-78869000D02*
X153971000Y-78256000D01*
X154011000Y-76176000D02*
X154011000Y-75517000D01*
X154011000Y-78915000D02*
X154011000Y-78256000D01*
X154051000Y-76176000D02*
X154051000Y-75473000D01*
X154051000Y-78959000D02*
X154051000Y-78256000D01*
X154091000Y-76176000D02*
X154091000Y-75431000D01*
X154091000Y-79001000D02*
X154091000Y-78256000D01*
X154131000Y-76176000D02*
X154131000Y-75390000D01*
X154131000Y-79042000D02*
X154131000Y-78256000D01*
X154171000Y-76176000D02*
X154171000Y-75352000D01*
X154171000Y-79080000D02*
X154171000Y-78256000D01*
X154211000Y-76176000D02*
X154211000Y-75315000D01*
X154211000Y-79117000D02*
X154211000Y-78256000D01*
X154251000Y-76176000D02*
X154251000Y-75279000D01*
X154251000Y-79153000D02*
X154251000Y-78256000D01*
X154291000Y-76176000D02*
X154291000Y-75245000D01*
X154291000Y-79187000D02*
X154291000Y-78256000D01*
X154331000Y-76176000D02*
X154331000Y-75212000D01*
X154331000Y-79220000D02*
X154331000Y-78256000D01*
X154371000Y-76176000D02*
X154371000Y-75181000D01*
X154371000Y-79251000D02*
X154371000Y-78256000D01*
X154411000Y-76176000D02*
X154411000Y-75151000D01*
X154411000Y-79281000D02*
X154411000Y-78256000D01*
X154451000Y-76176000D02*
X154451000Y-75121000D01*
X154451000Y-79311000D02*
X154451000Y-78256000D01*
X154491000Y-76176000D02*
X154491000Y-75094000D01*
X154491000Y-79338000D02*
X154491000Y-78256000D01*
X154531000Y-76176000D02*
X154531000Y-75067000D01*
X154531000Y-79365000D02*
X154531000Y-78256000D01*
X154571000Y-76176000D02*
X154571000Y-75041000D01*
X154571000Y-79391000D02*
X154571000Y-78256000D01*
X154611000Y-76176000D02*
X154611000Y-75016000D01*
X154611000Y-79416000D02*
X154611000Y-78256000D01*
X154651000Y-76176000D02*
X154651000Y-74992000D01*
X154651000Y-79440000D02*
X154651000Y-78256000D01*
X154691000Y-76176000D02*
X154691000Y-74969000D01*
X154691000Y-79463000D02*
X154691000Y-78256000D01*
X154731000Y-76176000D02*
X154731000Y-74948000D01*
X154731000Y-79484000D02*
X154731000Y-78256000D01*
X154771000Y-76176000D02*
X154771000Y-74926000D01*
X154771000Y-79506000D02*
X154771000Y-78256000D01*
X154811000Y-76176000D02*
X154811000Y-74906000D01*
X154811000Y-79526000D02*
X154811000Y-78256000D01*
X154851000Y-76176000D02*
X154851000Y-74887000D01*
X154851000Y-79545000D02*
X154851000Y-78256000D01*
X154891000Y-76176000D02*
X154891000Y-74868000D01*
X154891000Y-79564000D02*
X154891000Y-78256000D01*
X154931000Y-76176000D02*
X154931000Y-74851000D01*
X154931000Y-79581000D02*
X154931000Y-78256000D01*
X154971000Y-76176000D02*
X154971000Y-74834000D01*
X154971000Y-79598000D02*
X154971000Y-78256000D01*
X155011000Y-76176000D02*
X155011000Y-74818000D01*
X155011000Y-79614000D02*
X155011000Y-78256000D01*
X155051000Y-76176000D02*
X155051000Y-74802000D01*
X155051000Y-79630000D02*
X155051000Y-78256000D01*
X155091000Y-76176000D02*
X155091000Y-74788000D01*
X155091000Y-79644000D02*
X155091000Y-78256000D01*
X155131000Y-76176000D02*
X155131000Y-74774000D01*
X155131000Y-79658000D02*
X155131000Y-78256000D01*
X155171000Y-76176000D02*
X155171000Y-74761000D01*
X155171000Y-79671000D02*
X155171000Y-78256000D01*
X155211000Y-76176000D02*
X155211000Y-74748000D01*
X155211000Y-79684000D02*
X155211000Y-78256000D01*
X155251000Y-76176000D02*
X155251000Y-74736000D01*
X155251000Y-79696000D02*
X155251000Y-78256000D01*
X155292000Y-76176000D02*
X155292000Y-74725000D01*
X155292000Y-79707000D02*
X155292000Y-78256000D01*
X155332000Y-76176000D02*
X155332000Y-74715000D01*
X155332000Y-79717000D02*
X155332000Y-78256000D01*
X155372000Y-76176000D02*
X155372000Y-74705000D01*
X155372000Y-79727000D02*
X155372000Y-78256000D01*
X155412000Y-76176000D02*
X155412000Y-74696000D01*
X155412000Y-79736000D02*
X155412000Y-78256000D01*
X155452000Y-76176000D02*
X155452000Y-74688000D01*
X155452000Y-79744000D02*
X155452000Y-78256000D01*
X155492000Y-76176000D02*
X155492000Y-74680000D01*
X155492000Y-79752000D02*
X155492000Y-78256000D01*
X155532000Y-76176000D02*
X155532000Y-74673000D01*
X155532000Y-79759000D02*
X155532000Y-78256000D01*
X155572000Y-76176000D02*
X155572000Y-74666000D01*
X155572000Y-79766000D02*
X155572000Y-78256000D01*
X155612000Y-76176000D02*
X155612000Y-74660000D01*
X155612000Y-79772000D02*
X155612000Y-78256000D01*
X155652000Y-76176000D02*
X155652000Y-74655000D01*
X155652000Y-79777000D02*
X155652000Y-78256000D01*
X155692000Y-76176000D02*
X155692000Y-74651000D01*
X155692000Y-79781000D02*
X155692000Y-78256000D01*
X155732000Y-76176000D02*
X155732000Y-74647000D01*
X155732000Y-79785000D02*
X155732000Y-78256000D01*
X155772000Y-76176000D02*
X155772000Y-74643000D01*
X155772000Y-79789000D02*
X155772000Y-78256000D01*
X155812000Y-76176000D02*
X155812000Y-74640000D01*
X155812000Y-79792000D02*
X155812000Y-78256000D01*
X155852000Y-76176000D02*
X155852000Y-74638000D01*
X155852000Y-79794000D02*
X155852000Y-78256000D01*
X155892000Y-76176000D02*
X155892000Y-74637000D01*
X155892000Y-79795000D02*
X155892000Y-78256000D01*
X155932000Y-79796000D02*
X155932000Y-78256000D01*
X155932000Y-76176000D02*
X155932000Y-74636000D01*
X155972000Y-79796000D02*
X155972000Y-78256000D01*
X155972000Y-76176000D02*
X155972000Y-74636000D01*
X158592000Y-77216000D02*
G75*
G03X158592000Y-77216000I-2620000J0D01*
G01*
X41850000Y-56582000D02*
X43180000Y-56582000D01*
X41850000Y-57912000D02*
X41850000Y-56582000D01*
X41850000Y-59182000D02*
X44510000Y-59182000D01*
X44510000Y-59182000D02*
X44510000Y-97342000D01*
X41850000Y-59182000D02*
X41850000Y-97342000D01*
X41850000Y-97342000D02*
X44510000Y-97342000D01*
X144608733Y-83060000D02*
X144951267Y-83060000D01*
X144608733Y-82040000D02*
X144951267Y-82040000D01*
X149350000Y-82378733D02*
X149350000Y-82721267D01*
X150370000Y-82378733D02*
X150370000Y-82721267D01*
X134448733Y-83060000D02*
X134791267Y-83060000D01*
X134448733Y-82040000D02*
X134791267Y-82040000D01*
X139190000Y-82378733D02*
X139190000Y-82721267D01*
X140210000Y-82378733D02*
X140210000Y-82721267D01*
X124288733Y-83060000D02*
X124631267Y-83060000D01*
X124288733Y-82040000D02*
X124631267Y-82040000D01*
X129030000Y-82378733D02*
X129030000Y-82721267D01*
X130050000Y-82378733D02*
X130050000Y-82721267D01*
X114128733Y-83060000D02*
X114471267Y-83060000D01*
X114128733Y-82040000D02*
X114471267Y-82040000D01*
X118870000Y-82378733D02*
X118870000Y-82721267D01*
X119890000Y-82378733D02*
X119890000Y-82721267D01*
X104198733Y-83060000D02*
X104541267Y-83060000D01*
X104198733Y-82040000D02*
X104541267Y-82040000D01*
X108940000Y-82378733D02*
X108940000Y-82721267D01*
X109960000Y-82378733D02*
X109960000Y-82721267D01*
X93808733Y-83060000D02*
X94151267Y-83060000D01*
X93808733Y-82040000D02*
X94151267Y-82040000D01*
X98550000Y-82378733D02*
X98550000Y-82721267D01*
X99570000Y-82378733D02*
X99570000Y-82721267D01*
X83648733Y-83060000D02*
X83991267Y-83060000D01*
X83648733Y-82040000D02*
X83991267Y-82040000D01*
X88390000Y-82378733D02*
X88390000Y-82721267D01*
X89410000Y-82378733D02*
X89410000Y-82721267D01*
X73488733Y-83060000D02*
X73831267Y-83060000D01*
X73488733Y-82040000D02*
X73831267Y-82040000D01*
X78230000Y-82378733D02*
X78230000Y-82721267D01*
X79250000Y-82378733D02*
X79250000Y-82721267D01*
X78911267Y-92200000D02*
X78568733Y-92200000D01*
X78911267Y-93220000D02*
X78568733Y-93220000D01*
X74170000Y-92881267D02*
X74170000Y-92538733D01*
X73150000Y-92881267D02*
X73150000Y-92538733D01*
X89071267Y-92200000D02*
X88728733Y-92200000D01*
X89071267Y-93220000D02*
X88728733Y-93220000D01*
X84330000Y-92881267D02*
X84330000Y-92538733D01*
X83310000Y-92881267D02*
X83310000Y-92538733D01*
X99461267Y-92200000D02*
X99118733Y-92200000D01*
X99461267Y-93220000D02*
X99118733Y-93220000D01*
X94720000Y-92881267D02*
X94720000Y-92538733D01*
X93700000Y-92881267D02*
X93700000Y-92538733D01*
X109391267Y-92200000D02*
X109048733Y-92200000D01*
X109391267Y-93220000D02*
X109048733Y-93220000D01*
X104650000Y-92881267D02*
X104650000Y-92538733D01*
X103630000Y-92881267D02*
X103630000Y-92538733D01*
X119551267Y-92200000D02*
X119208733Y-92200000D01*
X119551267Y-93220000D02*
X119208733Y-93220000D01*
X114810000Y-92881267D02*
X114810000Y-92538733D01*
X113790000Y-92881267D02*
X113790000Y-92538733D01*
X129711267Y-92200000D02*
X129368733Y-92200000D01*
X129711267Y-93220000D02*
X129368733Y-93220000D01*
X124970000Y-92881267D02*
X124970000Y-92538733D01*
X123950000Y-92881267D02*
X123950000Y-92538733D01*
X139871267Y-92200000D02*
X139528733Y-92200000D01*
X139871267Y-93220000D02*
X139528733Y-93220000D01*
X135130000Y-92881267D02*
X135130000Y-92538733D01*
X134110000Y-92881267D02*
X134110000Y-92538733D01*
X150031267Y-92200000D02*
X149688733Y-92200000D01*
X150031267Y-93220000D02*
X149688733Y-93220000D01*
X145290000Y-92881267D02*
X145290000Y-92538733D01*
X144270000Y-92881267D02*
X144270000Y-92538733D01*
X146560000Y-75890000D02*
X148020000Y-75890000D01*
X146560000Y-79050000D02*
X149720000Y-79050000D01*
X146560000Y-79050000D02*
X146560000Y-78120000D01*
X146560000Y-75890000D02*
X146560000Y-76820000D01*
X136400000Y-75890000D02*
X137860000Y-75890000D01*
X136400000Y-79050000D02*
X139560000Y-79050000D01*
X136400000Y-79050000D02*
X136400000Y-78120000D01*
X136400000Y-75890000D02*
X136400000Y-76820000D01*
X126240000Y-75890000D02*
X127700000Y-75890000D01*
X126240000Y-79050000D02*
X129400000Y-79050000D01*
X126240000Y-79050000D02*
X126240000Y-78120000D01*
X126240000Y-75890000D02*
X126240000Y-76820000D01*
X116080000Y-75890000D02*
X117540000Y-75890000D01*
X116080000Y-79050000D02*
X119240000Y-79050000D01*
X116080000Y-79050000D02*
X116080000Y-78120000D01*
X116080000Y-75890000D02*
X116080000Y-76820000D01*
X106150000Y-75890000D02*
X107610000Y-75890000D01*
X106150000Y-79050000D02*
X109310000Y-79050000D01*
X106150000Y-79050000D02*
X106150000Y-78120000D01*
X106150000Y-75890000D02*
X106150000Y-76820000D01*
X95760000Y-75890000D02*
X97220000Y-75890000D01*
X95760000Y-79050000D02*
X98920000Y-79050000D01*
X95760000Y-79050000D02*
X95760000Y-78120000D01*
X95760000Y-75890000D02*
X95760000Y-76820000D01*
X85600000Y-75890000D02*
X87060000Y-75890000D01*
X85600000Y-79050000D02*
X88760000Y-79050000D01*
X85600000Y-79050000D02*
X85600000Y-78120000D01*
X85600000Y-75890000D02*
X85600000Y-76820000D01*
X75440000Y-75890000D02*
X76900000Y-75890000D01*
X75440000Y-79050000D02*
X78600000Y-79050000D01*
X75440000Y-79050000D02*
X75440000Y-78120000D01*
X75440000Y-75890000D02*
X75440000Y-76820000D01*
X76960000Y-99370000D02*
X75500000Y-99370000D01*
X76960000Y-96210000D02*
X73800000Y-96210000D01*
X76960000Y-96210000D02*
X76960000Y-97140000D01*
X76960000Y-99370000D02*
X76960000Y-98440000D01*
X87120000Y-99370000D02*
X85660000Y-99370000D01*
X87120000Y-96210000D02*
X83960000Y-96210000D01*
X87120000Y-96210000D02*
X87120000Y-97140000D01*
X87120000Y-99370000D02*
X87120000Y-98440000D01*
X97510000Y-99370000D02*
X96050000Y-99370000D01*
X97510000Y-96210000D02*
X94350000Y-96210000D01*
X97510000Y-96210000D02*
X97510000Y-97140000D01*
X97510000Y-99370000D02*
X97510000Y-98440000D01*
X107440000Y-99370000D02*
X105980000Y-99370000D01*
X107440000Y-96210000D02*
X104280000Y-96210000D01*
X107440000Y-96210000D02*
X107440000Y-97140000D01*
X107440000Y-99370000D02*
X107440000Y-98440000D01*
X117600000Y-99370000D02*
X116140000Y-99370000D01*
X117600000Y-96210000D02*
X114440000Y-96210000D01*
X117600000Y-96210000D02*
X117600000Y-97140000D01*
X117600000Y-99370000D02*
X117600000Y-98440000D01*
X127760000Y-99370000D02*
X126300000Y-99370000D01*
X127760000Y-96210000D02*
X124600000Y-96210000D01*
X127760000Y-96210000D02*
X127760000Y-97140000D01*
X127760000Y-99370000D02*
X127760000Y-98440000D01*
X137920000Y-99370000D02*
X136460000Y-99370000D01*
X137920000Y-96210000D02*
X134760000Y-96210000D01*
X137920000Y-96210000D02*
X137920000Y-97140000D01*
X137920000Y-99370000D02*
X137920000Y-98440000D01*
X148080000Y-99370000D02*
X146620000Y-99370000D01*
X148080000Y-96210000D02*
X144920000Y-96210000D01*
X148080000Y-96210000D02*
X148080000Y-97140000D01*
X148080000Y-99370000D02*
X148080000Y-98440000D01*
X45406000Y-115002000D02*
X45406000Y-117662000D01*
X53086000Y-115002000D02*
X45406000Y-115002000D01*
X53086000Y-117662000D02*
X45406000Y-117662000D01*
X53086000Y-115002000D02*
X53086000Y-117662000D01*
X54356000Y-115002000D02*
X55686000Y-115002000D01*
X55686000Y-115002000D02*
X55686000Y-116332000D01*
X64424000Y-118850000D02*
X60544000Y-118850000D01*
X59374000Y-115730000D02*
X60424000Y-115730000D01*
X59374000Y-116880000D02*
X59374000Y-115730000D01*
X64544000Y-115730000D02*
X64544000Y-114740000D01*
X65594000Y-115730000D02*
X64544000Y-115730000D01*
X65594000Y-116880000D02*
X65594000Y-115730000D01*
X62170000Y-66742000D02*
X63500000Y-66742000D01*
X62170000Y-68072000D02*
X62170000Y-66742000D01*
X62170000Y-69342000D02*
X64830000Y-69342000D01*
X64830000Y-69342000D02*
X64830000Y-97342000D01*
X62170000Y-69342000D02*
X62170000Y-97342000D01*
X62170000Y-97342000D02*
X64830000Y-97342000D01*
X142920000Y-69470000D02*
X149820000Y-69470000D01*
X142920000Y-72770000D02*
X149820000Y-72770000D01*
X142920000Y-69470000D02*
X142920000Y-72770000D01*
X132800000Y-69470000D02*
X139700000Y-69470000D01*
X132800000Y-72770000D02*
X139700000Y-72770000D01*
X132800000Y-69470000D02*
X132800000Y-72770000D01*
X122600000Y-69470000D02*
X129500000Y-69470000D01*
X122600000Y-72770000D02*
X129500000Y-72770000D01*
X122600000Y-69470000D02*
X122600000Y-72770000D01*
X112480000Y-69470000D02*
X119380000Y-69470000D01*
X112480000Y-72770000D02*
X119380000Y-72770000D01*
X112480000Y-69470000D02*
X112480000Y-72770000D01*
X102280000Y-69470000D02*
X109180000Y-69470000D01*
X102280000Y-72770000D02*
X109180000Y-72770000D01*
X102280000Y-69470000D02*
X102280000Y-72770000D01*
X92080000Y-69470000D02*
X98980000Y-69470000D01*
X92080000Y-72770000D02*
X98980000Y-72770000D01*
X92080000Y-69470000D02*
X92080000Y-72770000D01*
X81960000Y-69470000D02*
X88860000Y-69470000D01*
X81960000Y-72770000D02*
X88860000Y-72770000D01*
X81960000Y-69470000D02*
X81960000Y-72770000D01*
X71800000Y-69470000D02*
X78700000Y-69470000D01*
X71800000Y-72770000D02*
X78700000Y-72770000D01*
X71800000Y-69470000D02*
X71800000Y-72770000D01*
X80640000Y-105790000D02*
X73740000Y-105790000D01*
X80640000Y-102490000D02*
X73740000Y-102490000D01*
X80640000Y-105790000D02*
X80640000Y-102490000D01*
X90800000Y-105790000D02*
X83900000Y-105790000D01*
X90800000Y-102490000D02*
X83900000Y-102490000D01*
X90800000Y-105790000D02*
X90800000Y-102490000D01*
X100920000Y-105790000D02*
X94020000Y-105790000D01*
X100920000Y-102490000D02*
X94020000Y-102490000D01*
X100920000Y-105790000D02*
X100920000Y-102490000D01*
X111080000Y-105790000D02*
X104180000Y-105790000D01*
X111080000Y-102490000D02*
X104180000Y-102490000D01*
X111080000Y-105790000D02*
X111080000Y-102490000D01*
X121200000Y-105790000D02*
X114300000Y-105790000D01*
X121200000Y-102490000D02*
X114300000Y-102490000D01*
X121200000Y-105790000D02*
X121200000Y-102490000D01*
X131440000Y-105790000D02*
X124540000Y-105790000D01*
X131440000Y-102490000D02*
X124540000Y-102490000D01*
X131440000Y-105790000D02*
X131440000Y-102490000D01*
X141560000Y-105790000D02*
X134660000Y-105790000D01*
X141560000Y-102490000D02*
X134660000Y-102490000D01*
X141560000Y-105790000D02*
X141560000Y-102490000D01*
X151760000Y-105790000D02*
X144860000Y-105790000D01*
X151760000Y-102490000D02*
X144860000Y-102490000D01*
X151760000Y-105790000D02*
X151760000Y-102490000D01*
D11*
X159778380Y-88439523D02*
X160492666Y-88439523D01*
X160635523Y-88487142D01*
X160730761Y-88582380D01*
X160778380Y-88725238D01*
X160778380Y-88820476D01*
X160778380Y-87439523D02*
X160778380Y-88010952D01*
X160778380Y-87725238D02*
X159778380Y-87725238D01*
X159921238Y-87820476D01*
X160016476Y-87915714D01*
X160064095Y-88010952D01*
X159778380Y-87106190D02*
X159778380Y-86439523D01*
X160778380Y-86868095D01*
X111426666Y-55676380D02*
X111426666Y-56390666D01*
X111379047Y-56533523D01*
X111283809Y-56628761D01*
X111140952Y-56676380D01*
X111045714Y-56676380D01*
X111855238Y-55771619D02*
X111902857Y-55724000D01*
X111998095Y-55676380D01*
X112236190Y-55676380D01*
X112331428Y-55724000D01*
X112379047Y-55771619D01*
X112426666Y-55866857D01*
X112426666Y-55962095D01*
X112379047Y-56104952D01*
X111807619Y-56676380D01*
X112426666Y-56676380D01*
X111426666Y-118488380D02*
X111426666Y-119202666D01*
X111379047Y-119345523D01*
X111283809Y-119440761D01*
X111140952Y-119488380D01*
X111045714Y-119488380D01*
X112426666Y-119488380D02*
X111855238Y-119488380D01*
X112140952Y-119488380D02*
X112140952Y-118488380D01*
X112045714Y-118631238D01*
X111950476Y-118726476D01*
X111855238Y-118774095D01*
X53792571Y-59364571D02*
X53459238Y-59364571D01*
X53459238Y-59888380D02*
X53459238Y-58888380D01*
X53935428Y-58888380D01*
X54316380Y-59888380D02*
X54316380Y-58888380D01*
X54792571Y-59888380D02*
X54792571Y-58888380D01*
X55030666Y-58888380D01*
X55173523Y-58936000D01*
X55268761Y-59031238D01*
X55316380Y-59126476D01*
X55364000Y-59316952D01*
X55364000Y-59459809D01*
X55316380Y-59650285D01*
X55268761Y-59745523D01*
X55173523Y-59840761D01*
X55030666Y-59888380D01*
X54792571Y-59888380D01*
X56316380Y-59888380D02*
X55744952Y-59888380D01*
X56030666Y-59888380D02*
X56030666Y-58888380D01*
X55935428Y-59031238D01*
X55840190Y-59126476D01*
X55744952Y-59174095D01*
X155702095Y-112076380D02*
X155702095Y-111076380D01*
X155702095Y-111552571D02*
X156273523Y-111552571D01*
X156273523Y-112076380D02*
X156273523Y-111076380D01*
X157178285Y-111409714D02*
X157178285Y-112076380D01*
X156940190Y-111028761D02*
X156702095Y-111743047D01*
X157321142Y-111743047D01*
X35814095Y-121356380D02*
X35814095Y-120356380D01*
X35814095Y-120832571D02*
X36385523Y-120832571D01*
X36385523Y-121356380D02*
X36385523Y-120356380D01*
X36766476Y-120356380D02*
X37385523Y-120356380D01*
X37052190Y-120737333D01*
X37195047Y-120737333D01*
X37290285Y-120784952D01*
X37337904Y-120832571D01*
X37385523Y-120927809D01*
X37385523Y-121165904D01*
X37337904Y-121261142D01*
X37290285Y-121308761D01*
X37195047Y-121356380D01*
X36909333Y-121356380D01*
X36814095Y-121308761D01*
X36766476Y-121261142D01*
X155702095Y-55688380D02*
X155702095Y-54688380D01*
X155702095Y-55164571D02*
X156273523Y-55164571D01*
X156273523Y-55688380D02*
X156273523Y-54688380D01*
X156702095Y-54783619D02*
X156749714Y-54736000D01*
X156844952Y-54688380D01*
X157083047Y-54688380D01*
X157178285Y-54736000D01*
X157225904Y-54783619D01*
X157273523Y-54878857D01*
X157273523Y-54974095D01*
X157225904Y-55116952D01*
X156654476Y-55688380D01*
X157273523Y-55688380D01*
X35814095Y-55316380D02*
X35814095Y-54316380D01*
X35814095Y-54792571D02*
X36385523Y-54792571D01*
X36385523Y-55316380D02*
X36385523Y-54316380D01*
X37385523Y-55316380D02*
X36814095Y-55316380D01*
X37099809Y-55316380D02*
X37099809Y-54316380D01*
X37004571Y-54459238D01*
X36909333Y-54554476D01*
X36814095Y-54602095D01*
X155773333Y-102151142D02*
X155725714Y-102198761D01*
X155582857Y-102246380D01*
X155487619Y-102246380D01*
X155344761Y-102198761D01*
X155249523Y-102103523D01*
X155201904Y-102008285D01*
X155154285Y-101817809D01*
X155154285Y-101674952D01*
X155201904Y-101484476D01*
X155249523Y-101389238D01*
X155344761Y-101294000D01*
X155487619Y-101246380D01*
X155582857Y-101246380D01*
X155725714Y-101294000D01*
X155773333Y-101341619D01*
X156154285Y-101341619D02*
X156201904Y-101294000D01*
X156297142Y-101246380D01*
X156535238Y-101246380D01*
X156630476Y-101294000D01*
X156678095Y-101341619D01*
X156725714Y-101436857D01*
X156725714Y-101532095D01*
X156678095Y-101674952D01*
X156106666Y-102246380D01*
X156725714Y-102246380D01*
X155805333Y-81323142D02*
X155757714Y-81370761D01*
X155614857Y-81418380D01*
X155519619Y-81418380D01*
X155376761Y-81370761D01*
X155281523Y-81275523D01*
X155233904Y-81180285D01*
X155186285Y-80989809D01*
X155186285Y-80846952D01*
X155233904Y-80656476D01*
X155281523Y-80561238D01*
X155376761Y-80466000D01*
X155519619Y-80418380D01*
X155614857Y-80418380D01*
X155757714Y-80466000D01*
X155805333Y-80513619D01*
X156757714Y-81418380D02*
X156186285Y-81418380D01*
X156472000Y-81418380D02*
X156472000Y-80418380D01*
X156376761Y-80561238D01*
X156281523Y-80656476D01*
X156186285Y-80704095D01*
X45680380Y-65325523D02*
X46394666Y-65325523D01*
X46537523Y-65373142D01*
X46632761Y-65468380D01*
X46680380Y-65611238D01*
X46680380Y-65706476D01*
X46680380Y-64325523D02*
X46680380Y-64896952D01*
X46680380Y-64611238D02*
X45680380Y-64611238D01*
X45823238Y-64706476D01*
X45918476Y-64801714D01*
X45966095Y-64896952D01*
X46108952Y-63754095D02*
X46061333Y-63849333D01*
X46013714Y-63896952D01*
X45918476Y-63944571D01*
X45870857Y-63944571D01*
X45775619Y-63896952D01*
X45728000Y-63849333D01*
X45680380Y-63754095D01*
X45680380Y-63563619D01*
X45728000Y-63468380D01*
X45775619Y-63420761D01*
X45870857Y-63373142D01*
X45918476Y-63373142D01*
X46013714Y-63420761D01*
X46061333Y-63468380D01*
X46108952Y-63563619D01*
X46108952Y-63754095D01*
X46156571Y-63849333D01*
X46204190Y-63896952D01*
X46299428Y-63944571D01*
X46489904Y-63944571D01*
X46585142Y-63896952D01*
X46632761Y-63849333D01*
X46680380Y-63754095D01*
X46680380Y-63563619D01*
X46632761Y-63468380D01*
X46585142Y-63420761D01*
X46489904Y-63373142D01*
X46299428Y-63373142D01*
X46204190Y-63420761D01*
X46156571Y-63468380D01*
X46108952Y-63563619D01*
X144137142Y-81572380D02*
X143803809Y-81096190D01*
X143565714Y-81572380D02*
X143565714Y-80572380D01*
X143946666Y-80572380D01*
X144041904Y-80620000D01*
X144089523Y-80667619D01*
X144137142Y-80762857D01*
X144137142Y-80905714D01*
X144089523Y-81000952D01*
X144041904Y-81048571D01*
X143946666Y-81096190D01*
X143565714Y-81096190D01*
X144470476Y-80572380D02*
X145089523Y-80572380D01*
X144756190Y-80953333D01*
X144899047Y-80953333D01*
X144994285Y-81000952D01*
X145041904Y-81048571D01*
X145089523Y-81143809D01*
X145089523Y-81381904D01*
X145041904Y-81477142D01*
X144994285Y-81524761D01*
X144899047Y-81572380D01*
X144613333Y-81572380D01*
X144518095Y-81524761D01*
X144470476Y-81477142D01*
X145470476Y-80667619D02*
X145518095Y-80620000D01*
X145613333Y-80572380D01*
X145851428Y-80572380D01*
X145946666Y-80620000D01*
X145994285Y-80667619D01*
X146041904Y-80762857D01*
X146041904Y-80858095D01*
X145994285Y-81000952D01*
X145422857Y-81572380D01*
X146041904Y-81572380D01*
X151742380Y-83192857D02*
X151266190Y-83526190D01*
X151742380Y-83764285D02*
X150742380Y-83764285D01*
X150742380Y-83383333D01*
X150790000Y-83288095D01*
X150837619Y-83240476D01*
X150932857Y-83192857D01*
X151075714Y-83192857D01*
X151170952Y-83240476D01*
X151218571Y-83288095D01*
X151266190Y-83383333D01*
X151266190Y-83764285D01*
X150742380Y-82859523D02*
X150742380Y-82240476D01*
X151123333Y-82573809D01*
X151123333Y-82430952D01*
X151170952Y-82335714D01*
X151218571Y-82288095D01*
X151313809Y-82240476D01*
X151551904Y-82240476D01*
X151647142Y-82288095D01*
X151694761Y-82335714D01*
X151742380Y-82430952D01*
X151742380Y-82716666D01*
X151694761Y-82811904D01*
X151647142Y-82859523D01*
X151742380Y-81288095D02*
X151742380Y-81859523D01*
X151742380Y-81573809D02*
X150742380Y-81573809D01*
X150885238Y-81669047D01*
X150980476Y-81764285D01*
X151028095Y-81859523D01*
X133977142Y-81572380D02*
X133643809Y-81096190D01*
X133405714Y-81572380D02*
X133405714Y-80572380D01*
X133786666Y-80572380D01*
X133881904Y-80620000D01*
X133929523Y-80667619D01*
X133977142Y-80762857D01*
X133977142Y-80905714D01*
X133929523Y-81000952D01*
X133881904Y-81048571D01*
X133786666Y-81096190D01*
X133405714Y-81096190D01*
X134310476Y-80572380D02*
X134929523Y-80572380D01*
X134596190Y-80953333D01*
X134739047Y-80953333D01*
X134834285Y-81000952D01*
X134881904Y-81048571D01*
X134929523Y-81143809D01*
X134929523Y-81381904D01*
X134881904Y-81477142D01*
X134834285Y-81524761D01*
X134739047Y-81572380D01*
X134453333Y-81572380D01*
X134358095Y-81524761D01*
X134310476Y-81477142D01*
X135548571Y-80572380D02*
X135643809Y-80572380D01*
X135739047Y-80620000D01*
X135786666Y-80667619D01*
X135834285Y-80762857D01*
X135881904Y-80953333D01*
X135881904Y-81191428D01*
X135834285Y-81381904D01*
X135786666Y-81477142D01*
X135739047Y-81524761D01*
X135643809Y-81572380D01*
X135548571Y-81572380D01*
X135453333Y-81524761D01*
X135405714Y-81477142D01*
X135358095Y-81381904D01*
X135310476Y-81191428D01*
X135310476Y-80953333D01*
X135358095Y-80762857D01*
X135405714Y-80667619D01*
X135453333Y-80620000D01*
X135548571Y-80572380D01*
X141582380Y-83192857D02*
X141106190Y-83526190D01*
X141582380Y-83764285D02*
X140582380Y-83764285D01*
X140582380Y-83383333D01*
X140630000Y-83288095D01*
X140677619Y-83240476D01*
X140772857Y-83192857D01*
X140915714Y-83192857D01*
X141010952Y-83240476D01*
X141058571Y-83288095D01*
X141106190Y-83383333D01*
X141106190Y-83764285D01*
X140677619Y-82811904D02*
X140630000Y-82764285D01*
X140582380Y-82669047D01*
X140582380Y-82430952D01*
X140630000Y-82335714D01*
X140677619Y-82288095D01*
X140772857Y-82240476D01*
X140868095Y-82240476D01*
X141010952Y-82288095D01*
X141582380Y-82859523D01*
X141582380Y-82240476D01*
X141582380Y-81764285D02*
X141582380Y-81573809D01*
X141534761Y-81478571D01*
X141487142Y-81430952D01*
X141344285Y-81335714D01*
X141153809Y-81288095D01*
X140772857Y-81288095D01*
X140677619Y-81335714D01*
X140630000Y-81383333D01*
X140582380Y-81478571D01*
X140582380Y-81669047D01*
X140630000Y-81764285D01*
X140677619Y-81811904D01*
X140772857Y-81859523D01*
X141010952Y-81859523D01*
X141106190Y-81811904D01*
X141153809Y-81764285D01*
X141201428Y-81669047D01*
X141201428Y-81478571D01*
X141153809Y-81383333D01*
X141106190Y-81335714D01*
X141010952Y-81288095D01*
X123817142Y-81572380D02*
X123483809Y-81096190D01*
X123245714Y-81572380D02*
X123245714Y-80572380D01*
X123626666Y-80572380D01*
X123721904Y-80620000D01*
X123769523Y-80667619D01*
X123817142Y-80762857D01*
X123817142Y-80905714D01*
X123769523Y-81000952D01*
X123721904Y-81048571D01*
X123626666Y-81096190D01*
X123245714Y-81096190D01*
X124198095Y-80667619D02*
X124245714Y-80620000D01*
X124340952Y-80572380D01*
X124579047Y-80572380D01*
X124674285Y-80620000D01*
X124721904Y-80667619D01*
X124769523Y-80762857D01*
X124769523Y-80858095D01*
X124721904Y-81000952D01*
X124150476Y-81572380D01*
X124769523Y-81572380D01*
X125340952Y-81000952D02*
X125245714Y-80953333D01*
X125198095Y-80905714D01*
X125150476Y-80810476D01*
X125150476Y-80762857D01*
X125198095Y-80667619D01*
X125245714Y-80620000D01*
X125340952Y-80572380D01*
X125531428Y-80572380D01*
X125626666Y-80620000D01*
X125674285Y-80667619D01*
X125721904Y-80762857D01*
X125721904Y-80810476D01*
X125674285Y-80905714D01*
X125626666Y-80953333D01*
X125531428Y-81000952D01*
X125340952Y-81000952D01*
X125245714Y-81048571D01*
X125198095Y-81096190D01*
X125150476Y-81191428D01*
X125150476Y-81381904D01*
X125198095Y-81477142D01*
X125245714Y-81524761D01*
X125340952Y-81572380D01*
X125531428Y-81572380D01*
X125626666Y-81524761D01*
X125674285Y-81477142D01*
X125721904Y-81381904D01*
X125721904Y-81191428D01*
X125674285Y-81096190D01*
X125626666Y-81048571D01*
X125531428Y-81000952D01*
X131422380Y-83192857D02*
X130946190Y-83526190D01*
X131422380Y-83764285D02*
X130422380Y-83764285D01*
X130422380Y-83383333D01*
X130470000Y-83288095D01*
X130517619Y-83240476D01*
X130612857Y-83192857D01*
X130755714Y-83192857D01*
X130850952Y-83240476D01*
X130898571Y-83288095D01*
X130946190Y-83383333D01*
X130946190Y-83764285D01*
X130517619Y-82811904D02*
X130470000Y-82764285D01*
X130422380Y-82669047D01*
X130422380Y-82430952D01*
X130470000Y-82335714D01*
X130517619Y-82288095D01*
X130612857Y-82240476D01*
X130708095Y-82240476D01*
X130850952Y-82288095D01*
X131422380Y-82859523D01*
X131422380Y-82240476D01*
X130422380Y-81907142D02*
X130422380Y-81240476D01*
X131422380Y-81669047D01*
X113657142Y-81572380D02*
X113323809Y-81096190D01*
X113085714Y-81572380D02*
X113085714Y-80572380D01*
X113466666Y-80572380D01*
X113561904Y-80620000D01*
X113609523Y-80667619D01*
X113657142Y-80762857D01*
X113657142Y-80905714D01*
X113609523Y-81000952D01*
X113561904Y-81048571D01*
X113466666Y-81096190D01*
X113085714Y-81096190D01*
X114038095Y-80667619D02*
X114085714Y-80620000D01*
X114180952Y-80572380D01*
X114419047Y-80572380D01*
X114514285Y-80620000D01*
X114561904Y-80667619D01*
X114609523Y-80762857D01*
X114609523Y-80858095D01*
X114561904Y-81000952D01*
X113990476Y-81572380D01*
X114609523Y-81572380D01*
X115466666Y-80572380D02*
X115276190Y-80572380D01*
X115180952Y-80620000D01*
X115133333Y-80667619D01*
X115038095Y-80810476D01*
X114990476Y-81000952D01*
X114990476Y-81381904D01*
X115038095Y-81477142D01*
X115085714Y-81524761D01*
X115180952Y-81572380D01*
X115371428Y-81572380D01*
X115466666Y-81524761D01*
X115514285Y-81477142D01*
X115561904Y-81381904D01*
X115561904Y-81143809D01*
X115514285Y-81048571D01*
X115466666Y-81000952D01*
X115371428Y-80953333D01*
X115180952Y-80953333D01*
X115085714Y-81000952D01*
X115038095Y-81048571D01*
X114990476Y-81143809D01*
X121262380Y-83192857D02*
X120786190Y-83526190D01*
X121262380Y-83764285D02*
X120262380Y-83764285D01*
X120262380Y-83383333D01*
X120310000Y-83288095D01*
X120357619Y-83240476D01*
X120452857Y-83192857D01*
X120595714Y-83192857D01*
X120690952Y-83240476D01*
X120738571Y-83288095D01*
X120786190Y-83383333D01*
X120786190Y-83764285D01*
X120357619Y-82811904D02*
X120310000Y-82764285D01*
X120262380Y-82669047D01*
X120262380Y-82430952D01*
X120310000Y-82335714D01*
X120357619Y-82288095D01*
X120452857Y-82240476D01*
X120548095Y-82240476D01*
X120690952Y-82288095D01*
X121262380Y-82859523D01*
X121262380Y-82240476D01*
X120262380Y-81335714D02*
X120262380Y-81811904D01*
X120738571Y-81859523D01*
X120690952Y-81811904D01*
X120643333Y-81716666D01*
X120643333Y-81478571D01*
X120690952Y-81383333D01*
X120738571Y-81335714D01*
X120833809Y-81288095D01*
X121071904Y-81288095D01*
X121167142Y-81335714D01*
X121214761Y-81383333D01*
X121262380Y-81478571D01*
X121262380Y-81716666D01*
X121214761Y-81811904D01*
X121167142Y-81859523D01*
X103727142Y-81572380D02*
X103393809Y-81096190D01*
X103155714Y-81572380D02*
X103155714Y-80572380D01*
X103536666Y-80572380D01*
X103631904Y-80620000D01*
X103679523Y-80667619D01*
X103727142Y-80762857D01*
X103727142Y-80905714D01*
X103679523Y-81000952D01*
X103631904Y-81048571D01*
X103536666Y-81096190D01*
X103155714Y-81096190D01*
X104108095Y-80667619D02*
X104155714Y-80620000D01*
X104250952Y-80572380D01*
X104489047Y-80572380D01*
X104584285Y-80620000D01*
X104631904Y-80667619D01*
X104679523Y-80762857D01*
X104679523Y-80858095D01*
X104631904Y-81000952D01*
X104060476Y-81572380D01*
X104679523Y-81572380D01*
X105536666Y-80905714D02*
X105536666Y-81572380D01*
X105298571Y-80524761D02*
X105060476Y-81239047D01*
X105679523Y-81239047D01*
X111332380Y-83192857D02*
X110856190Y-83526190D01*
X111332380Y-83764285D02*
X110332380Y-83764285D01*
X110332380Y-83383333D01*
X110380000Y-83288095D01*
X110427619Y-83240476D01*
X110522857Y-83192857D01*
X110665714Y-83192857D01*
X110760952Y-83240476D01*
X110808571Y-83288095D01*
X110856190Y-83383333D01*
X110856190Y-83764285D01*
X110427619Y-82811904D02*
X110380000Y-82764285D01*
X110332380Y-82669047D01*
X110332380Y-82430952D01*
X110380000Y-82335714D01*
X110427619Y-82288095D01*
X110522857Y-82240476D01*
X110618095Y-82240476D01*
X110760952Y-82288095D01*
X111332380Y-82859523D01*
X111332380Y-82240476D01*
X110332380Y-81907142D02*
X110332380Y-81288095D01*
X110713333Y-81621428D01*
X110713333Y-81478571D01*
X110760952Y-81383333D01*
X110808571Y-81335714D01*
X110903809Y-81288095D01*
X111141904Y-81288095D01*
X111237142Y-81335714D01*
X111284761Y-81383333D01*
X111332380Y-81478571D01*
X111332380Y-81764285D01*
X111284761Y-81859523D01*
X111237142Y-81907142D01*
X93337142Y-81572380D02*
X93003809Y-81096190D01*
X92765714Y-81572380D02*
X92765714Y-80572380D01*
X93146666Y-80572380D01*
X93241904Y-80620000D01*
X93289523Y-80667619D01*
X93337142Y-80762857D01*
X93337142Y-80905714D01*
X93289523Y-81000952D01*
X93241904Y-81048571D01*
X93146666Y-81096190D01*
X92765714Y-81096190D01*
X93718095Y-80667619D02*
X93765714Y-80620000D01*
X93860952Y-80572380D01*
X94099047Y-80572380D01*
X94194285Y-80620000D01*
X94241904Y-80667619D01*
X94289523Y-80762857D01*
X94289523Y-80858095D01*
X94241904Y-81000952D01*
X93670476Y-81572380D01*
X94289523Y-81572380D01*
X94670476Y-80667619D02*
X94718095Y-80620000D01*
X94813333Y-80572380D01*
X95051428Y-80572380D01*
X95146666Y-80620000D01*
X95194285Y-80667619D01*
X95241904Y-80762857D01*
X95241904Y-80858095D01*
X95194285Y-81000952D01*
X94622857Y-81572380D01*
X95241904Y-81572380D01*
X100942380Y-83192857D02*
X100466190Y-83526190D01*
X100942380Y-83764285D02*
X99942380Y-83764285D01*
X99942380Y-83383333D01*
X99990000Y-83288095D01*
X100037619Y-83240476D01*
X100132857Y-83192857D01*
X100275714Y-83192857D01*
X100370952Y-83240476D01*
X100418571Y-83288095D01*
X100466190Y-83383333D01*
X100466190Y-83764285D01*
X100037619Y-82811904D02*
X99990000Y-82764285D01*
X99942380Y-82669047D01*
X99942380Y-82430952D01*
X99990000Y-82335714D01*
X100037619Y-82288095D01*
X100132857Y-82240476D01*
X100228095Y-82240476D01*
X100370952Y-82288095D01*
X100942380Y-82859523D01*
X100942380Y-82240476D01*
X100942380Y-81288095D02*
X100942380Y-81859523D01*
X100942380Y-81573809D02*
X99942380Y-81573809D01*
X100085238Y-81669047D01*
X100180476Y-81764285D01*
X100228095Y-81859523D01*
X83177142Y-81572380D02*
X82843809Y-81096190D01*
X82605714Y-81572380D02*
X82605714Y-80572380D01*
X82986666Y-80572380D01*
X83081904Y-80620000D01*
X83129523Y-80667619D01*
X83177142Y-80762857D01*
X83177142Y-80905714D01*
X83129523Y-81000952D01*
X83081904Y-81048571D01*
X82986666Y-81096190D01*
X82605714Y-81096190D01*
X83558095Y-80667619D02*
X83605714Y-80620000D01*
X83700952Y-80572380D01*
X83939047Y-80572380D01*
X84034285Y-80620000D01*
X84081904Y-80667619D01*
X84129523Y-80762857D01*
X84129523Y-80858095D01*
X84081904Y-81000952D01*
X83510476Y-81572380D01*
X84129523Y-81572380D01*
X84748571Y-80572380D02*
X84843809Y-80572380D01*
X84939047Y-80620000D01*
X84986666Y-80667619D01*
X85034285Y-80762857D01*
X85081904Y-80953333D01*
X85081904Y-81191428D01*
X85034285Y-81381904D01*
X84986666Y-81477142D01*
X84939047Y-81524761D01*
X84843809Y-81572380D01*
X84748571Y-81572380D01*
X84653333Y-81524761D01*
X84605714Y-81477142D01*
X84558095Y-81381904D01*
X84510476Y-81191428D01*
X84510476Y-80953333D01*
X84558095Y-80762857D01*
X84605714Y-80667619D01*
X84653333Y-80620000D01*
X84748571Y-80572380D01*
X90782380Y-83192857D02*
X90306190Y-83526190D01*
X90782380Y-83764285D02*
X89782380Y-83764285D01*
X89782380Y-83383333D01*
X89830000Y-83288095D01*
X89877619Y-83240476D01*
X89972857Y-83192857D01*
X90115714Y-83192857D01*
X90210952Y-83240476D01*
X90258571Y-83288095D01*
X90306190Y-83383333D01*
X90306190Y-83764285D01*
X90782380Y-82240476D02*
X90782380Y-82811904D01*
X90782380Y-82526190D02*
X89782380Y-82526190D01*
X89925238Y-82621428D01*
X90020476Y-82716666D01*
X90068095Y-82811904D01*
X90782380Y-81764285D02*
X90782380Y-81573809D01*
X90734761Y-81478571D01*
X90687142Y-81430952D01*
X90544285Y-81335714D01*
X90353809Y-81288095D01*
X89972857Y-81288095D01*
X89877619Y-81335714D01*
X89830000Y-81383333D01*
X89782380Y-81478571D01*
X89782380Y-81669047D01*
X89830000Y-81764285D01*
X89877619Y-81811904D01*
X89972857Y-81859523D01*
X90210952Y-81859523D01*
X90306190Y-81811904D01*
X90353809Y-81764285D01*
X90401428Y-81669047D01*
X90401428Y-81478571D01*
X90353809Y-81383333D01*
X90306190Y-81335714D01*
X90210952Y-81288095D01*
X73017142Y-81572380D02*
X72683809Y-81096190D01*
X72445714Y-81572380D02*
X72445714Y-80572380D01*
X72826666Y-80572380D01*
X72921904Y-80620000D01*
X72969523Y-80667619D01*
X73017142Y-80762857D01*
X73017142Y-80905714D01*
X72969523Y-81000952D01*
X72921904Y-81048571D01*
X72826666Y-81096190D01*
X72445714Y-81096190D01*
X73969523Y-81572380D02*
X73398095Y-81572380D01*
X73683809Y-81572380D02*
X73683809Y-80572380D01*
X73588571Y-80715238D01*
X73493333Y-80810476D01*
X73398095Y-80858095D01*
X74540952Y-81000952D02*
X74445714Y-80953333D01*
X74398095Y-80905714D01*
X74350476Y-80810476D01*
X74350476Y-80762857D01*
X74398095Y-80667619D01*
X74445714Y-80620000D01*
X74540952Y-80572380D01*
X74731428Y-80572380D01*
X74826666Y-80620000D01*
X74874285Y-80667619D01*
X74921904Y-80762857D01*
X74921904Y-80810476D01*
X74874285Y-80905714D01*
X74826666Y-80953333D01*
X74731428Y-81000952D01*
X74540952Y-81000952D01*
X74445714Y-81048571D01*
X74398095Y-81096190D01*
X74350476Y-81191428D01*
X74350476Y-81381904D01*
X74398095Y-81477142D01*
X74445714Y-81524761D01*
X74540952Y-81572380D01*
X74731428Y-81572380D01*
X74826666Y-81524761D01*
X74874285Y-81477142D01*
X74921904Y-81381904D01*
X74921904Y-81191428D01*
X74874285Y-81096190D01*
X74826666Y-81048571D01*
X74731428Y-81000952D01*
X80622380Y-83192857D02*
X80146190Y-83526190D01*
X80622380Y-83764285D02*
X79622380Y-83764285D01*
X79622380Y-83383333D01*
X79670000Y-83288095D01*
X79717619Y-83240476D01*
X79812857Y-83192857D01*
X79955714Y-83192857D01*
X80050952Y-83240476D01*
X80098571Y-83288095D01*
X80146190Y-83383333D01*
X80146190Y-83764285D01*
X80622380Y-82240476D02*
X80622380Y-82811904D01*
X80622380Y-82526190D02*
X79622380Y-82526190D01*
X79765238Y-82621428D01*
X79860476Y-82716666D01*
X79908095Y-82811904D01*
X79622380Y-81907142D02*
X79622380Y-81240476D01*
X80622380Y-81669047D01*
X78097142Y-94592380D02*
X77763809Y-94116190D01*
X77525714Y-94592380D02*
X77525714Y-93592380D01*
X77906666Y-93592380D01*
X78001904Y-93640000D01*
X78049523Y-93687619D01*
X78097142Y-93782857D01*
X78097142Y-93925714D01*
X78049523Y-94020952D01*
X78001904Y-94068571D01*
X77906666Y-94116190D01*
X77525714Y-94116190D01*
X79049523Y-94592380D02*
X78478095Y-94592380D01*
X78763809Y-94592380D02*
X78763809Y-93592380D01*
X78668571Y-93735238D01*
X78573333Y-93830476D01*
X78478095Y-93878095D01*
X79906666Y-93592380D02*
X79716190Y-93592380D01*
X79620952Y-93640000D01*
X79573333Y-93687619D01*
X79478095Y-93830476D01*
X79430476Y-94020952D01*
X79430476Y-94401904D01*
X79478095Y-94497142D01*
X79525714Y-94544761D01*
X79620952Y-94592380D01*
X79811428Y-94592380D01*
X79906666Y-94544761D01*
X79954285Y-94497142D01*
X80001904Y-94401904D01*
X80001904Y-94163809D01*
X79954285Y-94068571D01*
X79906666Y-94020952D01*
X79811428Y-93973333D01*
X79620952Y-93973333D01*
X79525714Y-94020952D01*
X79478095Y-94068571D01*
X79430476Y-94163809D01*
X72682380Y-93352857D02*
X72206190Y-93686190D01*
X72682380Y-93924285D02*
X71682380Y-93924285D01*
X71682380Y-93543333D01*
X71730000Y-93448095D01*
X71777619Y-93400476D01*
X71872857Y-93352857D01*
X72015714Y-93352857D01*
X72110952Y-93400476D01*
X72158571Y-93448095D01*
X72206190Y-93543333D01*
X72206190Y-93924285D01*
X72682380Y-92400476D02*
X72682380Y-92971904D01*
X72682380Y-92686190D02*
X71682380Y-92686190D01*
X71825238Y-92781428D01*
X71920476Y-92876666D01*
X71968095Y-92971904D01*
X71682380Y-91495714D02*
X71682380Y-91971904D01*
X72158571Y-92019523D01*
X72110952Y-91971904D01*
X72063333Y-91876666D01*
X72063333Y-91638571D01*
X72110952Y-91543333D01*
X72158571Y-91495714D01*
X72253809Y-91448095D01*
X72491904Y-91448095D01*
X72587142Y-91495714D01*
X72634761Y-91543333D01*
X72682380Y-91638571D01*
X72682380Y-91876666D01*
X72634761Y-91971904D01*
X72587142Y-92019523D01*
X88257142Y-94592380D02*
X87923809Y-94116190D01*
X87685714Y-94592380D02*
X87685714Y-93592380D01*
X88066666Y-93592380D01*
X88161904Y-93640000D01*
X88209523Y-93687619D01*
X88257142Y-93782857D01*
X88257142Y-93925714D01*
X88209523Y-94020952D01*
X88161904Y-94068571D01*
X88066666Y-94116190D01*
X87685714Y-94116190D01*
X89209523Y-94592380D02*
X88638095Y-94592380D01*
X88923809Y-94592380D02*
X88923809Y-93592380D01*
X88828571Y-93735238D01*
X88733333Y-93830476D01*
X88638095Y-93878095D01*
X90066666Y-93925714D02*
X90066666Y-94592380D01*
X89828571Y-93544761D02*
X89590476Y-94259047D01*
X90209523Y-94259047D01*
X82842380Y-93352857D02*
X82366190Y-93686190D01*
X82842380Y-93924285D02*
X81842380Y-93924285D01*
X81842380Y-93543333D01*
X81890000Y-93448095D01*
X81937619Y-93400476D01*
X82032857Y-93352857D01*
X82175714Y-93352857D01*
X82270952Y-93400476D01*
X82318571Y-93448095D01*
X82366190Y-93543333D01*
X82366190Y-93924285D01*
X82842380Y-92400476D02*
X82842380Y-92971904D01*
X82842380Y-92686190D02*
X81842380Y-92686190D01*
X81985238Y-92781428D01*
X82080476Y-92876666D01*
X82128095Y-92971904D01*
X81842380Y-92067142D02*
X81842380Y-91448095D01*
X82223333Y-91781428D01*
X82223333Y-91638571D01*
X82270952Y-91543333D01*
X82318571Y-91495714D01*
X82413809Y-91448095D01*
X82651904Y-91448095D01*
X82747142Y-91495714D01*
X82794761Y-91543333D01*
X82842380Y-91638571D01*
X82842380Y-91924285D01*
X82794761Y-92019523D01*
X82747142Y-92067142D01*
X98647142Y-94592380D02*
X98313809Y-94116190D01*
X98075714Y-94592380D02*
X98075714Y-93592380D01*
X98456666Y-93592380D01*
X98551904Y-93640000D01*
X98599523Y-93687619D01*
X98647142Y-93782857D01*
X98647142Y-93925714D01*
X98599523Y-94020952D01*
X98551904Y-94068571D01*
X98456666Y-94116190D01*
X98075714Y-94116190D01*
X99599523Y-94592380D02*
X99028095Y-94592380D01*
X99313809Y-94592380D02*
X99313809Y-93592380D01*
X99218571Y-93735238D01*
X99123333Y-93830476D01*
X99028095Y-93878095D01*
X99980476Y-93687619D02*
X100028095Y-93640000D01*
X100123333Y-93592380D01*
X100361428Y-93592380D01*
X100456666Y-93640000D01*
X100504285Y-93687619D01*
X100551904Y-93782857D01*
X100551904Y-93878095D01*
X100504285Y-94020952D01*
X99932857Y-94592380D01*
X100551904Y-94592380D01*
X93232380Y-93352857D02*
X92756190Y-93686190D01*
X93232380Y-93924285D02*
X92232380Y-93924285D01*
X92232380Y-93543333D01*
X92280000Y-93448095D01*
X92327619Y-93400476D01*
X92422857Y-93352857D01*
X92565714Y-93352857D01*
X92660952Y-93400476D01*
X92708571Y-93448095D01*
X92756190Y-93543333D01*
X92756190Y-93924285D01*
X93232380Y-92400476D02*
X93232380Y-92971904D01*
X93232380Y-92686190D02*
X92232380Y-92686190D01*
X92375238Y-92781428D01*
X92470476Y-92876666D01*
X92518095Y-92971904D01*
X93232380Y-91448095D02*
X93232380Y-92019523D01*
X93232380Y-91733809D02*
X92232380Y-91733809D01*
X92375238Y-91829047D01*
X92470476Y-91924285D01*
X92518095Y-92019523D01*
X108577142Y-94592380D02*
X108243809Y-94116190D01*
X108005714Y-94592380D02*
X108005714Y-93592380D01*
X108386666Y-93592380D01*
X108481904Y-93640000D01*
X108529523Y-93687619D01*
X108577142Y-93782857D01*
X108577142Y-93925714D01*
X108529523Y-94020952D01*
X108481904Y-94068571D01*
X108386666Y-94116190D01*
X108005714Y-94116190D01*
X109529523Y-94592380D02*
X108958095Y-94592380D01*
X109243809Y-94592380D02*
X109243809Y-93592380D01*
X109148571Y-93735238D01*
X109053333Y-93830476D01*
X108958095Y-93878095D01*
X110148571Y-93592380D02*
X110243809Y-93592380D01*
X110339047Y-93640000D01*
X110386666Y-93687619D01*
X110434285Y-93782857D01*
X110481904Y-93973333D01*
X110481904Y-94211428D01*
X110434285Y-94401904D01*
X110386666Y-94497142D01*
X110339047Y-94544761D01*
X110243809Y-94592380D01*
X110148571Y-94592380D01*
X110053333Y-94544761D01*
X110005714Y-94497142D01*
X109958095Y-94401904D01*
X109910476Y-94211428D01*
X109910476Y-93973333D01*
X109958095Y-93782857D01*
X110005714Y-93687619D01*
X110053333Y-93640000D01*
X110148571Y-93592380D01*
X103162380Y-92876666D02*
X102686190Y-93210000D01*
X103162380Y-93448095D02*
X102162380Y-93448095D01*
X102162380Y-93067142D01*
X102210000Y-92971904D01*
X102257619Y-92924285D01*
X102352857Y-92876666D01*
X102495714Y-92876666D01*
X102590952Y-92924285D01*
X102638571Y-92971904D01*
X102686190Y-93067142D01*
X102686190Y-93448095D01*
X103162380Y-92400476D02*
X103162380Y-92210000D01*
X103114761Y-92114761D01*
X103067142Y-92067142D01*
X102924285Y-91971904D01*
X102733809Y-91924285D01*
X102352857Y-91924285D01*
X102257619Y-91971904D01*
X102210000Y-92019523D01*
X102162380Y-92114761D01*
X102162380Y-92305238D01*
X102210000Y-92400476D01*
X102257619Y-92448095D01*
X102352857Y-92495714D01*
X102590952Y-92495714D01*
X102686190Y-92448095D01*
X102733809Y-92400476D01*
X102781428Y-92305238D01*
X102781428Y-92114761D01*
X102733809Y-92019523D01*
X102686190Y-91971904D01*
X102590952Y-91924285D01*
X119213333Y-94592380D02*
X118880000Y-94116190D01*
X118641904Y-94592380D02*
X118641904Y-93592380D01*
X119022857Y-93592380D01*
X119118095Y-93640000D01*
X119165714Y-93687619D01*
X119213333Y-93782857D01*
X119213333Y-93925714D01*
X119165714Y-94020952D01*
X119118095Y-94068571D01*
X119022857Y-94116190D01*
X118641904Y-94116190D01*
X119784761Y-94020952D02*
X119689523Y-93973333D01*
X119641904Y-93925714D01*
X119594285Y-93830476D01*
X119594285Y-93782857D01*
X119641904Y-93687619D01*
X119689523Y-93640000D01*
X119784761Y-93592380D01*
X119975238Y-93592380D01*
X120070476Y-93640000D01*
X120118095Y-93687619D01*
X120165714Y-93782857D01*
X120165714Y-93830476D01*
X120118095Y-93925714D01*
X120070476Y-93973333D01*
X119975238Y-94020952D01*
X119784761Y-94020952D01*
X119689523Y-94068571D01*
X119641904Y-94116190D01*
X119594285Y-94211428D01*
X119594285Y-94401904D01*
X119641904Y-94497142D01*
X119689523Y-94544761D01*
X119784761Y-94592380D01*
X119975238Y-94592380D01*
X120070476Y-94544761D01*
X120118095Y-94497142D01*
X120165714Y-94401904D01*
X120165714Y-94211428D01*
X120118095Y-94116190D01*
X120070476Y-94068571D01*
X119975238Y-94020952D01*
X113322380Y-92876666D02*
X112846190Y-93210000D01*
X113322380Y-93448095D02*
X112322380Y-93448095D01*
X112322380Y-93067142D01*
X112370000Y-92971904D01*
X112417619Y-92924285D01*
X112512857Y-92876666D01*
X112655714Y-92876666D01*
X112750952Y-92924285D01*
X112798571Y-92971904D01*
X112846190Y-93067142D01*
X112846190Y-93448095D01*
X112322380Y-92543333D02*
X112322380Y-91876666D01*
X113322380Y-92305238D01*
X129373333Y-94592380D02*
X129040000Y-94116190D01*
X128801904Y-94592380D02*
X128801904Y-93592380D01*
X129182857Y-93592380D01*
X129278095Y-93640000D01*
X129325714Y-93687619D01*
X129373333Y-93782857D01*
X129373333Y-93925714D01*
X129325714Y-94020952D01*
X129278095Y-94068571D01*
X129182857Y-94116190D01*
X128801904Y-94116190D01*
X130230476Y-93592380D02*
X130040000Y-93592380D01*
X129944761Y-93640000D01*
X129897142Y-93687619D01*
X129801904Y-93830476D01*
X129754285Y-94020952D01*
X129754285Y-94401904D01*
X129801904Y-94497142D01*
X129849523Y-94544761D01*
X129944761Y-94592380D01*
X130135238Y-94592380D01*
X130230476Y-94544761D01*
X130278095Y-94497142D01*
X130325714Y-94401904D01*
X130325714Y-94163809D01*
X130278095Y-94068571D01*
X130230476Y-94020952D01*
X130135238Y-93973333D01*
X129944761Y-93973333D01*
X129849523Y-94020952D01*
X129801904Y-94068571D01*
X129754285Y-94163809D01*
X123482380Y-92876666D02*
X123006190Y-93210000D01*
X123482380Y-93448095D02*
X122482380Y-93448095D01*
X122482380Y-93067142D01*
X122530000Y-92971904D01*
X122577619Y-92924285D01*
X122672857Y-92876666D01*
X122815714Y-92876666D01*
X122910952Y-92924285D01*
X122958571Y-92971904D01*
X123006190Y-93067142D01*
X123006190Y-93448095D01*
X122482380Y-91971904D02*
X122482380Y-92448095D01*
X122958571Y-92495714D01*
X122910952Y-92448095D01*
X122863333Y-92352857D01*
X122863333Y-92114761D01*
X122910952Y-92019523D01*
X122958571Y-91971904D01*
X123053809Y-91924285D01*
X123291904Y-91924285D01*
X123387142Y-91971904D01*
X123434761Y-92019523D01*
X123482380Y-92114761D01*
X123482380Y-92352857D01*
X123434761Y-92448095D01*
X123387142Y-92495714D01*
X139533333Y-94592380D02*
X139200000Y-94116190D01*
X138961904Y-94592380D02*
X138961904Y-93592380D01*
X139342857Y-93592380D01*
X139438095Y-93640000D01*
X139485714Y-93687619D01*
X139533333Y-93782857D01*
X139533333Y-93925714D01*
X139485714Y-94020952D01*
X139438095Y-94068571D01*
X139342857Y-94116190D01*
X138961904Y-94116190D01*
X140390476Y-93925714D02*
X140390476Y-94592380D01*
X140152380Y-93544761D02*
X139914285Y-94259047D01*
X140533333Y-94259047D01*
X133642380Y-92876666D02*
X133166190Y-93210000D01*
X133642380Y-93448095D02*
X132642380Y-93448095D01*
X132642380Y-93067142D01*
X132690000Y-92971904D01*
X132737619Y-92924285D01*
X132832857Y-92876666D01*
X132975714Y-92876666D01*
X133070952Y-92924285D01*
X133118571Y-92971904D01*
X133166190Y-93067142D01*
X133166190Y-93448095D01*
X132642380Y-92543333D02*
X132642380Y-91924285D01*
X133023333Y-92257619D01*
X133023333Y-92114761D01*
X133070952Y-92019523D01*
X133118571Y-91971904D01*
X133213809Y-91924285D01*
X133451904Y-91924285D01*
X133547142Y-91971904D01*
X133594761Y-92019523D01*
X133642380Y-92114761D01*
X133642380Y-92400476D01*
X133594761Y-92495714D01*
X133547142Y-92543333D01*
X149693333Y-94592380D02*
X149360000Y-94116190D01*
X149121904Y-94592380D02*
X149121904Y-93592380D01*
X149502857Y-93592380D01*
X149598095Y-93640000D01*
X149645714Y-93687619D01*
X149693333Y-93782857D01*
X149693333Y-93925714D01*
X149645714Y-94020952D01*
X149598095Y-94068571D01*
X149502857Y-94116190D01*
X149121904Y-94116190D01*
X150074285Y-93687619D02*
X150121904Y-93640000D01*
X150217142Y-93592380D01*
X150455238Y-93592380D01*
X150550476Y-93640000D01*
X150598095Y-93687619D01*
X150645714Y-93782857D01*
X150645714Y-93878095D01*
X150598095Y-94020952D01*
X150026666Y-94592380D01*
X150645714Y-94592380D01*
X143802380Y-92876666D02*
X143326190Y-93210000D01*
X143802380Y-93448095D02*
X142802380Y-93448095D01*
X142802380Y-93067142D01*
X142850000Y-92971904D01*
X142897619Y-92924285D01*
X142992857Y-92876666D01*
X143135714Y-92876666D01*
X143230952Y-92924285D01*
X143278571Y-92971904D01*
X143326190Y-93067142D01*
X143326190Y-93448095D01*
X143802380Y-91924285D02*
X143802380Y-92495714D01*
X143802380Y-92210000D02*
X142802380Y-92210000D01*
X142945238Y-92305238D01*
X143040476Y-92400476D01*
X143088095Y-92495714D01*
X146748571Y-80517619D02*
X146653333Y-80470000D01*
X146558095Y-80374761D01*
X146415238Y-80231904D01*
X146320000Y-80184285D01*
X146224761Y-80184285D01*
X146272380Y-80422380D02*
X146177142Y-80374761D01*
X146081904Y-80279523D01*
X146034285Y-80089047D01*
X146034285Y-79755714D01*
X146081904Y-79565238D01*
X146177142Y-79470000D01*
X146272380Y-79422380D01*
X146462857Y-79422380D01*
X146558095Y-79470000D01*
X146653333Y-79565238D01*
X146700952Y-79755714D01*
X146700952Y-80089047D01*
X146653333Y-80279523D01*
X146558095Y-80374761D01*
X146462857Y-80422380D01*
X146272380Y-80422380D01*
X147653333Y-80422380D02*
X147081904Y-80422380D01*
X147367619Y-80422380D02*
X147367619Y-79422380D01*
X147272380Y-79565238D01*
X147177142Y-79660476D01*
X147081904Y-79708095D01*
X148510476Y-79422380D02*
X148320000Y-79422380D01*
X148224761Y-79470000D01*
X148177142Y-79517619D01*
X148081904Y-79660476D01*
X148034285Y-79850952D01*
X148034285Y-80231904D01*
X148081904Y-80327142D01*
X148129523Y-80374761D01*
X148224761Y-80422380D01*
X148415238Y-80422380D01*
X148510476Y-80374761D01*
X148558095Y-80327142D01*
X148605714Y-80231904D01*
X148605714Y-79993809D01*
X148558095Y-79898571D01*
X148510476Y-79850952D01*
X148415238Y-79803333D01*
X148224761Y-79803333D01*
X148129523Y-79850952D01*
X148081904Y-79898571D01*
X148034285Y-79993809D01*
X136588571Y-80517619D02*
X136493333Y-80470000D01*
X136398095Y-80374761D01*
X136255238Y-80231904D01*
X136160000Y-80184285D01*
X136064761Y-80184285D01*
X136112380Y-80422380D02*
X136017142Y-80374761D01*
X135921904Y-80279523D01*
X135874285Y-80089047D01*
X135874285Y-79755714D01*
X135921904Y-79565238D01*
X136017142Y-79470000D01*
X136112380Y-79422380D01*
X136302857Y-79422380D01*
X136398095Y-79470000D01*
X136493333Y-79565238D01*
X136540952Y-79755714D01*
X136540952Y-80089047D01*
X136493333Y-80279523D01*
X136398095Y-80374761D01*
X136302857Y-80422380D01*
X136112380Y-80422380D01*
X137493333Y-80422380D02*
X136921904Y-80422380D01*
X137207619Y-80422380D02*
X137207619Y-79422380D01*
X137112380Y-79565238D01*
X137017142Y-79660476D01*
X136921904Y-79708095D01*
X138398095Y-79422380D02*
X137921904Y-79422380D01*
X137874285Y-79898571D01*
X137921904Y-79850952D01*
X138017142Y-79803333D01*
X138255238Y-79803333D01*
X138350476Y-79850952D01*
X138398095Y-79898571D01*
X138445714Y-79993809D01*
X138445714Y-80231904D01*
X138398095Y-80327142D01*
X138350476Y-80374761D01*
X138255238Y-80422380D01*
X138017142Y-80422380D01*
X137921904Y-80374761D01*
X137874285Y-80327142D01*
X126428571Y-80517619D02*
X126333333Y-80470000D01*
X126238095Y-80374761D01*
X126095238Y-80231904D01*
X126000000Y-80184285D01*
X125904761Y-80184285D01*
X125952380Y-80422380D02*
X125857142Y-80374761D01*
X125761904Y-80279523D01*
X125714285Y-80089047D01*
X125714285Y-79755714D01*
X125761904Y-79565238D01*
X125857142Y-79470000D01*
X125952380Y-79422380D01*
X126142857Y-79422380D01*
X126238095Y-79470000D01*
X126333333Y-79565238D01*
X126380952Y-79755714D01*
X126380952Y-80089047D01*
X126333333Y-80279523D01*
X126238095Y-80374761D01*
X126142857Y-80422380D01*
X125952380Y-80422380D01*
X127333333Y-80422380D02*
X126761904Y-80422380D01*
X127047619Y-80422380D02*
X127047619Y-79422380D01*
X126952380Y-79565238D01*
X126857142Y-79660476D01*
X126761904Y-79708095D01*
X128190476Y-79755714D02*
X128190476Y-80422380D01*
X127952380Y-79374761D02*
X127714285Y-80089047D01*
X128333333Y-80089047D01*
X116268571Y-80517619D02*
X116173333Y-80470000D01*
X116078095Y-80374761D01*
X115935238Y-80231904D01*
X115840000Y-80184285D01*
X115744761Y-80184285D01*
X115792380Y-80422380D02*
X115697142Y-80374761D01*
X115601904Y-80279523D01*
X115554285Y-80089047D01*
X115554285Y-79755714D01*
X115601904Y-79565238D01*
X115697142Y-79470000D01*
X115792380Y-79422380D01*
X115982857Y-79422380D01*
X116078095Y-79470000D01*
X116173333Y-79565238D01*
X116220952Y-79755714D01*
X116220952Y-80089047D01*
X116173333Y-80279523D01*
X116078095Y-80374761D01*
X115982857Y-80422380D01*
X115792380Y-80422380D01*
X117173333Y-80422380D02*
X116601904Y-80422380D01*
X116887619Y-80422380D02*
X116887619Y-79422380D01*
X116792380Y-79565238D01*
X116697142Y-79660476D01*
X116601904Y-79708095D01*
X117506666Y-79422380D02*
X118125714Y-79422380D01*
X117792380Y-79803333D01*
X117935238Y-79803333D01*
X118030476Y-79850952D01*
X118078095Y-79898571D01*
X118125714Y-79993809D01*
X118125714Y-80231904D01*
X118078095Y-80327142D01*
X118030476Y-80374761D01*
X117935238Y-80422380D01*
X117649523Y-80422380D01*
X117554285Y-80374761D01*
X117506666Y-80327142D01*
X106338571Y-80517619D02*
X106243333Y-80470000D01*
X106148095Y-80374761D01*
X106005238Y-80231904D01*
X105910000Y-80184285D01*
X105814761Y-80184285D01*
X105862380Y-80422380D02*
X105767142Y-80374761D01*
X105671904Y-80279523D01*
X105624285Y-80089047D01*
X105624285Y-79755714D01*
X105671904Y-79565238D01*
X105767142Y-79470000D01*
X105862380Y-79422380D01*
X106052857Y-79422380D01*
X106148095Y-79470000D01*
X106243333Y-79565238D01*
X106290952Y-79755714D01*
X106290952Y-80089047D01*
X106243333Y-80279523D01*
X106148095Y-80374761D01*
X106052857Y-80422380D01*
X105862380Y-80422380D01*
X107243333Y-80422380D02*
X106671904Y-80422380D01*
X106957619Y-80422380D02*
X106957619Y-79422380D01*
X106862380Y-79565238D01*
X106767142Y-79660476D01*
X106671904Y-79708095D01*
X107624285Y-79517619D02*
X107671904Y-79470000D01*
X107767142Y-79422380D01*
X108005238Y-79422380D01*
X108100476Y-79470000D01*
X108148095Y-79517619D01*
X108195714Y-79612857D01*
X108195714Y-79708095D01*
X108148095Y-79850952D01*
X107576666Y-80422380D01*
X108195714Y-80422380D01*
X95948571Y-80517619D02*
X95853333Y-80470000D01*
X95758095Y-80374761D01*
X95615238Y-80231904D01*
X95520000Y-80184285D01*
X95424761Y-80184285D01*
X95472380Y-80422380D02*
X95377142Y-80374761D01*
X95281904Y-80279523D01*
X95234285Y-80089047D01*
X95234285Y-79755714D01*
X95281904Y-79565238D01*
X95377142Y-79470000D01*
X95472380Y-79422380D01*
X95662857Y-79422380D01*
X95758095Y-79470000D01*
X95853333Y-79565238D01*
X95900952Y-79755714D01*
X95900952Y-80089047D01*
X95853333Y-80279523D01*
X95758095Y-80374761D01*
X95662857Y-80422380D01*
X95472380Y-80422380D01*
X96853333Y-80422380D02*
X96281904Y-80422380D01*
X96567619Y-80422380D02*
X96567619Y-79422380D01*
X96472380Y-79565238D01*
X96377142Y-79660476D01*
X96281904Y-79708095D01*
X97805714Y-80422380D02*
X97234285Y-80422380D01*
X97520000Y-80422380D02*
X97520000Y-79422380D01*
X97424761Y-79565238D01*
X97329523Y-79660476D01*
X97234285Y-79708095D01*
X85788571Y-80517619D02*
X85693333Y-80470000D01*
X85598095Y-80374761D01*
X85455238Y-80231904D01*
X85360000Y-80184285D01*
X85264761Y-80184285D01*
X85312380Y-80422380D02*
X85217142Y-80374761D01*
X85121904Y-80279523D01*
X85074285Y-80089047D01*
X85074285Y-79755714D01*
X85121904Y-79565238D01*
X85217142Y-79470000D01*
X85312380Y-79422380D01*
X85502857Y-79422380D01*
X85598095Y-79470000D01*
X85693333Y-79565238D01*
X85740952Y-79755714D01*
X85740952Y-80089047D01*
X85693333Y-80279523D01*
X85598095Y-80374761D01*
X85502857Y-80422380D01*
X85312380Y-80422380D01*
X86693333Y-80422380D02*
X86121904Y-80422380D01*
X86407619Y-80422380D02*
X86407619Y-79422380D01*
X86312380Y-79565238D01*
X86217142Y-79660476D01*
X86121904Y-79708095D01*
X87312380Y-79422380D02*
X87407619Y-79422380D01*
X87502857Y-79470000D01*
X87550476Y-79517619D01*
X87598095Y-79612857D01*
X87645714Y-79803333D01*
X87645714Y-80041428D01*
X87598095Y-80231904D01*
X87550476Y-80327142D01*
X87502857Y-80374761D01*
X87407619Y-80422380D01*
X87312380Y-80422380D01*
X87217142Y-80374761D01*
X87169523Y-80327142D01*
X87121904Y-80231904D01*
X87074285Y-80041428D01*
X87074285Y-79803333D01*
X87121904Y-79612857D01*
X87169523Y-79517619D01*
X87217142Y-79470000D01*
X87312380Y-79422380D01*
X76104761Y-80517619D02*
X76009523Y-80470000D01*
X75914285Y-80374761D01*
X75771428Y-80231904D01*
X75676190Y-80184285D01*
X75580952Y-80184285D01*
X75628571Y-80422380D02*
X75533333Y-80374761D01*
X75438095Y-80279523D01*
X75390476Y-80089047D01*
X75390476Y-79755714D01*
X75438095Y-79565238D01*
X75533333Y-79470000D01*
X75628571Y-79422380D01*
X75819047Y-79422380D01*
X75914285Y-79470000D01*
X76009523Y-79565238D01*
X76057142Y-79755714D01*
X76057142Y-80089047D01*
X76009523Y-80279523D01*
X75914285Y-80374761D01*
X75819047Y-80422380D01*
X75628571Y-80422380D01*
X76533333Y-80422380D02*
X76723809Y-80422380D01*
X76819047Y-80374761D01*
X76866666Y-80327142D01*
X76961904Y-80184285D01*
X77009523Y-79993809D01*
X77009523Y-79612857D01*
X76961904Y-79517619D01*
X76914285Y-79470000D01*
X76819047Y-79422380D01*
X76628571Y-79422380D01*
X76533333Y-79470000D01*
X76485714Y-79517619D01*
X76438095Y-79612857D01*
X76438095Y-79850952D01*
X76485714Y-79946190D01*
X76533333Y-79993809D01*
X76628571Y-80041428D01*
X76819047Y-80041428D01*
X76914285Y-79993809D01*
X76961904Y-79946190D01*
X77009523Y-79850952D01*
X76104761Y-95837619D02*
X76009523Y-95790000D01*
X75914285Y-95694761D01*
X75771428Y-95551904D01*
X75676190Y-95504285D01*
X75580952Y-95504285D01*
X75628571Y-95742380D02*
X75533333Y-95694761D01*
X75438095Y-95599523D01*
X75390476Y-95409047D01*
X75390476Y-95075714D01*
X75438095Y-94885238D01*
X75533333Y-94790000D01*
X75628571Y-94742380D01*
X75819047Y-94742380D01*
X75914285Y-94790000D01*
X76009523Y-94885238D01*
X76057142Y-95075714D01*
X76057142Y-95409047D01*
X76009523Y-95599523D01*
X75914285Y-95694761D01*
X75819047Y-95742380D01*
X75628571Y-95742380D01*
X76628571Y-95170952D02*
X76533333Y-95123333D01*
X76485714Y-95075714D01*
X76438095Y-94980476D01*
X76438095Y-94932857D01*
X76485714Y-94837619D01*
X76533333Y-94790000D01*
X76628571Y-94742380D01*
X76819047Y-94742380D01*
X76914285Y-94790000D01*
X76961904Y-94837619D01*
X77009523Y-94932857D01*
X77009523Y-94980476D01*
X76961904Y-95075714D01*
X76914285Y-95123333D01*
X76819047Y-95170952D01*
X76628571Y-95170952D01*
X76533333Y-95218571D01*
X76485714Y-95266190D01*
X76438095Y-95361428D01*
X76438095Y-95551904D01*
X76485714Y-95647142D01*
X76533333Y-95694761D01*
X76628571Y-95742380D01*
X76819047Y-95742380D01*
X76914285Y-95694761D01*
X76961904Y-95647142D01*
X77009523Y-95551904D01*
X77009523Y-95361428D01*
X76961904Y-95266190D01*
X76914285Y-95218571D01*
X76819047Y-95170952D01*
X86264761Y-95837619D02*
X86169523Y-95790000D01*
X86074285Y-95694761D01*
X85931428Y-95551904D01*
X85836190Y-95504285D01*
X85740952Y-95504285D01*
X85788571Y-95742380D02*
X85693333Y-95694761D01*
X85598095Y-95599523D01*
X85550476Y-95409047D01*
X85550476Y-95075714D01*
X85598095Y-94885238D01*
X85693333Y-94790000D01*
X85788571Y-94742380D01*
X85979047Y-94742380D01*
X86074285Y-94790000D01*
X86169523Y-94885238D01*
X86217142Y-95075714D01*
X86217142Y-95409047D01*
X86169523Y-95599523D01*
X86074285Y-95694761D01*
X85979047Y-95742380D01*
X85788571Y-95742380D01*
X86550476Y-94742380D02*
X87217142Y-94742380D01*
X86788571Y-95742380D01*
X96654761Y-95837619D02*
X96559523Y-95790000D01*
X96464285Y-95694761D01*
X96321428Y-95551904D01*
X96226190Y-95504285D01*
X96130952Y-95504285D01*
X96178571Y-95742380D02*
X96083333Y-95694761D01*
X95988095Y-95599523D01*
X95940476Y-95409047D01*
X95940476Y-95075714D01*
X95988095Y-94885238D01*
X96083333Y-94790000D01*
X96178571Y-94742380D01*
X96369047Y-94742380D01*
X96464285Y-94790000D01*
X96559523Y-94885238D01*
X96607142Y-95075714D01*
X96607142Y-95409047D01*
X96559523Y-95599523D01*
X96464285Y-95694761D01*
X96369047Y-95742380D01*
X96178571Y-95742380D01*
X97464285Y-94742380D02*
X97273809Y-94742380D01*
X97178571Y-94790000D01*
X97130952Y-94837619D01*
X97035714Y-94980476D01*
X96988095Y-95170952D01*
X96988095Y-95551904D01*
X97035714Y-95647142D01*
X97083333Y-95694761D01*
X97178571Y-95742380D01*
X97369047Y-95742380D01*
X97464285Y-95694761D01*
X97511904Y-95647142D01*
X97559523Y-95551904D01*
X97559523Y-95313809D01*
X97511904Y-95218571D01*
X97464285Y-95170952D01*
X97369047Y-95123333D01*
X97178571Y-95123333D01*
X97083333Y-95170952D01*
X97035714Y-95218571D01*
X96988095Y-95313809D01*
X106584761Y-95837619D02*
X106489523Y-95790000D01*
X106394285Y-95694761D01*
X106251428Y-95551904D01*
X106156190Y-95504285D01*
X106060952Y-95504285D01*
X106108571Y-95742380D02*
X106013333Y-95694761D01*
X105918095Y-95599523D01*
X105870476Y-95409047D01*
X105870476Y-95075714D01*
X105918095Y-94885238D01*
X106013333Y-94790000D01*
X106108571Y-94742380D01*
X106299047Y-94742380D01*
X106394285Y-94790000D01*
X106489523Y-94885238D01*
X106537142Y-95075714D01*
X106537142Y-95409047D01*
X106489523Y-95599523D01*
X106394285Y-95694761D01*
X106299047Y-95742380D01*
X106108571Y-95742380D01*
X107441904Y-94742380D02*
X106965714Y-94742380D01*
X106918095Y-95218571D01*
X106965714Y-95170952D01*
X107060952Y-95123333D01*
X107299047Y-95123333D01*
X107394285Y-95170952D01*
X107441904Y-95218571D01*
X107489523Y-95313809D01*
X107489523Y-95551904D01*
X107441904Y-95647142D01*
X107394285Y-95694761D01*
X107299047Y-95742380D01*
X107060952Y-95742380D01*
X106965714Y-95694761D01*
X106918095Y-95647142D01*
X116744761Y-95837619D02*
X116649523Y-95790000D01*
X116554285Y-95694761D01*
X116411428Y-95551904D01*
X116316190Y-95504285D01*
X116220952Y-95504285D01*
X116268571Y-95742380D02*
X116173333Y-95694761D01*
X116078095Y-95599523D01*
X116030476Y-95409047D01*
X116030476Y-95075714D01*
X116078095Y-94885238D01*
X116173333Y-94790000D01*
X116268571Y-94742380D01*
X116459047Y-94742380D01*
X116554285Y-94790000D01*
X116649523Y-94885238D01*
X116697142Y-95075714D01*
X116697142Y-95409047D01*
X116649523Y-95599523D01*
X116554285Y-95694761D01*
X116459047Y-95742380D01*
X116268571Y-95742380D01*
X117554285Y-95075714D02*
X117554285Y-95742380D01*
X117316190Y-94694761D02*
X117078095Y-95409047D01*
X117697142Y-95409047D01*
X126904761Y-95837619D02*
X126809523Y-95790000D01*
X126714285Y-95694761D01*
X126571428Y-95551904D01*
X126476190Y-95504285D01*
X126380952Y-95504285D01*
X126428571Y-95742380D02*
X126333333Y-95694761D01*
X126238095Y-95599523D01*
X126190476Y-95409047D01*
X126190476Y-95075714D01*
X126238095Y-94885238D01*
X126333333Y-94790000D01*
X126428571Y-94742380D01*
X126619047Y-94742380D01*
X126714285Y-94790000D01*
X126809523Y-94885238D01*
X126857142Y-95075714D01*
X126857142Y-95409047D01*
X126809523Y-95599523D01*
X126714285Y-95694761D01*
X126619047Y-95742380D01*
X126428571Y-95742380D01*
X127190476Y-94742380D02*
X127809523Y-94742380D01*
X127476190Y-95123333D01*
X127619047Y-95123333D01*
X127714285Y-95170952D01*
X127761904Y-95218571D01*
X127809523Y-95313809D01*
X127809523Y-95551904D01*
X127761904Y-95647142D01*
X127714285Y-95694761D01*
X127619047Y-95742380D01*
X127333333Y-95742380D01*
X127238095Y-95694761D01*
X127190476Y-95647142D01*
X137064761Y-95837619D02*
X136969523Y-95790000D01*
X136874285Y-95694761D01*
X136731428Y-95551904D01*
X136636190Y-95504285D01*
X136540952Y-95504285D01*
X136588571Y-95742380D02*
X136493333Y-95694761D01*
X136398095Y-95599523D01*
X136350476Y-95409047D01*
X136350476Y-95075714D01*
X136398095Y-94885238D01*
X136493333Y-94790000D01*
X136588571Y-94742380D01*
X136779047Y-94742380D01*
X136874285Y-94790000D01*
X136969523Y-94885238D01*
X137017142Y-95075714D01*
X137017142Y-95409047D01*
X136969523Y-95599523D01*
X136874285Y-95694761D01*
X136779047Y-95742380D01*
X136588571Y-95742380D01*
X137398095Y-94837619D02*
X137445714Y-94790000D01*
X137540952Y-94742380D01*
X137779047Y-94742380D01*
X137874285Y-94790000D01*
X137921904Y-94837619D01*
X137969523Y-94932857D01*
X137969523Y-95028095D01*
X137921904Y-95170952D01*
X137350476Y-95742380D01*
X137969523Y-95742380D01*
X147224761Y-95837619D02*
X147129523Y-95790000D01*
X147034285Y-95694761D01*
X146891428Y-95551904D01*
X146796190Y-95504285D01*
X146700952Y-95504285D01*
X146748571Y-95742380D02*
X146653333Y-95694761D01*
X146558095Y-95599523D01*
X146510476Y-95409047D01*
X146510476Y-95075714D01*
X146558095Y-94885238D01*
X146653333Y-94790000D01*
X146748571Y-94742380D01*
X146939047Y-94742380D01*
X147034285Y-94790000D01*
X147129523Y-94885238D01*
X147177142Y-95075714D01*
X147177142Y-95409047D01*
X147129523Y-95599523D01*
X147034285Y-95694761D01*
X146939047Y-95742380D01*
X146748571Y-95742380D01*
X148129523Y-95742380D02*
X147558095Y-95742380D01*
X147843809Y-95742380D02*
X147843809Y-94742380D01*
X147748571Y-94885238D01*
X147653333Y-94980476D01*
X147558095Y-95028095D01*
X56856380Y-117141523D02*
X57570666Y-117141523D01*
X57713523Y-117189142D01*
X57808761Y-117284380D01*
X57856380Y-117427238D01*
X57856380Y-117522476D01*
X56951619Y-116712952D02*
X56904000Y-116665333D01*
X56856380Y-116570095D01*
X56856380Y-116332000D01*
X56904000Y-116236761D01*
X56951619Y-116189142D01*
X57046857Y-116141523D01*
X57142095Y-116141523D01*
X57284952Y-116189142D01*
X57856380Y-116760571D01*
X57856380Y-116141523D01*
X57856380Y-115189142D02*
X57856380Y-115760571D01*
X57856380Y-115474857D02*
X56856380Y-115474857D01*
X56999238Y-115570095D01*
X57094476Y-115665333D01*
X57142095Y-115760571D01*
X43616571Y-118332000D02*
X43616571Y-117998666D01*
X44140380Y-117855809D02*
X44140380Y-118332000D01*
X43140380Y-118332000D01*
X43140380Y-117855809D01*
X43140380Y-117522476D02*
X44140380Y-116855809D01*
X43140380Y-116855809D02*
X44140380Y-117522476D01*
X43140380Y-116617714D02*
X43140380Y-116046285D01*
X44140380Y-116332000D02*
X43140380Y-116332000D01*
X44140380Y-115141523D02*
X43664190Y-115474857D01*
X44140380Y-115712952D02*
X43140380Y-115712952D01*
X43140380Y-115332000D01*
X43188000Y-115236761D01*
X43235619Y-115189142D01*
X43330857Y-115141523D01*
X43473714Y-115141523D01*
X43568952Y-115189142D01*
X43616571Y-115236761D01*
X43664190Y-115332000D01*
X43664190Y-115712952D01*
X43854666Y-114760571D02*
X43854666Y-114284380D01*
X44140380Y-114855809D02*
X43140380Y-114522476D01*
X44140380Y-114189142D01*
X61674476Y-119592380D02*
X61674476Y-120306666D01*
X61626857Y-120449523D01*
X61531619Y-120544761D01*
X61388761Y-120592380D01*
X61293523Y-120592380D01*
X62103047Y-119687619D02*
X62150666Y-119640000D01*
X62245904Y-119592380D01*
X62484000Y-119592380D01*
X62579238Y-119640000D01*
X62626857Y-119687619D01*
X62674476Y-119782857D01*
X62674476Y-119878095D01*
X62626857Y-120020952D01*
X62055428Y-120592380D01*
X62674476Y-120592380D01*
X63293523Y-119592380D02*
X63388761Y-119592380D01*
X63484000Y-119640000D01*
X63531619Y-119687619D01*
X63579238Y-119782857D01*
X63626857Y-119973333D01*
X63626857Y-120211428D01*
X63579238Y-120401904D01*
X63531619Y-120497142D01*
X63484000Y-120544761D01*
X63388761Y-120592380D01*
X63293523Y-120592380D01*
X63198285Y-120544761D01*
X63150666Y-120497142D01*
X63103047Y-120401904D01*
X63055428Y-120211428D01*
X63055428Y-119973333D01*
X63103047Y-119782857D01*
X63150666Y-119687619D01*
X63198285Y-119640000D01*
X63293523Y-119592380D01*
X61317333Y-114087619D02*
X61222095Y-114040000D01*
X61126857Y-113944761D01*
X60984000Y-113801904D01*
X60888761Y-113754285D01*
X60793523Y-113754285D01*
X60841142Y-113992380D02*
X60745904Y-113944761D01*
X60650666Y-113849523D01*
X60603047Y-113659047D01*
X60603047Y-113325714D01*
X60650666Y-113135238D01*
X60745904Y-113040000D01*
X60841142Y-112992380D01*
X61031619Y-112992380D01*
X61126857Y-113040000D01*
X61222095Y-113135238D01*
X61269714Y-113325714D01*
X61269714Y-113659047D01*
X61222095Y-113849523D01*
X61126857Y-113944761D01*
X61031619Y-113992380D01*
X60841142Y-113992380D01*
X61603047Y-112992380D02*
X61841142Y-113992380D01*
X62031619Y-113278095D01*
X62222095Y-113992380D01*
X62460190Y-112992380D01*
X62841142Y-113992380D02*
X62841142Y-112992380D01*
X63317333Y-113992380D02*
X63317333Y-112992380D01*
X64364952Y-113897142D02*
X64317333Y-113944761D01*
X64174476Y-113992380D01*
X64079238Y-113992380D01*
X63936380Y-113944761D01*
X63841142Y-113849523D01*
X63793523Y-113754285D01*
X63745904Y-113563809D01*
X63745904Y-113420952D01*
X63793523Y-113230476D01*
X63841142Y-113135238D01*
X63936380Y-113040000D01*
X64079238Y-112992380D01*
X64174476Y-112992380D01*
X64317333Y-113040000D01*
X64364952Y-113087619D01*
X62690476Y-65194380D02*
X62690476Y-65908666D01*
X62642857Y-66051523D01*
X62547619Y-66146761D01*
X62404761Y-66194380D01*
X62309523Y-66194380D01*
X63690476Y-66194380D02*
X63119047Y-66194380D01*
X63404761Y-66194380D02*
X63404761Y-65194380D01*
X63309523Y-65337238D01*
X63214285Y-65432476D01*
X63119047Y-65480095D01*
X64166666Y-66194380D02*
X64357142Y-66194380D01*
X64452380Y-66146761D01*
X64500000Y-66099142D01*
X64595238Y-65956285D01*
X64642857Y-65765809D01*
X64642857Y-65384857D01*
X64595238Y-65289619D01*
X64547619Y-65242000D01*
X64452380Y-65194380D01*
X64261904Y-65194380D01*
X64166666Y-65242000D01*
X64119047Y-65289619D01*
X64071428Y-65384857D01*
X64071428Y-65622952D01*
X64119047Y-65718190D01*
X64166666Y-65765809D01*
X64261904Y-65813428D01*
X64452380Y-65813428D01*
X64547619Y-65765809D01*
X64595238Y-65718190D01*
X64642857Y-65622952D01*
X146105714Y-74112380D02*
X146105714Y-73112380D01*
X146343809Y-73112380D01*
X146486666Y-73160000D01*
X146581904Y-73255238D01*
X146629523Y-73350476D01*
X146677142Y-73540952D01*
X146677142Y-73683809D01*
X146629523Y-73874285D01*
X146581904Y-73969523D01*
X146486666Y-74064761D01*
X146343809Y-74112380D01*
X146105714Y-74112380D01*
X147629523Y-74112380D02*
X147058095Y-74112380D01*
X147343809Y-74112380D02*
X147343809Y-73112380D01*
X147248571Y-73255238D01*
X147153333Y-73350476D01*
X147058095Y-73398095D01*
X148486666Y-73112380D02*
X148296190Y-73112380D01*
X148200952Y-73160000D01*
X148153333Y-73207619D01*
X148058095Y-73350476D01*
X148010476Y-73540952D01*
X148010476Y-73921904D01*
X148058095Y-74017142D01*
X148105714Y-74064761D01*
X148200952Y-74112380D01*
X148391428Y-74112380D01*
X148486666Y-74064761D01*
X148534285Y-74017142D01*
X148581904Y-73921904D01*
X148581904Y-73683809D01*
X148534285Y-73588571D01*
X148486666Y-73540952D01*
X148391428Y-73493333D01*
X148200952Y-73493333D01*
X148105714Y-73540952D01*
X148058095Y-73588571D01*
X148010476Y-73683809D01*
X135945714Y-74112380D02*
X135945714Y-73112380D01*
X136183809Y-73112380D01*
X136326666Y-73160000D01*
X136421904Y-73255238D01*
X136469523Y-73350476D01*
X136517142Y-73540952D01*
X136517142Y-73683809D01*
X136469523Y-73874285D01*
X136421904Y-73969523D01*
X136326666Y-74064761D01*
X136183809Y-74112380D01*
X135945714Y-74112380D01*
X137469523Y-74112380D02*
X136898095Y-74112380D01*
X137183809Y-74112380D02*
X137183809Y-73112380D01*
X137088571Y-73255238D01*
X136993333Y-73350476D01*
X136898095Y-73398095D01*
X138374285Y-73112380D02*
X137898095Y-73112380D01*
X137850476Y-73588571D01*
X137898095Y-73540952D01*
X137993333Y-73493333D01*
X138231428Y-73493333D01*
X138326666Y-73540952D01*
X138374285Y-73588571D01*
X138421904Y-73683809D01*
X138421904Y-73921904D01*
X138374285Y-74017142D01*
X138326666Y-74064761D01*
X138231428Y-74112380D01*
X137993333Y-74112380D01*
X137898095Y-74064761D01*
X137850476Y-74017142D01*
X125785714Y-74112380D02*
X125785714Y-73112380D01*
X126023809Y-73112380D01*
X126166666Y-73160000D01*
X126261904Y-73255238D01*
X126309523Y-73350476D01*
X126357142Y-73540952D01*
X126357142Y-73683809D01*
X126309523Y-73874285D01*
X126261904Y-73969523D01*
X126166666Y-74064761D01*
X126023809Y-74112380D01*
X125785714Y-74112380D01*
X127309523Y-74112380D02*
X126738095Y-74112380D01*
X127023809Y-74112380D02*
X127023809Y-73112380D01*
X126928571Y-73255238D01*
X126833333Y-73350476D01*
X126738095Y-73398095D01*
X128166666Y-73445714D02*
X128166666Y-74112380D01*
X127928571Y-73064761D02*
X127690476Y-73779047D01*
X128309523Y-73779047D01*
X115625714Y-74112380D02*
X115625714Y-73112380D01*
X115863809Y-73112380D01*
X116006666Y-73160000D01*
X116101904Y-73255238D01*
X116149523Y-73350476D01*
X116197142Y-73540952D01*
X116197142Y-73683809D01*
X116149523Y-73874285D01*
X116101904Y-73969523D01*
X116006666Y-74064761D01*
X115863809Y-74112380D01*
X115625714Y-74112380D01*
X117149523Y-74112380D02*
X116578095Y-74112380D01*
X116863809Y-74112380D02*
X116863809Y-73112380D01*
X116768571Y-73255238D01*
X116673333Y-73350476D01*
X116578095Y-73398095D01*
X117482857Y-73112380D02*
X118101904Y-73112380D01*
X117768571Y-73493333D01*
X117911428Y-73493333D01*
X118006666Y-73540952D01*
X118054285Y-73588571D01*
X118101904Y-73683809D01*
X118101904Y-73921904D01*
X118054285Y-74017142D01*
X118006666Y-74064761D01*
X117911428Y-74112380D01*
X117625714Y-74112380D01*
X117530476Y-74064761D01*
X117482857Y-74017142D01*
X105465714Y-74112380D02*
X105465714Y-73112380D01*
X105703809Y-73112380D01*
X105846666Y-73160000D01*
X105941904Y-73255238D01*
X105989523Y-73350476D01*
X106037142Y-73540952D01*
X106037142Y-73683809D01*
X105989523Y-73874285D01*
X105941904Y-73969523D01*
X105846666Y-74064761D01*
X105703809Y-74112380D01*
X105465714Y-74112380D01*
X106989523Y-74112380D02*
X106418095Y-74112380D01*
X106703809Y-74112380D02*
X106703809Y-73112380D01*
X106608571Y-73255238D01*
X106513333Y-73350476D01*
X106418095Y-73398095D01*
X107370476Y-73207619D02*
X107418095Y-73160000D01*
X107513333Y-73112380D01*
X107751428Y-73112380D01*
X107846666Y-73160000D01*
X107894285Y-73207619D01*
X107941904Y-73302857D01*
X107941904Y-73398095D01*
X107894285Y-73540952D01*
X107322857Y-74112380D01*
X107941904Y-74112380D01*
X95265714Y-74112380D02*
X95265714Y-73112380D01*
X95503809Y-73112380D01*
X95646666Y-73160000D01*
X95741904Y-73255238D01*
X95789523Y-73350476D01*
X95837142Y-73540952D01*
X95837142Y-73683809D01*
X95789523Y-73874285D01*
X95741904Y-73969523D01*
X95646666Y-74064761D01*
X95503809Y-74112380D01*
X95265714Y-74112380D01*
X96789523Y-74112380D02*
X96218095Y-74112380D01*
X96503809Y-74112380D02*
X96503809Y-73112380D01*
X96408571Y-73255238D01*
X96313333Y-73350476D01*
X96218095Y-73398095D01*
X97741904Y-74112380D02*
X97170476Y-74112380D01*
X97456190Y-74112380D02*
X97456190Y-73112380D01*
X97360952Y-73255238D01*
X97265714Y-73350476D01*
X97170476Y-73398095D01*
X85145714Y-74112380D02*
X85145714Y-73112380D01*
X85383809Y-73112380D01*
X85526666Y-73160000D01*
X85621904Y-73255238D01*
X85669523Y-73350476D01*
X85717142Y-73540952D01*
X85717142Y-73683809D01*
X85669523Y-73874285D01*
X85621904Y-73969523D01*
X85526666Y-74064761D01*
X85383809Y-74112380D01*
X85145714Y-74112380D01*
X86669523Y-74112380D02*
X86098095Y-74112380D01*
X86383809Y-74112380D02*
X86383809Y-73112380D01*
X86288571Y-73255238D01*
X86193333Y-73350476D01*
X86098095Y-73398095D01*
X87288571Y-73112380D02*
X87383809Y-73112380D01*
X87479047Y-73160000D01*
X87526666Y-73207619D01*
X87574285Y-73302857D01*
X87621904Y-73493333D01*
X87621904Y-73731428D01*
X87574285Y-73921904D01*
X87526666Y-74017142D01*
X87479047Y-74064761D01*
X87383809Y-74112380D01*
X87288571Y-74112380D01*
X87193333Y-74064761D01*
X87145714Y-74017142D01*
X87098095Y-73921904D01*
X87050476Y-73731428D01*
X87050476Y-73493333D01*
X87098095Y-73302857D01*
X87145714Y-73207619D01*
X87193333Y-73160000D01*
X87288571Y-73112380D01*
X75461904Y-74112380D02*
X75461904Y-73112380D01*
X75700000Y-73112380D01*
X75842857Y-73160000D01*
X75938095Y-73255238D01*
X75985714Y-73350476D01*
X76033333Y-73540952D01*
X76033333Y-73683809D01*
X75985714Y-73874285D01*
X75938095Y-73969523D01*
X75842857Y-74064761D01*
X75700000Y-74112380D01*
X75461904Y-74112380D01*
X76509523Y-74112380D02*
X76700000Y-74112380D01*
X76795238Y-74064761D01*
X76842857Y-74017142D01*
X76938095Y-73874285D01*
X76985714Y-73683809D01*
X76985714Y-73302857D01*
X76938095Y-73207619D01*
X76890476Y-73160000D01*
X76795238Y-73112380D01*
X76604761Y-73112380D01*
X76509523Y-73160000D01*
X76461904Y-73207619D01*
X76414285Y-73302857D01*
X76414285Y-73540952D01*
X76461904Y-73636190D01*
X76509523Y-73683809D01*
X76604761Y-73731428D01*
X76795238Y-73731428D01*
X76890476Y-73683809D01*
X76938095Y-73636190D01*
X76985714Y-73540952D01*
X75501904Y-102052380D02*
X75501904Y-101052380D01*
X75740000Y-101052380D01*
X75882857Y-101100000D01*
X75978095Y-101195238D01*
X76025714Y-101290476D01*
X76073333Y-101480952D01*
X76073333Y-101623809D01*
X76025714Y-101814285D01*
X75978095Y-101909523D01*
X75882857Y-102004761D01*
X75740000Y-102052380D01*
X75501904Y-102052380D01*
X76644761Y-101480952D02*
X76549523Y-101433333D01*
X76501904Y-101385714D01*
X76454285Y-101290476D01*
X76454285Y-101242857D01*
X76501904Y-101147619D01*
X76549523Y-101100000D01*
X76644761Y-101052380D01*
X76835238Y-101052380D01*
X76930476Y-101100000D01*
X76978095Y-101147619D01*
X77025714Y-101242857D01*
X77025714Y-101290476D01*
X76978095Y-101385714D01*
X76930476Y-101433333D01*
X76835238Y-101480952D01*
X76644761Y-101480952D01*
X76549523Y-101528571D01*
X76501904Y-101576190D01*
X76454285Y-101671428D01*
X76454285Y-101861904D01*
X76501904Y-101957142D01*
X76549523Y-102004761D01*
X76644761Y-102052380D01*
X76835238Y-102052380D01*
X76930476Y-102004761D01*
X76978095Y-101957142D01*
X77025714Y-101861904D01*
X77025714Y-101671428D01*
X76978095Y-101576190D01*
X76930476Y-101528571D01*
X76835238Y-101480952D01*
X85621904Y-102052380D02*
X85621904Y-101052380D01*
X85860000Y-101052380D01*
X86002857Y-101100000D01*
X86098095Y-101195238D01*
X86145714Y-101290476D01*
X86193333Y-101480952D01*
X86193333Y-101623809D01*
X86145714Y-101814285D01*
X86098095Y-101909523D01*
X86002857Y-102004761D01*
X85860000Y-102052380D01*
X85621904Y-102052380D01*
X86526666Y-101052380D02*
X87193333Y-101052380D01*
X86764761Y-102052380D01*
X95781904Y-102052380D02*
X95781904Y-101052380D01*
X96020000Y-101052380D01*
X96162857Y-101100000D01*
X96258095Y-101195238D01*
X96305714Y-101290476D01*
X96353333Y-101480952D01*
X96353333Y-101623809D01*
X96305714Y-101814285D01*
X96258095Y-101909523D01*
X96162857Y-102004761D01*
X96020000Y-102052380D01*
X95781904Y-102052380D01*
X97210476Y-101052380D02*
X97020000Y-101052380D01*
X96924761Y-101100000D01*
X96877142Y-101147619D01*
X96781904Y-101290476D01*
X96734285Y-101480952D01*
X96734285Y-101861904D01*
X96781904Y-101957142D01*
X96829523Y-102004761D01*
X96924761Y-102052380D01*
X97115238Y-102052380D01*
X97210476Y-102004761D01*
X97258095Y-101957142D01*
X97305714Y-101861904D01*
X97305714Y-101623809D01*
X97258095Y-101528571D01*
X97210476Y-101480952D01*
X97115238Y-101433333D01*
X96924761Y-101433333D01*
X96829523Y-101480952D01*
X96781904Y-101528571D01*
X96734285Y-101623809D01*
X105941904Y-102052380D02*
X105941904Y-101052380D01*
X106180000Y-101052380D01*
X106322857Y-101100000D01*
X106418095Y-101195238D01*
X106465714Y-101290476D01*
X106513333Y-101480952D01*
X106513333Y-101623809D01*
X106465714Y-101814285D01*
X106418095Y-101909523D01*
X106322857Y-102004761D01*
X106180000Y-102052380D01*
X105941904Y-102052380D01*
X107418095Y-101052380D02*
X106941904Y-101052380D01*
X106894285Y-101528571D01*
X106941904Y-101480952D01*
X107037142Y-101433333D01*
X107275238Y-101433333D01*
X107370476Y-101480952D01*
X107418095Y-101528571D01*
X107465714Y-101623809D01*
X107465714Y-101861904D01*
X107418095Y-101957142D01*
X107370476Y-102004761D01*
X107275238Y-102052380D01*
X107037142Y-102052380D01*
X106941904Y-102004761D01*
X106894285Y-101957142D01*
X116061904Y-102052380D02*
X116061904Y-101052380D01*
X116300000Y-101052380D01*
X116442857Y-101100000D01*
X116538095Y-101195238D01*
X116585714Y-101290476D01*
X116633333Y-101480952D01*
X116633333Y-101623809D01*
X116585714Y-101814285D01*
X116538095Y-101909523D01*
X116442857Y-102004761D01*
X116300000Y-102052380D01*
X116061904Y-102052380D01*
X117490476Y-101385714D02*
X117490476Y-102052380D01*
X117252380Y-101004761D02*
X117014285Y-101719047D01*
X117633333Y-101719047D01*
X126261904Y-102052380D02*
X126261904Y-101052380D01*
X126500000Y-101052380D01*
X126642857Y-101100000D01*
X126738095Y-101195238D01*
X126785714Y-101290476D01*
X126833333Y-101480952D01*
X126833333Y-101623809D01*
X126785714Y-101814285D01*
X126738095Y-101909523D01*
X126642857Y-102004761D01*
X126500000Y-102052380D01*
X126261904Y-102052380D01*
X127166666Y-101052380D02*
X127785714Y-101052380D01*
X127452380Y-101433333D01*
X127595238Y-101433333D01*
X127690476Y-101480952D01*
X127738095Y-101528571D01*
X127785714Y-101623809D01*
X127785714Y-101861904D01*
X127738095Y-101957142D01*
X127690476Y-102004761D01*
X127595238Y-102052380D01*
X127309523Y-102052380D01*
X127214285Y-102004761D01*
X127166666Y-101957142D01*
X136421904Y-102052380D02*
X136421904Y-101052380D01*
X136660000Y-101052380D01*
X136802857Y-101100000D01*
X136898095Y-101195238D01*
X136945714Y-101290476D01*
X136993333Y-101480952D01*
X136993333Y-101623809D01*
X136945714Y-101814285D01*
X136898095Y-101909523D01*
X136802857Y-102004761D01*
X136660000Y-102052380D01*
X136421904Y-102052380D01*
X137374285Y-101147619D02*
X137421904Y-101100000D01*
X137517142Y-101052380D01*
X137755238Y-101052380D01*
X137850476Y-101100000D01*
X137898095Y-101147619D01*
X137945714Y-101242857D01*
X137945714Y-101338095D01*
X137898095Y-101480952D01*
X137326666Y-102052380D01*
X137945714Y-102052380D01*
X146621904Y-102052380D02*
X146621904Y-101052380D01*
X146860000Y-101052380D01*
X147002857Y-101100000D01*
X147098095Y-101195238D01*
X147145714Y-101290476D01*
X147193333Y-101480952D01*
X147193333Y-101623809D01*
X147145714Y-101814285D01*
X147098095Y-101909523D01*
X147002857Y-102004761D01*
X146860000Y-102052380D01*
X146621904Y-102052380D01*
X148145714Y-102052380D02*
X147574285Y-102052380D01*
X147860000Y-102052380D02*
X147860000Y-101052380D01*
X147764761Y-101195238D01*
X147669523Y-101290476D01*
X147574285Y-101338095D01*
M02*
