G04 #@! TF.GenerationSoftware,KiCad,Pcbnew,5.1.5+dfsg1-2build2*
G04 #@! TF.CreationDate,2022-05-26T11:06:16-04:00*
G04 #@! TF.ProjectId,feather_valve_driver,66656174-6865-4725-9f76-616c76655f64,rev?*
G04 #@! TF.SameCoordinates,Original*
G04 #@! TF.FileFunction,Copper,L1,Top*
G04 #@! TF.FilePolarity,Positive*
%FSLAX46Y46*%
G04 Gerber Fmt 4.6, Leading zero omitted, Abs format (unit mm)*
G04 Created by KiCad (PCBNEW 5.1.5+dfsg1-2build2) date 2022-05-26 11:06:16*
%MOMM*%
%LPD*%
G04 APERTURE LIST*
%ADD10C,2.100000*%
%ADD11R,2.100000X2.100000*%
%ADD12C,2.600000*%
%ADD13R,2.600000X2.600000*%
%ADD14C,1.500000*%
%ADD15C,1.600000*%
%ADD16R,1.600000X1.600000*%
%ADD17O,1.700000X1.700000*%
%ADD18R,1.700000X1.700000*%
%ADD19C,0.100000*%
%ADD20R,1.900000X0.800000*%
%ADD21R,3.500000X1.800000*%
%ADD22C,1.016000*%
%ADD23C,0.635000*%
%ADD24C,1.016000*%
%ADD25C,0.304800*%
%ADD26C,0.203200*%
G04 APERTURE END LIST*
D10*
X155956000Y-88900000D03*
D11*
X155956000Y-86360000D03*
D12*
X149860000Y-62484000D03*
X144780000Y-62484000D03*
X139700000Y-62484000D03*
X134620000Y-62484000D03*
X129540000Y-62484000D03*
X124460000Y-62484000D03*
X119380000Y-62484000D03*
X114300000Y-62484000D03*
X109220000Y-62484000D03*
X104140000Y-62484000D03*
X99060000Y-62484000D03*
X93980000Y-62484000D03*
X88900000Y-62484000D03*
X83820000Y-62484000D03*
X78740000Y-62484000D03*
D13*
X73660000Y-62484000D03*
D12*
X73660000Y-112776000D03*
X78740000Y-112776000D03*
X83820000Y-112776000D03*
X88900000Y-112776000D03*
X93980000Y-112776000D03*
X99060000Y-112776000D03*
X104140000Y-112776000D03*
X109220000Y-112776000D03*
X114300000Y-112776000D03*
X119380000Y-112776000D03*
X124460000Y-112776000D03*
X129540000Y-112776000D03*
X134620000Y-112776000D03*
X139700000Y-112776000D03*
X144780000Y-112776000D03*
D13*
X149860000Y-112776000D03*
D14*
X51308000Y-59436000D03*
D15*
X154940000Y-98044000D03*
D16*
X156940000Y-98044000D03*
D15*
X154972000Y-77216000D03*
D16*
X156972000Y-77216000D03*
D17*
X43180000Y-96012000D03*
X43180000Y-93472000D03*
X43180000Y-90932000D03*
X43180000Y-88392000D03*
X43180000Y-85852000D03*
X43180000Y-83312000D03*
X43180000Y-80772000D03*
X43180000Y-78232000D03*
X43180000Y-75692000D03*
X43180000Y-73152000D03*
X43180000Y-70612000D03*
X43180000Y-68072000D03*
X43180000Y-65532000D03*
X43180000Y-62992000D03*
X43180000Y-60452000D03*
D18*
X43180000Y-57912000D03*
G04 #@! TA.AperFunction,SMDPad,CuDef*
D19*
G36*
X145965779Y-82076144D02*
G01*
X145988834Y-82079563D01*
X146011443Y-82085227D01*
X146033387Y-82093079D01*
X146054457Y-82103044D01*
X146074448Y-82115026D01*
X146093168Y-82128910D01*
X146110438Y-82144562D01*
X146126090Y-82161832D01*
X146139974Y-82180552D01*
X146151956Y-82200543D01*
X146161921Y-82221613D01*
X146169773Y-82243557D01*
X146175437Y-82266166D01*
X146178856Y-82289221D01*
X146180000Y-82312500D01*
X146180000Y-82787500D01*
X146178856Y-82810779D01*
X146175437Y-82833834D01*
X146169773Y-82856443D01*
X146161921Y-82878387D01*
X146151956Y-82899457D01*
X146139974Y-82919448D01*
X146126090Y-82938168D01*
X146110438Y-82955438D01*
X146093168Y-82971090D01*
X146074448Y-82984974D01*
X146054457Y-82996956D01*
X146033387Y-83006921D01*
X146011443Y-83014773D01*
X145988834Y-83020437D01*
X145965779Y-83023856D01*
X145942500Y-83025000D01*
X145367500Y-83025000D01*
X145344221Y-83023856D01*
X145321166Y-83020437D01*
X145298557Y-83014773D01*
X145276613Y-83006921D01*
X145255543Y-82996956D01*
X145235552Y-82984974D01*
X145216832Y-82971090D01*
X145199562Y-82955438D01*
X145183910Y-82938168D01*
X145170026Y-82919448D01*
X145158044Y-82899457D01*
X145148079Y-82878387D01*
X145140227Y-82856443D01*
X145134563Y-82833834D01*
X145131144Y-82810779D01*
X145130000Y-82787500D01*
X145130000Y-82312500D01*
X145131144Y-82289221D01*
X145134563Y-82266166D01*
X145140227Y-82243557D01*
X145148079Y-82221613D01*
X145158044Y-82200543D01*
X145170026Y-82180552D01*
X145183910Y-82161832D01*
X145199562Y-82144562D01*
X145216832Y-82128910D01*
X145235552Y-82115026D01*
X145255543Y-82103044D01*
X145276613Y-82093079D01*
X145298557Y-82085227D01*
X145321166Y-82079563D01*
X145344221Y-82076144D01*
X145367500Y-82075000D01*
X145942500Y-82075000D01*
X145965779Y-82076144D01*
G37*
G04 #@! TD.AperFunction*
G04 #@! TA.AperFunction,SMDPad,CuDef*
G36*
X144215779Y-82076144D02*
G01*
X144238834Y-82079563D01*
X144261443Y-82085227D01*
X144283387Y-82093079D01*
X144304457Y-82103044D01*
X144324448Y-82115026D01*
X144343168Y-82128910D01*
X144360438Y-82144562D01*
X144376090Y-82161832D01*
X144389974Y-82180552D01*
X144401956Y-82200543D01*
X144411921Y-82221613D01*
X144419773Y-82243557D01*
X144425437Y-82266166D01*
X144428856Y-82289221D01*
X144430000Y-82312500D01*
X144430000Y-82787500D01*
X144428856Y-82810779D01*
X144425437Y-82833834D01*
X144419773Y-82856443D01*
X144411921Y-82878387D01*
X144401956Y-82899457D01*
X144389974Y-82919448D01*
X144376090Y-82938168D01*
X144360438Y-82955438D01*
X144343168Y-82971090D01*
X144324448Y-82984974D01*
X144304457Y-82996956D01*
X144283387Y-83006921D01*
X144261443Y-83014773D01*
X144238834Y-83020437D01*
X144215779Y-83023856D01*
X144192500Y-83025000D01*
X143617500Y-83025000D01*
X143594221Y-83023856D01*
X143571166Y-83020437D01*
X143548557Y-83014773D01*
X143526613Y-83006921D01*
X143505543Y-82996956D01*
X143485552Y-82984974D01*
X143466832Y-82971090D01*
X143449562Y-82955438D01*
X143433910Y-82938168D01*
X143420026Y-82919448D01*
X143408044Y-82899457D01*
X143398079Y-82878387D01*
X143390227Y-82856443D01*
X143384563Y-82833834D01*
X143381144Y-82810779D01*
X143380000Y-82787500D01*
X143380000Y-82312500D01*
X143381144Y-82289221D01*
X143384563Y-82266166D01*
X143390227Y-82243557D01*
X143398079Y-82221613D01*
X143408044Y-82200543D01*
X143420026Y-82180552D01*
X143433910Y-82161832D01*
X143449562Y-82144562D01*
X143466832Y-82128910D01*
X143485552Y-82115026D01*
X143505543Y-82103044D01*
X143526613Y-82093079D01*
X143548557Y-82085227D01*
X143571166Y-82079563D01*
X143594221Y-82076144D01*
X143617500Y-82075000D01*
X144192500Y-82075000D01*
X144215779Y-82076144D01*
G37*
G04 #@! TD.AperFunction*
G04 #@! TA.AperFunction,SMDPad,CuDef*
G36*
X150120779Y-82901144D02*
G01*
X150143834Y-82904563D01*
X150166443Y-82910227D01*
X150188387Y-82918079D01*
X150209457Y-82928044D01*
X150229448Y-82940026D01*
X150248168Y-82953910D01*
X150265438Y-82969562D01*
X150281090Y-82986832D01*
X150294974Y-83005552D01*
X150306956Y-83025543D01*
X150316921Y-83046613D01*
X150324773Y-83068557D01*
X150330437Y-83091166D01*
X150333856Y-83114221D01*
X150335000Y-83137500D01*
X150335000Y-83712500D01*
X150333856Y-83735779D01*
X150330437Y-83758834D01*
X150324773Y-83781443D01*
X150316921Y-83803387D01*
X150306956Y-83824457D01*
X150294974Y-83844448D01*
X150281090Y-83863168D01*
X150265438Y-83880438D01*
X150248168Y-83896090D01*
X150229448Y-83909974D01*
X150209457Y-83921956D01*
X150188387Y-83931921D01*
X150166443Y-83939773D01*
X150143834Y-83945437D01*
X150120779Y-83948856D01*
X150097500Y-83950000D01*
X149622500Y-83950000D01*
X149599221Y-83948856D01*
X149576166Y-83945437D01*
X149553557Y-83939773D01*
X149531613Y-83931921D01*
X149510543Y-83921956D01*
X149490552Y-83909974D01*
X149471832Y-83896090D01*
X149454562Y-83880438D01*
X149438910Y-83863168D01*
X149425026Y-83844448D01*
X149413044Y-83824457D01*
X149403079Y-83803387D01*
X149395227Y-83781443D01*
X149389563Y-83758834D01*
X149386144Y-83735779D01*
X149385000Y-83712500D01*
X149385000Y-83137500D01*
X149386144Y-83114221D01*
X149389563Y-83091166D01*
X149395227Y-83068557D01*
X149403079Y-83046613D01*
X149413044Y-83025543D01*
X149425026Y-83005552D01*
X149438910Y-82986832D01*
X149454562Y-82969562D01*
X149471832Y-82953910D01*
X149490552Y-82940026D01*
X149510543Y-82928044D01*
X149531613Y-82918079D01*
X149553557Y-82910227D01*
X149576166Y-82904563D01*
X149599221Y-82901144D01*
X149622500Y-82900000D01*
X150097500Y-82900000D01*
X150120779Y-82901144D01*
G37*
G04 #@! TD.AperFunction*
G04 #@! TA.AperFunction,SMDPad,CuDef*
G36*
X150120779Y-81151144D02*
G01*
X150143834Y-81154563D01*
X150166443Y-81160227D01*
X150188387Y-81168079D01*
X150209457Y-81178044D01*
X150229448Y-81190026D01*
X150248168Y-81203910D01*
X150265438Y-81219562D01*
X150281090Y-81236832D01*
X150294974Y-81255552D01*
X150306956Y-81275543D01*
X150316921Y-81296613D01*
X150324773Y-81318557D01*
X150330437Y-81341166D01*
X150333856Y-81364221D01*
X150335000Y-81387500D01*
X150335000Y-81962500D01*
X150333856Y-81985779D01*
X150330437Y-82008834D01*
X150324773Y-82031443D01*
X150316921Y-82053387D01*
X150306956Y-82074457D01*
X150294974Y-82094448D01*
X150281090Y-82113168D01*
X150265438Y-82130438D01*
X150248168Y-82146090D01*
X150229448Y-82159974D01*
X150209457Y-82171956D01*
X150188387Y-82181921D01*
X150166443Y-82189773D01*
X150143834Y-82195437D01*
X150120779Y-82198856D01*
X150097500Y-82200000D01*
X149622500Y-82200000D01*
X149599221Y-82198856D01*
X149576166Y-82195437D01*
X149553557Y-82189773D01*
X149531613Y-82181921D01*
X149510543Y-82171956D01*
X149490552Y-82159974D01*
X149471832Y-82146090D01*
X149454562Y-82130438D01*
X149438910Y-82113168D01*
X149425026Y-82094448D01*
X149413044Y-82074457D01*
X149403079Y-82053387D01*
X149395227Y-82031443D01*
X149389563Y-82008834D01*
X149386144Y-81985779D01*
X149385000Y-81962500D01*
X149385000Y-81387500D01*
X149386144Y-81364221D01*
X149389563Y-81341166D01*
X149395227Y-81318557D01*
X149403079Y-81296613D01*
X149413044Y-81275543D01*
X149425026Y-81255552D01*
X149438910Y-81236832D01*
X149454562Y-81219562D01*
X149471832Y-81203910D01*
X149490552Y-81190026D01*
X149510543Y-81178044D01*
X149531613Y-81168079D01*
X149553557Y-81160227D01*
X149576166Y-81154563D01*
X149599221Y-81151144D01*
X149622500Y-81150000D01*
X150097500Y-81150000D01*
X150120779Y-81151144D01*
G37*
G04 #@! TD.AperFunction*
G04 #@! TA.AperFunction,SMDPad,CuDef*
G36*
X135805779Y-82076144D02*
G01*
X135828834Y-82079563D01*
X135851443Y-82085227D01*
X135873387Y-82093079D01*
X135894457Y-82103044D01*
X135914448Y-82115026D01*
X135933168Y-82128910D01*
X135950438Y-82144562D01*
X135966090Y-82161832D01*
X135979974Y-82180552D01*
X135991956Y-82200543D01*
X136001921Y-82221613D01*
X136009773Y-82243557D01*
X136015437Y-82266166D01*
X136018856Y-82289221D01*
X136020000Y-82312500D01*
X136020000Y-82787500D01*
X136018856Y-82810779D01*
X136015437Y-82833834D01*
X136009773Y-82856443D01*
X136001921Y-82878387D01*
X135991956Y-82899457D01*
X135979974Y-82919448D01*
X135966090Y-82938168D01*
X135950438Y-82955438D01*
X135933168Y-82971090D01*
X135914448Y-82984974D01*
X135894457Y-82996956D01*
X135873387Y-83006921D01*
X135851443Y-83014773D01*
X135828834Y-83020437D01*
X135805779Y-83023856D01*
X135782500Y-83025000D01*
X135207500Y-83025000D01*
X135184221Y-83023856D01*
X135161166Y-83020437D01*
X135138557Y-83014773D01*
X135116613Y-83006921D01*
X135095543Y-82996956D01*
X135075552Y-82984974D01*
X135056832Y-82971090D01*
X135039562Y-82955438D01*
X135023910Y-82938168D01*
X135010026Y-82919448D01*
X134998044Y-82899457D01*
X134988079Y-82878387D01*
X134980227Y-82856443D01*
X134974563Y-82833834D01*
X134971144Y-82810779D01*
X134970000Y-82787500D01*
X134970000Y-82312500D01*
X134971144Y-82289221D01*
X134974563Y-82266166D01*
X134980227Y-82243557D01*
X134988079Y-82221613D01*
X134998044Y-82200543D01*
X135010026Y-82180552D01*
X135023910Y-82161832D01*
X135039562Y-82144562D01*
X135056832Y-82128910D01*
X135075552Y-82115026D01*
X135095543Y-82103044D01*
X135116613Y-82093079D01*
X135138557Y-82085227D01*
X135161166Y-82079563D01*
X135184221Y-82076144D01*
X135207500Y-82075000D01*
X135782500Y-82075000D01*
X135805779Y-82076144D01*
G37*
G04 #@! TD.AperFunction*
G04 #@! TA.AperFunction,SMDPad,CuDef*
G36*
X134055779Y-82076144D02*
G01*
X134078834Y-82079563D01*
X134101443Y-82085227D01*
X134123387Y-82093079D01*
X134144457Y-82103044D01*
X134164448Y-82115026D01*
X134183168Y-82128910D01*
X134200438Y-82144562D01*
X134216090Y-82161832D01*
X134229974Y-82180552D01*
X134241956Y-82200543D01*
X134251921Y-82221613D01*
X134259773Y-82243557D01*
X134265437Y-82266166D01*
X134268856Y-82289221D01*
X134270000Y-82312500D01*
X134270000Y-82787500D01*
X134268856Y-82810779D01*
X134265437Y-82833834D01*
X134259773Y-82856443D01*
X134251921Y-82878387D01*
X134241956Y-82899457D01*
X134229974Y-82919448D01*
X134216090Y-82938168D01*
X134200438Y-82955438D01*
X134183168Y-82971090D01*
X134164448Y-82984974D01*
X134144457Y-82996956D01*
X134123387Y-83006921D01*
X134101443Y-83014773D01*
X134078834Y-83020437D01*
X134055779Y-83023856D01*
X134032500Y-83025000D01*
X133457500Y-83025000D01*
X133434221Y-83023856D01*
X133411166Y-83020437D01*
X133388557Y-83014773D01*
X133366613Y-83006921D01*
X133345543Y-82996956D01*
X133325552Y-82984974D01*
X133306832Y-82971090D01*
X133289562Y-82955438D01*
X133273910Y-82938168D01*
X133260026Y-82919448D01*
X133248044Y-82899457D01*
X133238079Y-82878387D01*
X133230227Y-82856443D01*
X133224563Y-82833834D01*
X133221144Y-82810779D01*
X133220000Y-82787500D01*
X133220000Y-82312500D01*
X133221144Y-82289221D01*
X133224563Y-82266166D01*
X133230227Y-82243557D01*
X133238079Y-82221613D01*
X133248044Y-82200543D01*
X133260026Y-82180552D01*
X133273910Y-82161832D01*
X133289562Y-82144562D01*
X133306832Y-82128910D01*
X133325552Y-82115026D01*
X133345543Y-82103044D01*
X133366613Y-82093079D01*
X133388557Y-82085227D01*
X133411166Y-82079563D01*
X133434221Y-82076144D01*
X133457500Y-82075000D01*
X134032500Y-82075000D01*
X134055779Y-82076144D01*
G37*
G04 #@! TD.AperFunction*
G04 #@! TA.AperFunction,SMDPad,CuDef*
G36*
X139960779Y-82901144D02*
G01*
X139983834Y-82904563D01*
X140006443Y-82910227D01*
X140028387Y-82918079D01*
X140049457Y-82928044D01*
X140069448Y-82940026D01*
X140088168Y-82953910D01*
X140105438Y-82969562D01*
X140121090Y-82986832D01*
X140134974Y-83005552D01*
X140146956Y-83025543D01*
X140156921Y-83046613D01*
X140164773Y-83068557D01*
X140170437Y-83091166D01*
X140173856Y-83114221D01*
X140175000Y-83137500D01*
X140175000Y-83712500D01*
X140173856Y-83735779D01*
X140170437Y-83758834D01*
X140164773Y-83781443D01*
X140156921Y-83803387D01*
X140146956Y-83824457D01*
X140134974Y-83844448D01*
X140121090Y-83863168D01*
X140105438Y-83880438D01*
X140088168Y-83896090D01*
X140069448Y-83909974D01*
X140049457Y-83921956D01*
X140028387Y-83931921D01*
X140006443Y-83939773D01*
X139983834Y-83945437D01*
X139960779Y-83948856D01*
X139937500Y-83950000D01*
X139462500Y-83950000D01*
X139439221Y-83948856D01*
X139416166Y-83945437D01*
X139393557Y-83939773D01*
X139371613Y-83931921D01*
X139350543Y-83921956D01*
X139330552Y-83909974D01*
X139311832Y-83896090D01*
X139294562Y-83880438D01*
X139278910Y-83863168D01*
X139265026Y-83844448D01*
X139253044Y-83824457D01*
X139243079Y-83803387D01*
X139235227Y-83781443D01*
X139229563Y-83758834D01*
X139226144Y-83735779D01*
X139225000Y-83712500D01*
X139225000Y-83137500D01*
X139226144Y-83114221D01*
X139229563Y-83091166D01*
X139235227Y-83068557D01*
X139243079Y-83046613D01*
X139253044Y-83025543D01*
X139265026Y-83005552D01*
X139278910Y-82986832D01*
X139294562Y-82969562D01*
X139311832Y-82953910D01*
X139330552Y-82940026D01*
X139350543Y-82928044D01*
X139371613Y-82918079D01*
X139393557Y-82910227D01*
X139416166Y-82904563D01*
X139439221Y-82901144D01*
X139462500Y-82900000D01*
X139937500Y-82900000D01*
X139960779Y-82901144D01*
G37*
G04 #@! TD.AperFunction*
G04 #@! TA.AperFunction,SMDPad,CuDef*
G36*
X139960779Y-81151144D02*
G01*
X139983834Y-81154563D01*
X140006443Y-81160227D01*
X140028387Y-81168079D01*
X140049457Y-81178044D01*
X140069448Y-81190026D01*
X140088168Y-81203910D01*
X140105438Y-81219562D01*
X140121090Y-81236832D01*
X140134974Y-81255552D01*
X140146956Y-81275543D01*
X140156921Y-81296613D01*
X140164773Y-81318557D01*
X140170437Y-81341166D01*
X140173856Y-81364221D01*
X140175000Y-81387500D01*
X140175000Y-81962500D01*
X140173856Y-81985779D01*
X140170437Y-82008834D01*
X140164773Y-82031443D01*
X140156921Y-82053387D01*
X140146956Y-82074457D01*
X140134974Y-82094448D01*
X140121090Y-82113168D01*
X140105438Y-82130438D01*
X140088168Y-82146090D01*
X140069448Y-82159974D01*
X140049457Y-82171956D01*
X140028387Y-82181921D01*
X140006443Y-82189773D01*
X139983834Y-82195437D01*
X139960779Y-82198856D01*
X139937500Y-82200000D01*
X139462500Y-82200000D01*
X139439221Y-82198856D01*
X139416166Y-82195437D01*
X139393557Y-82189773D01*
X139371613Y-82181921D01*
X139350543Y-82171956D01*
X139330552Y-82159974D01*
X139311832Y-82146090D01*
X139294562Y-82130438D01*
X139278910Y-82113168D01*
X139265026Y-82094448D01*
X139253044Y-82074457D01*
X139243079Y-82053387D01*
X139235227Y-82031443D01*
X139229563Y-82008834D01*
X139226144Y-81985779D01*
X139225000Y-81962500D01*
X139225000Y-81387500D01*
X139226144Y-81364221D01*
X139229563Y-81341166D01*
X139235227Y-81318557D01*
X139243079Y-81296613D01*
X139253044Y-81275543D01*
X139265026Y-81255552D01*
X139278910Y-81236832D01*
X139294562Y-81219562D01*
X139311832Y-81203910D01*
X139330552Y-81190026D01*
X139350543Y-81178044D01*
X139371613Y-81168079D01*
X139393557Y-81160227D01*
X139416166Y-81154563D01*
X139439221Y-81151144D01*
X139462500Y-81150000D01*
X139937500Y-81150000D01*
X139960779Y-81151144D01*
G37*
G04 #@! TD.AperFunction*
G04 #@! TA.AperFunction,SMDPad,CuDef*
G36*
X125645779Y-82076144D02*
G01*
X125668834Y-82079563D01*
X125691443Y-82085227D01*
X125713387Y-82093079D01*
X125734457Y-82103044D01*
X125754448Y-82115026D01*
X125773168Y-82128910D01*
X125790438Y-82144562D01*
X125806090Y-82161832D01*
X125819974Y-82180552D01*
X125831956Y-82200543D01*
X125841921Y-82221613D01*
X125849773Y-82243557D01*
X125855437Y-82266166D01*
X125858856Y-82289221D01*
X125860000Y-82312500D01*
X125860000Y-82787500D01*
X125858856Y-82810779D01*
X125855437Y-82833834D01*
X125849773Y-82856443D01*
X125841921Y-82878387D01*
X125831956Y-82899457D01*
X125819974Y-82919448D01*
X125806090Y-82938168D01*
X125790438Y-82955438D01*
X125773168Y-82971090D01*
X125754448Y-82984974D01*
X125734457Y-82996956D01*
X125713387Y-83006921D01*
X125691443Y-83014773D01*
X125668834Y-83020437D01*
X125645779Y-83023856D01*
X125622500Y-83025000D01*
X125047500Y-83025000D01*
X125024221Y-83023856D01*
X125001166Y-83020437D01*
X124978557Y-83014773D01*
X124956613Y-83006921D01*
X124935543Y-82996956D01*
X124915552Y-82984974D01*
X124896832Y-82971090D01*
X124879562Y-82955438D01*
X124863910Y-82938168D01*
X124850026Y-82919448D01*
X124838044Y-82899457D01*
X124828079Y-82878387D01*
X124820227Y-82856443D01*
X124814563Y-82833834D01*
X124811144Y-82810779D01*
X124810000Y-82787500D01*
X124810000Y-82312500D01*
X124811144Y-82289221D01*
X124814563Y-82266166D01*
X124820227Y-82243557D01*
X124828079Y-82221613D01*
X124838044Y-82200543D01*
X124850026Y-82180552D01*
X124863910Y-82161832D01*
X124879562Y-82144562D01*
X124896832Y-82128910D01*
X124915552Y-82115026D01*
X124935543Y-82103044D01*
X124956613Y-82093079D01*
X124978557Y-82085227D01*
X125001166Y-82079563D01*
X125024221Y-82076144D01*
X125047500Y-82075000D01*
X125622500Y-82075000D01*
X125645779Y-82076144D01*
G37*
G04 #@! TD.AperFunction*
G04 #@! TA.AperFunction,SMDPad,CuDef*
G36*
X123895779Y-82076144D02*
G01*
X123918834Y-82079563D01*
X123941443Y-82085227D01*
X123963387Y-82093079D01*
X123984457Y-82103044D01*
X124004448Y-82115026D01*
X124023168Y-82128910D01*
X124040438Y-82144562D01*
X124056090Y-82161832D01*
X124069974Y-82180552D01*
X124081956Y-82200543D01*
X124091921Y-82221613D01*
X124099773Y-82243557D01*
X124105437Y-82266166D01*
X124108856Y-82289221D01*
X124110000Y-82312500D01*
X124110000Y-82787500D01*
X124108856Y-82810779D01*
X124105437Y-82833834D01*
X124099773Y-82856443D01*
X124091921Y-82878387D01*
X124081956Y-82899457D01*
X124069974Y-82919448D01*
X124056090Y-82938168D01*
X124040438Y-82955438D01*
X124023168Y-82971090D01*
X124004448Y-82984974D01*
X123984457Y-82996956D01*
X123963387Y-83006921D01*
X123941443Y-83014773D01*
X123918834Y-83020437D01*
X123895779Y-83023856D01*
X123872500Y-83025000D01*
X123297500Y-83025000D01*
X123274221Y-83023856D01*
X123251166Y-83020437D01*
X123228557Y-83014773D01*
X123206613Y-83006921D01*
X123185543Y-82996956D01*
X123165552Y-82984974D01*
X123146832Y-82971090D01*
X123129562Y-82955438D01*
X123113910Y-82938168D01*
X123100026Y-82919448D01*
X123088044Y-82899457D01*
X123078079Y-82878387D01*
X123070227Y-82856443D01*
X123064563Y-82833834D01*
X123061144Y-82810779D01*
X123060000Y-82787500D01*
X123060000Y-82312500D01*
X123061144Y-82289221D01*
X123064563Y-82266166D01*
X123070227Y-82243557D01*
X123078079Y-82221613D01*
X123088044Y-82200543D01*
X123100026Y-82180552D01*
X123113910Y-82161832D01*
X123129562Y-82144562D01*
X123146832Y-82128910D01*
X123165552Y-82115026D01*
X123185543Y-82103044D01*
X123206613Y-82093079D01*
X123228557Y-82085227D01*
X123251166Y-82079563D01*
X123274221Y-82076144D01*
X123297500Y-82075000D01*
X123872500Y-82075000D01*
X123895779Y-82076144D01*
G37*
G04 #@! TD.AperFunction*
G04 #@! TA.AperFunction,SMDPad,CuDef*
G36*
X129800779Y-82901144D02*
G01*
X129823834Y-82904563D01*
X129846443Y-82910227D01*
X129868387Y-82918079D01*
X129889457Y-82928044D01*
X129909448Y-82940026D01*
X129928168Y-82953910D01*
X129945438Y-82969562D01*
X129961090Y-82986832D01*
X129974974Y-83005552D01*
X129986956Y-83025543D01*
X129996921Y-83046613D01*
X130004773Y-83068557D01*
X130010437Y-83091166D01*
X130013856Y-83114221D01*
X130015000Y-83137500D01*
X130015000Y-83712500D01*
X130013856Y-83735779D01*
X130010437Y-83758834D01*
X130004773Y-83781443D01*
X129996921Y-83803387D01*
X129986956Y-83824457D01*
X129974974Y-83844448D01*
X129961090Y-83863168D01*
X129945438Y-83880438D01*
X129928168Y-83896090D01*
X129909448Y-83909974D01*
X129889457Y-83921956D01*
X129868387Y-83931921D01*
X129846443Y-83939773D01*
X129823834Y-83945437D01*
X129800779Y-83948856D01*
X129777500Y-83950000D01*
X129302500Y-83950000D01*
X129279221Y-83948856D01*
X129256166Y-83945437D01*
X129233557Y-83939773D01*
X129211613Y-83931921D01*
X129190543Y-83921956D01*
X129170552Y-83909974D01*
X129151832Y-83896090D01*
X129134562Y-83880438D01*
X129118910Y-83863168D01*
X129105026Y-83844448D01*
X129093044Y-83824457D01*
X129083079Y-83803387D01*
X129075227Y-83781443D01*
X129069563Y-83758834D01*
X129066144Y-83735779D01*
X129065000Y-83712500D01*
X129065000Y-83137500D01*
X129066144Y-83114221D01*
X129069563Y-83091166D01*
X129075227Y-83068557D01*
X129083079Y-83046613D01*
X129093044Y-83025543D01*
X129105026Y-83005552D01*
X129118910Y-82986832D01*
X129134562Y-82969562D01*
X129151832Y-82953910D01*
X129170552Y-82940026D01*
X129190543Y-82928044D01*
X129211613Y-82918079D01*
X129233557Y-82910227D01*
X129256166Y-82904563D01*
X129279221Y-82901144D01*
X129302500Y-82900000D01*
X129777500Y-82900000D01*
X129800779Y-82901144D01*
G37*
G04 #@! TD.AperFunction*
G04 #@! TA.AperFunction,SMDPad,CuDef*
G36*
X129800779Y-81151144D02*
G01*
X129823834Y-81154563D01*
X129846443Y-81160227D01*
X129868387Y-81168079D01*
X129889457Y-81178044D01*
X129909448Y-81190026D01*
X129928168Y-81203910D01*
X129945438Y-81219562D01*
X129961090Y-81236832D01*
X129974974Y-81255552D01*
X129986956Y-81275543D01*
X129996921Y-81296613D01*
X130004773Y-81318557D01*
X130010437Y-81341166D01*
X130013856Y-81364221D01*
X130015000Y-81387500D01*
X130015000Y-81962500D01*
X130013856Y-81985779D01*
X130010437Y-82008834D01*
X130004773Y-82031443D01*
X129996921Y-82053387D01*
X129986956Y-82074457D01*
X129974974Y-82094448D01*
X129961090Y-82113168D01*
X129945438Y-82130438D01*
X129928168Y-82146090D01*
X129909448Y-82159974D01*
X129889457Y-82171956D01*
X129868387Y-82181921D01*
X129846443Y-82189773D01*
X129823834Y-82195437D01*
X129800779Y-82198856D01*
X129777500Y-82200000D01*
X129302500Y-82200000D01*
X129279221Y-82198856D01*
X129256166Y-82195437D01*
X129233557Y-82189773D01*
X129211613Y-82181921D01*
X129190543Y-82171956D01*
X129170552Y-82159974D01*
X129151832Y-82146090D01*
X129134562Y-82130438D01*
X129118910Y-82113168D01*
X129105026Y-82094448D01*
X129093044Y-82074457D01*
X129083079Y-82053387D01*
X129075227Y-82031443D01*
X129069563Y-82008834D01*
X129066144Y-81985779D01*
X129065000Y-81962500D01*
X129065000Y-81387500D01*
X129066144Y-81364221D01*
X129069563Y-81341166D01*
X129075227Y-81318557D01*
X129083079Y-81296613D01*
X129093044Y-81275543D01*
X129105026Y-81255552D01*
X129118910Y-81236832D01*
X129134562Y-81219562D01*
X129151832Y-81203910D01*
X129170552Y-81190026D01*
X129190543Y-81178044D01*
X129211613Y-81168079D01*
X129233557Y-81160227D01*
X129256166Y-81154563D01*
X129279221Y-81151144D01*
X129302500Y-81150000D01*
X129777500Y-81150000D01*
X129800779Y-81151144D01*
G37*
G04 #@! TD.AperFunction*
G04 #@! TA.AperFunction,SMDPad,CuDef*
G36*
X115485779Y-82076144D02*
G01*
X115508834Y-82079563D01*
X115531443Y-82085227D01*
X115553387Y-82093079D01*
X115574457Y-82103044D01*
X115594448Y-82115026D01*
X115613168Y-82128910D01*
X115630438Y-82144562D01*
X115646090Y-82161832D01*
X115659974Y-82180552D01*
X115671956Y-82200543D01*
X115681921Y-82221613D01*
X115689773Y-82243557D01*
X115695437Y-82266166D01*
X115698856Y-82289221D01*
X115700000Y-82312500D01*
X115700000Y-82787500D01*
X115698856Y-82810779D01*
X115695437Y-82833834D01*
X115689773Y-82856443D01*
X115681921Y-82878387D01*
X115671956Y-82899457D01*
X115659974Y-82919448D01*
X115646090Y-82938168D01*
X115630438Y-82955438D01*
X115613168Y-82971090D01*
X115594448Y-82984974D01*
X115574457Y-82996956D01*
X115553387Y-83006921D01*
X115531443Y-83014773D01*
X115508834Y-83020437D01*
X115485779Y-83023856D01*
X115462500Y-83025000D01*
X114887500Y-83025000D01*
X114864221Y-83023856D01*
X114841166Y-83020437D01*
X114818557Y-83014773D01*
X114796613Y-83006921D01*
X114775543Y-82996956D01*
X114755552Y-82984974D01*
X114736832Y-82971090D01*
X114719562Y-82955438D01*
X114703910Y-82938168D01*
X114690026Y-82919448D01*
X114678044Y-82899457D01*
X114668079Y-82878387D01*
X114660227Y-82856443D01*
X114654563Y-82833834D01*
X114651144Y-82810779D01*
X114650000Y-82787500D01*
X114650000Y-82312500D01*
X114651144Y-82289221D01*
X114654563Y-82266166D01*
X114660227Y-82243557D01*
X114668079Y-82221613D01*
X114678044Y-82200543D01*
X114690026Y-82180552D01*
X114703910Y-82161832D01*
X114719562Y-82144562D01*
X114736832Y-82128910D01*
X114755552Y-82115026D01*
X114775543Y-82103044D01*
X114796613Y-82093079D01*
X114818557Y-82085227D01*
X114841166Y-82079563D01*
X114864221Y-82076144D01*
X114887500Y-82075000D01*
X115462500Y-82075000D01*
X115485779Y-82076144D01*
G37*
G04 #@! TD.AperFunction*
G04 #@! TA.AperFunction,SMDPad,CuDef*
G36*
X113735779Y-82076144D02*
G01*
X113758834Y-82079563D01*
X113781443Y-82085227D01*
X113803387Y-82093079D01*
X113824457Y-82103044D01*
X113844448Y-82115026D01*
X113863168Y-82128910D01*
X113880438Y-82144562D01*
X113896090Y-82161832D01*
X113909974Y-82180552D01*
X113921956Y-82200543D01*
X113931921Y-82221613D01*
X113939773Y-82243557D01*
X113945437Y-82266166D01*
X113948856Y-82289221D01*
X113950000Y-82312500D01*
X113950000Y-82787500D01*
X113948856Y-82810779D01*
X113945437Y-82833834D01*
X113939773Y-82856443D01*
X113931921Y-82878387D01*
X113921956Y-82899457D01*
X113909974Y-82919448D01*
X113896090Y-82938168D01*
X113880438Y-82955438D01*
X113863168Y-82971090D01*
X113844448Y-82984974D01*
X113824457Y-82996956D01*
X113803387Y-83006921D01*
X113781443Y-83014773D01*
X113758834Y-83020437D01*
X113735779Y-83023856D01*
X113712500Y-83025000D01*
X113137500Y-83025000D01*
X113114221Y-83023856D01*
X113091166Y-83020437D01*
X113068557Y-83014773D01*
X113046613Y-83006921D01*
X113025543Y-82996956D01*
X113005552Y-82984974D01*
X112986832Y-82971090D01*
X112969562Y-82955438D01*
X112953910Y-82938168D01*
X112940026Y-82919448D01*
X112928044Y-82899457D01*
X112918079Y-82878387D01*
X112910227Y-82856443D01*
X112904563Y-82833834D01*
X112901144Y-82810779D01*
X112900000Y-82787500D01*
X112900000Y-82312500D01*
X112901144Y-82289221D01*
X112904563Y-82266166D01*
X112910227Y-82243557D01*
X112918079Y-82221613D01*
X112928044Y-82200543D01*
X112940026Y-82180552D01*
X112953910Y-82161832D01*
X112969562Y-82144562D01*
X112986832Y-82128910D01*
X113005552Y-82115026D01*
X113025543Y-82103044D01*
X113046613Y-82093079D01*
X113068557Y-82085227D01*
X113091166Y-82079563D01*
X113114221Y-82076144D01*
X113137500Y-82075000D01*
X113712500Y-82075000D01*
X113735779Y-82076144D01*
G37*
G04 #@! TD.AperFunction*
G04 #@! TA.AperFunction,SMDPad,CuDef*
G36*
X119640779Y-82901144D02*
G01*
X119663834Y-82904563D01*
X119686443Y-82910227D01*
X119708387Y-82918079D01*
X119729457Y-82928044D01*
X119749448Y-82940026D01*
X119768168Y-82953910D01*
X119785438Y-82969562D01*
X119801090Y-82986832D01*
X119814974Y-83005552D01*
X119826956Y-83025543D01*
X119836921Y-83046613D01*
X119844773Y-83068557D01*
X119850437Y-83091166D01*
X119853856Y-83114221D01*
X119855000Y-83137500D01*
X119855000Y-83712500D01*
X119853856Y-83735779D01*
X119850437Y-83758834D01*
X119844773Y-83781443D01*
X119836921Y-83803387D01*
X119826956Y-83824457D01*
X119814974Y-83844448D01*
X119801090Y-83863168D01*
X119785438Y-83880438D01*
X119768168Y-83896090D01*
X119749448Y-83909974D01*
X119729457Y-83921956D01*
X119708387Y-83931921D01*
X119686443Y-83939773D01*
X119663834Y-83945437D01*
X119640779Y-83948856D01*
X119617500Y-83950000D01*
X119142500Y-83950000D01*
X119119221Y-83948856D01*
X119096166Y-83945437D01*
X119073557Y-83939773D01*
X119051613Y-83931921D01*
X119030543Y-83921956D01*
X119010552Y-83909974D01*
X118991832Y-83896090D01*
X118974562Y-83880438D01*
X118958910Y-83863168D01*
X118945026Y-83844448D01*
X118933044Y-83824457D01*
X118923079Y-83803387D01*
X118915227Y-83781443D01*
X118909563Y-83758834D01*
X118906144Y-83735779D01*
X118905000Y-83712500D01*
X118905000Y-83137500D01*
X118906144Y-83114221D01*
X118909563Y-83091166D01*
X118915227Y-83068557D01*
X118923079Y-83046613D01*
X118933044Y-83025543D01*
X118945026Y-83005552D01*
X118958910Y-82986832D01*
X118974562Y-82969562D01*
X118991832Y-82953910D01*
X119010552Y-82940026D01*
X119030543Y-82928044D01*
X119051613Y-82918079D01*
X119073557Y-82910227D01*
X119096166Y-82904563D01*
X119119221Y-82901144D01*
X119142500Y-82900000D01*
X119617500Y-82900000D01*
X119640779Y-82901144D01*
G37*
G04 #@! TD.AperFunction*
G04 #@! TA.AperFunction,SMDPad,CuDef*
G36*
X119640779Y-81151144D02*
G01*
X119663834Y-81154563D01*
X119686443Y-81160227D01*
X119708387Y-81168079D01*
X119729457Y-81178044D01*
X119749448Y-81190026D01*
X119768168Y-81203910D01*
X119785438Y-81219562D01*
X119801090Y-81236832D01*
X119814974Y-81255552D01*
X119826956Y-81275543D01*
X119836921Y-81296613D01*
X119844773Y-81318557D01*
X119850437Y-81341166D01*
X119853856Y-81364221D01*
X119855000Y-81387500D01*
X119855000Y-81962500D01*
X119853856Y-81985779D01*
X119850437Y-82008834D01*
X119844773Y-82031443D01*
X119836921Y-82053387D01*
X119826956Y-82074457D01*
X119814974Y-82094448D01*
X119801090Y-82113168D01*
X119785438Y-82130438D01*
X119768168Y-82146090D01*
X119749448Y-82159974D01*
X119729457Y-82171956D01*
X119708387Y-82181921D01*
X119686443Y-82189773D01*
X119663834Y-82195437D01*
X119640779Y-82198856D01*
X119617500Y-82200000D01*
X119142500Y-82200000D01*
X119119221Y-82198856D01*
X119096166Y-82195437D01*
X119073557Y-82189773D01*
X119051613Y-82181921D01*
X119030543Y-82171956D01*
X119010552Y-82159974D01*
X118991832Y-82146090D01*
X118974562Y-82130438D01*
X118958910Y-82113168D01*
X118945026Y-82094448D01*
X118933044Y-82074457D01*
X118923079Y-82053387D01*
X118915227Y-82031443D01*
X118909563Y-82008834D01*
X118906144Y-81985779D01*
X118905000Y-81962500D01*
X118905000Y-81387500D01*
X118906144Y-81364221D01*
X118909563Y-81341166D01*
X118915227Y-81318557D01*
X118923079Y-81296613D01*
X118933044Y-81275543D01*
X118945026Y-81255552D01*
X118958910Y-81236832D01*
X118974562Y-81219562D01*
X118991832Y-81203910D01*
X119010552Y-81190026D01*
X119030543Y-81178044D01*
X119051613Y-81168079D01*
X119073557Y-81160227D01*
X119096166Y-81154563D01*
X119119221Y-81151144D01*
X119142500Y-81150000D01*
X119617500Y-81150000D01*
X119640779Y-81151144D01*
G37*
G04 #@! TD.AperFunction*
G04 #@! TA.AperFunction,SMDPad,CuDef*
G36*
X105555779Y-82076144D02*
G01*
X105578834Y-82079563D01*
X105601443Y-82085227D01*
X105623387Y-82093079D01*
X105644457Y-82103044D01*
X105664448Y-82115026D01*
X105683168Y-82128910D01*
X105700438Y-82144562D01*
X105716090Y-82161832D01*
X105729974Y-82180552D01*
X105741956Y-82200543D01*
X105751921Y-82221613D01*
X105759773Y-82243557D01*
X105765437Y-82266166D01*
X105768856Y-82289221D01*
X105770000Y-82312500D01*
X105770000Y-82787500D01*
X105768856Y-82810779D01*
X105765437Y-82833834D01*
X105759773Y-82856443D01*
X105751921Y-82878387D01*
X105741956Y-82899457D01*
X105729974Y-82919448D01*
X105716090Y-82938168D01*
X105700438Y-82955438D01*
X105683168Y-82971090D01*
X105664448Y-82984974D01*
X105644457Y-82996956D01*
X105623387Y-83006921D01*
X105601443Y-83014773D01*
X105578834Y-83020437D01*
X105555779Y-83023856D01*
X105532500Y-83025000D01*
X104957500Y-83025000D01*
X104934221Y-83023856D01*
X104911166Y-83020437D01*
X104888557Y-83014773D01*
X104866613Y-83006921D01*
X104845543Y-82996956D01*
X104825552Y-82984974D01*
X104806832Y-82971090D01*
X104789562Y-82955438D01*
X104773910Y-82938168D01*
X104760026Y-82919448D01*
X104748044Y-82899457D01*
X104738079Y-82878387D01*
X104730227Y-82856443D01*
X104724563Y-82833834D01*
X104721144Y-82810779D01*
X104720000Y-82787500D01*
X104720000Y-82312500D01*
X104721144Y-82289221D01*
X104724563Y-82266166D01*
X104730227Y-82243557D01*
X104738079Y-82221613D01*
X104748044Y-82200543D01*
X104760026Y-82180552D01*
X104773910Y-82161832D01*
X104789562Y-82144562D01*
X104806832Y-82128910D01*
X104825552Y-82115026D01*
X104845543Y-82103044D01*
X104866613Y-82093079D01*
X104888557Y-82085227D01*
X104911166Y-82079563D01*
X104934221Y-82076144D01*
X104957500Y-82075000D01*
X105532500Y-82075000D01*
X105555779Y-82076144D01*
G37*
G04 #@! TD.AperFunction*
G04 #@! TA.AperFunction,SMDPad,CuDef*
G36*
X103805779Y-82076144D02*
G01*
X103828834Y-82079563D01*
X103851443Y-82085227D01*
X103873387Y-82093079D01*
X103894457Y-82103044D01*
X103914448Y-82115026D01*
X103933168Y-82128910D01*
X103950438Y-82144562D01*
X103966090Y-82161832D01*
X103979974Y-82180552D01*
X103991956Y-82200543D01*
X104001921Y-82221613D01*
X104009773Y-82243557D01*
X104015437Y-82266166D01*
X104018856Y-82289221D01*
X104020000Y-82312500D01*
X104020000Y-82787500D01*
X104018856Y-82810779D01*
X104015437Y-82833834D01*
X104009773Y-82856443D01*
X104001921Y-82878387D01*
X103991956Y-82899457D01*
X103979974Y-82919448D01*
X103966090Y-82938168D01*
X103950438Y-82955438D01*
X103933168Y-82971090D01*
X103914448Y-82984974D01*
X103894457Y-82996956D01*
X103873387Y-83006921D01*
X103851443Y-83014773D01*
X103828834Y-83020437D01*
X103805779Y-83023856D01*
X103782500Y-83025000D01*
X103207500Y-83025000D01*
X103184221Y-83023856D01*
X103161166Y-83020437D01*
X103138557Y-83014773D01*
X103116613Y-83006921D01*
X103095543Y-82996956D01*
X103075552Y-82984974D01*
X103056832Y-82971090D01*
X103039562Y-82955438D01*
X103023910Y-82938168D01*
X103010026Y-82919448D01*
X102998044Y-82899457D01*
X102988079Y-82878387D01*
X102980227Y-82856443D01*
X102974563Y-82833834D01*
X102971144Y-82810779D01*
X102970000Y-82787500D01*
X102970000Y-82312500D01*
X102971144Y-82289221D01*
X102974563Y-82266166D01*
X102980227Y-82243557D01*
X102988079Y-82221613D01*
X102998044Y-82200543D01*
X103010026Y-82180552D01*
X103023910Y-82161832D01*
X103039562Y-82144562D01*
X103056832Y-82128910D01*
X103075552Y-82115026D01*
X103095543Y-82103044D01*
X103116613Y-82093079D01*
X103138557Y-82085227D01*
X103161166Y-82079563D01*
X103184221Y-82076144D01*
X103207500Y-82075000D01*
X103782500Y-82075000D01*
X103805779Y-82076144D01*
G37*
G04 #@! TD.AperFunction*
G04 #@! TA.AperFunction,SMDPad,CuDef*
G36*
X109710779Y-82901144D02*
G01*
X109733834Y-82904563D01*
X109756443Y-82910227D01*
X109778387Y-82918079D01*
X109799457Y-82928044D01*
X109819448Y-82940026D01*
X109838168Y-82953910D01*
X109855438Y-82969562D01*
X109871090Y-82986832D01*
X109884974Y-83005552D01*
X109896956Y-83025543D01*
X109906921Y-83046613D01*
X109914773Y-83068557D01*
X109920437Y-83091166D01*
X109923856Y-83114221D01*
X109925000Y-83137500D01*
X109925000Y-83712500D01*
X109923856Y-83735779D01*
X109920437Y-83758834D01*
X109914773Y-83781443D01*
X109906921Y-83803387D01*
X109896956Y-83824457D01*
X109884974Y-83844448D01*
X109871090Y-83863168D01*
X109855438Y-83880438D01*
X109838168Y-83896090D01*
X109819448Y-83909974D01*
X109799457Y-83921956D01*
X109778387Y-83931921D01*
X109756443Y-83939773D01*
X109733834Y-83945437D01*
X109710779Y-83948856D01*
X109687500Y-83950000D01*
X109212500Y-83950000D01*
X109189221Y-83948856D01*
X109166166Y-83945437D01*
X109143557Y-83939773D01*
X109121613Y-83931921D01*
X109100543Y-83921956D01*
X109080552Y-83909974D01*
X109061832Y-83896090D01*
X109044562Y-83880438D01*
X109028910Y-83863168D01*
X109015026Y-83844448D01*
X109003044Y-83824457D01*
X108993079Y-83803387D01*
X108985227Y-83781443D01*
X108979563Y-83758834D01*
X108976144Y-83735779D01*
X108975000Y-83712500D01*
X108975000Y-83137500D01*
X108976144Y-83114221D01*
X108979563Y-83091166D01*
X108985227Y-83068557D01*
X108993079Y-83046613D01*
X109003044Y-83025543D01*
X109015026Y-83005552D01*
X109028910Y-82986832D01*
X109044562Y-82969562D01*
X109061832Y-82953910D01*
X109080552Y-82940026D01*
X109100543Y-82928044D01*
X109121613Y-82918079D01*
X109143557Y-82910227D01*
X109166166Y-82904563D01*
X109189221Y-82901144D01*
X109212500Y-82900000D01*
X109687500Y-82900000D01*
X109710779Y-82901144D01*
G37*
G04 #@! TD.AperFunction*
G04 #@! TA.AperFunction,SMDPad,CuDef*
G36*
X109710779Y-81151144D02*
G01*
X109733834Y-81154563D01*
X109756443Y-81160227D01*
X109778387Y-81168079D01*
X109799457Y-81178044D01*
X109819448Y-81190026D01*
X109838168Y-81203910D01*
X109855438Y-81219562D01*
X109871090Y-81236832D01*
X109884974Y-81255552D01*
X109896956Y-81275543D01*
X109906921Y-81296613D01*
X109914773Y-81318557D01*
X109920437Y-81341166D01*
X109923856Y-81364221D01*
X109925000Y-81387500D01*
X109925000Y-81962500D01*
X109923856Y-81985779D01*
X109920437Y-82008834D01*
X109914773Y-82031443D01*
X109906921Y-82053387D01*
X109896956Y-82074457D01*
X109884974Y-82094448D01*
X109871090Y-82113168D01*
X109855438Y-82130438D01*
X109838168Y-82146090D01*
X109819448Y-82159974D01*
X109799457Y-82171956D01*
X109778387Y-82181921D01*
X109756443Y-82189773D01*
X109733834Y-82195437D01*
X109710779Y-82198856D01*
X109687500Y-82200000D01*
X109212500Y-82200000D01*
X109189221Y-82198856D01*
X109166166Y-82195437D01*
X109143557Y-82189773D01*
X109121613Y-82181921D01*
X109100543Y-82171956D01*
X109080552Y-82159974D01*
X109061832Y-82146090D01*
X109044562Y-82130438D01*
X109028910Y-82113168D01*
X109015026Y-82094448D01*
X109003044Y-82074457D01*
X108993079Y-82053387D01*
X108985227Y-82031443D01*
X108979563Y-82008834D01*
X108976144Y-81985779D01*
X108975000Y-81962500D01*
X108975000Y-81387500D01*
X108976144Y-81364221D01*
X108979563Y-81341166D01*
X108985227Y-81318557D01*
X108993079Y-81296613D01*
X109003044Y-81275543D01*
X109015026Y-81255552D01*
X109028910Y-81236832D01*
X109044562Y-81219562D01*
X109061832Y-81203910D01*
X109080552Y-81190026D01*
X109100543Y-81178044D01*
X109121613Y-81168079D01*
X109143557Y-81160227D01*
X109166166Y-81154563D01*
X109189221Y-81151144D01*
X109212500Y-81150000D01*
X109687500Y-81150000D01*
X109710779Y-81151144D01*
G37*
G04 #@! TD.AperFunction*
G04 #@! TA.AperFunction,SMDPad,CuDef*
G36*
X95165779Y-82076144D02*
G01*
X95188834Y-82079563D01*
X95211443Y-82085227D01*
X95233387Y-82093079D01*
X95254457Y-82103044D01*
X95274448Y-82115026D01*
X95293168Y-82128910D01*
X95310438Y-82144562D01*
X95326090Y-82161832D01*
X95339974Y-82180552D01*
X95351956Y-82200543D01*
X95361921Y-82221613D01*
X95369773Y-82243557D01*
X95375437Y-82266166D01*
X95378856Y-82289221D01*
X95380000Y-82312500D01*
X95380000Y-82787500D01*
X95378856Y-82810779D01*
X95375437Y-82833834D01*
X95369773Y-82856443D01*
X95361921Y-82878387D01*
X95351956Y-82899457D01*
X95339974Y-82919448D01*
X95326090Y-82938168D01*
X95310438Y-82955438D01*
X95293168Y-82971090D01*
X95274448Y-82984974D01*
X95254457Y-82996956D01*
X95233387Y-83006921D01*
X95211443Y-83014773D01*
X95188834Y-83020437D01*
X95165779Y-83023856D01*
X95142500Y-83025000D01*
X94567500Y-83025000D01*
X94544221Y-83023856D01*
X94521166Y-83020437D01*
X94498557Y-83014773D01*
X94476613Y-83006921D01*
X94455543Y-82996956D01*
X94435552Y-82984974D01*
X94416832Y-82971090D01*
X94399562Y-82955438D01*
X94383910Y-82938168D01*
X94370026Y-82919448D01*
X94358044Y-82899457D01*
X94348079Y-82878387D01*
X94340227Y-82856443D01*
X94334563Y-82833834D01*
X94331144Y-82810779D01*
X94330000Y-82787500D01*
X94330000Y-82312500D01*
X94331144Y-82289221D01*
X94334563Y-82266166D01*
X94340227Y-82243557D01*
X94348079Y-82221613D01*
X94358044Y-82200543D01*
X94370026Y-82180552D01*
X94383910Y-82161832D01*
X94399562Y-82144562D01*
X94416832Y-82128910D01*
X94435552Y-82115026D01*
X94455543Y-82103044D01*
X94476613Y-82093079D01*
X94498557Y-82085227D01*
X94521166Y-82079563D01*
X94544221Y-82076144D01*
X94567500Y-82075000D01*
X95142500Y-82075000D01*
X95165779Y-82076144D01*
G37*
G04 #@! TD.AperFunction*
G04 #@! TA.AperFunction,SMDPad,CuDef*
G36*
X93415779Y-82076144D02*
G01*
X93438834Y-82079563D01*
X93461443Y-82085227D01*
X93483387Y-82093079D01*
X93504457Y-82103044D01*
X93524448Y-82115026D01*
X93543168Y-82128910D01*
X93560438Y-82144562D01*
X93576090Y-82161832D01*
X93589974Y-82180552D01*
X93601956Y-82200543D01*
X93611921Y-82221613D01*
X93619773Y-82243557D01*
X93625437Y-82266166D01*
X93628856Y-82289221D01*
X93630000Y-82312500D01*
X93630000Y-82787500D01*
X93628856Y-82810779D01*
X93625437Y-82833834D01*
X93619773Y-82856443D01*
X93611921Y-82878387D01*
X93601956Y-82899457D01*
X93589974Y-82919448D01*
X93576090Y-82938168D01*
X93560438Y-82955438D01*
X93543168Y-82971090D01*
X93524448Y-82984974D01*
X93504457Y-82996956D01*
X93483387Y-83006921D01*
X93461443Y-83014773D01*
X93438834Y-83020437D01*
X93415779Y-83023856D01*
X93392500Y-83025000D01*
X92817500Y-83025000D01*
X92794221Y-83023856D01*
X92771166Y-83020437D01*
X92748557Y-83014773D01*
X92726613Y-83006921D01*
X92705543Y-82996956D01*
X92685552Y-82984974D01*
X92666832Y-82971090D01*
X92649562Y-82955438D01*
X92633910Y-82938168D01*
X92620026Y-82919448D01*
X92608044Y-82899457D01*
X92598079Y-82878387D01*
X92590227Y-82856443D01*
X92584563Y-82833834D01*
X92581144Y-82810779D01*
X92580000Y-82787500D01*
X92580000Y-82312500D01*
X92581144Y-82289221D01*
X92584563Y-82266166D01*
X92590227Y-82243557D01*
X92598079Y-82221613D01*
X92608044Y-82200543D01*
X92620026Y-82180552D01*
X92633910Y-82161832D01*
X92649562Y-82144562D01*
X92666832Y-82128910D01*
X92685552Y-82115026D01*
X92705543Y-82103044D01*
X92726613Y-82093079D01*
X92748557Y-82085227D01*
X92771166Y-82079563D01*
X92794221Y-82076144D01*
X92817500Y-82075000D01*
X93392500Y-82075000D01*
X93415779Y-82076144D01*
G37*
G04 #@! TD.AperFunction*
G04 #@! TA.AperFunction,SMDPad,CuDef*
G36*
X99320779Y-82901144D02*
G01*
X99343834Y-82904563D01*
X99366443Y-82910227D01*
X99388387Y-82918079D01*
X99409457Y-82928044D01*
X99429448Y-82940026D01*
X99448168Y-82953910D01*
X99465438Y-82969562D01*
X99481090Y-82986832D01*
X99494974Y-83005552D01*
X99506956Y-83025543D01*
X99516921Y-83046613D01*
X99524773Y-83068557D01*
X99530437Y-83091166D01*
X99533856Y-83114221D01*
X99535000Y-83137500D01*
X99535000Y-83712500D01*
X99533856Y-83735779D01*
X99530437Y-83758834D01*
X99524773Y-83781443D01*
X99516921Y-83803387D01*
X99506956Y-83824457D01*
X99494974Y-83844448D01*
X99481090Y-83863168D01*
X99465438Y-83880438D01*
X99448168Y-83896090D01*
X99429448Y-83909974D01*
X99409457Y-83921956D01*
X99388387Y-83931921D01*
X99366443Y-83939773D01*
X99343834Y-83945437D01*
X99320779Y-83948856D01*
X99297500Y-83950000D01*
X98822500Y-83950000D01*
X98799221Y-83948856D01*
X98776166Y-83945437D01*
X98753557Y-83939773D01*
X98731613Y-83931921D01*
X98710543Y-83921956D01*
X98690552Y-83909974D01*
X98671832Y-83896090D01*
X98654562Y-83880438D01*
X98638910Y-83863168D01*
X98625026Y-83844448D01*
X98613044Y-83824457D01*
X98603079Y-83803387D01*
X98595227Y-83781443D01*
X98589563Y-83758834D01*
X98586144Y-83735779D01*
X98585000Y-83712500D01*
X98585000Y-83137500D01*
X98586144Y-83114221D01*
X98589563Y-83091166D01*
X98595227Y-83068557D01*
X98603079Y-83046613D01*
X98613044Y-83025543D01*
X98625026Y-83005552D01*
X98638910Y-82986832D01*
X98654562Y-82969562D01*
X98671832Y-82953910D01*
X98690552Y-82940026D01*
X98710543Y-82928044D01*
X98731613Y-82918079D01*
X98753557Y-82910227D01*
X98776166Y-82904563D01*
X98799221Y-82901144D01*
X98822500Y-82900000D01*
X99297500Y-82900000D01*
X99320779Y-82901144D01*
G37*
G04 #@! TD.AperFunction*
G04 #@! TA.AperFunction,SMDPad,CuDef*
G36*
X99320779Y-81151144D02*
G01*
X99343834Y-81154563D01*
X99366443Y-81160227D01*
X99388387Y-81168079D01*
X99409457Y-81178044D01*
X99429448Y-81190026D01*
X99448168Y-81203910D01*
X99465438Y-81219562D01*
X99481090Y-81236832D01*
X99494974Y-81255552D01*
X99506956Y-81275543D01*
X99516921Y-81296613D01*
X99524773Y-81318557D01*
X99530437Y-81341166D01*
X99533856Y-81364221D01*
X99535000Y-81387500D01*
X99535000Y-81962500D01*
X99533856Y-81985779D01*
X99530437Y-82008834D01*
X99524773Y-82031443D01*
X99516921Y-82053387D01*
X99506956Y-82074457D01*
X99494974Y-82094448D01*
X99481090Y-82113168D01*
X99465438Y-82130438D01*
X99448168Y-82146090D01*
X99429448Y-82159974D01*
X99409457Y-82171956D01*
X99388387Y-82181921D01*
X99366443Y-82189773D01*
X99343834Y-82195437D01*
X99320779Y-82198856D01*
X99297500Y-82200000D01*
X98822500Y-82200000D01*
X98799221Y-82198856D01*
X98776166Y-82195437D01*
X98753557Y-82189773D01*
X98731613Y-82181921D01*
X98710543Y-82171956D01*
X98690552Y-82159974D01*
X98671832Y-82146090D01*
X98654562Y-82130438D01*
X98638910Y-82113168D01*
X98625026Y-82094448D01*
X98613044Y-82074457D01*
X98603079Y-82053387D01*
X98595227Y-82031443D01*
X98589563Y-82008834D01*
X98586144Y-81985779D01*
X98585000Y-81962500D01*
X98585000Y-81387500D01*
X98586144Y-81364221D01*
X98589563Y-81341166D01*
X98595227Y-81318557D01*
X98603079Y-81296613D01*
X98613044Y-81275543D01*
X98625026Y-81255552D01*
X98638910Y-81236832D01*
X98654562Y-81219562D01*
X98671832Y-81203910D01*
X98690552Y-81190026D01*
X98710543Y-81178044D01*
X98731613Y-81168079D01*
X98753557Y-81160227D01*
X98776166Y-81154563D01*
X98799221Y-81151144D01*
X98822500Y-81150000D01*
X99297500Y-81150000D01*
X99320779Y-81151144D01*
G37*
G04 #@! TD.AperFunction*
G04 #@! TA.AperFunction,SMDPad,CuDef*
G36*
X85005779Y-82076144D02*
G01*
X85028834Y-82079563D01*
X85051443Y-82085227D01*
X85073387Y-82093079D01*
X85094457Y-82103044D01*
X85114448Y-82115026D01*
X85133168Y-82128910D01*
X85150438Y-82144562D01*
X85166090Y-82161832D01*
X85179974Y-82180552D01*
X85191956Y-82200543D01*
X85201921Y-82221613D01*
X85209773Y-82243557D01*
X85215437Y-82266166D01*
X85218856Y-82289221D01*
X85220000Y-82312500D01*
X85220000Y-82787500D01*
X85218856Y-82810779D01*
X85215437Y-82833834D01*
X85209773Y-82856443D01*
X85201921Y-82878387D01*
X85191956Y-82899457D01*
X85179974Y-82919448D01*
X85166090Y-82938168D01*
X85150438Y-82955438D01*
X85133168Y-82971090D01*
X85114448Y-82984974D01*
X85094457Y-82996956D01*
X85073387Y-83006921D01*
X85051443Y-83014773D01*
X85028834Y-83020437D01*
X85005779Y-83023856D01*
X84982500Y-83025000D01*
X84407500Y-83025000D01*
X84384221Y-83023856D01*
X84361166Y-83020437D01*
X84338557Y-83014773D01*
X84316613Y-83006921D01*
X84295543Y-82996956D01*
X84275552Y-82984974D01*
X84256832Y-82971090D01*
X84239562Y-82955438D01*
X84223910Y-82938168D01*
X84210026Y-82919448D01*
X84198044Y-82899457D01*
X84188079Y-82878387D01*
X84180227Y-82856443D01*
X84174563Y-82833834D01*
X84171144Y-82810779D01*
X84170000Y-82787500D01*
X84170000Y-82312500D01*
X84171144Y-82289221D01*
X84174563Y-82266166D01*
X84180227Y-82243557D01*
X84188079Y-82221613D01*
X84198044Y-82200543D01*
X84210026Y-82180552D01*
X84223910Y-82161832D01*
X84239562Y-82144562D01*
X84256832Y-82128910D01*
X84275552Y-82115026D01*
X84295543Y-82103044D01*
X84316613Y-82093079D01*
X84338557Y-82085227D01*
X84361166Y-82079563D01*
X84384221Y-82076144D01*
X84407500Y-82075000D01*
X84982500Y-82075000D01*
X85005779Y-82076144D01*
G37*
G04 #@! TD.AperFunction*
G04 #@! TA.AperFunction,SMDPad,CuDef*
G36*
X83255779Y-82076144D02*
G01*
X83278834Y-82079563D01*
X83301443Y-82085227D01*
X83323387Y-82093079D01*
X83344457Y-82103044D01*
X83364448Y-82115026D01*
X83383168Y-82128910D01*
X83400438Y-82144562D01*
X83416090Y-82161832D01*
X83429974Y-82180552D01*
X83441956Y-82200543D01*
X83451921Y-82221613D01*
X83459773Y-82243557D01*
X83465437Y-82266166D01*
X83468856Y-82289221D01*
X83470000Y-82312500D01*
X83470000Y-82787500D01*
X83468856Y-82810779D01*
X83465437Y-82833834D01*
X83459773Y-82856443D01*
X83451921Y-82878387D01*
X83441956Y-82899457D01*
X83429974Y-82919448D01*
X83416090Y-82938168D01*
X83400438Y-82955438D01*
X83383168Y-82971090D01*
X83364448Y-82984974D01*
X83344457Y-82996956D01*
X83323387Y-83006921D01*
X83301443Y-83014773D01*
X83278834Y-83020437D01*
X83255779Y-83023856D01*
X83232500Y-83025000D01*
X82657500Y-83025000D01*
X82634221Y-83023856D01*
X82611166Y-83020437D01*
X82588557Y-83014773D01*
X82566613Y-83006921D01*
X82545543Y-82996956D01*
X82525552Y-82984974D01*
X82506832Y-82971090D01*
X82489562Y-82955438D01*
X82473910Y-82938168D01*
X82460026Y-82919448D01*
X82448044Y-82899457D01*
X82438079Y-82878387D01*
X82430227Y-82856443D01*
X82424563Y-82833834D01*
X82421144Y-82810779D01*
X82420000Y-82787500D01*
X82420000Y-82312500D01*
X82421144Y-82289221D01*
X82424563Y-82266166D01*
X82430227Y-82243557D01*
X82438079Y-82221613D01*
X82448044Y-82200543D01*
X82460026Y-82180552D01*
X82473910Y-82161832D01*
X82489562Y-82144562D01*
X82506832Y-82128910D01*
X82525552Y-82115026D01*
X82545543Y-82103044D01*
X82566613Y-82093079D01*
X82588557Y-82085227D01*
X82611166Y-82079563D01*
X82634221Y-82076144D01*
X82657500Y-82075000D01*
X83232500Y-82075000D01*
X83255779Y-82076144D01*
G37*
G04 #@! TD.AperFunction*
G04 #@! TA.AperFunction,SMDPad,CuDef*
G36*
X89160779Y-82901144D02*
G01*
X89183834Y-82904563D01*
X89206443Y-82910227D01*
X89228387Y-82918079D01*
X89249457Y-82928044D01*
X89269448Y-82940026D01*
X89288168Y-82953910D01*
X89305438Y-82969562D01*
X89321090Y-82986832D01*
X89334974Y-83005552D01*
X89346956Y-83025543D01*
X89356921Y-83046613D01*
X89364773Y-83068557D01*
X89370437Y-83091166D01*
X89373856Y-83114221D01*
X89375000Y-83137500D01*
X89375000Y-83712500D01*
X89373856Y-83735779D01*
X89370437Y-83758834D01*
X89364773Y-83781443D01*
X89356921Y-83803387D01*
X89346956Y-83824457D01*
X89334974Y-83844448D01*
X89321090Y-83863168D01*
X89305438Y-83880438D01*
X89288168Y-83896090D01*
X89269448Y-83909974D01*
X89249457Y-83921956D01*
X89228387Y-83931921D01*
X89206443Y-83939773D01*
X89183834Y-83945437D01*
X89160779Y-83948856D01*
X89137500Y-83950000D01*
X88662500Y-83950000D01*
X88639221Y-83948856D01*
X88616166Y-83945437D01*
X88593557Y-83939773D01*
X88571613Y-83931921D01*
X88550543Y-83921956D01*
X88530552Y-83909974D01*
X88511832Y-83896090D01*
X88494562Y-83880438D01*
X88478910Y-83863168D01*
X88465026Y-83844448D01*
X88453044Y-83824457D01*
X88443079Y-83803387D01*
X88435227Y-83781443D01*
X88429563Y-83758834D01*
X88426144Y-83735779D01*
X88425000Y-83712500D01*
X88425000Y-83137500D01*
X88426144Y-83114221D01*
X88429563Y-83091166D01*
X88435227Y-83068557D01*
X88443079Y-83046613D01*
X88453044Y-83025543D01*
X88465026Y-83005552D01*
X88478910Y-82986832D01*
X88494562Y-82969562D01*
X88511832Y-82953910D01*
X88530552Y-82940026D01*
X88550543Y-82928044D01*
X88571613Y-82918079D01*
X88593557Y-82910227D01*
X88616166Y-82904563D01*
X88639221Y-82901144D01*
X88662500Y-82900000D01*
X89137500Y-82900000D01*
X89160779Y-82901144D01*
G37*
G04 #@! TD.AperFunction*
G04 #@! TA.AperFunction,SMDPad,CuDef*
G36*
X89160779Y-81151144D02*
G01*
X89183834Y-81154563D01*
X89206443Y-81160227D01*
X89228387Y-81168079D01*
X89249457Y-81178044D01*
X89269448Y-81190026D01*
X89288168Y-81203910D01*
X89305438Y-81219562D01*
X89321090Y-81236832D01*
X89334974Y-81255552D01*
X89346956Y-81275543D01*
X89356921Y-81296613D01*
X89364773Y-81318557D01*
X89370437Y-81341166D01*
X89373856Y-81364221D01*
X89375000Y-81387500D01*
X89375000Y-81962500D01*
X89373856Y-81985779D01*
X89370437Y-82008834D01*
X89364773Y-82031443D01*
X89356921Y-82053387D01*
X89346956Y-82074457D01*
X89334974Y-82094448D01*
X89321090Y-82113168D01*
X89305438Y-82130438D01*
X89288168Y-82146090D01*
X89269448Y-82159974D01*
X89249457Y-82171956D01*
X89228387Y-82181921D01*
X89206443Y-82189773D01*
X89183834Y-82195437D01*
X89160779Y-82198856D01*
X89137500Y-82200000D01*
X88662500Y-82200000D01*
X88639221Y-82198856D01*
X88616166Y-82195437D01*
X88593557Y-82189773D01*
X88571613Y-82181921D01*
X88550543Y-82171956D01*
X88530552Y-82159974D01*
X88511832Y-82146090D01*
X88494562Y-82130438D01*
X88478910Y-82113168D01*
X88465026Y-82094448D01*
X88453044Y-82074457D01*
X88443079Y-82053387D01*
X88435227Y-82031443D01*
X88429563Y-82008834D01*
X88426144Y-81985779D01*
X88425000Y-81962500D01*
X88425000Y-81387500D01*
X88426144Y-81364221D01*
X88429563Y-81341166D01*
X88435227Y-81318557D01*
X88443079Y-81296613D01*
X88453044Y-81275543D01*
X88465026Y-81255552D01*
X88478910Y-81236832D01*
X88494562Y-81219562D01*
X88511832Y-81203910D01*
X88530552Y-81190026D01*
X88550543Y-81178044D01*
X88571613Y-81168079D01*
X88593557Y-81160227D01*
X88616166Y-81154563D01*
X88639221Y-81151144D01*
X88662500Y-81150000D01*
X89137500Y-81150000D01*
X89160779Y-81151144D01*
G37*
G04 #@! TD.AperFunction*
G04 #@! TA.AperFunction,SMDPad,CuDef*
G36*
X74845779Y-82076144D02*
G01*
X74868834Y-82079563D01*
X74891443Y-82085227D01*
X74913387Y-82093079D01*
X74934457Y-82103044D01*
X74954448Y-82115026D01*
X74973168Y-82128910D01*
X74990438Y-82144562D01*
X75006090Y-82161832D01*
X75019974Y-82180552D01*
X75031956Y-82200543D01*
X75041921Y-82221613D01*
X75049773Y-82243557D01*
X75055437Y-82266166D01*
X75058856Y-82289221D01*
X75060000Y-82312500D01*
X75060000Y-82787500D01*
X75058856Y-82810779D01*
X75055437Y-82833834D01*
X75049773Y-82856443D01*
X75041921Y-82878387D01*
X75031956Y-82899457D01*
X75019974Y-82919448D01*
X75006090Y-82938168D01*
X74990438Y-82955438D01*
X74973168Y-82971090D01*
X74954448Y-82984974D01*
X74934457Y-82996956D01*
X74913387Y-83006921D01*
X74891443Y-83014773D01*
X74868834Y-83020437D01*
X74845779Y-83023856D01*
X74822500Y-83025000D01*
X74247500Y-83025000D01*
X74224221Y-83023856D01*
X74201166Y-83020437D01*
X74178557Y-83014773D01*
X74156613Y-83006921D01*
X74135543Y-82996956D01*
X74115552Y-82984974D01*
X74096832Y-82971090D01*
X74079562Y-82955438D01*
X74063910Y-82938168D01*
X74050026Y-82919448D01*
X74038044Y-82899457D01*
X74028079Y-82878387D01*
X74020227Y-82856443D01*
X74014563Y-82833834D01*
X74011144Y-82810779D01*
X74010000Y-82787500D01*
X74010000Y-82312500D01*
X74011144Y-82289221D01*
X74014563Y-82266166D01*
X74020227Y-82243557D01*
X74028079Y-82221613D01*
X74038044Y-82200543D01*
X74050026Y-82180552D01*
X74063910Y-82161832D01*
X74079562Y-82144562D01*
X74096832Y-82128910D01*
X74115552Y-82115026D01*
X74135543Y-82103044D01*
X74156613Y-82093079D01*
X74178557Y-82085227D01*
X74201166Y-82079563D01*
X74224221Y-82076144D01*
X74247500Y-82075000D01*
X74822500Y-82075000D01*
X74845779Y-82076144D01*
G37*
G04 #@! TD.AperFunction*
G04 #@! TA.AperFunction,SMDPad,CuDef*
G36*
X73095779Y-82076144D02*
G01*
X73118834Y-82079563D01*
X73141443Y-82085227D01*
X73163387Y-82093079D01*
X73184457Y-82103044D01*
X73204448Y-82115026D01*
X73223168Y-82128910D01*
X73240438Y-82144562D01*
X73256090Y-82161832D01*
X73269974Y-82180552D01*
X73281956Y-82200543D01*
X73291921Y-82221613D01*
X73299773Y-82243557D01*
X73305437Y-82266166D01*
X73308856Y-82289221D01*
X73310000Y-82312500D01*
X73310000Y-82787500D01*
X73308856Y-82810779D01*
X73305437Y-82833834D01*
X73299773Y-82856443D01*
X73291921Y-82878387D01*
X73281956Y-82899457D01*
X73269974Y-82919448D01*
X73256090Y-82938168D01*
X73240438Y-82955438D01*
X73223168Y-82971090D01*
X73204448Y-82984974D01*
X73184457Y-82996956D01*
X73163387Y-83006921D01*
X73141443Y-83014773D01*
X73118834Y-83020437D01*
X73095779Y-83023856D01*
X73072500Y-83025000D01*
X72497500Y-83025000D01*
X72474221Y-83023856D01*
X72451166Y-83020437D01*
X72428557Y-83014773D01*
X72406613Y-83006921D01*
X72385543Y-82996956D01*
X72365552Y-82984974D01*
X72346832Y-82971090D01*
X72329562Y-82955438D01*
X72313910Y-82938168D01*
X72300026Y-82919448D01*
X72288044Y-82899457D01*
X72278079Y-82878387D01*
X72270227Y-82856443D01*
X72264563Y-82833834D01*
X72261144Y-82810779D01*
X72260000Y-82787500D01*
X72260000Y-82312500D01*
X72261144Y-82289221D01*
X72264563Y-82266166D01*
X72270227Y-82243557D01*
X72278079Y-82221613D01*
X72288044Y-82200543D01*
X72300026Y-82180552D01*
X72313910Y-82161832D01*
X72329562Y-82144562D01*
X72346832Y-82128910D01*
X72365552Y-82115026D01*
X72385543Y-82103044D01*
X72406613Y-82093079D01*
X72428557Y-82085227D01*
X72451166Y-82079563D01*
X72474221Y-82076144D01*
X72497500Y-82075000D01*
X73072500Y-82075000D01*
X73095779Y-82076144D01*
G37*
G04 #@! TD.AperFunction*
G04 #@! TA.AperFunction,SMDPad,CuDef*
G36*
X79000779Y-82901144D02*
G01*
X79023834Y-82904563D01*
X79046443Y-82910227D01*
X79068387Y-82918079D01*
X79089457Y-82928044D01*
X79109448Y-82940026D01*
X79128168Y-82953910D01*
X79145438Y-82969562D01*
X79161090Y-82986832D01*
X79174974Y-83005552D01*
X79186956Y-83025543D01*
X79196921Y-83046613D01*
X79204773Y-83068557D01*
X79210437Y-83091166D01*
X79213856Y-83114221D01*
X79215000Y-83137500D01*
X79215000Y-83712500D01*
X79213856Y-83735779D01*
X79210437Y-83758834D01*
X79204773Y-83781443D01*
X79196921Y-83803387D01*
X79186956Y-83824457D01*
X79174974Y-83844448D01*
X79161090Y-83863168D01*
X79145438Y-83880438D01*
X79128168Y-83896090D01*
X79109448Y-83909974D01*
X79089457Y-83921956D01*
X79068387Y-83931921D01*
X79046443Y-83939773D01*
X79023834Y-83945437D01*
X79000779Y-83948856D01*
X78977500Y-83950000D01*
X78502500Y-83950000D01*
X78479221Y-83948856D01*
X78456166Y-83945437D01*
X78433557Y-83939773D01*
X78411613Y-83931921D01*
X78390543Y-83921956D01*
X78370552Y-83909974D01*
X78351832Y-83896090D01*
X78334562Y-83880438D01*
X78318910Y-83863168D01*
X78305026Y-83844448D01*
X78293044Y-83824457D01*
X78283079Y-83803387D01*
X78275227Y-83781443D01*
X78269563Y-83758834D01*
X78266144Y-83735779D01*
X78265000Y-83712500D01*
X78265000Y-83137500D01*
X78266144Y-83114221D01*
X78269563Y-83091166D01*
X78275227Y-83068557D01*
X78283079Y-83046613D01*
X78293044Y-83025543D01*
X78305026Y-83005552D01*
X78318910Y-82986832D01*
X78334562Y-82969562D01*
X78351832Y-82953910D01*
X78370552Y-82940026D01*
X78390543Y-82928044D01*
X78411613Y-82918079D01*
X78433557Y-82910227D01*
X78456166Y-82904563D01*
X78479221Y-82901144D01*
X78502500Y-82900000D01*
X78977500Y-82900000D01*
X79000779Y-82901144D01*
G37*
G04 #@! TD.AperFunction*
G04 #@! TA.AperFunction,SMDPad,CuDef*
G36*
X79000779Y-81151144D02*
G01*
X79023834Y-81154563D01*
X79046443Y-81160227D01*
X79068387Y-81168079D01*
X79089457Y-81178044D01*
X79109448Y-81190026D01*
X79128168Y-81203910D01*
X79145438Y-81219562D01*
X79161090Y-81236832D01*
X79174974Y-81255552D01*
X79186956Y-81275543D01*
X79196921Y-81296613D01*
X79204773Y-81318557D01*
X79210437Y-81341166D01*
X79213856Y-81364221D01*
X79215000Y-81387500D01*
X79215000Y-81962500D01*
X79213856Y-81985779D01*
X79210437Y-82008834D01*
X79204773Y-82031443D01*
X79196921Y-82053387D01*
X79186956Y-82074457D01*
X79174974Y-82094448D01*
X79161090Y-82113168D01*
X79145438Y-82130438D01*
X79128168Y-82146090D01*
X79109448Y-82159974D01*
X79089457Y-82171956D01*
X79068387Y-82181921D01*
X79046443Y-82189773D01*
X79023834Y-82195437D01*
X79000779Y-82198856D01*
X78977500Y-82200000D01*
X78502500Y-82200000D01*
X78479221Y-82198856D01*
X78456166Y-82195437D01*
X78433557Y-82189773D01*
X78411613Y-82181921D01*
X78390543Y-82171956D01*
X78370552Y-82159974D01*
X78351832Y-82146090D01*
X78334562Y-82130438D01*
X78318910Y-82113168D01*
X78305026Y-82094448D01*
X78293044Y-82074457D01*
X78283079Y-82053387D01*
X78275227Y-82031443D01*
X78269563Y-82008834D01*
X78266144Y-81985779D01*
X78265000Y-81962500D01*
X78265000Y-81387500D01*
X78266144Y-81364221D01*
X78269563Y-81341166D01*
X78275227Y-81318557D01*
X78283079Y-81296613D01*
X78293044Y-81275543D01*
X78305026Y-81255552D01*
X78318910Y-81236832D01*
X78334562Y-81219562D01*
X78351832Y-81203910D01*
X78370552Y-81190026D01*
X78390543Y-81178044D01*
X78411613Y-81168079D01*
X78433557Y-81160227D01*
X78456166Y-81154563D01*
X78479221Y-81151144D01*
X78502500Y-81150000D01*
X78977500Y-81150000D01*
X79000779Y-81151144D01*
G37*
G04 #@! TD.AperFunction*
G04 #@! TA.AperFunction,SMDPad,CuDef*
G36*
X78175779Y-92236144D02*
G01*
X78198834Y-92239563D01*
X78221443Y-92245227D01*
X78243387Y-92253079D01*
X78264457Y-92263044D01*
X78284448Y-92275026D01*
X78303168Y-92288910D01*
X78320438Y-92304562D01*
X78336090Y-92321832D01*
X78349974Y-92340552D01*
X78361956Y-92360543D01*
X78371921Y-92381613D01*
X78379773Y-92403557D01*
X78385437Y-92426166D01*
X78388856Y-92449221D01*
X78390000Y-92472500D01*
X78390000Y-92947500D01*
X78388856Y-92970779D01*
X78385437Y-92993834D01*
X78379773Y-93016443D01*
X78371921Y-93038387D01*
X78361956Y-93059457D01*
X78349974Y-93079448D01*
X78336090Y-93098168D01*
X78320438Y-93115438D01*
X78303168Y-93131090D01*
X78284448Y-93144974D01*
X78264457Y-93156956D01*
X78243387Y-93166921D01*
X78221443Y-93174773D01*
X78198834Y-93180437D01*
X78175779Y-93183856D01*
X78152500Y-93185000D01*
X77577500Y-93185000D01*
X77554221Y-93183856D01*
X77531166Y-93180437D01*
X77508557Y-93174773D01*
X77486613Y-93166921D01*
X77465543Y-93156956D01*
X77445552Y-93144974D01*
X77426832Y-93131090D01*
X77409562Y-93115438D01*
X77393910Y-93098168D01*
X77380026Y-93079448D01*
X77368044Y-93059457D01*
X77358079Y-93038387D01*
X77350227Y-93016443D01*
X77344563Y-92993834D01*
X77341144Y-92970779D01*
X77340000Y-92947500D01*
X77340000Y-92472500D01*
X77341144Y-92449221D01*
X77344563Y-92426166D01*
X77350227Y-92403557D01*
X77358079Y-92381613D01*
X77368044Y-92360543D01*
X77380026Y-92340552D01*
X77393910Y-92321832D01*
X77409562Y-92304562D01*
X77426832Y-92288910D01*
X77445552Y-92275026D01*
X77465543Y-92263044D01*
X77486613Y-92253079D01*
X77508557Y-92245227D01*
X77531166Y-92239563D01*
X77554221Y-92236144D01*
X77577500Y-92235000D01*
X78152500Y-92235000D01*
X78175779Y-92236144D01*
G37*
G04 #@! TD.AperFunction*
G04 #@! TA.AperFunction,SMDPad,CuDef*
G36*
X79925779Y-92236144D02*
G01*
X79948834Y-92239563D01*
X79971443Y-92245227D01*
X79993387Y-92253079D01*
X80014457Y-92263044D01*
X80034448Y-92275026D01*
X80053168Y-92288910D01*
X80070438Y-92304562D01*
X80086090Y-92321832D01*
X80099974Y-92340552D01*
X80111956Y-92360543D01*
X80121921Y-92381613D01*
X80129773Y-92403557D01*
X80135437Y-92426166D01*
X80138856Y-92449221D01*
X80140000Y-92472500D01*
X80140000Y-92947500D01*
X80138856Y-92970779D01*
X80135437Y-92993834D01*
X80129773Y-93016443D01*
X80121921Y-93038387D01*
X80111956Y-93059457D01*
X80099974Y-93079448D01*
X80086090Y-93098168D01*
X80070438Y-93115438D01*
X80053168Y-93131090D01*
X80034448Y-93144974D01*
X80014457Y-93156956D01*
X79993387Y-93166921D01*
X79971443Y-93174773D01*
X79948834Y-93180437D01*
X79925779Y-93183856D01*
X79902500Y-93185000D01*
X79327500Y-93185000D01*
X79304221Y-93183856D01*
X79281166Y-93180437D01*
X79258557Y-93174773D01*
X79236613Y-93166921D01*
X79215543Y-93156956D01*
X79195552Y-93144974D01*
X79176832Y-93131090D01*
X79159562Y-93115438D01*
X79143910Y-93098168D01*
X79130026Y-93079448D01*
X79118044Y-93059457D01*
X79108079Y-93038387D01*
X79100227Y-93016443D01*
X79094563Y-92993834D01*
X79091144Y-92970779D01*
X79090000Y-92947500D01*
X79090000Y-92472500D01*
X79091144Y-92449221D01*
X79094563Y-92426166D01*
X79100227Y-92403557D01*
X79108079Y-92381613D01*
X79118044Y-92360543D01*
X79130026Y-92340552D01*
X79143910Y-92321832D01*
X79159562Y-92304562D01*
X79176832Y-92288910D01*
X79195552Y-92275026D01*
X79215543Y-92263044D01*
X79236613Y-92253079D01*
X79258557Y-92245227D01*
X79281166Y-92239563D01*
X79304221Y-92236144D01*
X79327500Y-92235000D01*
X79902500Y-92235000D01*
X79925779Y-92236144D01*
G37*
G04 #@! TD.AperFunction*
G04 #@! TA.AperFunction,SMDPad,CuDef*
G36*
X73920779Y-91311144D02*
G01*
X73943834Y-91314563D01*
X73966443Y-91320227D01*
X73988387Y-91328079D01*
X74009457Y-91338044D01*
X74029448Y-91350026D01*
X74048168Y-91363910D01*
X74065438Y-91379562D01*
X74081090Y-91396832D01*
X74094974Y-91415552D01*
X74106956Y-91435543D01*
X74116921Y-91456613D01*
X74124773Y-91478557D01*
X74130437Y-91501166D01*
X74133856Y-91524221D01*
X74135000Y-91547500D01*
X74135000Y-92122500D01*
X74133856Y-92145779D01*
X74130437Y-92168834D01*
X74124773Y-92191443D01*
X74116921Y-92213387D01*
X74106956Y-92234457D01*
X74094974Y-92254448D01*
X74081090Y-92273168D01*
X74065438Y-92290438D01*
X74048168Y-92306090D01*
X74029448Y-92319974D01*
X74009457Y-92331956D01*
X73988387Y-92341921D01*
X73966443Y-92349773D01*
X73943834Y-92355437D01*
X73920779Y-92358856D01*
X73897500Y-92360000D01*
X73422500Y-92360000D01*
X73399221Y-92358856D01*
X73376166Y-92355437D01*
X73353557Y-92349773D01*
X73331613Y-92341921D01*
X73310543Y-92331956D01*
X73290552Y-92319974D01*
X73271832Y-92306090D01*
X73254562Y-92290438D01*
X73238910Y-92273168D01*
X73225026Y-92254448D01*
X73213044Y-92234457D01*
X73203079Y-92213387D01*
X73195227Y-92191443D01*
X73189563Y-92168834D01*
X73186144Y-92145779D01*
X73185000Y-92122500D01*
X73185000Y-91547500D01*
X73186144Y-91524221D01*
X73189563Y-91501166D01*
X73195227Y-91478557D01*
X73203079Y-91456613D01*
X73213044Y-91435543D01*
X73225026Y-91415552D01*
X73238910Y-91396832D01*
X73254562Y-91379562D01*
X73271832Y-91363910D01*
X73290552Y-91350026D01*
X73310543Y-91338044D01*
X73331613Y-91328079D01*
X73353557Y-91320227D01*
X73376166Y-91314563D01*
X73399221Y-91311144D01*
X73422500Y-91310000D01*
X73897500Y-91310000D01*
X73920779Y-91311144D01*
G37*
G04 #@! TD.AperFunction*
G04 #@! TA.AperFunction,SMDPad,CuDef*
G36*
X73920779Y-93061144D02*
G01*
X73943834Y-93064563D01*
X73966443Y-93070227D01*
X73988387Y-93078079D01*
X74009457Y-93088044D01*
X74029448Y-93100026D01*
X74048168Y-93113910D01*
X74065438Y-93129562D01*
X74081090Y-93146832D01*
X74094974Y-93165552D01*
X74106956Y-93185543D01*
X74116921Y-93206613D01*
X74124773Y-93228557D01*
X74130437Y-93251166D01*
X74133856Y-93274221D01*
X74135000Y-93297500D01*
X74135000Y-93872500D01*
X74133856Y-93895779D01*
X74130437Y-93918834D01*
X74124773Y-93941443D01*
X74116921Y-93963387D01*
X74106956Y-93984457D01*
X74094974Y-94004448D01*
X74081090Y-94023168D01*
X74065438Y-94040438D01*
X74048168Y-94056090D01*
X74029448Y-94069974D01*
X74009457Y-94081956D01*
X73988387Y-94091921D01*
X73966443Y-94099773D01*
X73943834Y-94105437D01*
X73920779Y-94108856D01*
X73897500Y-94110000D01*
X73422500Y-94110000D01*
X73399221Y-94108856D01*
X73376166Y-94105437D01*
X73353557Y-94099773D01*
X73331613Y-94091921D01*
X73310543Y-94081956D01*
X73290552Y-94069974D01*
X73271832Y-94056090D01*
X73254562Y-94040438D01*
X73238910Y-94023168D01*
X73225026Y-94004448D01*
X73213044Y-93984457D01*
X73203079Y-93963387D01*
X73195227Y-93941443D01*
X73189563Y-93918834D01*
X73186144Y-93895779D01*
X73185000Y-93872500D01*
X73185000Y-93297500D01*
X73186144Y-93274221D01*
X73189563Y-93251166D01*
X73195227Y-93228557D01*
X73203079Y-93206613D01*
X73213044Y-93185543D01*
X73225026Y-93165552D01*
X73238910Y-93146832D01*
X73254562Y-93129562D01*
X73271832Y-93113910D01*
X73290552Y-93100026D01*
X73310543Y-93088044D01*
X73331613Y-93078079D01*
X73353557Y-93070227D01*
X73376166Y-93064563D01*
X73399221Y-93061144D01*
X73422500Y-93060000D01*
X73897500Y-93060000D01*
X73920779Y-93061144D01*
G37*
G04 #@! TD.AperFunction*
G04 #@! TA.AperFunction,SMDPad,CuDef*
G36*
X88335779Y-92236144D02*
G01*
X88358834Y-92239563D01*
X88381443Y-92245227D01*
X88403387Y-92253079D01*
X88424457Y-92263044D01*
X88444448Y-92275026D01*
X88463168Y-92288910D01*
X88480438Y-92304562D01*
X88496090Y-92321832D01*
X88509974Y-92340552D01*
X88521956Y-92360543D01*
X88531921Y-92381613D01*
X88539773Y-92403557D01*
X88545437Y-92426166D01*
X88548856Y-92449221D01*
X88550000Y-92472500D01*
X88550000Y-92947500D01*
X88548856Y-92970779D01*
X88545437Y-92993834D01*
X88539773Y-93016443D01*
X88531921Y-93038387D01*
X88521956Y-93059457D01*
X88509974Y-93079448D01*
X88496090Y-93098168D01*
X88480438Y-93115438D01*
X88463168Y-93131090D01*
X88444448Y-93144974D01*
X88424457Y-93156956D01*
X88403387Y-93166921D01*
X88381443Y-93174773D01*
X88358834Y-93180437D01*
X88335779Y-93183856D01*
X88312500Y-93185000D01*
X87737500Y-93185000D01*
X87714221Y-93183856D01*
X87691166Y-93180437D01*
X87668557Y-93174773D01*
X87646613Y-93166921D01*
X87625543Y-93156956D01*
X87605552Y-93144974D01*
X87586832Y-93131090D01*
X87569562Y-93115438D01*
X87553910Y-93098168D01*
X87540026Y-93079448D01*
X87528044Y-93059457D01*
X87518079Y-93038387D01*
X87510227Y-93016443D01*
X87504563Y-92993834D01*
X87501144Y-92970779D01*
X87500000Y-92947500D01*
X87500000Y-92472500D01*
X87501144Y-92449221D01*
X87504563Y-92426166D01*
X87510227Y-92403557D01*
X87518079Y-92381613D01*
X87528044Y-92360543D01*
X87540026Y-92340552D01*
X87553910Y-92321832D01*
X87569562Y-92304562D01*
X87586832Y-92288910D01*
X87605552Y-92275026D01*
X87625543Y-92263044D01*
X87646613Y-92253079D01*
X87668557Y-92245227D01*
X87691166Y-92239563D01*
X87714221Y-92236144D01*
X87737500Y-92235000D01*
X88312500Y-92235000D01*
X88335779Y-92236144D01*
G37*
G04 #@! TD.AperFunction*
G04 #@! TA.AperFunction,SMDPad,CuDef*
G36*
X90085779Y-92236144D02*
G01*
X90108834Y-92239563D01*
X90131443Y-92245227D01*
X90153387Y-92253079D01*
X90174457Y-92263044D01*
X90194448Y-92275026D01*
X90213168Y-92288910D01*
X90230438Y-92304562D01*
X90246090Y-92321832D01*
X90259974Y-92340552D01*
X90271956Y-92360543D01*
X90281921Y-92381613D01*
X90289773Y-92403557D01*
X90295437Y-92426166D01*
X90298856Y-92449221D01*
X90300000Y-92472500D01*
X90300000Y-92947500D01*
X90298856Y-92970779D01*
X90295437Y-92993834D01*
X90289773Y-93016443D01*
X90281921Y-93038387D01*
X90271956Y-93059457D01*
X90259974Y-93079448D01*
X90246090Y-93098168D01*
X90230438Y-93115438D01*
X90213168Y-93131090D01*
X90194448Y-93144974D01*
X90174457Y-93156956D01*
X90153387Y-93166921D01*
X90131443Y-93174773D01*
X90108834Y-93180437D01*
X90085779Y-93183856D01*
X90062500Y-93185000D01*
X89487500Y-93185000D01*
X89464221Y-93183856D01*
X89441166Y-93180437D01*
X89418557Y-93174773D01*
X89396613Y-93166921D01*
X89375543Y-93156956D01*
X89355552Y-93144974D01*
X89336832Y-93131090D01*
X89319562Y-93115438D01*
X89303910Y-93098168D01*
X89290026Y-93079448D01*
X89278044Y-93059457D01*
X89268079Y-93038387D01*
X89260227Y-93016443D01*
X89254563Y-92993834D01*
X89251144Y-92970779D01*
X89250000Y-92947500D01*
X89250000Y-92472500D01*
X89251144Y-92449221D01*
X89254563Y-92426166D01*
X89260227Y-92403557D01*
X89268079Y-92381613D01*
X89278044Y-92360543D01*
X89290026Y-92340552D01*
X89303910Y-92321832D01*
X89319562Y-92304562D01*
X89336832Y-92288910D01*
X89355552Y-92275026D01*
X89375543Y-92263044D01*
X89396613Y-92253079D01*
X89418557Y-92245227D01*
X89441166Y-92239563D01*
X89464221Y-92236144D01*
X89487500Y-92235000D01*
X90062500Y-92235000D01*
X90085779Y-92236144D01*
G37*
G04 #@! TD.AperFunction*
G04 #@! TA.AperFunction,SMDPad,CuDef*
G36*
X84080779Y-91311144D02*
G01*
X84103834Y-91314563D01*
X84126443Y-91320227D01*
X84148387Y-91328079D01*
X84169457Y-91338044D01*
X84189448Y-91350026D01*
X84208168Y-91363910D01*
X84225438Y-91379562D01*
X84241090Y-91396832D01*
X84254974Y-91415552D01*
X84266956Y-91435543D01*
X84276921Y-91456613D01*
X84284773Y-91478557D01*
X84290437Y-91501166D01*
X84293856Y-91524221D01*
X84295000Y-91547500D01*
X84295000Y-92122500D01*
X84293856Y-92145779D01*
X84290437Y-92168834D01*
X84284773Y-92191443D01*
X84276921Y-92213387D01*
X84266956Y-92234457D01*
X84254974Y-92254448D01*
X84241090Y-92273168D01*
X84225438Y-92290438D01*
X84208168Y-92306090D01*
X84189448Y-92319974D01*
X84169457Y-92331956D01*
X84148387Y-92341921D01*
X84126443Y-92349773D01*
X84103834Y-92355437D01*
X84080779Y-92358856D01*
X84057500Y-92360000D01*
X83582500Y-92360000D01*
X83559221Y-92358856D01*
X83536166Y-92355437D01*
X83513557Y-92349773D01*
X83491613Y-92341921D01*
X83470543Y-92331956D01*
X83450552Y-92319974D01*
X83431832Y-92306090D01*
X83414562Y-92290438D01*
X83398910Y-92273168D01*
X83385026Y-92254448D01*
X83373044Y-92234457D01*
X83363079Y-92213387D01*
X83355227Y-92191443D01*
X83349563Y-92168834D01*
X83346144Y-92145779D01*
X83345000Y-92122500D01*
X83345000Y-91547500D01*
X83346144Y-91524221D01*
X83349563Y-91501166D01*
X83355227Y-91478557D01*
X83363079Y-91456613D01*
X83373044Y-91435543D01*
X83385026Y-91415552D01*
X83398910Y-91396832D01*
X83414562Y-91379562D01*
X83431832Y-91363910D01*
X83450552Y-91350026D01*
X83470543Y-91338044D01*
X83491613Y-91328079D01*
X83513557Y-91320227D01*
X83536166Y-91314563D01*
X83559221Y-91311144D01*
X83582500Y-91310000D01*
X84057500Y-91310000D01*
X84080779Y-91311144D01*
G37*
G04 #@! TD.AperFunction*
G04 #@! TA.AperFunction,SMDPad,CuDef*
G36*
X84080779Y-93061144D02*
G01*
X84103834Y-93064563D01*
X84126443Y-93070227D01*
X84148387Y-93078079D01*
X84169457Y-93088044D01*
X84189448Y-93100026D01*
X84208168Y-93113910D01*
X84225438Y-93129562D01*
X84241090Y-93146832D01*
X84254974Y-93165552D01*
X84266956Y-93185543D01*
X84276921Y-93206613D01*
X84284773Y-93228557D01*
X84290437Y-93251166D01*
X84293856Y-93274221D01*
X84295000Y-93297500D01*
X84295000Y-93872500D01*
X84293856Y-93895779D01*
X84290437Y-93918834D01*
X84284773Y-93941443D01*
X84276921Y-93963387D01*
X84266956Y-93984457D01*
X84254974Y-94004448D01*
X84241090Y-94023168D01*
X84225438Y-94040438D01*
X84208168Y-94056090D01*
X84189448Y-94069974D01*
X84169457Y-94081956D01*
X84148387Y-94091921D01*
X84126443Y-94099773D01*
X84103834Y-94105437D01*
X84080779Y-94108856D01*
X84057500Y-94110000D01*
X83582500Y-94110000D01*
X83559221Y-94108856D01*
X83536166Y-94105437D01*
X83513557Y-94099773D01*
X83491613Y-94091921D01*
X83470543Y-94081956D01*
X83450552Y-94069974D01*
X83431832Y-94056090D01*
X83414562Y-94040438D01*
X83398910Y-94023168D01*
X83385026Y-94004448D01*
X83373044Y-93984457D01*
X83363079Y-93963387D01*
X83355227Y-93941443D01*
X83349563Y-93918834D01*
X83346144Y-93895779D01*
X83345000Y-93872500D01*
X83345000Y-93297500D01*
X83346144Y-93274221D01*
X83349563Y-93251166D01*
X83355227Y-93228557D01*
X83363079Y-93206613D01*
X83373044Y-93185543D01*
X83385026Y-93165552D01*
X83398910Y-93146832D01*
X83414562Y-93129562D01*
X83431832Y-93113910D01*
X83450552Y-93100026D01*
X83470543Y-93088044D01*
X83491613Y-93078079D01*
X83513557Y-93070227D01*
X83536166Y-93064563D01*
X83559221Y-93061144D01*
X83582500Y-93060000D01*
X84057500Y-93060000D01*
X84080779Y-93061144D01*
G37*
G04 #@! TD.AperFunction*
G04 #@! TA.AperFunction,SMDPad,CuDef*
G36*
X98725779Y-92236144D02*
G01*
X98748834Y-92239563D01*
X98771443Y-92245227D01*
X98793387Y-92253079D01*
X98814457Y-92263044D01*
X98834448Y-92275026D01*
X98853168Y-92288910D01*
X98870438Y-92304562D01*
X98886090Y-92321832D01*
X98899974Y-92340552D01*
X98911956Y-92360543D01*
X98921921Y-92381613D01*
X98929773Y-92403557D01*
X98935437Y-92426166D01*
X98938856Y-92449221D01*
X98940000Y-92472500D01*
X98940000Y-92947500D01*
X98938856Y-92970779D01*
X98935437Y-92993834D01*
X98929773Y-93016443D01*
X98921921Y-93038387D01*
X98911956Y-93059457D01*
X98899974Y-93079448D01*
X98886090Y-93098168D01*
X98870438Y-93115438D01*
X98853168Y-93131090D01*
X98834448Y-93144974D01*
X98814457Y-93156956D01*
X98793387Y-93166921D01*
X98771443Y-93174773D01*
X98748834Y-93180437D01*
X98725779Y-93183856D01*
X98702500Y-93185000D01*
X98127500Y-93185000D01*
X98104221Y-93183856D01*
X98081166Y-93180437D01*
X98058557Y-93174773D01*
X98036613Y-93166921D01*
X98015543Y-93156956D01*
X97995552Y-93144974D01*
X97976832Y-93131090D01*
X97959562Y-93115438D01*
X97943910Y-93098168D01*
X97930026Y-93079448D01*
X97918044Y-93059457D01*
X97908079Y-93038387D01*
X97900227Y-93016443D01*
X97894563Y-92993834D01*
X97891144Y-92970779D01*
X97890000Y-92947500D01*
X97890000Y-92472500D01*
X97891144Y-92449221D01*
X97894563Y-92426166D01*
X97900227Y-92403557D01*
X97908079Y-92381613D01*
X97918044Y-92360543D01*
X97930026Y-92340552D01*
X97943910Y-92321832D01*
X97959562Y-92304562D01*
X97976832Y-92288910D01*
X97995552Y-92275026D01*
X98015543Y-92263044D01*
X98036613Y-92253079D01*
X98058557Y-92245227D01*
X98081166Y-92239563D01*
X98104221Y-92236144D01*
X98127500Y-92235000D01*
X98702500Y-92235000D01*
X98725779Y-92236144D01*
G37*
G04 #@! TD.AperFunction*
G04 #@! TA.AperFunction,SMDPad,CuDef*
G36*
X100475779Y-92236144D02*
G01*
X100498834Y-92239563D01*
X100521443Y-92245227D01*
X100543387Y-92253079D01*
X100564457Y-92263044D01*
X100584448Y-92275026D01*
X100603168Y-92288910D01*
X100620438Y-92304562D01*
X100636090Y-92321832D01*
X100649974Y-92340552D01*
X100661956Y-92360543D01*
X100671921Y-92381613D01*
X100679773Y-92403557D01*
X100685437Y-92426166D01*
X100688856Y-92449221D01*
X100690000Y-92472500D01*
X100690000Y-92947500D01*
X100688856Y-92970779D01*
X100685437Y-92993834D01*
X100679773Y-93016443D01*
X100671921Y-93038387D01*
X100661956Y-93059457D01*
X100649974Y-93079448D01*
X100636090Y-93098168D01*
X100620438Y-93115438D01*
X100603168Y-93131090D01*
X100584448Y-93144974D01*
X100564457Y-93156956D01*
X100543387Y-93166921D01*
X100521443Y-93174773D01*
X100498834Y-93180437D01*
X100475779Y-93183856D01*
X100452500Y-93185000D01*
X99877500Y-93185000D01*
X99854221Y-93183856D01*
X99831166Y-93180437D01*
X99808557Y-93174773D01*
X99786613Y-93166921D01*
X99765543Y-93156956D01*
X99745552Y-93144974D01*
X99726832Y-93131090D01*
X99709562Y-93115438D01*
X99693910Y-93098168D01*
X99680026Y-93079448D01*
X99668044Y-93059457D01*
X99658079Y-93038387D01*
X99650227Y-93016443D01*
X99644563Y-92993834D01*
X99641144Y-92970779D01*
X99640000Y-92947500D01*
X99640000Y-92472500D01*
X99641144Y-92449221D01*
X99644563Y-92426166D01*
X99650227Y-92403557D01*
X99658079Y-92381613D01*
X99668044Y-92360543D01*
X99680026Y-92340552D01*
X99693910Y-92321832D01*
X99709562Y-92304562D01*
X99726832Y-92288910D01*
X99745552Y-92275026D01*
X99765543Y-92263044D01*
X99786613Y-92253079D01*
X99808557Y-92245227D01*
X99831166Y-92239563D01*
X99854221Y-92236144D01*
X99877500Y-92235000D01*
X100452500Y-92235000D01*
X100475779Y-92236144D01*
G37*
G04 #@! TD.AperFunction*
G04 #@! TA.AperFunction,SMDPad,CuDef*
G36*
X94470779Y-91311144D02*
G01*
X94493834Y-91314563D01*
X94516443Y-91320227D01*
X94538387Y-91328079D01*
X94559457Y-91338044D01*
X94579448Y-91350026D01*
X94598168Y-91363910D01*
X94615438Y-91379562D01*
X94631090Y-91396832D01*
X94644974Y-91415552D01*
X94656956Y-91435543D01*
X94666921Y-91456613D01*
X94674773Y-91478557D01*
X94680437Y-91501166D01*
X94683856Y-91524221D01*
X94685000Y-91547500D01*
X94685000Y-92122500D01*
X94683856Y-92145779D01*
X94680437Y-92168834D01*
X94674773Y-92191443D01*
X94666921Y-92213387D01*
X94656956Y-92234457D01*
X94644974Y-92254448D01*
X94631090Y-92273168D01*
X94615438Y-92290438D01*
X94598168Y-92306090D01*
X94579448Y-92319974D01*
X94559457Y-92331956D01*
X94538387Y-92341921D01*
X94516443Y-92349773D01*
X94493834Y-92355437D01*
X94470779Y-92358856D01*
X94447500Y-92360000D01*
X93972500Y-92360000D01*
X93949221Y-92358856D01*
X93926166Y-92355437D01*
X93903557Y-92349773D01*
X93881613Y-92341921D01*
X93860543Y-92331956D01*
X93840552Y-92319974D01*
X93821832Y-92306090D01*
X93804562Y-92290438D01*
X93788910Y-92273168D01*
X93775026Y-92254448D01*
X93763044Y-92234457D01*
X93753079Y-92213387D01*
X93745227Y-92191443D01*
X93739563Y-92168834D01*
X93736144Y-92145779D01*
X93735000Y-92122500D01*
X93735000Y-91547500D01*
X93736144Y-91524221D01*
X93739563Y-91501166D01*
X93745227Y-91478557D01*
X93753079Y-91456613D01*
X93763044Y-91435543D01*
X93775026Y-91415552D01*
X93788910Y-91396832D01*
X93804562Y-91379562D01*
X93821832Y-91363910D01*
X93840552Y-91350026D01*
X93860543Y-91338044D01*
X93881613Y-91328079D01*
X93903557Y-91320227D01*
X93926166Y-91314563D01*
X93949221Y-91311144D01*
X93972500Y-91310000D01*
X94447500Y-91310000D01*
X94470779Y-91311144D01*
G37*
G04 #@! TD.AperFunction*
G04 #@! TA.AperFunction,SMDPad,CuDef*
G36*
X94470779Y-93061144D02*
G01*
X94493834Y-93064563D01*
X94516443Y-93070227D01*
X94538387Y-93078079D01*
X94559457Y-93088044D01*
X94579448Y-93100026D01*
X94598168Y-93113910D01*
X94615438Y-93129562D01*
X94631090Y-93146832D01*
X94644974Y-93165552D01*
X94656956Y-93185543D01*
X94666921Y-93206613D01*
X94674773Y-93228557D01*
X94680437Y-93251166D01*
X94683856Y-93274221D01*
X94685000Y-93297500D01*
X94685000Y-93872500D01*
X94683856Y-93895779D01*
X94680437Y-93918834D01*
X94674773Y-93941443D01*
X94666921Y-93963387D01*
X94656956Y-93984457D01*
X94644974Y-94004448D01*
X94631090Y-94023168D01*
X94615438Y-94040438D01*
X94598168Y-94056090D01*
X94579448Y-94069974D01*
X94559457Y-94081956D01*
X94538387Y-94091921D01*
X94516443Y-94099773D01*
X94493834Y-94105437D01*
X94470779Y-94108856D01*
X94447500Y-94110000D01*
X93972500Y-94110000D01*
X93949221Y-94108856D01*
X93926166Y-94105437D01*
X93903557Y-94099773D01*
X93881613Y-94091921D01*
X93860543Y-94081956D01*
X93840552Y-94069974D01*
X93821832Y-94056090D01*
X93804562Y-94040438D01*
X93788910Y-94023168D01*
X93775026Y-94004448D01*
X93763044Y-93984457D01*
X93753079Y-93963387D01*
X93745227Y-93941443D01*
X93739563Y-93918834D01*
X93736144Y-93895779D01*
X93735000Y-93872500D01*
X93735000Y-93297500D01*
X93736144Y-93274221D01*
X93739563Y-93251166D01*
X93745227Y-93228557D01*
X93753079Y-93206613D01*
X93763044Y-93185543D01*
X93775026Y-93165552D01*
X93788910Y-93146832D01*
X93804562Y-93129562D01*
X93821832Y-93113910D01*
X93840552Y-93100026D01*
X93860543Y-93088044D01*
X93881613Y-93078079D01*
X93903557Y-93070227D01*
X93926166Y-93064563D01*
X93949221Y-93061144D01*
X93972500Y-93060000D01*
X94447500Y-93060000D01*
X94470779Y-93061144D01*
G37*
G04 #@! TD.AperFunction*
G04 #@! TA.AperFunction,SMDPad,CuDef*
G36*
X108655779Y-92236144D02*
G01*
X108678834Y-92239563D01*
X108701443Y-92245227D01*
X108723387Y-92253079D01*
X108744457Y-92263044D01*
X108764448Y-92275026D01*
X108783168Y-92288910D01*
X108800438Y-92304562D01*
X108816090Y-92321832D01*
X108829974Y-92340552D01*
X108841956Y-92360543D01*
X108851921Y-92381613D01*
X108859773Y-92403557D01*
X108865437Y-92426166D01*
X108868856Y-92449221D01*
X108870000Y-92472500D01*
X108870000Y-92947500D01*
X108868856Y-92970779D01*
X108865437Y-92993834D01*
X108859773Y-93016443D01*
X108851921Y-93038387D01*
X108841956Y-93059457D01*
X108829974Y-93079448D01*
X108816090Y-93098168D01*
X108800438Y-93115438D01*
X108783168Y-93131090D01*
X108764448Y-93144974D01*
X108744457Y-93156956D01*
X108723387Y-93166921D01*
X108701443Y-93174773D01*
X108678834Y-93180437D01*
X108655779Y-93183856D01*
X108632500Y-93185000D01*
X108057500Y-93185000D01*
X108034221Y-93183856D01*
X108011166Y-93180437D01*
X107988557Y-93174773D01*
X107966613Y-93166921D01*
X107945543Y-93156956D01*
X107925552Y-93144974D01*
X107906832Y-93131090D01*
X107889562Y-93115438D01*
X107873910Y-93098168D01*
X107860026Y-93079448D01*
X107848044Y-93059457D01*
X107838079Y-93038387D01*
X107830227Y-93016443D01*
X107824563Y-92993834D01*
X107821144Y-92970779D01*
X107820000Y-92947500D01*
X107820000Y-92472500D01*
X107821144Y-92449221D01*
X107824563Y-92426166D01*
X107830227Y-92403557D01*
X107838079Y-92381613D01*
X107848044Y-92360543D01*
X107860026Y-92340552D01*
X107873910Y-92321832D01*
X107889562Y-92304562D01*
X107906832Y-92288910D01*
X107925552Y-92275026D01*
X107945543Y-92263044D01*
X107966613Y-92253079D01*
X107988557Y-92245227D01*
X108011166Y-92239563D01*
X108034221Y-92236144D01*
X108057500Y-92235000D01*
X108632500Y-92235000D01*
X108655779Y-92236144D01*
G37*
G04 #@! TD.AperFunction*
G04 #@! TA.AperFunction,SMDPad,CuDef*
G36*
X110405779Y-92236144D02*
G01*
X110428834Y-92239563D01*
X110451443Y-92245227D01*
X110473387Y-92253079D01*
X110494457Y-92263044D01*
X110514448Y-92275026D01*
X110533168Y-92288910D01*
X110550438Y-92304562D01*
X110566090Y-92321832D01*
X110579974Y-92340552D01*
X110591956Y-92360543D01*
X110601921Y-92381613D01*
X110609773Y-92403557D01*
X110615437Y-92426166D01*
X110618856Y-92449221D01*
X110620000Y-92472500D01*
X110620000Y-92947500D01*
X110618856Y-92970779D01*
X110615437Y-92993834D01*
X110609773Y-93016443D01*
X110601921Y-93038387D01*
X110591956Y-93059457D01*
X110579974Y-93079448D01*
X110566090Y-93098168D01*
X110550438Y-93115438D01*
X110533168Y-93131090D01*
X110514448Y-93144974D01*
X110494457Y-93156956D01*
X110473387Y-93166921D01*
X110451443Y-93174773D01*
X110428834Y-93180437D01*
X110405779Y-93183856D01*
X110382500Y-93185000D01*
X109807500Y-93185000D01*
X109784221Y-93183856D01*
X109761166Y-93180437D01*
X109738557Y-93174773D01*
X109716613Y-93166921D01*
X109695543Y-93156956D01*
X109675552Y-93144974D01*
X109656832Y-93131090D01*
X109639562Y-93115438D01*
X109623910Y-93098168D01*
X109610026Y-93079448D01*
X109598044Y-93059457D01*
X109588079Y-93038387D01*
X109580227Y-93016443D01*
X109574563Y-92993834D01*
X109571144Y-92970779D01*
X109570000Y-92947500D01*
X109570000Y-92472500D01*
X109571144Y-92449221D01*
X109574563Y-92426166D01*
X109580227Y-92403557D01*
X109588079Y-92381613D01*
X109598044Y-92360543D01*
X109610026Y-92340552D01*
X109623910Y-92321832D01*
X109639562Y-92304562D01*
X109656832Y-92288910D01*
X109675552Y-92275026D01*
X109695543Y-92263044D01*
X109716613Y-92253079D01*
X109738557Y-92245227D01*
X109761166Y-92239563D01*
X109784221Y-92236144D01*
X109807500Y-92235000D01*
X110382500Y-92235000D01*
X110405779Y-92236144D01*
G37*
G04 #@! TD.AperFunction*
G04 #@! TA.AperFunction,SMDPad,CuDef*
G36*
X104400779Y-91311144D02*
G01*
X104423834Y-91314563D01*
X104446443Y-91320227D01*
X104468387Y-91328079D01*
X104489457Y-91338044D01*
X104509448Y-91350026D01*
X104528168Y-91363910D01*
X104545438Y-91379562D01*
X104561090Y-91396832D01*
X104574974Y-91415552D01*
X104586956Y-91435543D01*
X104596921Y-91456613D01*
X104604773Y-91478557D01*
X104610437Y-91501166D01*
X104613856Y-91524221D01*
X104615000Y-91547500D01*
X104615000Y-92122500D01*
X104613856Y-92145779D01*
X104610437Y-92168834D01*
X104604773Y-92191443D01*
X104596921Y-92213387D01*
X104586956Y-92234457D01*
X104574974Y-92254448D01*
X104561090Y-92273168D01*
X104545438Y-92290438D01*
X104528168Y-92306090D01*
X104509448Y-92319974D01*
X104489457Y-92331956D01*
X104468387Y-92341921D01*
X104446443Y-92349773D01*
X104423834Y-92355437D01*
X104400779Y-92358856D01*
X104377500Y-92360000D01*
X103902500Y-92360000D01*
X103879221Y-92358856D01*
X103856166Y-92355437D01*
X103833557Y-92349773D01*
X103811613Y-92341921D01*
X103790543Y-92331956D01*
X103770552Y-92319974D01*
X103751832Y-92306090D01*
X103734562Y-92290438D01*
X103718910Y-92273168D01*
X103705026Y-92254448D01*
X103693044Y-92234457D01*
X103683079Y-92213387D01*
X103675227Y-92191443D01*
X103669563Y-92168834D01*
X103666144Y-92145779D01*
X103665000Y-92122500D01*
X103665000Y-91547500D01*
X103666144Y-91524221D01*
X103669563Y-91501166D01*
X103675227Y-91478557D01*
X103683079Y-91456613D01*
X103693044Y-91435543D01*
X103705026Y-91415552D01*
X103718910Y-91396832D01*
X103734562Y-91379562D01*
X103751832Y-91363910D01*
X103770552Y-91350026D01*
X103790543Y-91338044D01*
X103811613Y-91328079D01*
X103833557Y-91320227D01*
X103856166Y-91314563D01*
X103879221Y-91311144D01*
X103902500Y-91310000D01*
X104377500Y-91310000D01*
X104400779Y-91311144D01*
G37*
G04 #@! TD.AperFunction*
G04 #@! TA.AperFunction,SMDPad,CuDef*
G36*
X104400779Y-93061144D02*
G01*
X104423834Y-93064563D01*
X104446443Y-93070227D01*
X104468387Y-93078079D01*
X104489457Y-93088044D01*
X104509448Y-93100026D01*
X104528168Y-93113910D01*
X104545438Y-93129562D01*
X104561090Y-93146832D01*
X104574974Y-93165552D01*
X104586956Y-93185543D01*
X104596921Y-93206613D01*
X104604773Y-93228557D01*
X104610437Y-93251166D01*
X104613856Y-93274221D01*
X104615000Y-93297500D01*
X104615000Y-93872500D01*
X104613856Y-93895779D01*
X104610437Y-93918834D01*
X104604773Y-93941443D01*
X104596921Y-93963387D01*
X104586956Y-93984457D01*
X104574974Y-94004448D01*
X104561090Y-94023168D01*
X104545438Y-94040438D01*
X104528168Y-94056090D01*
X104509448Y-94069974D01*
X104489457Y-94081956D01*
X104468387Y-94091921D01*
X104446443Y-94099773D01*
X104423834Y-94105437D01*
X104400779Y-94108856D01*
X104377500Y-94110000D01*
X103902500Y-94110000D01*
X103879221Y-94108856D01*
X103856166Y-94105437D01*
X103833557Y-94099773D01*
X103811613Y-94091921D01*
X103790543Y-94081956D01*
X103770552Y-94069974D01*
X103751832Y-94056090D01*
X103734562Y-94040438D01*
X103718910Y-94023168D01*
X103705026Y-94004448D01*
X103693044Y-93984457D01*
X103683079Y-93963387D01*
X103675227Y-93941443D01*
X103669563Y-93918834D01*
X103666144Y-93895779D01*
X103665000Y-93872500D01*
X103665000Y-93297500D01*
X103666144Y-93274221D01*
X103669563Y-93251166D01*
X103675227Y-93228557D01*
X103683079Y-93206613D01*
X103693044Y-93185543D01*
X103705026Y-93165552D01*
X103718910Y-93146832D01*
X103734562Y-93129562D01*
X103751832Y-93113910D01*
X103770552Y-93100026D01*
X103790543Y-93088044D01*
X103811613Y-93078079D01*
X103833557Y-93070227D01*
X103856166Y-93064563D01*
X103879221Y-93061144D01*
X103902500Y-93060000D01*
X104377500Y-93060000D01*
X104400779Y-93061144D01*
G37*
G04 #@! TD.AperFunction*
G04 #@! TA.AperFunction,SMDPad,CuDef*
G36*
X118815779Y-92236144D02*
G01*
X118838834Y-92239563D01*
X118861443Y-92245227D01*
X118883387Y-92253079D01*
X118904457Y-92263044D01*
X118924448Y-92275026D01*
X118943168Y-92288910D01*
X118960438Y-92304562D01*
X118976090Y-92321832D01*
X118989974Y-92340552D01*
X119001956Y-92360543D01*
X119011921Y-92381613D01*
X119019773Y-92403557D01*
X119025437Y-92426166D01*
X119028856Y-92449221D01*
X119030000Y-92472500D01*
X119030000Y-92947500D01*
X119028856Y-92970779D01*
X119025437Y-92993834D01*
X119019773Y-93016443D01*
X119011921Y-93038387D01*
X119001956Y-93059457D01*
X118989974Y-93079448D01*
X118976090Y-93098168D01*
X118960438Y-93115438D01*
X118943168Y-93131090D01*
X118924448Y-93144974D01*
X118904457Y-93156956D01*
X118883387Y-93166921D01*
X118861443Y-93174773D01*
X118838834Y-93180437D01*
X118815779Y-93183856D01*
X118792500Y-93185000D01*
X118217500Y-93185000D01*
X118194221Y-93183856D01*
X118171166Y-93180437D01*
X118148557Y-93174773D01*
X118126613Y-93166921D01*
X118105543Y-93156956D01*
X118085552Y-93144974D01*
X118066832Y-93131090D01*
X118049562Y-93115438D01*
X118033910Y-93098168D01*
X118020026Y-93079448D01*
X118008044Y-93059457D01*
X117998079Y-93038387D01*
X117990227Y-93016443D01*
X117984563Y-92993834D01*
X117981144Y-92970779D01*
X117980000Y-92947500D01*
X117980000Y-92472500D01*
X117981144Y-92449221D01*
X117984563Y-92426166D01*
X117990227Y-92403557D01*
X117998079Y-92381613D01*
X118008044Y-92360543D01*
X118020026Y-92340552D01*
X118033910Y-92321832D01*
X118049562Y-92304562D01*
X118066832Y-92288910D01*
X118085552Y-92275026D01*
X118105543Y-92263044D01*
X118126613Y-92253079D01*
X118148557Y-92245227D01*
X118171166Y-92239563D01*
X118194221Y-92236144D01*
X118217500Y-92235000D01*
X118792500Y-92235000D01*
X118815779Y-92236144D01*
G37*
G04 #@! TD.AperFunction*
G04 #@! TA.AperFunction,SMDPad,CuDef*
G36*
X120565779Y-92236144D02*
G01*
X120588834Y-92239563D01*
X120611443Y-92245227D01*
X120633387Y-92253079D01*
X120654457Y-92263044D01*
X120674448Y-92275026D01*
X120693168Y-92288910D01*
X120710438Y-92304562D01*
X120726090Y-92321832D01*
X120739974Y-92340552D01*
X120751956Y-92360543D01*
X120761921Y-92381613D01*
X120769773Y-92403557D01*
X120775437Y-92426166D01*
X120778856Y-92449221D01*
X120780000Y-92472500D01*
X120780000Y-92947500D01*
X120778856Y-92970779D01*
X120775437Y-92993834D01*
X120769773Y-93016443D01*
X120761921Y-93038387D01*
X120751956Y-93059457D01*
X120739974Y-93079448D01*
X120726090Y-93098168D01*
X120710438Y-93115438D01*
X120693168Y-93131090D01*
X120674448Y-93144974D01*
X120654457Y-93156956D01*
X120633387Y-93166921D01*
X120611443Y-93174773D01*
X120588834Y-93180437D01*
X120565779Y-93183856D01*
X120542500Y-93185000D01*
X119967500Y-93185000D01*
X119944221Y-93183856D01*
X119921166Y-93180437D01*
X119898557Y-93174773D01*
X119876613Y-93166921D01*
X119855543Y-93156956D01*
X119835552Y-93144974D01*
X119816832Y-93131090D01*
X119799562Y-93115438D01*
X119783910Y-93098168D01*
X119770026Y-93079448D01*
X119758044Y-93059457D01*
X119748079Y-93038387D01*
X119740227Y-93016443D01*
X119734563Y-92993834D01*
X119731144Y-92970779D01*
X119730000Y-92947500D01*
X119730000Y-92472500D01*
X119731144Y-92449221D01*
X119734563Y-92426166D01*
X119740227Y-92403557D01*
X119748079Y-92381613D01*
X119758044Y-92360543D01*
X119770026Y-92340552D01*
X119783910Y-92321832D01*
X119799562Y-92304562D01*
X119816832Y-92288910D01*
X119835552Y-92275026D01*
X119855543Y-92263044D01*
X119876613Y-92253079D01*
X119898557Y-92245227D01*
X119921166Y-92239563D01*
X119944221Y-92236144D01*
X119967500Y-92235000D01*
X120542500Y-92235000D01*
X120565779Y-92236144D01*
G37*
G04 #@! TD.AperFunction*
G04 #@! TA.AperFunction,SMDPad,CuDef*
G36*
X114560779Y-91311144D02*
G01*
X114583834Y-91314563D01*
X114606443Y-91320227D01*
X114628387Y-91328079D01*
X114649457Y-91338044D01*
X114669448Y-91350026D01*
X114688168Y-91363910D01*
X114705438Y-91379562D01*
X114721090Y-91396832D01*
X114734974Y-91415552D01*
X114746956Y-91435543D01*
X114756921Y-91456613D01*
X114764773Y-91478557D01*
X114770437Y-91501166D01*
X114773856Y-91524221D01*
X114775000Y-91547500D01*
X114775000Y-92122500D01*
X114773856Y-92145779D01*
X114770437Y-92168834D01*
X114764773Y-92191443D01*
X114756921Y-92213387D01*
X114746956Y-92234457D01*
X114734974Y-92254448D01*
X114721090Y-92273168D01*
X114705438Y-92290438D01*
X114688168Y-92306090D01*
X114669448Y-92319974D01*
X114649457Y-92331956D01*
X114628387Y-92341921D01*
X114606443Y-92349773D01*
X114583834Y-92355437D01*
X114560779Y-92358856D01*
X114537500Y-92360000D01*
X114062500Y-92360000D01*
X114039221Y-92358856D01*
X114016166Y-92355437D01*
X113993557Y-92349773D01*
X113971613Y-92341921D01*
X113950543Y-92331956D01*
X113930552Y-92319974D01*
X113911832Y-92306090D01*
X113894562Y-92290438D01*
X113878910Y-92273168D01*
X113865026Y-92254448D01*
X113853044Y-92234457D01*
X113843079Y-92213387D01*
X113835227Y-92191443D01*
X113829563Y-92168834D01*
X113826144Y-92145779D01*
X113825000Y-92122500D01*
X113825000Y-91547500D01*
X113826144Y-91524221D01*
X113829563Y-91501166D01*
X113835227Y-91478557D01*
X113843079Y-91456613D01*
X113853044Y-91435543D01*
X113865026Y-91415552D01*
X113878910Y-91396832D01*
X113894562Y-91379562D01*
X113911832Y-91363910D01*
X113930552Y-91350026D01*
X113950543Y-91338044D01*
X113971613Y-91328079D01*
X113993557Y-91320227D01*
X114016166Y-91314563D01*
X114039221Y-91311144D01*
X114062500Y-91310000D01*
X114537500Y-91310000D01*
X114560779Y-91311144D01*
G37*
G04 #@! TD.AperFunction*
G04 #@! TA.AperFunction,SMDPad,CuDef*
G36*
X114560779Y-93061144D02*
G01*
X114583834Y-93064563D01*
X114606443Y-93070227D01*
X114628387Y-93078079D01*
X114649457Y-93088044D01*
X114669448Y-93100026D01*
X114688168Y-93113910D01*
X114705438Y-93129562D01*
X114721090Y-93146832D01*
X114734974Y-93165552D01*
X114746956Y-93185543D01*
X114756921Y-93206613D01*
X114764773Y-93228557D01*
X114770437Y-93251166D01*
X114773856Y-93274221D01*
X114775000Y-93297500D01*
X114775000Y-93872500D01*
X114773856Y-93895779D01*
X114770437Y-93918834D01*
X114764773Y-93941443D01*
X114756921Y-93963387D01*
X114746956Y-93984457D01*
X114734974Y-94004448D01*
X114721090Y-94023168D01*
X114705438Y-94040438D01*
X114688168Y-94056090D01*
X114669448Y-94069974D01*
X114649457Y-94081956D01*
X114628387Y-94091921D01*
X114606443Y-94099773D01*
X114583834Y-94105437D01*
X114560779Y-94108856D01*
X114537500Y-94110000D01*
X114062500Y-94110000D01*
X114039221Y-94108856D01*
X114016166Y-94105437D01*
X113993557Y-94099773D01*
X113971613Y-94091921D01*
X113950543Y-94081956D01*
X113930552Y-94069974D01*
X113911832Y-94056090D01*
X113894562Y-94040438D01*
X113878910Y-94023168D01*
X113865026Y-94004448D01*
X113853044Y-93984457D01*
X113843079Y-93963387D01*
X113835227Y-93941443D01*
X113829563Y-93918834D01*
X113826144Y-93895779D01*
X113825000Y-93872500D01*
X113825000Y-93297500D01*
X113826144Y-93274221D01*
X113829563Y-93251166D01*
X113835227Y-93228557D01*
X113843079Y-93206613D01*
X113853044Y-93185543D01*
X113865026Y-93165552D01*
X113878910Y-93146832D01*
X113894562Y-93129562D01*
X113911832Y-93113910D01*
X113930552Y-93100026D01*
X113950543Y-93088044D01*
X113971613Y-93078079D01*
X113993557Y-93070227D01*
X114016166Y-93064563D01*
X114039221Y-93061144D01*
X114062500Y-93060000D01*
X114537500Y-93060000D01*
X114560779Y-93061144D01*
G37*
G04 #@! TD.AperFunction*
G04 #@! TA.AperFunction,SMDPad,CuDef*
G36*
X128975779Y-92236144D02*
G01*
X128998834Y-92239563D01*
X129021443Y-92245227D01*
X129043387Y-92253079D01*
X129064457Y-92263044D01*
X129084448Y-92275026D01*
X129103168Y-92288910D01*
X129120438Y-92304562D01*
X129136090Y-92321832D01*
X129149974Y-92340552D01*
X129161956Y-92360543D01*
X129171921Y-92381613D01*
X129179773Y-92403557D01*
X129185437Y-92426166D01*
X129188856Y-92449221D01*
X129190000Y-92472500D01*
X129190000Y-92947500D01*
X129188856Y-92970779D01*
X129185437Y-92993834D01*
X129179773Y-93016443D01*
X129171921Y-93038387D01*
X129161956Y-93059457D01*
X129149974Y-93079448D01*
X129136090Y-93098168D01*
X129120438Y-93115438D01*
X129103168Y-93131090D01*
X129084448Y-93144974D01*
X129064457Y-93156956D01*
X129043387Y-93166921D01*
X129021443Y-93174773D01*
X128998834Y-93180437D01*
X128975779Y-93183856D01*
X128952500Y-93185000D01*
X128377500Y-93185000D01*
X128354221Y-93183856D01*
X128331166Y-93180437D01*
X128308557Y-93174773D01*
X128286613Y-93166921D01*
X128265543Y-93156956D01*
X128245552Y-93144974D01*
X128226832Y-93131090D01*
X128209562Y-93115438D01*
X128193910Y-93098168D01*
X128180026Y-93079448D01*
X128168044Y-93059457D01*
X128158079Y-93038387D01*
X128150227Y-93016443D01*
X128144563Y-92993834D01*
X128141144Y-92970779D01*
X128140000Y-92947500D01*
X128140000Y-92472500D01*
X128141144Y-92449221D01*
X128144563Y-92426166D01*
X128150227Y-92403557D01*
X128158079Y-92381613D01*
X128168044Y-92360543D01*
X128180026Y-92340552D01*
X128193910Y-92321832D01*
X128209562Y-92304562D01*
X128226832Y-92288910D01*
X128245552Y-92275026D01*
X128265543Y-92263044D01*
X128286613Y-92253079D01*
X128308557Y-92245227D01*
X128331166Y-92239563D01*
X128354221Y-92236144D01*
X128377500Y-92235000D01*
X128952500Y-92235000D01*
X128975779Y-92236144D01*
G37*
G04 #@! TD.AperFunction*
G04 #@! TA.AperFunction,SMDPad,CuDef*
G36*
X130725779Y-92236144D02*
G01*
X130748834Y-92239563D01*
X130771443Y-92245227D01*
X130793387Y-92253079D01*
X130814457Y-92263044D01*
X130834448Y-92275026D01*
X130853168Y-92288910D01*
X130870438Y-92304562D01*
X130886090Y-92321832D01*
X130899974Y-92340552D01*
X130911956Y-92360543D01*
X130921921Y-92381613D01*
X130929773Y-92403557D01*
X130935437Y-92426166D01*
X130938856Y-92449221D01*
X130940000Y-92472500D01*
X130940000Y-92947500D01*
X130938856Y-92970779D01*
X130935437Y-92993834D01*
X130929773Y-93016443D01*
X130921921Y-93038387D01*
X130911956Y-93059457D01*
X130899974Y-93079448D01*
X130886090Y-93098168D01*
X130870438Y-93115438D01*
X130853168Y-93131090D01*
X130834448Y-93144974D01*
X130814457Y-93156956D01*
X130793387Y-93166921D01*
X130771443Y-93174773D01*
X130748834Y-93180437D01*
X130725779Y-93183856D01*
X130702500Y-93185000D01*
X130127500Y-93185000D01*
X130104221Y-93183856D01*
X130081166Y-93180437D01*
X130058557Y-93174773D01*
X130036613Y-93166921D01*
X130015543Y-93156956D01*
X129995552Y-93144974D01*
X129976832Y-93131090D01*
X129959562Y-93115438D01*
X129943910Y-93098168D01*
X129930026Y-93079448D01*
X129918044Y-93059457D01*
X129908079Y-93038387D01*
X129900227Y-93016443D01*
X129894563Y-92993834D01*
X129891144Y-92970779D01*
X129890000Y-92947500D01*
X129890000Y-92472500D01*
X129891144Y-92449221D01*
X129894563Y-92426166D01*
X129900227Y-92403557D01*
X129908079Y-92381613D01*
X129918044Y-92360543D01*
X129930026Y-92340552D01*
X129943910Y-92321832D01*
X129959562Y-92304562D01*
X129976832Y-92288910D01*
X129995552Y-92275026D01*
X130015543Y-92263044D01*
X130036613Y-92253079D01*
X130058557Y-92245227D01*
X130081166Y-92239563D01*
X130104221Y-92236144D01*
X130127500Y-92235000D01*
X130702500Y-92235000D01*
X130725779Y-92236144D01*
G37*
G04 #@! TD.AperFunction*
G04 #@! TA.AperFunction,SMDPad,CuDef*
G36*
X124720779Y-91311144D02*
G01*
X124743834Y-91314563D01*
X124766443Y-91320227D01*
X124788387Y-91328079D01*
X124809457Y-91338044D01*
X124829448Y-91350026D01*
X124848168Y-91363910D01*
X124865438Y-91379562D01*
X124881090Y-91396832D01*
X124894974Y-91415552D01*
X124906956Y-91435543D01*
X124916921Y-91456613D01*
X124924773Y-91478557D01*
X124930437Y-91501166D01*
X124933856Y-91524221D01*
X124935000Y-91547500D01*
X124935000Y-92122500D01*
X124933856Y-92145779D01*
X124930437Y-92168834D01*
X124924773Y-92191443D01*
X124916921Y-92213387D01*
X124906956Y-92234457D01*
X124894974Y-92254448D01*
X124881090Y-92273168D01*
X124865438Y-92290438D01*
X124848168Y-92306090D01*
X124829448Y-92319974D01*
X124809457Y-92331956D01*
X124788387Y-92341921D01*
X124766443Y-92349773D01*
X124743834Y-92355437D01*
X124720779Y-92358856D01*
X124697500Y-92360000D01*
X124222500Y-92360000D01*
X124199221Y-92358856D01*
X124176166Y-92355437D01*
X124153557Y-92349773D01*
X124131613Y-92341921D01*
X124110543Y-92331956D01*
X124090552Y-92319974D01*
X124071832Y-92306090D01*
X124054562Y-92290438D01*
X124038910Y-92273168D01*
X124025026Y-92254448D01*
X124013044Y-92234457D01*
X124003079Y-92213387D01*
X123995227Y-92191443D01*
X123989563Y-92168834D01*
X123986144Y-92145779D01*
X123985000Y-92122500D01*
X123985000Y-91547500D01*
X123986144Y-91524221D01*
X123989563Y-91501166D01*
X123995227Y-91478557D01*
X124003079Y-91456613D01*
X124013044Y-91435543D01*
X124025026Y-91415552D01*
X124038910Y-91396832D01*
X124054562Y-91379562D01*
X124071832Y-91363910D01*
X124090552Y-91350026D01*
X124110543Y-91338044D01*
X124131613Y-91328079D01*
X124153557Y-91320227D01*
X124176166Y-91314563D01*
X124199221Y-91311144D01*
X124222500Y-91310000D01*
X124697500Y-91310000D01*
X124720779Y-91311144D01*
G37*
G04 #@! TD.AperFunction*
G04 #@! TA.AperFunction,SMDPad,CuDef*
G36*
X124720779Y-93061144D02*
G01*
X124743834Y-93064563D01*
X124766443Y-93070227D01*
X124788387Y-93078079D01*
X124809457Y-93088044D01*
X124829448Y-93100026D01*
X124848168Y-93113910D01*
X124865438Y-93129562D01*
X124881090Y-93146832D01*
X124894974Y-93165552D01*
X124906956Y-93185543D01*
X124916921Y-93206613D01*
X124924773Y-93228557D01*
X124930437Y-93251166D01*
X124933856Y-93274221D01*
X124935000Y-93297500D01*
X124935000Y-93872500D01*
X124933856Y-93895779D01*
X124930437Y-93918834D01*
X124924773Y-93941443D01*
X124916921Y-93963387D01*
X124906956Y-93984457D01*
X124894974Y-94004448D01*
X124881090Y-94023168D01*
X124865438Y-94040438D01*
X124848168Y-94056090D01*
X124829448Y-94069974D01*
X124809457Y-94081956D01*
X124788387Y-94091921D01*
X124766443Y-94099773D01*
X124743834Y-94105437D01*
X124720779Y-94108856D01*
X124697500Y-94110000D01*
X124222500Y-94110000D01*
X124199221Y-94108856D01*
X124176166Y-94105437D01*
X124153557Y-94099773D01*
X124131613Y-94091921D01*
X124110543Y-94081956D01*
X124090552Y-94069974D01*
X124071832Y-94056090D01*
X124054562Y-94040438D01*
X124038910Y-94023168D01*
X124025026Y-94004448D01*
X124013044Y-93984457D01*
X124003079Y-93963387D01*
X123995227Y-93941443D01*
X123989563Y-93918834D01*
X123986144Y-93895779D01*
X123985000Y-93872500D01*
X123985000Y-93297500D01*
X123986144Y-93274221D01*
X123989563Y-93251166D01*
X123995227Y-93228557D01*
X124003079Y-93206613D01*
X124013044Y-93185543D01*
X124025026Y-93165552D01*
X124038910Y-93146832D01*
X124054562Y-93129562D01*
X124071832Y-93113910D01*
X124090552Y-93100026D01*
X124110543Y-93088044D01*
X124131613Y-93078079D01*
X124153557Y-93070227D01*
X124176166Y-93064563D01*
X124199221Y-93061144D01*
X124222500Y-93060000D01*
X124697500Y-93060000D01*
X124720779Y-93061144D01*
G37*
G04 #@! TD.AperFunction*
G04 #@! TA.AperFunction,SMDPad,CuDef*
G36*
X139135779Y-92236144D02*
G01*
X139158834Y-92239563D01*
X139181443Y-92245227D01*
X139203387Y-92253079D01*
X139224457Y-92263044D01*
X139244448Y-92275026D01*
X139263168Y-92288910D01*
X139280438Y-92304562D01*
X139296090Y-92321832D01*
X139309974Y-92340552D01*
X139321956Y-92360543D01*
X139331921Y-92381613D01*
X139339773Y-92403557D01*
X139345437Y-92426166D01*
X139348856Y-92449221D01*
X139350000Y-92472500D01*
X139350000Y-92947500D01*
X139348856Y-92970779D01*
X139345437Y-92993834D01*
X139339773Y-93016443D01*
X139331921Y-93038387D01*
X139321956Y-93059457D01*
X139309974Y-93079448D01*
X139296090Y-93098168D01*
X139280438Y-93115438D01*
X139263168Y-93131090D01*
X139244448Y-93144974D01*
X139224457Y-93156956D01*
X139203387Y-93166921D01*
X139181443Y-93174773D01*
X139158834Y-93180437D01*
X139135779Y-93183856D01*
X139112500Y-93185000D01*
X138537500Y-93185000D01*
X138514221Y-93183856D01*
X138491166Y-93180437D01*
X138468557Y-93174773D01*
X138446613Y-93166921D01*
X138425543Y-93156956D01*
X138405552Y-93144974D01*
X138386832Y-93131090D01*
X138369562Y-93115438D01*
X138353910Y-93098168D01*
X138340026Y-93079448D01*
X138328044Y-93059457D01*
X138318079Y-93038387D01*
X138310227Y-93016443D01*
X138304563Y-92993834D01*
X138301144Y-92970779D01*
X138300000Y-92947500D01*
X138300000Y-92472500D01*
X138301144Y-92449221D01*
X138304563Y-92426166D01*
X138310227Y-92403557D01*
X138318079Y-92381613D01*
X138328044Y-92360543D01*
X138340026Y-92340552D01*
X138353910Y-92321832D01*
X138369562Y-92304562D01*
X138386832Y-92288910D01*
X138405552Y-92275026D01*
X138425543Y-92263044D01*
X138446613Y-92253079D01*
X138468557Y-92245227D01*
X138491166Y-92239563D01*
X138514221Y-92236144D01*
X138537500Y-92235000D01*
X139112500Y-92235000D01*
X139135779Y-92236144D01*
G37*
G04 #@! TD.AperFunction*
G04 #@! TA.AperFunction,SMDPad,CuDef*
G36*
X140885779Y-92236144D02*
G01*
X140908834Y-92239563D01*
X140931443Y-92245227D01*
X140953387Y-92253079D01*
X140974457Y-92263044D01*
X140994448Y-92275026D01*
X141013168Y-92288910D01*
X141030438Y-92304562D01*
X141046090Y-92321832D01*
X141059974Y-92340552D01*
X141071956Y-92360543D01*
X141081921Y-92381613D01*
X141089773Y-92403557D01*
X141095437Y-92426166D01*
X141098856Y-92449221D01*
X141100000Y-92472500D01*
X141100000Y-92947500D01*
X141098856Y-92970779D01*
X141095437Y-92993834D01*
X141089773Y-93016443D01*
X141081921Y-93038387D01*
X141071956Y-93059457D01*
X141059974Y-93079448D01*
X141046090Y-93098168D01*
X141030438Y-93115438D01*
X141013168Y-93131090D01*
X140994448Y-93144974D01*
X140974457Y-93156956D01*
X140953387Y-93166921D01*
X140931443Y-93174773D01*
X140908834Y-93180437D01*
X140885779Y-93183856D01*
X140862500Y-93185000D01*
X140287500Y-93185000D01*
X140264221Y-93183856D01*
X140241166Y-93180437D01*
X140218557Y-93174773D01*
X140196613Y-93166921D01*
X140175543Y-93156956D01*
X140155552Y-93144974D01*
X140136832Y-93131090D01*
X140119562Y-93115438D01*
X140103910Y-93098168D01*
X140090026Y-93079448D01*
X140078044Y-93059457D01*
X140068079Y-93038387D01*
X140060227Y-93016443D01*
X140054563Y-92993834D01*
X140051144Y-92970779D01*
X140050000Y-92947500D01*
X140050000Y-92472500D01*
X140051144Y-92449221D01*
X140054563Y-92426166D01*
X140060227Y-92403557D01*
X140068079Y-92381613D01*
X140078044Y-92360543D01*
X140090026Y-92340552D01*
X140103910Y-92321832D01*
X140119562Y-92304562D01*
X140136832Y-92288910D01*
X140155552Y-92275026D01*
X140175543Y-92263044D01*
X140196613Y-92253079D01*
X140218557Y-92245227D01*
X140241166Y-92239563D01*
X140264221Y-92236144D01*
X140287500Y-92235000D01*
X140862500Y-92235000D01*
X140885779Y-92236144D01*
G37*
G04 #@! TD.AperFunction*
G04 #@! TA.AperFunction,SMDPad,CuDef*
G36*
X134880779Y-91311144D02*
G01*
X134903834Y-91314563D01*
X134926443Y-91320227D01*
X134948387Y-91328079D01*
X134969457Y-91338044D01*
X134989448Y-91350026D01*
X135008168Y-91363910D01*
X135025438Y-91379562D01*
X135041090Y-91396832D01*
X135054974Y-91415552D01*
X135066956Y-91435543D01*
X135076921Y-91456613D01*
X135084773Y-91478557D01*
X135090437Y-91501166D01*
X135093856Y-91524221D01*
X135095000Y-91547500D01*
X135095000Y-92122500D01*
X135093856Y-92145779D01*
X135090437Y-92168834D01*
X135084773Y-92191443D01*
X135076921Y-92213387D01*
X135066956Y-92234457D01*
X135054974Y-92254448D01*
X135041090Y-92273168D01*
X135025438Y-92290438D01*
X135008168Y-92306090D01*
X134989448Y-92319974D01*
X134969457Y-92331956D01*
X134948387Y-92341921D01*
X134926443Y-92349773D01*
X134903834Y-92355437D01*
X134880779Y-92358856D01*
X134857500Y-92360000D01*
X134382500Y-92360000D01*
X134359221Y-92358856D01*
X134336166Y-92355437D01*
X134313557Y-92349773D01*
X134291613Y-92341921D01*
X134270543Y-92331956D01*
X134250552Y-92319974D01*
X134231832Y-92306090D01*
X134214562Y-92290438D01*
X134198910Y-92273168D01*
X134185026Y-92254448D01*
X134173044Y-92234457D01*
X134163079Y-92213387D01*
X134155227Y-92191443D01*
X134149563Y-92168834D01*
X134146144Y-92145779D01*
X134145000Y-92122500D01*
X134145000Y-91547500D01*
X134146144Y-91524221D01*
X134149563Y-91501166D01*
X134155227Y-91478557D01*
X134163079Y-91456613D01*
X134173044Y-91435543D01*
X134185026Y-91415552D01*
X134198910Y-91396832D01*
X134214562Y-91379562D01*
X134231832Y-91363910D01*
X134250552Y-91350026D01*
X134270543Y-91338044D01*
X134291613Y-91328079D01*
X134313557Y-91320227D01*
X134336166Y-91314563D01*
X134359221Y-91311144D01*
X134382500Y-91310000D01*
X134857500Y-91310000D01*
X134880779Y-91311144D01*
G37*
G04 #@! TD.AperFunction*
G04 #@! TA.AperFunction,SMDPad,CuDef*
G36*
X134880779Y-93061144D02*
G01*
X134903834Y-93064563D01*
X134926443Y-93070227D01*
X134948387Y-93078079D01*
X134969457Y-93088044D01*
X134989448Y-93100026D01*
X135008168Y-93113910D01*
X135025438Y-93129562D01*
X135041090Y-93146832D01*
X135054974Y-93165552D01*
X135066956Y-93185543D01*
X135076921Y-93206613D01*
X135084773Y-93228557D01*
X135090437Y-93251166D01*
X135093856Y-93274221D01*
X135095000Y-93297500D01*
X135095000Y-93872500D01*
X135093856Y-93895779D01*
X135090437Y-93918834D01*
X135084773Y-93941443D01*
X135076921Y-93963387D01*
X135066956Y-93984457D01*
X135054974Y-94004448D01*
X135041090Y-94023168D01*
X135025438Y-94040438D01*
X135008168Y-94056090D01*
X134989448Y-94069974D01*
X134969457Y-94081956D01*
X134948387Y-94091921D01*
X134926443Y-94099773D01*
X134903834Y-94105437D01*
X134880779Y-94108856D01*
X134857500Y-94110000D01*
X134382500Y-94110000D01*
X134359221Y-94108856D01*
X134336166Y-94105437D01*
X134313557Y-94099773D01*
X134291613Y-94091921D01*
X134270543Y-94081956D01*
X134250552Y-94069974D01*
X134231832Y-94056090D01*
X134214562Y-94040438D01*
X134198910Y-94023168D01*
X134185026Y-94004448D01*
X134173044Y-93984457D01*
X134163079Y-93963387D01*
X134155227Y-93941443D01*
X134149563Y-93918834D01*
X134146144Y-93895779D01*
X134145000Y-93872500D01*
X134145000Y-93297500D01*
X134146144Y-93274221D01*
X134149563Y-93251166D01*
X134155227Y-93228557D01*
X134163079Y-93206613D01*
X134173044Y-93185543D01*
X134185026Y-93165552D01*
X134198910Y-93146832D01*
X134214562Y-93129562D01*
X134231832Y-93113910D01*
X134250552Y-93100026D01*
X134270543Y-93088044D01*
X134291613Y-93078079D01*
X134313557Y-93070227D01*
X134336166Y-93064563D01*
X134359221Y-93061144D01*
X134382500Y-93060000D01*
X134857500Y-93060000D01*
X134880779Y-93061144D01*
G37*
G04 #@! TD.AperFunction*
G04 #@! TA.AperFunction,SMDPad,CuDef*
G36*
X149295779Y-92236144D02*
G01*
X149318834Y-92239563D01*
X149341443Y-92245227D01*
X149363387Y-92253079D01*
X149384457Y-92263044D01*
X149404448Y-92275026D01*
X149423168Y-92288910D01*
X149440438Y-92304562D01*
X149456090Y-92321832D01*
X149469974Y-92340552D01*
X149481956Y-92360543D01*
X149491921Y-92381613D01*
X149499773Y-92403557D01*
X149505437Y-92426166D01*
X149508856Y-92449221D01*
X149510000Y-92472500D01*
X149510000Y-92947500D01*
X149508856Y-92970779D01*
X149505437Y-92993834D01*
X149499773Y-93016443D01*
X149491921Y-93038387D01*
X149481956Y-93059457D01*
X149469974Y-93079448D01*
X149456090Y-93098168D01*
X149440438Y-93115438D01*
X149423168Y-93131090D01*
X149404448Y-93144974D01*
X149384457Y-93156956D01*
X149363387Y-93166921D01*
X149341443Y-93174773D01*
X149318834Y-93180437D01*
X149295779Y-93183856D01*
X149272500Y-93185000D01*
X148697500Y-93185000D01*
X148674221Y-93183856D01*
X148651166Y-93180437D01*
X148628557Y-93174773D01*
X148606613Y-93166921D01*
X148585543Y-93156956D01*
X148565552Y-93144974D01*
X148546832Y-93131090D01*
X148529562Y-93115438D01*
X148513910Y-93098168D01*
X148500026Y-93079448D01*
X148488044Y-93059457D01*
X148478079Y-93038387D01*
X148470227Y-93016443D01*
X148464563Y-92993834D01*
X148461144Y-92970779D01*
X148460000Y-92947500D01*
X148460000Y-92472500D01*
X148461144Y-92449221D01*
X148464563Y-92426166D01*
X148470227Y-92403557D01*
X148478079Y-92381613D01*
X148488044Y-92360543D01*
X148500026Y-92340552D01*
X148513910Y-92321832D01*
X148529562Y-92304562D01*
X148546832Y-92288910D01*
X148565552Y-92275026D01*
X148585543Y-92263044D01*
X148606613Y-92253079D01*
X148628557Y-92245227D01*
X148651166Y-92239563D01*
X148674221Y-92236144D01*
X148697500Y-92235000D01*
X149272500Y-92235000D01*
X149295779Y-92236144D01*
G37*
G04 #@! TD.AperFunction*
G04 #@! TA.AperFunction,SMDPad,CuDef*
G36*
X151045779Y-92236144D02*
G01*
X151068834Y-92239563D01*
X151091443Y-92245227D01*
X151113387Y-92253079D01*
X151134457Y-92263044D01*
X151154448Y-92275026D01*
X151173168Y-92288910D01*
X151190438Y-92304562D01*
X151206090Y-92321832D01*
X151219974Y-92340552D01*
X151231956Y-92360543D01*
X151241921Y-92381613D01*
X151249773Y-92403557D01*
X151255437Y-92426166D01*
X151258856Y-92449221D01*
X151260000Y-92472500D01*
X151260000Y-92947500D01*
X151258856Y-92970779D01*
X151255437Y-92993834D01*
X151249773Y-93016443D01*
X151241921Y-93038387D01*
X151231956Y-93059457D01*
X151219974Y-93079448D01*
X151206090Y-93098168D01*
X151190438Y-93115438D01*
X151173168Y-93131090D01*
X151154448Y-93144974D01*
X151134457Y-93156956D01*
X151113387Y-93166921D01*
X151091443Y-93174773D01*
X151068834Y-93180437D01*
X151045779Y-93183856D01*
X151022500Y-93185000D01*
X150447500Y-93185000D01*
X150424221Y-93183856D01*
X150401166Y-93180437D01*
X150378557Y-93174773D01*
X150356613Y-93166921D01*
X150335543Y-93156956D01*
X150315552Y-93144974D01*
X150296832Y-93131090D01*
X150279562Y-93115438D01*
X150263910Y-93098168D01*
X150250026Y-93079448D01*
X150238044Y-93059457D01*
X150228079Y-93038387D01*
X150220227Y-93016443D01*
X150214563Y-92993834D01*
X150211144Y-92970779D01*
X150210000Y-92947500D01*
X150210000Y-92472500D01*
X150211144Y-92449221D01*
X150214563Y-92426166D01*
X150220227Y-92403557D01*
X150228079Y-92381613D01*
X150238044Y-92360543D01*
X150250026Y-92340552D01*
X150263910Y-92321832D01*
X150279562Y-92304562D01*
X150296832Y-92288910D01*
X150315552Y-92275026D01*
X150335543Y-92263044D01*
X150356613Y-92253079D01*
X150378557Y-92245227D01*
X150401166Y-92239563D01*
X150424221Y-92236144D01*
X150447500Y-92235000D01*
X151022500Y-92235000D01*
X151045779Y-92236144D01*
G37*
G04 #@! TD.AperFunction*
G04 #@! TA.AperFunction,SMDPad,CuDef*
G36*
X145040779Y-91311144D02*
G01*
X145063834Y-91314563D01*
X145086443Y-91320227D01*
X145108387Y-91328079D01*
X145129457Y-91338044D01*
X145149448Y-91350026D01*
X145168168Y-91363910D01*
X145185438Y-91379562D01*
X145201090Y-91396832D01*
X145214974Y-91415552D01*
X145226956Y-91435543D01*
X145236921Y-91456613D01*
X145244773Y-91478557D01*
X145250437Y-91501166D01*
X145253856Y-91524221D01*
X145255000Y-91547500D01*
X145255000Y-92122500D01*
X145253856Y-92145779D01*
X145250437Y-92168834D01*
X145244773Y-92191443D01*
X145236921Y-92213387D01*
X145226956Y-92234457D01*
X145214974Y-92254448D01*
X145201090Y-92273168D01*
X145185438Y-92290438D01*
X145168168Y-92306090D01*
X145149448Y-92319974D01*
X145129457Y-92331956D01*
X145108387Y-92341921D01*
X145086443Y-92349773D01*
X145063834Y-92355437D01*
X145040779Y-92358856D01*
X145017500Y-92360000D01*
X144542500Y-92360000D01*
X144519221Y-92358856D01*
X144496166Y-92355437D01*
X144473557Y-92349773D01*
X144451613Y-92341921D01*
X144430543Y-92331956D01*
X144410552Y-92319974D01*
X144391832Y-92306090D01*
X144374562Y-92290438D01*
X144358910Y-92273168D01*
X144345026Y-92254448D01*
X144333044Y-92234457D01*
X144323079Y-92213387D01*
X144315227Y-92191443D01*
X144309563Y-92168834D01*
X144306144Y-92145779D01*
X144305000Y-92122500D01*
X144305000Y-91547500D01*
X144306144Y-91524221D01*
X144309563Y-91501166D01*
X144315227Y-91478557D01*
X144323079Y-91456613D01*
X144333044Y-91435543D01*
X144345026Y-91415552D01*
X144358910Y-91396832D01*
X144374562Y-91379562D01*
X144391832Y-91363910D01*
X144410552Y-91350026D01*
X144430543Y-91338044D01*
X144451613Y-91328079D01*
X144473557Y-91320227D01*
X144496166Y-91314563D01*
X144519221Y-91311144D01*
X144542500Y-91310000D01*
X145017500Y-91310000D01*
X145040779Y-91311144D01*
G37*
G04 #@! TD.AperFunction*
G04 #@! TA.AperFunction,SMDPad,CuDef*
G36*
X145040779Y-93061144D02*
G01*
X145063834Y-93064563D01*
X145086443Y-93070227D01*
X145108387Y-93078079D01*
X145129457Y-93088044D01*
X145149448Y-93100026D01*
X145168168Y-93113910D01*
X145185438Y-93129562D01*
X145201090Y-93146832D01*
X145214974Y-93165552D01*
X145226956Y-93185543D01*
X145236921Y-93206613D01*
X145244773Y-93228557D01*
X145250437Y-93251166D01*
X145253856Y-93274221D01*
X145255000Y-93297500D01*
X145255000Y-93872500D01*
X145253856Y-93895779D01*
X145250437Y-93918834D01*
X145244773Y-93941443D01*
X145236921Y-93963387D01*
X145226956Y-93984457D01*
X145214974Y-94004448D01*
X145201090Y-94023168D01*
X145185438Y-94040438D01*
X145168168Y-94056090D01*
X145149448Y-94069974D01*
X145129457Y-94081956D01*
X145108387Y-94091921D01*
X145086443Y-94099773D01*
X145063834Y-94105437D01*
X145040779Y-94108856D01*
X145017500Y-94110000D01*
X144542500Y-94110000D01*
X144519221Y-94108856D01*
X144496166Y-94105437D01*
X144473557Y-94099773D01*
X144451613Y-94091921D01*
X144430543Y-94081956D01*
X144410552Y-94069974D01*
X144391832Y-94056090D01*
X144374562Y-94040438D01*
X144358910Y-94023168D01*
X144345026Y-94004448D01*
X144333044Y-93984457D01*
X144323079Y-93963387D01*
X144315227Y-93941443D01*
X144309563Y-93918834D01*
X144306144Y-93895779D01*
X144305000Y-93872500D01*
X144305000Y-93297500D01*
X144306144Y-93274221D01*
X144309563Y-93251166D01*
X144315227Y-93228557D01*
X144323079Y-93206613D01*
X144333044Y-93185543D01*
X144345026Y-93165552D01*
X144358910Y-93146832D01*
X144374562Y-93129562D01*
X144391832Y-93113910D01*
X144410552Y-93100026D01*
X144430543Y-93088044D01*
X144451613Y-93078079D01*
X144473557Y-93070227D01*
X144496166Y-93064563D01*
X144519221Y-93061144D01*
X144542500Y-93060000D01*
X145017500Y-93060000D01*
X145040779Y-93061144D01*
G37*
G04 #@! TD.AperFunction*
D20*
X145820000Y-77470000D03*
X148820000Y-76520000D03*
X148820000Y-78420000D03*
X135660000Y-77470000D03*
X138660000Y-76520000D03*
X138660000Y-78420000D03*
X125500000Y-77470000D03*
X128500000Y-76520000D03*
X128500000Y-78420000D03*
X115340000Y-77470000D03*
X118340000Y-76520000D03*
X118340000Y-78420000D03*
X105410000Y-77470000D03*
X108410000Y-76520000D03*
X108410000Y-78420000D03*
X95020000Y-77470000D03*
X98020000Y-76520000D03*
X98020000Y-78420000D03*
X84860000Y-77470000D03*
X87860000Y-76520000D03*
X87860000Y-78420000D03*
X74700000Y-77470000D03*
X77700000Y-76520000D03*
X77700000Y-78420000D03*
X77700000Y-97790000D03*
X74700000Y-98740000D03*
X74700000Y-96840000D03*
X87860000Y-97790000D03*
X84860000Y-98740000D03*
X84860000Y-96840000D03*
X98250000Y-97790000D03*
X95250000Y-98740000D03*
X95250000Y-96840000D03*
X108180000Y-97790000D03*
X105180000Y-98740000D03*
X105180000Y-96840000D03*
X118340000Y-97790000D03*
X115340000Y-98740000D03*
X115340000Y-96840000D03*
X128500000Y-97790000D03*
X125500000Y-98740000D03*
X125500000Y-96840000D03*
X138660000Y-97790000D03*
X135660000Y-98740000D03*
X135660000Y-96840000D03*
X148820000Y-97790000D03*
X145820000Y-98740000D03*
X145820000Y-96840000D03*
D18*
X54356000Y-116332000D03*
D17*
X51816000Y-116332000D03*
X49276000Y-116332000D03*
X46736000Y-116332000D03*
G04 #@! TA.AperFunction,SMDPad,CuDef*
D19*
G36*
X60058505Y-117141204D02*
G01*
X60082773Y-117144804D01*
X60106572Y-117150765D01*
X60129671Y-117159030D01*
X60151850Y-117169520D01*
X60172893Y-117182132D01*
X60192599Y-117196747D01*
X60210777Y-117213223D01*
X60227253Y-117231401D01*
X60241868Y-117251107D01*
X60254480Y-117272150D01*
X60264970Y-117294329D01*
X60273235Y-117317428D01*
X60279196Y-117341227D01*
X60282796Y-117365495D01*
X60284000Y-117389999D01*
X60284000Y-118690001D01*
X60282796Y-118714505D01*
X60279196Y-118738773D01*
X60273235Y-118762572D01*
X60264970Y-118785671D01*
X60254480Y-118807850D01*
X60241868Y-118828893D01*
X60227253Y-118848599D01*
X60210777Y-118866777D01*
X60192599Y-118883253D01*
X60172893Y-118897868D01*
X60151850Y-118910480D01*
X60129671Y-118920970D01*
X60106572Y-118929235D01*
X60082773Y-118935196D01*
X60058505Y-118938796D01*
X60034001Y-118940000D01*
X59333999Y-118940000D01*
X59309495Y-118938796D01*
X59285227Y-118935196D01*
X59261428Y-118929235D01*
X59238329Y-118920970D01*
X59216150Y-118910480D01*
X59195107Y-118897868D01*
X59175401Y-118883253D01*
X59157223Y-118866777D01*
X59140747Y-118848599D01*
X59126132Y-118828893D01*
X59113520Y-118807850D01*
X59103030Y-118785671D01*
X59094765Y-118762572D01*
X59088804Y-118738773D01*
X59085204Y-118714505D01*
X59084000Y-118690001D01*
X59084000Y-117389999D01*
X59085204Y-117365495D01*
X59088804Y-117341227D01*
X59094765Y-117317428D01*
X59103030Y-117294329D01*
X59113520Y-117272150D01*
X59126132Y-117251107D01*
X59140747Y-117231401D01*
X59157223Y-117213223D01*
X59175401Y-117196747D01*
X59195107Y-117182132D01*
X59216150Y-117169520D01*
X59238329Y-117159030D01*
X59261428Y-117150765D01*
X59285227Y-117144804D01*
X59309495Y-117141204D01*
X59333999Y-117140000D01*
X60034001Y-117140000D01*
X60058505Y-117141204D01*
G37*
G04 #@! TD.AperFunction*
G04 #@! TA.AperFunction,SMDPad,CuDef*
G36*
X65658505Y-117141204D02*
G01*
X65682773Y-117144804D01*
X65706572Y-117150765D01*
X65729671Y-117159030D01*
X65751850Y-117169520D01*
X65772893Y-117182132D01*
X65792599Y-117196747D01*
X65810777Y-117213223D01*
X65827253Y-117231401D01*
X65841868Y-117251107D01*
X65854480Y-117272150D01*
X65864970Y-117294329D01*
X65873235Y-117317428D01*
X65879196Y-117341227D01*
X65882796Y-117365495D01*
X65884000Y-117389999D01*
X65884000Y-118690001D01*
X65882796Y-118714505D01*
X65879196Y-118738773D01*
X65873235Y-118762572D01*
X65864970Y-118785671D01*
X65854480Y-118807850D01*
X65841868Y-118828893D01*
X65827253Y-118848599D01*
X65810777Y-118866777D01*
X65792599Y-118883253D01*
X65772893Y-118897868D01*
X65751850Y-118910480D01*
X65729671Y-118920970D01*
X65706572Y-118929235D01*
X65682773Y-118935196D01*
X65658505Y-118938796D01*
X65634001Y-118940000D01*
X64933999Y-118940000D01*
X64909495Y-118938796D01*
X64885227Y-118935196D01*
X64861428Y-118929235D01*
X64838329Y-118920970D01*
X64816150Y-118910480D01*
X64795107Y-118897868D01*
X64775401Y-118883253D01*
X64757223Y-118866777D01*
X64740747Y-118848599D01*
X64726132Y-118828893D01*
X64713520Y-118807850D01*
X64703030Y-118785671D01*
X64694765Y-118762572D01*
X64688804Y-118738773D01*
X64685204Y-118714505D01*
X64684000Y-118690001D01*
X64684000Y-117389999D01*
X64685204Y-117365495D01*
X64688804Y-117341227D01*
X64694765Y-117317428D01*
X64703030Y-117294329D01*
X64713520Y-117272150D01*
X64726132Y-117251107D01*
X64740747Y-117231401D01*
X64757223Y-117213223D01*
X64775401Y-117196747D01*
X64795107Y-117182132D01*
X64816150Y-117169520D01*
X64838329Y-117159030D01*
X64861428Y-117150765D01*
X64885227Y-117144804D01*
X64909495Y-117141204D01*
X64933999Y-117140000D01*
X65634001Y-117140000D01*
X65658505Y-117141204D01*
G37*
G04 #@! TD.AperFunction*
G04 #@! TA.AperFunction,SMDPad,CuDef*
G36*
X61148703Y-114740722D02*
G01*
X61163264Y-114742882D01*
X61177543Y-114746459D01*
X61191403Y-114751418D01*
X61204710Y-114757712D01*
X61217336Y-114765280D01*
X61229159Y-114774048D01*
X61240066Y-114783934D01*
X61249952Y-114794841D01*
X61258720Y-114806664D01*
X61266288Y-114819290D01*
X61272582Y-114832597D01*
X61277541Y-114846457D01*
X61281118Y-114860736D01*
X61283278Y-114875297D01*
X61284000Y-114890000D01*
X61284000Y-116140000D01*
X61283278Y-116154703D01*
X61281118Y-116169264D01*
X61277541Y-116183543D01*
X61272582Y-116197403D01*
X61266288Y-116210710D01*
X61258720Y-116223336D01*
X61249952Y-116235159D01*
X61240066Y-116246066D01*
X61229159Y-116255952D01*
X61217336Y-116264720D01*
X61204710Y-116272288D01*
X61191403Y-116278582D01*
X61177543Y-116283541D01*
X61163264Y-116287118D01*
X61148703Y-116289278D01*
X61134000Y-116290000D01*
X60834000Y-116290000D01*
X60819297Y-116289278D01*
X60804736Y-116287118D01*
X60790457Y-116283541D01*
X60776597Y-116278582D01*
X60763290Y-116272288D01*
X60750664Y-116264720D01*
X60738841Y-116255952D01*
X60727934Y-116246066D01*
X60718048Y-116235159D01*
X60709280Y-116223336D01*
X60701712Y-116210710D01*
X60695418Y-116197403D01*
X60690459Y-116183543D01*
X60686882Y-116169264D01*
X60684722Y-116154703D01*
X60684000Y-116140000D01*
X60684000Y-114890000D01*
X60684722Y-114875297D01*
X60686882Y-114860736D01*
X60690459Y-114846457D01*
X60695418Y-114832597D01*
X60701712Y-114819290D01*
X60709280Y-114806664D01*
X60718048Y-114794841D01*
X60727934Y-114783934D01*
X60738841Y-114774048D01*
X60750664Y-114765280D01*
X60763290Y-114757712D01*
X60776597Y-114751418D01*
X60790457Y-114746459D01*
X60804736Y-114742882D01*
X60819297Y-114740722D01*
X60834000Y-114740000D01*
X61134000Y-114740000D01*
X61148703Y-114740722D01*
G37*
G04 #@! TD.AperFunction*
G04 #@! TA.AperFunction,SMDPad,CuDef*
G36*
X62148703Y-114740722D02*
G01*
X62163264Y-114742882D01*
X62177543Y-114746459D01*
X62191403Y-114751418D01*
X62204710Y-114757712D01*
X62217336Y-114765280D01*
X62229159Y-114774048D01*
X62240066Y-114783934D01*
X62249952Y-114794841D01*
X62258720Y-114806664D01*
X62266288Y-114819290D01*
X62272582Y-114832597D01*
X62277541Y-114846457D01*
X62281118Y-114860736D01*
X62283278Y-114875297D01*
X62284000Y-114890000D01*
X62284000Y-116140000D01*
X62283278Y-116154703D01*
X62281118Y-116169264D01*
X62277541Y-116183543D01*
X62272582Y-116197403D01*
X62266288Y-116210710D01*
X62258720Y-116223336D01*
X62249952Y-116235159D01*
X62240066Y-116246066D01*
X62229159Y-116255952D01*
X62217336Y-116264720D01*
X62204710Y-116272288D01*
X62191403Y-116278582D01*
X62177543Y-116283541D01*
X62163264Y-116287118D01*
X62148703Y-116289278D01*
X62134000Y-116290000D01*
X61834000Y-116290000D01*
X61819297Y-116289278D01*
X61804736Y-116287118D01*
X61790457Y-116283541D01*
X61776597Y-116278582D01*
X61763290Y-116272288D01*
X61750664Y-116264720D01*
X61738841Y-116255952D01*
X61727934Y-116246066D01*
X61718048Y-116235159D01*
X61709280Y-116223336D01*
X61701712Y-116210710D01*
X61695418Y-116197403D01*
X61690459Y-116183543D01*
X61686882Y-116169264D01*
X61684722Y-116154703D01*
X61684000Y-116140000D01*
X61684000Y-114890000D01*
X61684722Y-114875297D01*
X61686882Y-114860736D01*
X61690459Y-114846457D01*
X61695418Y-114832597D01*
X61701712Y-114819290D01*
X61709280Y-114806664D01*
X61718048Y-114794841D01*
X61727934Y-114783934D01*
X61738841Y-114774048D01*
X61750664Y-114765280D01*
X61763290Y-114757712D01*
X61776597Y-114751418D01*
X61790457Y-114746459D01*
X61804736Y-114742882D01*
X61819297Y-114740722D01*
X61834000Y-114740000D01*
X62134000Y-114740000D01*
X62148703Y-114740722D01*
G37*
G04 #@! TD.AperFunction*
G04 #@! TA.AperFunction,SMDPad,CuDef*
G36*
X63148703Y-114740722D02*
G01*
X63163264Y-114742882D01*
X63177543Y-114746459D01*
X63191403Y-114751418D01*
X63204710Y-114757712D01*
X63217336Y-114765280D01*
X63229159Y-114774048D01*
X63240066Y-114783934D01*
X63249952Y-114794841D01*
X63258720Y-114806664D01*
X63266288Y-114819290D01*
X63272582Y-114832597D01*
X63277541Y-114846457D01*
X63281118Y-114860736D01*
X63283278Y-114875297D01*
X63284000Y-114890000D01*
X63284000Y-116140000D01*
X63283278Y-116154703D01*
X63281118Y-116169264D01*
X63277541Y-116183543D01*
X63272582Y-116197403D01*
X63266288Y-116210710D01*
X63258720Y-116223336D01*
X63249952Y-116235159D01*
X63240066Y-116246066D01*
X63229159Y-116255952D01*
X63217336Y-116264720D01*
X63204710Y-116272288D01*
X63191403Y-116278582D01*
X63177543Y-116283541D01*
X63163264Y-116287118D01*
X63148703Y-116289278D01*
X63134000Y-116290000D01*
X62834000Y-116290000D01*
X62819297Y-116289278D01*
X62804736Y-116287118D01*
X62790457Y-116283541D01*
X62776597Y-116278582D01*
X62763290Y-116272288D01*
X62750664Y-116264720D01*
X62738841Y-116255952D01*
X62727934Y-116246066D01*
X62718048Y-116235159D01*
X62709280Y-116223336D01*
X62701712Y-116210710D01*
X62695418Y-116197403D01*
X62690459Y-116183543D01*
X62686882Y-116169264D01*
X62684722Y-116154703D01*
X62684000Y-116140000D01*
X62684000Y-114890000D01*
X62684722Y-114875297D01*
X62686882Y-114860736D01*
X62690459Y-114846457D01*
X62695418Y-114832597D01*
X62701712Y-114819290D01*
X62709280Y-114806664D01*
X62718048Y-114794841D01*
X62727934Y-114783934D01*
X62738841Y-114774048D01*
X62750664Y-114765280D01*
X62763290Y-114757712D01*
X62776597Y-114751418D01*
X62790457Y-114746459D01*
X62804736Y-114742882D01*
X62819297Y-114740722D01*
X62834000Y-114740000D01*
X63134000Y-114740000D01*
X63148703Y-114740722D01*
G37*
G04 #@! TD.AperFunction*
G04 #@! TA.AperFunction,SMDPad,CuDef*
G36*
X64148703Y-114740722D02*
G01*
X64163264Y-114742882D01*
X64177543Y-114746459D01*
X64191403Y-114751418D01*
X64204710Y-114757712D01*
X64217336Y-114765280D01*
X64229159Y-114774048D01*
X64240066Y-114783934D01*
X64249952Y-114794841D01*
X64258720Y-114806664D01*
X64266288Y-114819290D01*
X64272582Y-114832597D01*
X64277541Y-114846457D01*
X64281118Y-114860736D01*
X64283278Y-114875297D01*
X64284000Y-114890000D01*
X64284000Y-116140000D01*
X64283278Y-116154703D01*
X64281118Y-116169264D01*
X64277541Y-116183543D01*
X64272582Y-116197403D01*
X64266288Y-116210710D01*
X64258720Y-116223336D01*
X64249952Y-116235159D01*
X64240066Y-116246066D01*
X64229159Y-116255952D01*
X64217336Y-116264720D01*
X64204710Y-116272288D01*
X64191403Y-116278582D01*
X64177543Y-116283541D01*
X64163264Y-116287118D01*
X64148703Y-116289278D01*
X64134000Y-116290000D01*
X63834000Y-116290000D01*
X63819297Y-116289278D01*
X63804736Y-116287118D01*
X63790457Y-116283541D01*
X63776597Y-116278582D01*
X63763290Y-116272288D01*
X63750664Y-116264720D01*
X63738841Y-116255952D01*
X63727934Y-116246066D01*
X63718048Y-116235159D01*
X63709280Y-116223336D01*
X63701712Y-116210710D01*
X63695418Y-116197403D01*
X63690459Y-116183543D01*
X63686882Y-116169264D01*
X63684722Y-116154703D01*
X63684000Y-116140000D01*
X63684000Y-114890000D01*
X63684722Y-114875297D01*
X63686882Y-114860736D01*
X63690459Y-114846457D01*
X63695418Y-114832597D01*
X63701712Y-114819290D01*
X63709280Y-114806664D01*
X63718048Y-114794841D01*
X63727934Y-114783934D01*
X63738841Y-114774048D01*
X63750664Y-114765280D01*
X63763290Y-114757712D01*
X63776597Y-114751418D01*
X63790457Y-114746459D01*
X63804736Y-114742882D01*
X63819297Y-114740722D01*
X63834000Y-114740000D01*
X64134000Y-114740000D01*
X64148703Y-114740722D01*
G37*
G04 #@! TD.AperFunction*
D17*
X63500000Y-96012000D03*
X63500000Y-93472000D03*
X63500000Y-90932000D03*
X63500000Y-88392000D03*
X63500000Y-85852000D03*
X63500000Y-83312000D03*
X63500000Y-80772000D03*
X63500000Y-78232000D03*
X63500000Y-75692000D03*
X63500000Y-73152000D03*
X63500000Y-70612000D03*
D18*
X63500000Y-68072000D03*
D21*
X149820000Y-71120000D03*
X144820000Y-71120000D03*
X139700000Y-71120000D03*
X134700000Y-71120000D03*
X129500000Y-71120000D03*
X124500000Y-71120000D03*
X119380000Y-71120000D03*
X114380000Y-71120000D03*
X109180000Y-71120000D03*
X104180000Y-71120000D03*
X98980000Y-71120000D03*
X93980000Y-71120000D03*
X88860000Y-71120000D03*
X83860000Y-71120000D03*
X78700000Y-71120000D03*
X73700000Y-71120000D03*
X73740000Y-104140000D03*
X78740000Y-104140000D03*
X83900000Y-104140000D03*
X88900000Y-104140000D03*
X94020000Y-104140000D03*
X99020000Y-104140000D03*
X104180000Y-104140000D03*
X109180000Y-104140000D03*
X114300000Y-104140000D03*
X119300000Y-104140000D03*
X124540000Y-104140000D03*
X129540000Y-104140000D03*
X134660000Y-104140000D03*
X139660000Y-104140000D03*
X144860000Y-104140000D03*
X149860000Y-104140000D03*
D22*
X143256000Y-98552000D03*
X133096000Y-98552000D03*
X122936000Y-98552000D03*
X112776000Y-98552000D03*
X102616000Y-98552000D03*
X92456000Y-98552000D03*
X82296000Y-98552000D03*
X72136000Y-98552000D03*
X151384000Y-76200000D03*
X141224000Y-76200000D03*
X131064000Y-76200000D03*
X120904000Y-76200000D03*
X111252000Y-76200000D03*
X100584000Y-76200000D03*
X90424000Y-76200000D03*
X80264000Y-76200000D03*
D23*
X150876000Y-94996000D03*
X140716000Y-94996000D03*
X130556000Y-94996000D03*
X120396000Y-94996000D03*
X110236000Y-94996000D03*
X100076000Y-94996000D03*
X89916000Y-94996000D03*
X79756000Y-94996000D03*
X72644000Y-79756000D03*
X82804000Y-79756000D03*
X92964000Y-79756000D03*
X103632000Y-79756000D03*
X113284000Y-79756000D03*
X123444000Y-79756000D03*
X133604000Y-79756000D03*
X143764000Y-79756000D03*
X67564000Y-115824000D03*
X63500000Y-100076000D03*
X60960000Y-100076000D03*
X67564000Y-114300000D03*
D24*
X143444000Y-98740000D02*
X143256000Y-98552000D01*
X145820000Y-98740000D02*
X143444000Y-98740000D01*
X133284000Y-98740000D02*
X133096000Y-98552000D01*
X135660000Y-98740000D02*
X133284000Y-98740000D01*
X123124000Y-98740000D02*
X122936000Y-98552000D01*
X125500000Y-98740000D02*
X123124000Y-98740000D01*
X112964000Y-98740000D02*
X112776000Y-98552000D01*
X115340000Y-98740000D02*
X112964000Y-98740000D01*
X102804000Y-98740000D02*
X102616000Y-98552000D01*
X105180000Y-98740000D02*
X102804000Y-98740000D01*
X92644000Y-98740000D02*
X92456000Y-98552000D01*
X95250000Y-98740000D02*
X92644000Y-98740000D01*
X82484000Y-98740000D02*
X82296000Y-98552000D01*
X84860000Y-98740000D02*
X82484000Y-98740000D01*
X72324000Y-98740000D02*
X72136000Y-98552000D01*
X74700000Y-98740000D02*
X72324000Y-98740000D01*
X151064000Y-76520000D02*
X151384000Y-76200000D01*
X148820000Y-76520000D02*
X151064000Y-76520000D01*
X140904000Y-76520000D02*
X141224000Y-76200000D01*
X138660000Y-76520000D02*
X140904000Y-76520000D01*
X130744000Y-76520000D02*
X131064000Y-76200000D01*
X128500000Y-76520000D02*
X130744000Y-76520000D01*
X120584000Y-76520000D02*
X120904000Y-76200000D01*
X118340000Y-76520000D02*
X120584000Y-76520000D01*
X110932000Y-76520000D02*
X111252000Y-76200000D01*
X108410000Y-76520000D02*
X110932000Y-76520000D01*
X100264000Y-76520000D02*
X100584000Y-76200000D01*
X98020000Y-76520000D02*
X100264000Y-76520000D01*
X90104000Y-76520000D02*
X90424000Y-76200000D01*
X87860000Y-76520000D02*
X90104000Y-76520000D01*
X79944000Y-76520000D02*
X80264000Y-76200000D01*
X77700000Y-76520000D02*
X79944000Y-76520000D01*
D25*
X150735000Y-94855000D02*
X150876000Y-94996000D01*
X150735000Y-92710000D02*
X150735000Y-94855000D01*
X140575000Y-94855000D02*
X140716000Y-94996000D01*
X140575000Y-92710000D02*
X140575000Y-94855000D01*
X130415000Y-94855000D02*
X130556000Y-94996000D01*
X130415000Y-92710000D02*
X130415000Y-94855000D01*
X120255000Y-94855000D02*
X120396000Y-94996000D01*
X120255000Y-92710000D02*
X120255000Y-94855000D01*
X110095000Y-94855000D02*
X110236000Y-94996000D01*
X110095000Y-92710000D02*
X110095000Y-94855000D01*
X100165000Y-94907000D02*
X100076000Y-94996000D01*
X100165000Y-92710000D02*
X100165000Y-94907000D01*
X89775000Y-94855000D02*
X89916000Y-94996000D01*
X89775000Y-92710000D02*
X89775000Y-94855000D01*
X79615000Y-94855000D02*
X79756000Y-94996000D01*
X79615000Y-92710000D02*
X79615000Y-94855000D01*
X72785000Y-79897000D02*
X72644000Y-79756000D01*
X72785000Y-82550000D02*
X72785000Y-79897000D01*
X82945000Y-79897000D02*
X82804000Y-79756000D01*
X82945000Y-82550000D02*
X82945000Y-79897000D01*
X93105000Y-79897000D02*
X92964000Y-79756000D01*
X93105000Y-82550000D02*
X93105000Y-79897000D01*
X103495000Y-79893000D02*
X103632000Y-79756000D01*
X103495000Y-82550000D02*
X103495000Y-79893000D01*
X113425000Y-79897000D02*
X113284000Y-79756000D01*
X113425000Y-82550000D02*
X113425000Y-79897000D01*
X123585000Y-79897000D02*
X123444000Y-79756000D01*
X123585000Y-82550000D02*
X123585000Y-79897000D01*
X133745000Y-79897000D02*
X133604000Y-79756000D01*
X133745000Y-82550000D02*
X133745000Y-79897000D01*
X143905000Y-79897000D02*
X143764000Y-79756000D01*
X143905000Y-82550000D02*
X143905000Y-79897000D01*
X67255000Y-115515000D02*
X67564000Y-115824000D01*
X63984000Y-115515000D02*
X67255000Y-115515000D01*
D24*
X149860000Y-104140000D02*
X149860000Y-112776000D01*
X139660000Y-112736000D02*
X139700000Y-112776000D01*
X139660000Y-104140000D02*
X139660000Y-112736000D01*
X129540000Y-104140000D02*
X129540000Y-112776000D01*
X119300000Y-112696000D02*
X119380000Y-112776000D01*
X119300000Y-104140000D02*
X119300000Y-112696000D01*
X109180000Y-112736000D02*
X109220000Y-112776000D01*
X109180000Y-104140000D02*
X109180000Y-112736000D01*
X99020000Y-112736000D02*
X99060000Y-112776000D01*
X99020000Y-104140000D02*
X99020000Y-112736000D01*
X88900000Y-104140000D02*
X88900000Y-112776000D01*
X78740000Y-104140000D02*
X78740000Y-112776000D01*
X144780000Y-71080000D02*
X144820000Y-71120000D01*
X144780000Y-62484000D02*
X144780000Y-71080000D01*
X134620000Y-71040000D02*
X134700000Y-71120000D01*
X134620000Y-62484000D02*
X134620000Y-71040000D01*
X124460000Y-71080000D02*
X124500000Y-71120000D01*
X124460000Y-62484000D02*
X124460000Y-71080000D01*
X114300000Y-71040000D02*
X114380000Y-71120000D01*
X114300000Y-62484000D02*
X114300000Y-71040000D01*
X104140000Y-71080000D02*
X104180000Y-71120000D01*
X104140000Y-62484000D02*
X104140000Y-71080000D01*
X93980000Y-62484000D02*
X93980000Y-71120000D01*
X83820000Y-71080000D02*
X83860000Y-71120000D01*
X83820000Y-62484000D02*
X83820000Y-71080000D01*
X73660000Y-71080000D02*
X73700000Y-71120000D01*
X73660000Y-62484000D02*
X73660000Y-71080000D01*
D26*
X61984000Y-101592000D02*
X61984000Y-115515000D01*
X63500000Y-100076000D02*
X61984000Y-101592000D01*
X60984000Y-100100000D02*
X60960000Y-100076000D01*
X60984000Y-115515000D02*
X60984000Y-100100000D01*
X66040000Y-90932000D02*
X63500000Y-90932000D01*
X66548000Y-90424000D02*
X66040000Y-90932000D01*
X81934000Y-90424000D02*
X66548000Y-90424000D01*
X83345000Y-91835000D02*
X81934000Y-90424000D01*
X83820000Y-91835000D02*
X83345000Y-91835000D01*
X94210000Y-91162000D02*
X94210000Y-91835000D01*
X71530167Y-90004840D02*
X93052840Y-90004840D01*
X93052840Y-90004840D02*
X94210000Y-91162000D01*
X69917328Y-88392000D02*
X71530167Y-90004840D01*
X63500000Y-88392000D02*
X69917328Y-88392000D01*
X71697182Y-89601630D02*
X67947552Y-85852000D01*
X101431630Y-89601630D02*
X71697182Y-89601630D01*
X67947552Y-85852000D02*
X63500000Y-85852000D01*
X103665000Y-91835000D02*
X101431630Y-89601630D01*
X104140000Y-91835000D02*
X103665000Y-91835000D01*
X65977776Y-83312000D02*
X63500000Y-83312000D01*
X71628000Y-88962224D02*
X65977776Y-83312000D01*
X71864195Y-89198420D02*
X71628000Y-88962224D01*
X113074420Y-89198420D02*
X71864195Y-89198420D01*
X114300000Y-90424000D02*
X113074420Y-89198420D01*
X114300000Y-91835000D02*
X114300000Y-90424000D01*
X66040000Y-81280000D02*
X65532000Y-80772000D01*
X66040000Y-82804000D02*
X66040000Y-81280000D01*
X72031210Y-88795210D02*
X66040000Y-82804000D01*
X121945210Y-88795210D02*
X72031210Y-88795210D01*
X65532000Y-80772000D02*
X63500000Y-80772000D01*
X124460000Y-91310000D02*
X121945210Y-88795210D01*
X124460000Y-91835000D02*
X124460000Y-91310000D01*
X65443160Y-78232000D02*
X66459160Y-79248000D01*
X66459160Y-82643602D02*
X72207558Y-88392000D01*
X66459160Y-79248000D02*
X66459160Y-82643602D01*
X72207558Y-88392000D02*
X133604000Y-88392000D01*
X134620000Y-89408000D02*
X134620000Y-91835000D01*
X133604000Y-88392000D02*
X134620000Y-89408000D01*
X65443160Y-78232000D02*
X63500000Y-78232000D01*
X144780000Y-91835000D02*
X144780000Y-89408000D01*
X144780000Y-89408000D02*
X143256000Y-87884000D01*
X72269783Y-87884000D02*
X66862370Y-82476587D01*
X143256000Y-87884000D02*
X72269783Y-87884000D01*
X66862370Y-82476587D02*
X66862370Y-76514370D01*
X66862370Y-76514370D02*
X66040000Y-75692000D01*
X66040000Y-75692000D02*
X63500000Y-75692000D01*
X49276000Y-97028000D02*
X49276000Y-116332000D01*
X45720000Y-93472000D02*
X49276000Y-97028000D01*
X43180000Y-93472000D02*
X45720000Y-93472000D01*
X43180000Y-90932000D02*
X48768000Y-90932000D01*
X51816000Y-93980000D02*
X51816000Y-116332000D01*
X48768000Y-90932000D02*
X51816000Y-93980000D01*
X59436000Y-91440000D02*
X56388000Y-88392000D01*
X66548000Y-98552000D02*
X60960000Y-98552000D01*
X67056000Y-98044000D02*
X66548000Y-98552000D01*
X56388000Y-88392000D02*
X43180000Y-88392000D01*
X60960000Y-98552000D02*
X59436000Y-97028000D01*
X67056000Y-94996000D02*
X67056000Y-98044000D01*
X59436000Y-97028000D02*
X59436000Y-91440000D01*
X70104000Y-91948000D02*
X67056000Y-94996000D01*
X73072000Y-91948000D02*
X70104000Y-91948000D01*
X73185000Y-91835000D02*
X73072000Y-91948000D01*
X73660000Y-91835000D02*
X73185000Y-91835000D01*
X47752000Y-85852000D02*
X43180000Y-85852000D01*
X49784000Y-83820000D02*
X47752000Y-85852000D01*
X49784000Y-71120000D02*
X49784000Y-83820000D01*
X54864000Y-66040000D02*
X49784000Y-71120000D01*
X65853322Y-66040000D02*
X54864000Y-66040000D01*
X67265578Y-67452256D02*
X65853322Y-66040000D01*
X67265578Y-82309572D02*
X67265578Y-67452256D01*
X72332008Y-87376000D02*
X67265578Y-82309572D01*
X146434000Y-87376000D02*
X72332008Y-87376000D01*
X149860000Y-83950000D02*
X146434000Y-87376000D01*
X149860000Y-83425000D02*
X149860000Y-83950000D01*
X46736000Y-83312000D02*
X43180000Y-83312000D01*
X54356000Y-65532000D02*
X49276000Y-70612000D01*
X49276000Y-70612000D02*
X49276000Y-80772000D01*
X65915548Y-65532000D02*
X54356000Y-65532000D01*
X67668789Y-67285241D02*
X65915548Y-65532000D01*
X67668789Y-82142557D02*
X67668789Y-67285241D01*
X72394234Y-86868000D02*
X67668789Y-82142557D01*
X49276000Y-80772000D02*
X46736000Y-83312000D01*
X136782000Y-86868000D02*
X72394234Y-86868000D01*
X139700000Y-83950000D02*
X136782000Y-86868000D01*
X139700000Y-83425000D02*
X139700000Y-83950000D01*
X48768000Y-70104000D02*
X48768000Y-78740000D01*
X53848000Y-65024000D02*
X48768000Y-70104000D01*
X48768000Y-78740000D02*
X46736000Y-80772000D01*
X65977774Y-65024000D02*
X53848000Y-65024000D01*
X68072000Y-67118226D02*
X65977774Y-65024000D01*
X46736000Y-80772000D02*
X43180000Y-80772000D01*
X68072000Y-81975542D02*
X68072000Y-67118226D01*
X72456458Y-86360000D02*
X68072000Y-81975542D01*
X127130000Y-86360000D02*
X72456458Y-86360000D01*
X129540000Y-83950000D02*
X127130000Y-86360000D01*
X129540000Y-83425000D02*
X129540000Y-83950000D01*
X48260000Y-76708000D02*
X46736000Y-78232000D01*
X48260000Y-69596000D02*
X48260000Y-76708000D01*
X68491160Y-66967160D02*
X66040000Y-64516000D01*
X53340000Y-64516000D02*
X48260000Y-69596000D01*
X68491160Y-81824478D02*
X68491160Y-66967160D01*
X72518683Y-85852000D02*
X68491160Y-81824478D01*
X66040000Y-64516000D02*
X53340000Y-64516000D01*
X116478000Y-85852000D02*
X72518683Y-85852000D01*
X118905000Y-83425000D02*
X116478000Y-85852000D01*
X46736000Y-78232000D02*
X43180000Y-78232000D01*
X119380000Y-83425000D02*
X118905000Y-83425000D01*
X47752000Y-74676000D02*
X46736000Y-75692000D01*
X47752000Y-69088000D02*
X47752000Y-74676000D01*
X66102224Y-64008000D02*
X52832000Y-64008000D01*
X52832000Y-64008000D02*
X47752000Y-69088000D01*
X68658174Y-66563950D02*
X66102224Y-64008000D01*
X68894370Y-66800145D02*
X68658174Y-66563950D01*
X68894370Y-81657463D02*
X68894370Y-66800145D01*
X72580908Y-85344000D02*
X68894370Y-81657463D01*
X107056000Y-85344000D02*
X72580908Y-85344000D01*
X46736000Y-75692000D02*
X43180000Y-75692000D01*
X108975000Y-83425000D02*
X107056000Y-85344000D01*
X109450000Y-83425000D02*
X108975000Y-83425000D01*
X46228000Y-73152000D02*
X43180000Y-73152000D01*
X47244000Y-72136000D02*
X46228000Y-73152000D01*
X47244000Y-68580000D02*
X47244000Y-72136000D01*
X52324000Y-63500000D02*
X47244000Y-68580000D01*
X66164448Y-63500000D02*
X52324000Y-63500000D01*
X68825188Y-66160740D02*
X66164448Y-63500000D01*
X69297580Y-66633130D02*
X68825188Y-66160740D01*
X72643133Y-84836000D02*
X69297581Y-81490447D01*
X69297581Y-81490447D02*
X69297580Y-66633130D01*
X99060000Y-83950000D02*
X98174000Y-84836000D01*
X98174000Y-84836000D02*
X72643133Y-84836000D01*
X99060000Y-83425000D02*
X99060000Y-83950000D01*
X45720000Y-70612000D02*
X43180000Y-70612000D01*
X46736000Y-69596000D02*
X45720000Y-70612000D01*
X51878224Y-62992000D02*
X46736000Y-68134224D01*
X69700788Y-66466114D02*
X68992202Y-65757530D01*
X69700790Y-66800144D02*
X69700788Y-66466114D01*
X46736000Y-68134224D02*
X46736000Y-69596000D01*
X69700790Y-81323430D02*
X69700790Y-66800144D01*
X68992202Y-65757530D02*
X66226672Y-62992000D01*
X72705359Y-84328000D02*
X69700790Y-81323430D01*
X66226672Y-62992000D02*
X51878224Y-62992000D01*
X88522000Y-84328000D02*
X72705359Y-84328000D01*
X88900000Y-83950000D02*
X88522000Y-84328000D01*
X88900000Y-83425000D02*
X88900000Y-83950000D01*
X66288896Y-62484000D02*
X51308000Y-62484000D01*
X70103997Y-66299099D02*
X69159217Y-65354321D01*
X70103997Y-66547997D02*
X70103997Y-66299099D01*
X70104000Y-66548000D02*
X70103997Y-66547997D01*
X70104000Y-81156418D02*
X70104000Y-66548000D01*
X45720000Y-68072000D02*
X43180000Y-68072000D01*
X51308000Y-62484000D02*
X45720000Y-68072000D01*
X72372582Y-83425000D02*
X70104000Y-81156418D01*
X69159217Y-65354321D02*
X66288896Y-62484000D01*
X78740000Y-83425000D02*
X72372582Y-83425000D01*
D25*
X54356000Y-117486800D02*
X54356000Y-116332000D01*
X53478800Y-118364000D02*
X54356000Y-117486800D01*
X45212000Y-118364000D02*
X53478800Y-118364000D01*
X40132000Y-113284000D02*
X45212000Y-118364000D01*
X40132000Y-61468000D02*
X40132000Y-113284000D01*
X41148000Y-60452000D02*
X40132000Y-61468000D01*
X43180000Y-60452000D02*
X41148000Y-60452000D01*
X67564000Y-114300000D02*
X65532000Y-112268000D01*
X65532000Y-112268000D02*
X63500000Y-112268000D01*
X62984000Y-112784000D02*
X62984000Y-115515000D01*
X63500000Y-112268000D02*
X62984000Y-112784000D01*
X145820000Y-96135200D02*
X145820000Y-96840000D01*
X145820000Y-94150000D02*
X145820000Y-96135200D01*
X145255000Y-93585000D02*
X145820000Y-94150000D01*
X145255000Y-93585000D02*
X144780000Y-93585000D01*
X147020000Y-94150000D02*
X145820000Y-94150000D01*
X148460000Y-92710000D02*
X147020000Y-94150000D01*
X148985000Y-92710000D02*
X148460000Y-92710000D01*
X135660000Y-96135200D02*
X135660000Y-96840000D01*
X135660000Y-94150000D02*
X135660000Y-96135200D01*
X134620000Y-93585000D02*
X135095000Y-93585000D01*
X137030000Y-93980000D02*
X135636000Y-93980000D01*
X138300000Y-92710000D02*
X137030000Y-93980000D01*
X138825000Y-92710000D02*
X138300000Y-92710000D01*
X135636000Y-93980000D02*
X135660000Y-94150000D01*
X135095000Y-93585000D02*
X135636000Y-93980000D01*
X125500000Y-96135200D02*
X125500000Y-96840000D01*
X125500000Y-94150000D02*
X125500000Y-96135200D01*
X124935000Y-93585000D02*
X125500000Y-94150000D01*
X124460000Y-93585000D02*
X124935000Y-93585000D01*
X128140000Y-92710000D02*
X126700000Y-94150000D01*
X126700000Y-94150000D02*
X125500000Y-94150000D01*
X128665000Y-92710000D02*
X128140000Y-92710000D01*
X115340000Y-94150000D02*
X115340000Y-96135200D01*
X114775000Y-93585000D02*
X115340000Y-94150000D01*
X115340000Y-96135200D02*
X115340000Y-96840000D01*
X114300000Y-93585000D02*
X114775000Y-93585000D01*
X116540000Y-94150000D02*
X115340000Y-94150000D01*
X117980000Y-92710000D02*
X116540000Y-94150000D01*
X118505000Y-92710000D02*
X117980000Y-92710000D01*
X105180000Y-96135200D02*
X105180000Y-96840000D01*
X105180000Y-94150000D02*
X105180000Y-96135200D01*
X104615000Y-93585000D02*
X105180000Y-94150000D01*
X104140000Y-93585000D02*
X104615000Y-93585000D01*
X106380000Y-94150000D02*
X105180000Y-94150000D01*
X107820000Y-92710000D02*
X106380000Y-94150000D01*
X108345000Y-92710000D02*
X107820000Y-92710000D01*
X95250000Y-96135200D02*
X95250000Y-96840000D01*
X95250000Y-94150000D02*
X95250000Y-96135200D01*
X94685000Y-93585000D02*
X95250000Y-94150000D01*
X94210000Y-93585000D02*
X94685000Y-93585000D01*
X96690000Y-92710000D02*
X95250000Y-94150000D01*
X98415000Y-92710000D02*
X96690000Y-92710000D01*
X84860000Y-96135200D02*
X84860000Y-96840000D01*
X84860000Y-94150000D02*
X84860000Y-96135200D01*
X84295000Y-93585000D02*
X84860000Y-94150000D01*
X83820000Y-93585000D02*
X84295000Y-93585000D01*
X86060000Y-94150000D02*
X84860000Y-94150000D01*
X87500000Y-92710000D02*
X86060000Y-94150000D01*
X88025000Y-92710000D02*
X87500000Y-92710000D01*
X74700000Y-96135200D02*
X74700000Y-96840000D01*
X74700000Y-94150000D02*
X74700000Y-96135200D01*
X74135000Y-93585000D02*
X74700000Y-94150000D01*
X73660000Y-93585000D02*
X74135000Y-93585000D01*
X75900000Y-94150000D02*
X74700000Y-94150000D01*
X77340000Y-92710000D02*
X75900000Y-94150000D01*
X77865000Y-92710000D02*
X77340000Y-92710000D01*
X77700000Y-79124800D02*
X77700000Y-78420000D01*
X77700000Y-81110000D02*
X77700000Y-79124800D01*
X78265000Y-81675000D02*
X77700000Y-81110000D01*
X78740000Y-81675000D02*
X78265000Y-81675000D01*
X76500000Y-81110000D02*
X77700000Y-81110000D01*
X75060000Y-82550000D02*
X76500000Y-81110000D01*
X74535000Y-82550000D02*
X75060000Y-82550000D01*
X87860000Y-79124800D02*
X87860000Y-78420000D01*
X87860000Y-81110000D02*
X87860000Y-79124800D01*
X88425000Y-81675000D02*
X87860000Y-81110000D01*
X88900000Y-81675000D02*
X88425000Y-81675000D01*
X86660000Y-81110000D02*
X87860000Y-81110000D01*
X85220000Y-82550000D02*
X86660000Y-81110000D01*
X84695000Y-82550000D02*
X85220000Y-82550000D01*
X98020000Y-79124800D02*
X98020000Y-78420000D01*
X98020000Y-81110000D02*
X98020000Y-79124800D01*
X98585000Y-81675000D02*
X98020000Y-81110000D01*
X99060000Y-81675000D02*
X98585000Y-81675000D01*
X96820000Y-81110000D02*
X98020000Y-81110000D01*
X95380000Y-82550000D02*
X96820000Y-81110000D01*
X94855000Y-82550000D02*
X95380000Y-82550000D01*
X108410000Y-81110000D02*
X108410000Y-79124800D01*
X108975000Y-81675000D02*
X108410000Y-81110000D01*
X108410000Y-79124800D02*
X108410000Y-78420000D01*
X109450000Y-81675000D02*
X108975000Y-81675000D01*
X106970000Y-82550000D02*
X108410000Y-81110000D01*
X105245000Y-82550000D02*
X106970000Y-82550000D01*
X118340000Y-79124800D02*
X118340000Y-78420000D01*
X118340000Y-81110000D02*
X118340000Y-79124800D01*
X118905000Y-81675000D02*
X118340000Y-81110000D01*
X119380000Y-81675000D02*
X118905000Y-81675000D01*
X117140000Y-81110000D02*
X118340000Y-81110000D01*
X115700000Y-82550000D02*
X117140000Y-81110000D01*
X115175000Y-82550000D02*
X115700000Y-82550000D01*
X128500000Y-79124800D02*
X128500000Y-78420000D01*
X128500000Y-81110000D02*
X128500000Y-79124800D01*
X129065000Y-81675000D02*
X128500000Y-81110000D01*
X129540000Y-81675000D02*
X129065000Y-81675000D01*
X127300000Y-81110000D02*
X128500000Y-81110000D01*
X125860000Y-82550000D02*
X127300000Y-81110000D01*
X125335000Y-82550000D02*
X125860000Y-82550000D01*
X138660000Y-79124800D02*
X138660000Y-78420000D01*
X138660000Y-81110000D02*
X138660000Y-79124800D01*
X139225000Y-81675000D02*
X138660000Y-81110000D01*
X139700000Y-81675000D02*
X139225000Y-81675000D01*
X137460000Y-81110000D02*
X138660000Y-81110000D01*
X136020000Y-82550000D02*
X137460000Y-81110000D01*
X135495000Y-82550000D02*
X136020000Y-82550000D01*
X148820000Y-79124800D02*
X148820000Y-78420000D01*
X148820000Y-81110000D02*
X148820000Y-79124800D01*
X149385000Y-81675000D02*
X148820000Y-81110000D01*
X149860000Y-81675000D02*
X149385000Y-81675000D01*
X147620000Y-81110000D02*
X148820000Y-81110000D01*
X146180000Y-82550000D02*
X147620000Y-81110000D01*
X145655000Y-82550000D02*
X146180000Y-82550000D01*
D24*
X148820000Y-100180000D02*
X144860000Y-104140000D01*
X148820000Y-97790000D02*
X148820000Y-100180000D01*
X144860000Y-112696000D02*
X144780000Y-112776000D01*
X144860000Y-104140000D02*
X144860000Y-112696000D01*
X138660000Y-100140000D02*
X134660000Y-104140000D01*
X138660000Y-97790000D02*
X138660000Y-100140000D01*
X134660000Y-112736000D02*
X134620000Y-112776000D01*
X134660000Y-104140000D02*
X134660000Y-112736000D01*
X128500000Y-100180000D02*
X124540000Y-104140000D01*
X128500000Y-97790000D02*
X128500000Y-100180000D01*
X124540000Y-112696000D02*
X124460000Y-112776000D01*
X124540000Y-104140000D02*
X124540000Y-112696000D01*
X118340000Y-100100000D02*
X114300000Y-104140000D01*
X118340000Y-97790000D02*
X118340000Y-100100000D01*
X114300000Y-104140000D02*
X114300000Y-112776000D01*
X108180000Y-100140000D02*
X104180000Y-104140000D01*
X108180000Y-97790000D02*
X108180000Y-100140000D01*
X104180000Y-112736000D02*
X104140000Y-112776000D01*
X104180000Y-104140000D02*
X104180000Y-112736000D01*
X98250000Y-99910000D02*
X94020000Y-104140000D01*
X98250000Y-97790000D02*
X98250000Y-99910000D01*
X94020000Y-112736000D02*
X93980000Y-112776000D01*
X94020000Y-104140000D02*
X94020000Y-112736000D01*
X87860000Y-100180000D02*
X83900000Y-104140000D01*
X87860000Y-97790000D02*
X87860000Y-100180000D01*
X83900000Y-112696000D02*
X83820000Y-112776000D01*
X83900000Y-104140000D02*
X83900000Y-112696000D01*
X77700000Y-100180000D02*
X73740000Y-104140000D01*
X77700000Y-97790000D02*
X77700000Y-100180000D01*
X73740000Y-112696000D02*
X73660000Y-112776000D01*
X73740000Y-104140000D02*
X73740000Y-112696000D01*
X78740000Y-71080000D02*
X78700000Y-71120000D01*
X78740000Y-62484000D02*
X78740000Y-71080000D01*
X74700000Y-75120000D02*
X78700000Y-71120000D01*
X74700000Y-77470000D02*
X74700000Y-75120000D01*
X88900000Y-71080000D02*
X88860000Y-71120000D01*
X88900000Y-62484000D02*
X88900000Y-71080000D01*
X84860000Y-75120000D02*
X88860000Y-71120000D01*
X84860000Y-77470000D02*
X84860000Y-75120000D01*
X99060000Y-71040000D02*
X98980000Y-71120000D01*
X99060000Y-62484000D02*
X99060000Y-71040000D01*
X95020000Y-75080000D02*
X98980000Y-71120000D01*
X95020000Y-77470000D02*
X95020000Y-75080000D01*
X109220000Y-71080000D02*
X109180000Y-71120000D01*
X109220000Y-62484000D02*
X109220000Y-71080000D01*
X105410000Y-74890000D02*
X109180000Y-71120000D01*
X105410000Y-77470000D02*
X105410000Y-74890000D01*
X119380000Y-62484000D02*
X119380000Y-71120000D01*
X115340000Y-75160000D02*
X119380000Y-71120000D01*
X115340000Y-77470000D02*
X115340000Y-75160000D01*
X129540000Y-71080000D02*
X129500000Y-71120000D01*
X129540000Y-62484000D02*
X129540000Y-71080000D01*
X125500000Y-75120000D02*
X129500000Y-71120000D01*
X125500000Y-77470000D02*
X125500000Y-75120000D01*
X139700000Y-62484000D02*
X139700000Y-71120000D01*
X135660000Y-75160000D02*
X139700000Y-71120000D01*
X135660000Y-77470000D02*
X135660000Y-75160000D01*
X149860000Y-71080000D02*
X149820000Y-71120000D01*
X149860000Y-62484000D02*
X149860000Y-71080000D01*
X145820000Y-75120000D02*
X149820000Y-71120000D01*
X145820000Y-77470000D02*
X145820000Y-75120000D01*
M02*
