M48
INCH,TZ
T1C0.0150
T2C0.0300
T3C0.0315
T4C0.0394
T5C0.0433
T6C0.0512
%
G90
G05
T1
X24000Y-39400
X25000Y-39400
X26600Y-45000
X26600Y-45600
X28600Y-31400
X31400Y-37400
X32600Y-31400
X35400Y-37400
X36600Y-31400
X39400Y-37400
X40800Y-31400
X43400Y-37400
X44600Y-31400
X47400Y-37400
X48600Y-31400
X51400Y-37400
X52600Y-31400
X55400Y-37400
X56600Y-31400
X59400Y-37400
T2
X28400Y-38800
X31600Y-30000
X32400Y-38800
X35600Y-30000
X36400Y-38800
X39600Y-30000
X40400Y-38800
X43800Y-30000
X44400Y-38800
X47600Y-30000
X48400Y-38800
X51600Y-30000
X52400Y-38800
X55600Y-30000
X56400Y-38800
X59600Y-30000
T3
X61000Y-38600
X61787Y-38600
X61013Y-30400
X61800Y-30400
T4
X17000Y-22800
X17000Y-23800
X17000Y-24800
X17000Y-25800
X17000Y-26800
X17000Y-27800
X17000Y-28800
X17000Y-29800
X17000Y-30800
X17000Y-31800
X17000Y-32800
X17000Y-33800
X17000Y-34800
X17000Y-35800
X17000Y-36800
X17000Y-37800
X25000Y-26800
X25000Y-27800
X25000Y-28800
X25000Y-29800
X25000Y-30800
X25000Y-31800
X25000Y-32800
X25000Y-33800
X25000Y-34800
X25000Y-35800
X25000Y-36800
X25000Y-37800
X18400Y-45800
X19400Y-45800
X20400Y-45800
X21400Y-45800
T5
X61400Y-34000
X61400Y-35000
T6
X29000Y-44400
X31000Y-44400
X33000Y-44400
X35000Y-44400
X37000Y-44400
X39000Y-44400
X41000Y-44400
X43000Y-44400
X45000Y-44400
X47000Y-44400
X49000Y-44400
X51000Y-44400
X53000Y-44400
X55000Y-44400
X57000Y-44400
X59000Y-44400
X29000Y-24600
X31000Y-24600
X33000Y-24600
X35000Y-24600
X37000Y-24600
X39000Y-24600
X41000Y-24600
X43000Y-24600
X45000Y-24600
X47000Y-24600
X49000Y-24600
X51000Y-24600
X53000Y-24600
X55000Y-24600
X57000Y-24600
X59000Y-24600
T0
M30
